<?xml version="1.0" encoding="utf-8"?>
<!-- Generator: Adobe Illustrator 19.2.0, SVG Export Plug-In . SVG Version: 6.00 Build 0)  -->
<svg version="1.1" id="圖層_1" xmlns="http://www.w3.org/2000/svg" xmlns:xlink="http://www.w3.org/1999/xlink" x="0px" y="0px"
	 viewBox="0 0 89 78" style="enable-background:new 0 0 89 78;" xml:space="preserve">
<style type="text/css">
	.st0{fill:#F8CEAB;}
	.st1{fill:#110C0A;}
	.st2{fill:#724925;}
	.st3{fill:#926035;}
	.st4{fill:#F1B22D;}
	.st5{fill:#F9EC5D;}
	.st6{fill:#040404;}
	.st7{fill:#FEFEFE;}
	.st8{fill:#C6A689;}
	.st9{fill:#EAEAEA;}
</style>
<path class="st0" d="M27.8,73.1c4.4-2.2,9.1-3.7,14-4.4c0.8-0.1,1.5-0.4,2.1-0.9c2-1.6,4.1-3.4,6.8-3.9c3.4-0.7,6.7-1.5,10.1-2.3
	c-0.5-1.9-1.6-3.7-2.7-5.3c-0.4-0.6-0.5-1,0.3-1.4c7-4.1,10.6-14,7-22c0-0.1,0-0.2,0-0.3c-0.3-0.4-0.6-0.8-1-1.2
	c-0.4,0-0.7-0.1-1-0.3c-3.2-2.3-6.7-3.9-10.5-5.1c-0.3-0.1-1.2,0.3-1.7-0.2c-0.2-0.2-0.3-0.4-0.3-0.6c-0.7,0-1.5,0.1-2.3,0.1
	c-1.8,0.2-3.4,0.4-4.8,0.8c-2.7,1-5.5,1.9-8.1,3.3c-3.1,1.6-6,3.4-8.7,5.7c-0.7,0.6-1.1,0.7-1.7-0.2c-1.3-2.1-3-4.1-4.8-5.7
	c-2.8-2.4-5.5-2.4-8.2,0.1C9.5,32.1,8.4,35.9,8.1,40c-0.1,1.6,0.2,3.4-0.2,5c-0.2,0.8,0.6,1.5,0.2,2.3c0.2,0.5,0.3,0.9,0.2,1.4
	c0.2,2.8,1,5.4,3.2,7.4c0.3,0.3,0.4,0.5,0.2,0.9c-1.2,2.9-0.1,5.5,1.4,7.9c0.7,1.2,1.6,2.2,2.6,3.5c3.4,2.2,7.1,3.7,10.9,5.1
	C27,73.6,27.3,73.4,27.8,73.1z M43.4,49.7c4.9,1.1,9.7,1.4,14.7-0.4C54.7,52.8,45.7,52.4,43.4,49.7z M49.8,33
	c1.1-0.6,2.3-0.8,3.6-0.3c2.6,1,4.8,2.5,6.9,4.3c-3-0.8-5.9-1.8-9-1.7c-3.1,0.1-5.5,2-8.4,2.7C45.1,36.1,47.3,34.4,49.8,33z
	 M40.7,42.1c0.2-1.4,1.3-2,2.4-2.4c4.4-1.8,8.8-1.4,13,0.7c-0.9-0.2-1.8-0.4-2.8-0.6c-2.1-0.4-4.4-0.2-6.5,0.3
	c-0.4,0.1-0.8,0.2-1,0.6c4.5-0.9,8.7-0.2,12.7,2c0.5,0.3,1.3,0.5,0.8,1.4c0.6,0.5,0.1,0.9-0.1,1.3c-1.3,2.1-3.3,3.3-5.7,3.7
	c-2.7,0.4-5.3,0.7-8-0.5c-2.3-1-3.6-2.8-4-5.4c-0.9,0-1.9,0-3,0C39.2,42.5,40.1,42.6,40.7,42.1z M33.3,59.9c0.2-0.6,1.1-0.4,1.8-0.4
	c3.7-0.3,7-1.2,10.2-3.1c0.3-0.1,0.5-0.4,0.8-0.3c0.3-0.2,0.6-0.7,1-0.4c0.4,0.3,0,0.8-0.2,1.1c-1.6,3.3-4.2,5.4-7.8,6
	c-1.2,0.2-2.3-0.2-3.6-0.5c-0.4,0.1-0.8-0.2-1.1-0.4C34,61.3,33,60.8,33.3,59.9z M12.3,51.5h-0.1l0.1-0.1
	C12.3,51.3,12.4,51.4,12.3,51.5C12.4,51.4,12.3,51.5,12.3,51.5z M18.4,50.8c-1.1,1.7-2.7,2-5.4,0.7c0.8-0.1,1.5-0.2,2.1-0.2
	c-1.1-1.2-2.6-2.3-2.8-4.2c-0.1-1.2,0-2.2,0.9-3c-0.5-0.4-0.9-0.8-1.4-1.3c1.8-0.7,3.7-0.3,5.4-0.1c-0.3-0.9-1.3-0.8-2.1-1.6
	c2,0.2,3.7,0.7,5.4,1.7c-0.2-2-1.5-3.6-2.2-5.3c-0.2-0.5-0.6-1-0.5-1.6c-1.1-1.8-2.9-1.5-4.9-1.1c0.6-0.5,0.9-0.7,1.1-0.9
	c3-2.2,3.9-2,5.5,1.3c0.4,0.9,1.1,1.7,1,2.8c1.8,2.1,1.4,4.6,0.9,7.1c0.6,2.2-0.1,4.1-2.1,4.9c-0.1,0.2-0.3,0.4-0.4,0.6
	C19.2,51.3,18.6,50.7,18.4,50.8z M19.8,55.1c-0.1-0.3-0.3-0.7,0-1c0.3-0.3,0.6,0,0.8,0.1c2.7,1.7,5.1,0.9,7.7-0.2
	c0.2-0.1,0.4-0.2,0.7-0.3c0.6-0.2,1.4-1,1.9-0.4c0.5,0.6-0.1,1.4-0.5,2c-1.3,2.2-3.7,2.1-5.4,2.5C22.2,58,20.4,56.8,19.8,55.1z"/>
<path class="st1" d="M3,22.9C4.3,17,7.8,12.3,11.9,8c1.2-1.2,2.5-2.4,3.7-3.6c0.7-0.8,1.3-0.7,2.1-0.1c2.5,2,5.3,3.2,8.4,3.6
	c2.5,0.3,4.7-0.7,7-1.4c8.4-2.3,16.9-3,25.2,0.1C69.9,11,77.8,18.9,80.9,31.2c0.2,0.9,0.4,1.8,0.4,2.7c0.1,0.9,0,1.8,0,2.9
	c-0.6-0.4-0.8-1-1.1-1.5c-6.6-10.6-16.2-16.9-28.5-19C49.1,15.9,46.6,16,44,16c-0.7,0-0.9,0-0.8-0.9c0.6-4.6-2.3-7.3-6.9-6.5
	c-3.2,0.6-5.5,2.3-6.7,5.6c-0.9-2.5-2.3-4.2-4.9-4.7c-2.8-0.5-6.1,1.6-6.8,4.3c-0.2,0.9-0.2,1.8,0.4,2.6c0.7,1,0.2,1.1-0.6,1.3
	c-5,1.1-9.3,3.5-12.1,7.9c-0.9,1.4-1.6,3-2.5,4.8C2.4,27.6,2.5,25.3,3,22.9z"/>
<path class="st2" d="M76.9,41.9c-3-4.4-6.4-8.3-10.6-11.7c-4.8-3.9-10.2-6.3-16.5-6.3c-3.3,0-6.5,0-9.8,0c-1.8,0-3.6-0.4-5.3-1
	c-2.2-0.8-3.7-2.4-4.8-4.9c-0.5,3.1-2.3,4.4-4.7,5.1c-1.6,0.4-3.2,0.7-4.9,0.8c-6.9,0.4-12,5.1-13,12L7.3,36l-0.1,1.1c0,0,0,0,0,0
	c0,0.2,0,0.4-0.1,0.6L7,38L7,39c0,0.1-0.1,0.1-0.1,0.2c-0.2,3,0,5.9,1.7,8.5c0.4-0.8-0.4-1.6-0.2-2.3c0.4-1.6,0.1-3.3,0.2-4.9
	c0.3-4,1.3-7.7,4.3-10.6c2.6-2.5,5.3-2.5,8-0.1c1.9,1.6,3.4,3.6,4.7,5.6c0.7,0.9,1.1,0.8,1.9,0.2c2.6-2.2,5.5-4,8.5-5.6
	c2.5-1.3,5.3-2.1,7.9-3.2c0,0,0,0,0,0l0.5-0.1c2.2-0.3,4.4-0.8,6.5-0.7c1.3-0.2,3.5-0.3,6,0.5c1,0.3,3.1,1,4.9,2.9
	c0.6,0.6,1,1.2,1.3,1.6c0,0.2,0.1,0.5,0.2,0.8c0.4,0.7,1,1.1,1.2,1.2c0,0.1,0.1,0.2,0.1,0.2c0.1,0.1,0.1,0.2,0.2,0.3
	c0.1,0.1,0.2,0.2,0.2,0.3c0.2,12.1-3.9,18.3-6.9,21.5c-0.2,0.2-0.4,0.4-0.6,0.6c-0.1,0.4,0.2,0.7,0.3,0.8c0.9,1.1,2.4,4.3,2.6,5.1
	c0.4,1.1,0.5,2.8-1,5.4c1.2-0.1,2.8-0.5,4.5-1.4c1-0.5,2.2-1.3,3-2.7c0.4-0.7,0.6-1.3,0.7-1.7C68,60,68,58.8,68,58.5
	c-0.2-7.8,3.5-11.8,3.5-11.8c0.7-0.8,2-1.9,4.3-2.6c0,0,2.5,0,2.5,0S77.4,42.6,76.9,41.9z"/>
<g>
	<g>
		<path class="st1" d="M35.4,10.2L35.4,10.2L35.4,10.2L35.4,10.2z"/>
		<path class="st0" d="M27.8,73.1c4.3-2.2,8.9-3.6,13.7-4.3c0.8-0.1,1.5-0.4,2.1-0.9c2-1.6,4-3.3,6.7-3.8c3.3-0.7,6.6-1.5,9.9-2.3
			c-0.5-1.9-1.6-3.6-2.6-5.2c-0.4-0.6-0.5-1,0.3-1.4c6.9-4,10.4-13.8,6.9-21.7c0-0.1,0-0.2,0-0.3c-0.3-0.4-0.6-0.8-1-1.2
			c-0.4,0-0.7-0.1-1-0.3c-3.1-2.3-6.6-3.8-10.3-5c-0.3-0.1-1.2,0.2-1.7-0.2c-0.2-0.2-0.3-0.4-0.3-0.6c-0.7,0-1.5,0.1-2.2,0.1
			c-1.7,0.2-3.3,0.4-4.7,0.8c-2.6,1-5.4,1.9-7.9,3.2c-3,1.6-5.9,3.3-8.5,5.6c-0.7,0.6-1.1,0.7-1.7-0.2c-1.3-2.1-2.9-4-4.7-5.6
			c-2.7-2.4-5.4-2.4-8,0.1c-3,2.8-4,6.6-4.3,10.6c-0.1,1.6,0.2,3.3-0.2,4.9c-0.2,0.8,0.6,1.5,0.2,2.3c0.2,0.5,0.3,0.9,0.2,1.4
			c0.2,2.8,1,5.3,3.1,7.3c0.3,0.3,0.4,0.5,0.2,0.9c-1.2,2.9-0.1,5.4,1.4,7.8c0.7,1.2,1.6,2.2,2.5,3.4c3.3,2.2,7,3.6,10.7,5
			C27,73.6,27.3,73.4,27.8,73.1z M43.1,50.1c4.8,1.1,9.5,1.4,14.4-0.4C54.1,53.1,45.3,52.7,43.1,50.1z M49.3,33.6
			c1.1-0.6,2.3-0.8,3.5-0.3c2.5,1,4.7,2.5,6.8,4.2c-2.9-0.8-5.8-1.8-8.8-1.7s-5.4,2-8.2,2.7C44.7,36.7,46.9,35,49.3,33.6z
			 M40.4,42.6c0.2-1.4,1.3-2,2.4-2.4c4.3-1.8,8.6-1.4,12.7,0.7c-0.9-0.2-1.8-0.4-2.7-0.6c-2.1-0.4-4.3-0.2-6.4,0.3
			c-0.4,0.1-0.8,0.2-1,0.6c4.4-0.9,8.5-0.2,12.4,2c0.5,0.3,1.3,0.5,0.8,1.4c0.6,0.5,0.1,0.9-0.1,1.3c-1.3,2.1-3.2,3.2-5.6,3.6
			c-2.6,0.4-5.2,0.7-7.8-0.5c-2.3-1-3.5-2.8-3.9-5.3c-0.9,0-1.9,0-2.9,0C38.9,43,39.8,43.1,40.4,42.6z M33.2,60.1
			c0.2-0.6,1.1-0.4,1.8-0.4c3.6-0.3,6.9-1.2,10-3.1c0.3-0.1,0.5-0.4,0.8-0.3c0.3-0.2,0.6-0.7,1-0.4s0,0.8-0.2,1.1
			c-1.6,3.2-4.1,5.3-7.6,5.9c-1.2,0.2-2.3-0.2-3.5-0.5c-0.4,0.1-0.8-0.2-1.1-0.4C33.8,61.5,32.9,61,33.2,60.1z M12.6,51.8h-0.1H12.6
			C12.6,51.6,12.7,51.7,12.6,51.8C12.7,51.7,12.6,51.8,12.6,51.8z M18.6,51.2c-1.1,1.7-2.6,2-5.3,0.7c0.8-0.1,1.5-0.2,2.1-0.2
			c-1.1-1.2-2.5-2.3-2.7-4.1c-0.1-1.2,0-2.2,0.9-3c-0.5-0.4-0.9-0.8-1.4-1.3c1.8-0.7,3.6-0.3,5.3-0.1c-0.3-0.9-1.3-0.8-2.1-1.6
			c2,0.2,3.6,0.7,5.3,1.7c-0.2-2-1.5-3.5-2.2-5.2c-0.2-0.5-0.6-1-0.5-1.6c-1.1-1.8-2.8-1.5-4.8-1.1c0.6-0.5,0.9-0.7,1.1-0.9
			c2.9-2.2,3.8-2,5.4,1.3c0.4,0.9,1.1,1.7,1,2.8c1.8,2.1,1.4,4.5,0.9,7c0.6,2.2-0.1,4-2.1,4.8c-0.1,0.2-0.3,0.4-0.4,0.6
			C19.3,51.6,18.8,51.1,18.6,51.2z M19.9,55.4c-0.1-0.3-0.3-0.7,0-1s0.6,0,0.8,0.1c2.6,1.7,5,0.9,7.5-0.2c0.2-0.1,0.4-0.2,0.7-0.3
			c0.6-0.2,1.4-1,1.9-0.4s-0.1,1.4-0.5,2c-1.3,2.2-3.6,2.1-5.3,2.5C22.3,58.2,20.5,57.1,19.9,55.4z"/>
		<path class="st0" d="M18.6,51.2L18.6,51.2L18.6,51.2z"/>
		<path class="st3" d="M81.3,36.7c-0.6-0.4-0.8-1-1.1-1.5c-6.6-10.6-16.2-16.9-28.5-19c-2.6-0.4-5.1-0.3-7.7-0.3
			c-0.7,0-0.9,0-0.8-0.9c0.6-4.6-2.3-7.3-6.9-6.5c-3.2,0.6-5.5,2.3-6.7,5.6c-0.9-2.5-2.3-4.2-4.9-4.7c-2.8-0.5-6.1,1.6-6.8,4.3
			c-0.2,0.9-0.2,1.8,0.4,2.6c0.7,1,0.2,1.1-0.6,1.3c-5,1.1-9.3,3.5-12.1,7.9c-0.9,1.4-1.6,3-2.5,4.8c-0.6-2.7-0.4-5,0.1-7.4
			C4.3,17,7.8,12.3,11.9,8c1.2-1.2,2.5-2.4,3.7-3.6c0.7-0.8,1.3-0.7,2.1-0.1c2.5,2,5.3,3.2,8.4,3.6c2.5,0.3,4.7-0.7,7-1.4
			c8.4-2.3,16.9-3,25.2,0.1C69.9,11,77.8,18.9,80.9,31.2c0.2,0.9,0.4,1.8,0.4,2.7C81.4,34.7,81.3,35.6,81.3,36.7z"/>
		<path class="st4" d="M68.1,25L68.1,25C68,25,68,25,68.1,25C68,25,68,25,68.1,25L68.1,25z"/>
		<path class="st4" d="M36.1,22.3c3.5,0.9,7,0.6,10.5,0.5c5.4-0.2,10.6,0.6,15.4,3.3c6.7,3.8,11.8,9.3,15.9,15.7
			c1,1.6,2.2,2.2,4,2.2c1,0,1.1-0.2,0.8-1.1c-1.6-3.7-3.3-7.4-5.8-10.5c-9.7-11.7-22-17.1-37.3-14.8c-1.2,0.2-2.4,0.1-3.5-0.6
			c-0.9-0.6-1.2-1.5-1.1-2.5c0.1-0.7,0.3-1.4,1-1.7c0.4-0.2,0.8-0.3,1.1,0.1c0.3,0.4,0.1,0.7-0.3,1c-0.9,0.4-0.8,1.3-0.3,1.8
			c1.1,1.2,2.6,0.7,4,0.5c1-0.2,1.4-0.9,1.5-1.8c0.6-3.2-2.5-5.5-5.9-4.4c0,0.7-0.7,1-1.1,1.3c-2.4,1.9-3.2,4.2-2.2,7.1
			c0.1,0.3,0.3,0.5,0,0.9c-1.2-0.7-1.4-2-1.6-3.2c-0.1-0.5,0.2-1.1-0.3-1.5c-0.3,0.2-0.3,0.5-0.3,0.8C30.5,18.8,32.6,21.4,36.1,22.3
			z M43.9,17.8c6.4-0.5,12.5,0.7,18.2,3.6c2.1,1,4.3,1.9,5.9,3.6l0,0l0,0c0.3,0,0.6,0.1,0.7,0.4l-0.1,0.1c-0.3,0-0.5-0.2-0.6-0.5
			l0,0l0,0c-2.6-0.8-4.8-2.4-7.3-3.4c-3.7-1.6-7.6-2.4-11.6-2.7c-2.6-0.2-5.3-0.2-7.9-0.4C42,18,43,17.8,43.9,17.8z"/>
		<path class="st0" d="M70.2,60.4c3,0,5.9-0.2,8.8-1.2c3.9-1.3,7-3.6,8.2-7.8c0.8-2.7-0.2-4.5-2.7-5.5c-2-0.8-4.1-0.8-6.8-0.8
			c-3.4-0.7-5.4,1.6-6.9,4.7c-0.2,0.4-0.4,0.9-0.6,1.4c-1,2.5-1.2,5.1-1.4,7.8C68.7,60.2,69.2,60.4,70.2,60.4z M72.7,53.1
			c1.4-1.9,3.4-2.6,5.9-2.9c-0.8,2.2-2.1,3.7-3.6,5c-0.7,0.6-1.5,0.7-2.2,0C72,54.6,72.2,53.8,72.7,53.1z"/>
		<path class="st3" d="M27.2,35.6c2.6-2.2,5.5-4,8.5-5.6c2.5-1.3,5.3-2.1,7.9-3.2c-0.6-0.5-1.2-0.3-1.9-0.3c-2.5,0-4.9-0.3-7.3-0.9
			c-1.3-0.3-2.6-0.8-3.5-1.9c-0.4-0.5-0.9-0.7-1.4-0.1c-1.4,1.7-3.5,1.6-5.3,2c-2.6,0.5-5.2,0.8-7.8,1.3c-1.3,0.3-2.5,0.8-3.5,1.5
			c-1,0.7-1.7,1.5-2.3,2.2c-2,2.4-2.9,5-3.4,5.8c0,0-0.1,0.2-0.2,0.4c-0.1,0.1-0.1,0.2-0.1,0.3c0,0.4-0.1,0.8-0.1,1.1
			c0,0.2-0.1,0.3-0.1,0.5c0,0.2-0.1,0.3-0.1,0.5c-0.2,3,0,5.9,1.7,8.5c0.4-0.8-0.4-1.6-0.2-2.3c0.4-1.6,0.1-3.3,0.2-4.9
			c0.3-4,1.3-7.7,4.3-10.6c2.6-2.5,5.3-2.5,8-0.1c1.9,1.6,3.4,3.6,4.7,5.6C26,36.3,26.4,36.2,27.2,35.6z"/>
		<path class="st2" d="M29.6,23.5c0.5-0.6,1-0.3,1.4,0.1c0.9,1.1,2.2,1.6,3.5,1.9c2.4,0.6,4.8,0.9,7.3,0.9c0.6,0,1.3-0.3,1.9,0.3
			c2.3-0.3,4.6-0.9,6.9-0.8c4.1-0.8,7.7,0.1,10.9,2.8c1,0.9,2.1,1.7,2.4,3.2c0.3,0.4,0.6,0.8,1,1.2c0.9,0,1.1,0.9,1.7,1.4
			c2.8,2.3,5.5,4.7,7.9,7.5c0.5,0.6,1.3,1,1.2,1.9c2.1-0.2,2.1-0.2,1-2c-3-4.4-6.4-8.3-10.6-11.7c-4.8-3.9-10.2-6.3-16.5-6.3
			c-3.3,0-6.5,0-9.8,0c-1.8,0-3.6-0.4-5.3-1c-2.2-0.8-3.7-2.4-4.8-4.9c-0.5,3.1-2.3,4.4-4.7,5.1c-1.6,0.4-3.2,0.7-4.9,0.8
			c-7.3,0.4-12.5,5.6-13.1,13c0.4-0.1,0.5-0.4,0.6-0.8c0.5-2.2,1.8-3.9,3.1-5.7c1.5-2,3.5-3.2,5.8-3.7c2.6-0.6,5.2-0.8,7.8-1.3
			C26.1,25.2,28.2,25.3,29.6,23.5z"/>
		<path class="st4" d="M28.4,17.8c0.3-2.3,0.1-4.5-1.9-6.1c-0.5,0.1-1.1,0.4-1.6,0.3c-1.3-0.1-2,0.5-2.7,1.5
			c-0.2,0.3-0.5,0.7-0.8,0.9c-0.7,0.5-1.2,0.4-1.3-0.6c0-0.3,0-0.7-0.4-0.9c-0.9,1.1-0.9,2.2,0,3.2c0.8,0.9,3.3,1.2,4.1,0.6
			c0.4-0.2,0.5-0.6,0.4-1c-0.1-0.5-0.4-1.1,0.4-1.2c0.8-0.1,0.8,0.6,0.9,1.2c0.1,0.4,0,1-0.3,1.5c-0.2,0.4-0.7,0.7-2.6,0.9
			c-1.5,0.2-1.6,0-2.8,0.1c-0.8,0.1-1.9,0.4-4.1,1c-0.5,0.1-1.1,0.3-1.8,0.6c-0.9,0.4-1.5,0.6-2,1c-0.6,0.5-1,1-1.2,1.4
			c0.1,0,0.5,0.1,0.8-0.1c0.3-0.1,0.5-0.3,0.7-0.4c2.7-1.5,5.6-2.4,8.8-2.1c0.8,0.1,1.5-0.1,2.3,0c-1,0.7-2.2,0.7-3.3,0.9
			c-3.5,0.7-7,1.4-9.8,3.8c-2.2,2-3.7,4.6-4.8,7.4c-0.2,0.6-0.5,1.2-0.8,1.7c0.4-2.6,1.3-5,2.8-7.2c0.9-1.3,1.8-2.5,3.2-3.4
			c0,0,0.1-0.1,0.2-0.3c0.2-0.4,0.2-0.8,0.1-1.1c-0.1,0.1-0.2,0.3-0.4,0.5c-0.2,0.1-0.4,0.2-0.5,0.3c-1.4,1-4.4,3.5-6,7.9
			c-1.1,3-1,5.2-0.8,9.4c0,0.6,0.1,1.6,0.8,2.4c0.5,0.6,1.1,0.9,1.5,1c-0.6-3.9,0.1-6.9,0.6-8.3c1.8-5.3,6.8-11.1,12.1-11.6
			c2.2-0.2,4.5-0.5,6.7-1.1C26.9,21.4,28.2,20,28.4,17.8z"/>
		<path class="st3" d="M8.5,49.1c0.2,2.8,1,5.3,3.1,7.3c0.3,0.3,0.4,0.5,0.2,0.9c-1.2,2.9-0.1,5.4,1.4,7.8c0.7,1.2,1.6,2.2,2.5,3.4
			c-5.7-2.1-11-6.9-10.3-12.6C5.6,53.2,6.5,50.8,8.5,49.1z"/>
		<path class="st0" d="M4.2,57c-1.6-1.9-2.6-4-2.8-6.5c-0.1-1.2,0.4-2.2,1.5-2.7c1.2-0.6,2.6-0.6,3.8-0.1c0.7,0.3,0.3,0.9,0,1.4
			C5.3,51.5,4.4,54.1,4.2,57z"/>
		<path class="st5" d="M26.5,11.7c-0.5,0.1-1.1,0.4-1.6,0.3c-1.3-0.1-2,0.5-2.7,1.5c-0.2,0.3-0.5,0.7-0.8,0.9
			c-0.7,0.5-1.2,0.4-1.3-0.6c0-0.3,0-0.7-0.4-0.9C21.7,10.5,24.3,10,26.5,11.7z"/>
		<path class="st5" d="M36,10c-0.2,0-0.4,0.1-0.6,0.1l0,0c-0.6,0-1.1,0.2-1.5,0.6c-0.7,0.3-1.2,1-1.8,1.5c-0.4,0.2-0.6,0.5-0.7,0.9
			l0,0c-0.3,0.2-0.5,0.6-0.5,1c0,0.2-0.1,0.4-0.1,0.5c0.5,0.4,0.2,1,0.3,1.5c0.2,1.2,0.4,2.4,1.6,3.2c0.3-0.4,0-0.6,0-0.9
			c-1-2.9-0.2-5.3,2.2-7.1C35.3,11,36,10.7,36,10C36.1,10,36,10,36,10z"/>
		<path class="st2" d="M6.8,38.2c0.1,0.3,0.1,0.7-0.2,1C6.6,38.8,6.5,38.5,6.8,38.2z"/>
		<path class="st1" d="M88.3,47.6c-0.5-1.1-1.5-2-3-2.8c-0.3-0.2-0.8-0.2-0.9-0.7c-0.6-2.4-2.2-4.5-1.7-7.2c0.3-1.5-0.1-3.1-0.4-4.6
			C80.8,23,75.6,16,68.1,10.4C62.4,6.1,55.8,4,48.8,3.5C42.4,3,36.2,4.2,30.1,6.2c-2.6,0.8-5,0.6-7.5-0.4c-2-0.8-3.7-1.9-5.3-3.4
			C16.9,2,16.5,1.8,16,2.3c-4.4,3.9-8.6,8-11.5,13.3c-2.7,4.7-3.8,9.8-2.8,15.2C2,32.6,2,34.3,1.9,36.1c-0.2,3.4,0.4,6.5,3.6,8.5
			c0.5,0.3,0.6,0.9,0.6,1.5c-0.4,0-0.8,0-1.2,0c-3.4,0-5.2,2.2-4.6,5.5c0.5,2.7,1.8,5.1,3.6,7.2c0.3,0.4,0.7,0.7,0.9,1.2
			c1.5,4,2.9,4,3.8,5c1.3,1.5,4.2,3,9.8,5.8c0.6,0.3,1,0.5,1.8,0.9c1.9,1,2.3,1,3.4,1.5c0.6,0.3,1.2,0.5,1.7,0.7
			c0.3,0.2,0.8,0.4,1.1,0.5c0.5,0.1,2,0,3.9,0.1c1,0,2-0.1,4.5-0.3c3.5-0.3,5.3-0.3,6.4-0.4c1.6-0.2,2.4-0.3,3.4-0.6
			c2.1-0.4,3.6-1,6.2-1.8c6.6-2.3,5.6-2.1,6.7-2.4c0.4-0.1,5.2-1.3,7.6-2.7c0,0,2.4-1.5,3.1-2.9c0.1-0.3,0.2-0.5,0.2-0.5
			c0-0.1,0-0.3,0.1-0.4c0.1-0.2,0.2-0.3,0.3-0.4c0.4-0.3,0.9-0.3,1.4-0.3c0.1,0,0.3,0,0.4,0c2.3,0,7.3-0.3,10.6-1.9
			c1.3-0.6,2.2-1.3,3-2.1c1.5-1.3,3.5-3,4.3-5.9C88.7,50.6,88.9,49.1,88.3,47.6z M82.7,43c0.4,0.9,0.2,1.1-0.8,1.1
			c-1.8,0-2.9-0.6-4-2.2C73.8,35.5,68.7,30,62,26.1c-4.8-2.7-10-3.5-15.4-3.3c-3.5,0.1-7,0.4-10.5-0.5c-3.6-0.9-5.7-3.5-5.5-6.7
			c0.1-1.6,1.1-3.1,2.3-4.1c1-0.8,2.1-1.3,3.4-1.5c1-0.2,2-0.3,3,0c1.9,0.6,3,2.5,2.7,4.5c-0.2,0.9-0.5,1.6-1.5,1.8
			c-1.4,0.2-2.9,0.6-4-0.5c-0.5-0.5-0.6-1.4,0.3-1.8c0.5-0.2,0.6-0.6,0.3-1s-0.7-0.3-1.1-0.1c-0.8,0.3-1,1-1,1.7
			c-0.1,1,0.1,1.9,1.1,2.5c1.1,0.7,2.3,0.8,3.5,0.6c15.3-2.4,27.6,3.1,37.3,14.8C79.4,35.5,81.1,39.3,82.7,43z M3,22.9
			C4.3,17,7.8,12.3,11.9,8c1.2-1.2,2.5-2.4,3.7-3.6c0.7-0.8,1.3-0.7,2.1-0.1c2.5,2,5.3,3.2,8.4,3.6c2.5,0.3,4.7-0.7,7-1.4
			c8.4-2.3,16.9-3,25.2,0.1C69.9,11,77.8,18.9,80.9,31.2c0.2,0.9,0.4,1.8,0.4,2.7c0.1,0.9,0,1.8,0,2.9c-0.6-0.4-0.8-1-1.1-1.5
			c-6.6-10.6-16.2-16.9-28.5-19C49.1,15.9,46.6,16,44,16c-0.7,0-0.9,0-0.8-0.9c0.6-4.6-2.3-7.3-6.9-6.5c-3.2,0.6-5.5,2.3-6.7,5.6
			c-0.9-2.5-2.3-4.2-4.9-4.7c-2.8-0.5-6.1,1.6-6.8,4.3c-0.2,0.9-0.2,1.8,0.4,2.6c0.7,1,0.2,1.1-0.6,1.3c-5,1.1-9.3,3.5-12.1,7.9
			c-0.9,1.4-1.6,3-2.5,4.8C2.4,27.6,2.5,25.3,3,22.9z M5.9,34.7c-0.6,2.6-0.7,5.3-0.6,8.1c-1.4-0.8-1.7-2-2-3.2
			C2,34.3,5.6,25.4,10.1,22.3c0.1-0.1,0.4-0.1,0.5-0.1l0,0c0.6-1.1,1.9-1.4,2.9-1.9c2.8-1.3,5.9-2,9-2c2.1,0,3.1-1,2.9-2.6
			c-0.1-0.5-0.1-1.2-0.9-1.2c-0.8,0.1-0.5,0.7-0.4,1.2s-0.1,0.8-0.4,1c-0.8,0.6-3.3,0.2-4.1-0.6c-0.9-1-0.9-2.1,0-3.2
			c1.9-2.4,4.6-2.9,6.7-1.2c2.1,1.6,2.2,3.8,1.9,6.1c-0.3,2.3-1.5,3.6-3.7,4.2s-4.4,0.9-6.7,1.1C12.5,23.6,7.4,28.3,5.9,34.7z
			 M4.2,57c-1.6-1.9-2.6-4-2.8-6.5c-0.1-1.2,0.4-2.2,1.5-2.7c1.2-0.6,2.6-0.6,3.8-0.1c0.7,0.3,0.3,0.9,0,1.4
			C5.3,51.5,4.4,54.1,4.2,57z M67.6,58.6c0,1.4-0.4,2-1.9,2.2c-1.8,0.2-3.6,0.7-5.5,1c-3.3,0.8-6.6,1.6-9.9,2.3
			c-2.7,0.5-4.7,2.2-6.7,3.8c-0.6,0.5-1.3,0.8-2.1,0.9c-4.8,0.7-9.4,2.1-13.7,4.3c-0.4,0.2-0.8,0.4-1.4,0.2c-3.7-1.3-7.4-2.8-10.7-5
			c-5.7-2.1-11-6.9-10.3-12.6c0.3-2.6,1.2-4.9,3.2-6.7c0.1-0.5,0-0.9-0.2-1.4c-1.8-2.6-1.9-5.5-1.7-8.5c0-0.3-0.1-0.7,0.2-1
			C6.9,37.7,7,37.3,7,37c0.6-7.4,5.8-12.6,13.1-13c1.6-0.1,3.3-0.4,4.9-0.8c2.5-0.7,4.3-2,4.7-5.1c1.1,2.5,2.6,4,4.8,4.9
			c1.7,0.6,3.5,1,5.3,1c3.3,0,6.5,0,9.8,0c6.3,0,11.7,2.4,16.5,6.3c4.1,3.3,7.6,7.3,10.6,11.7c1.2,1.7,1.1,1.8-1,2
			c-2-0.1-3.2,1.2-4.3,2.6C68.5,50.1,67.7,54.3,67.6,58.6z M87.2,51.4c-1.2,4.2-4.3,6.5-8.2,7.8c-2.8,0.9-5.8,1.2-8.8,1.2
			c-1,0-1.5-0.2-1.4-1.5c0.2-2.7,0.4-5.3,1.4-7.8c0.2-0.5,0.4-0.9,0.6-1.4c1.5-3.1,3.6-5.4,6.9-4.7c2.7-0.1,4.8,0,6.8,0.8
			C87,46.9,87.9,48.7,87.2,51.4z"/>
		<path class="st6" d="M42.7,43.5c0.4,0,0.8,0,0.9,0.6c0.6,4.6,5.3,5.4,8.9,4.6c2.6-0.6,4.5-2.1,6.1-4.1c0.5-0.9-0.3-1.1-0.8-1.4
			c-3.9-2.2-8-2.8-12.4-2c-1.7,0.5-3.4,0.9-5.1,1.4c-0.6,0.5-1.5,0.4-2,1.1c1.1,0,2,0,2.9,0C41.7,43.7,42.2,43.6,42.7,43.5z"/>
		<path class="st6" d="M13.6,44.6c-0.5-0.4-0.9-0.8-1.4-1.3c1.8-0.7,3.6-0.3,5.3-0.1c1.5,0.5,3,1.1,4.2,2.3c0.6,2.2-0.1,4-2.1,4.8
			c-0.7-0.1-1.4-0.2-2.1-0.3c-2.1-0.4-3.3-1.8-3-3.6C14.7,45.4,14.4,44.9,13.6,44.6z"/>
		<path class="st1" d="M59.6,37.5c-2.9-0.8-5.8-1.8-8.8-1.7s-5.4,2-8.2,2.7c2.1-1.9,4.3-3.6,6.8-5c1.1-0.6,2.3-0.8,3.5-0.3
			C55.3,34.3,57.5,35.8,59.6,37.5z"/>
		<path class="st7" d="M39,62.9c3.6-0.7,6-2.8,7.6-5.9c0.2-0.3,0.6-0.8,0.2-1.1c-0.4-0.3-0.7,0.2-1,0.4c-0.6,1.2-1.8,1.6-2.8,2.1
			c-2,1.1-4.2,1.8-6.5,2.1c-1.3,0.2-1.7,0.6-1,1.8C36.6,62.8,37.8,63.2,39,62.9z"/>
		<path class="st8" d="M30.3,55.7c0.4-0.7,1-1.4,0.5-2c-0.5-0.5-1.2,0.2-1.9,0.4c-0.2,0.1-0.5,0.2-0.7,0.3c-2.5,1.1-4.9,1.9-7.5,0.2
			c-0.2-0.1-0.5-0.4-0.8-0.1c-0.3,0.3-0.1,0.7,0,1c0.6,1.7,2.4,2.7,5,2.7C26.7,57.8,29,57.9,30.3,55.7z"/>
		<path class="st9" d="M45.1,49c2.6,1.1,5.2,0.9,7.8,0.5c2.4-0.4,4.3-1.5,5.6-3.6c0.2-0.4,0.8-0.8,0.1-1.3c-1.6,2-3.5,3.5-6.1,4.1
			c-3.6,0.8-8.3,0.1-8.9-4.6c-0.1-0.6-0.5-0.6-0.9-0.6c-0.5,0-1,0.1-1.5,0.2C41.6,46.2,42.8,48,45.1,49z"/>
		<path class="st8" d="M50.4,25.9c1.3-0.2,3.5-0.5,6,0.3c1,0.3,3,0.9,5,2.7c1,0.9,2.1,1.7,2.4,3.2c-0.2,0-0.4,0-0.6-0.1
			c-0.2-0.1-0.4-0.2-0.4-0.2c-0.3-0.2-4.6-3-7.9-4.1c-1.6-0.5-2.4-0.8-2.7-0.8c-0.3,0-0.9,0.1-1.3-0.3C50.6,26.3,50.5,26,50.4,25.9z
			"/>
		<path class="st8" d="M21.6,45.5c-1.2-1.2-2.6-1.8-4.2-2.3c-0.3-0.9-1.3-0.8-2.1-1.6c2,0.2,3.6,0.7,5.3,1.7c-0.2-2-1.5-3.5-2.2-5.2
			c-0.2-0.5-0.6-1-0.5-1.6c1.1,0.4,1.5,1.8,2.7,2.1C22.5,40.7,22.1,43.1,21.6,45.5z"/>
		<path class="st8" d="M45.4,41.2c-1.7,0.5-3.4,0.9-5.1,1.4c0.2-1.4,1.3-2,2.4-2.4c4.3-1.8,8.6-1.4,12.7,0.7
			c-0.9-0.2-1.8-0.4-2.7-0.6c-2.1-0.4-4.3-0.2-6.4,0.3C46,40.6,45.6,40.7,45.4,41.2z"/>
		<path class="st7" d="M13.6,44.6c0.8,0.4,1.1,0.8,0.9,1.8c-0.3,1.8,0.9,3.2,3,3.6c0.7,0.1,1.4,0.2,2.1,0.3
			c-0.1,0.2-0.3,0.4-0.4,0.6c-0.2,0.1-0.4,0.2-0.6,0.4l0,0c-0.8,0.2-1.6,0.4-2.4,0.3c-0.1,0-0.2,0.1-0.4,0.1c-0.2,0-0.3,0-0.5,0
			c-1.1-1.2-2.5-2.3-2.7-4.1C12.6,46.4,12.7,45.4,13.6,44.6z"/>
		<path class="st1" d="M34.4,62c0.3,0.2,0.6,0.5,1.1,0.4c-0.8-1.2-0.3-1.6,1-1.8c2.3-0.3,4.5-1,6.5-2.1c1-0.5,2.2-0.9,2.8-2.1
			c-0.3-0.1-0.6,0.2-0.8,0.3c-3.1,1.8-6.5,2.8-10,3.1c-0.6,0-1.6-0.2-1.8,0.4C32.9,61,33.8,61.5,34.4,62z"/>
		<path class="st1" d="M20.7,38.6c-1.2-0.3-1.6-1.6-2.7-2.1c-1.1-1.8-2.8-1.5-4.8-1.1c0.6-0.5,0.9-0.7,1.1-0.9
			c2.9-2.2,3.8-2,5.4,1.3C20.1,36.7,20.8,37.5,20.7,38.6z"/>
		<path class="st8" d="M57.5,49.7c-4.9,1.8-9.6,1.6-14.4,0.4C45.3,52.7,54.1,53.1,57.5,49.7z"/>
		<path class="st8" d="M15.3,51.7c0.2,0,0.3,0,0.5,0c0.1,0,0.2-0.1,0.4-0.1c0.8,0.1,1.6-0.2,2.4-0.3c-1.1,1.7-2.6,2-5.3,0.7
			C14.1,51.9,14.7,51.8,15.3,51.7z"/>
		<path class="st8" d="M18.6,51.2c0.2-0.1,0.4-0.2,0.6-0.4C19.3,51.6,18.8,51.1,18.6,51.2z"/>
		<path class="st8" d="M12.6,51.8h-0.1H12.6C12.6,51.6,12.7,51.7,12.6,51.8C12.7,51.7,12.6,51.8,12.6,51.8z"/>
		<path class="st5" d="M68.1,25c-2.6-0.8-4.8-2.4-7.3-3.4c-3.7-1.6-7.6-2.4-11.6-2.7c-2.6-0.2-5.3-0.2-7.9-0.4
			c0.8-0.6,1.8-0.7,2.7-0.8c6.4-0.5,12.5,0.7,18.2,3.6C64.2,22.4,66.4,23.2,68.1,25L68.1,25z"/>
		<path class="st5" d="M68,25c0.3,0,0.6,0.1,0.7,0.4l-0.1,0.1C68.3,25.5,68.2,25.3,68,25L68,25z"/>
		<path class="st8" d="M74.9,55.3c1.6-1.3,2.8-2.9,3.6-5c-2.4,0.3-4.4,1-5.9,2.9c-0.5,0.7-0.7,1.5,0,2.2
			C73.4,56,74.2,55.9,74.9,55.3z"/>
		<path class="st5" d="M10.7,22.2c0.6,0.2,1.1-0.2,1.5-0.5c2.7-1.5,5.6-2.4,8.8-2.1c0.8,0.1,1.5-0.1,2.3,0c-1,0.7-2.2,0.7-3.3,0.9
			c-3.5,0.7-7,1.4-9.8,3.8c-2.2,2-3.7,4.6-4.8,7.4c-0.2,0.6-0.5,1.2-0.8,1.7c0.4-2.6,1.3-5,2.8-7.2c0.9-1.3,1.8-2.5,3.2-3.4
			C10.7,22.7,10.7,22.5,10.7,22.2C10.6,22.2,10.7,22.2,10.7,22.2z"/>
		<path class="st0" d="M16.2,51.6c-0.1,0.1-0.2,0.1-0.4,0.1C15.9,51.7,16.1,51.6,16.2,51.6z"/>
	</g>
	<path class="st0" d="M23.9,72.4l3,1.1c3.8,0.1,7-0.1,9.3-0.2c4.4-0.3,6.7-0.5,9.8-1.3c3.3-0.8,2.2-1,7.9-2.9
		c3.6-1.2,5.4-1.5,6.2-3.1c0.7-1.5,0.3-8-1.9-5c-0.7,0.1,0.3,1.2-0.5,1.3c-4.6,0.7-9.2,1.4-13.8,2.1L23.9,72.4z"/>
	<path class="st3" d="M60.2,61.8c0.4,1.1,0.5,2.8-1,5.4c1.2-0.1,2.8-0.5,4.5-1.4c1-0.5,2.2-1.3,3-2.7c0.4-0.7,0.6-1.3,0.7-1.7
		c0.4-1.4,0.4-2.6,0.4-2.9c-0.2-7.8,3.5-11.8,3.5-11.8c0.7-0.8,2-1.9,4.3-2.6c0-0.9-0.7-1.4-1.2-1.9c-2.3-2.8-5.1-5.2-7.9-7.5
		c-0.6-0.5-0.8-1.3-1.7-1.4c0,0.1,0,0.2,0,0.3c3.5,8,0.1,17.8-6.9,21.7c-0.3,0.2-0.5,0.4-0.6,0.6c-0.1,0.4,0.2,0.7,0.3,0.8
		C58.5,57.8,60,61,60.2,61.8z"/>
</g>
<polygon class="st4" points="9.9,22.5 11.2,21.5 11.6,22 10.8,22.5 10.4,22.9 "/>
</svg>
