<?xml version="1.0" encoding="utf-8"?>
<!-- Generator: Adobe Illustrator 19.2.0, SVG Export Plug-In . SVG Version: 6.00 Build 0)  -->
<svg version="1.1" id="圖層_1" xmlns="http://www.w3.org/2000/svg" xmlns:xlink="http://www.w3.org/1999/xlink" x="0px" y="0px"
	 viewBox="0 0 89 78" style="enable-background:new 0 0 89 78;" xml:space="preserve">
<style type="text/css">
	.st0{fill:#FBDEC6;}
	.st1{fill:#7E8445;}
	.st2{fill:#616833;}
	.st3{fill:#F5ECDF;}
	.st4{fill:#84895D;}
	.st5{fill:#E8C6AF;}
	.st6{fill:#C5B19B;}
	.st7{fill:#FBDDC5;}
	.st8{fill:#FBFAF7;}
	.st9{fill:#080606;}
	.st10{fill:#F4B19D;}
	.st11{fill:#C6B09B;}
	.st12{fill:#050405;}
	.st13{fill:#DCB09C;}
	.st14{fill:#C28B7A;}
</style>
<path class="st0" d="M80.8,50.3c-0.1-0.7-0.1-1.5-0.1-2.3c-0.1-1-0.3-1.9-0.4-2.9c-0.3-1.6-0.7-3.2-1.2-4.8
	c-0.6-1.8-1.3-3.6-2.1-5.2c-0.8-1.6-1.7-3.1-2.8-4.5c-0.4-0.5-0.7-1.1-1.2-1.5c-0.8-0.9-1.6-1.8-2.6-2.5c-0.5-0.4-0.9-0.8-1.4-1.2
	c-0.5-0.4-1-0.8-1.6-1.2l0,0c-0.7-0.5-1.4-0.9-2.1-1.3c-0.9-0.5-1.8-1-2.8-1.4c-1.2-0.5-2.5-0.9-3.7-1.3c-0.6-0.2-1.3-0.5-2-0.4
	c0,0-0.1,0-0.1,0c0,0-0.1-0.1-0.2-0.1c-0.7-0.2-1.5-0.3-2.2-0.4c0-0.1-0.1-0.1-0.1-0.1c0,0-0.1,0-0.1-0.1c-0.7-0.1-1.4-0.2-2.1-0.3
	c-0.6-0.1-1.2-0.2-1.8-0.1c-0.3,0-0.6-0.1-0.9-0.1c-0.4-0.1-0.7,0-1.1-0.1c-0.7-0.1-1.5-0.1-2.2-0.2c-1.3,0-2.6,0.1-4,0.2
	c-1.4,0.1-2.7,0.4-4,0.6c-1,0.2-2.1,0.5-3,0.8c-0.6,0.2-1.2,0.4-1.8,0.6c-0.8,0.3-1.6,0.7-2.3,1.1c-0.9,0.4-1.8,0.9-2.6,1.4
	c0,0,0,0,0,0c-0.5,0.2-0.9,0.5-1.4,0.7c-0.4,0.2-0.8,0.6-1.2,0.9c-0.7,0.6-1.5,1.1-2.2,1.8c-1.7,1.5-3.3,3-4.6,4.8l0,0
	c-0.4,0.6-0.9,1.2-1.3,1.8l0,0l0,0c0,0-0.1,0.1-0.1,0.1l0,0c-0.6,0.9-1.1,1.8-1.6,2.7c0,0,0,0,0,0c0,0,0,0.1,0,0.1c0,0,0,0,0,0
	c-0.4,0.8-0.8,1.7-1.2,2.6c-0.1,0.4-0.2,0.8-0.4,1.1c-0.3,0.5-0.3,1-0.5,1.5c-0.2,0.5-0.2,1.1-0.3,1.6c-0.1,0.6-0.2,1.2-0.3,1.8
	c-0.2,1.2-0.2,2.4-0.1,3.6c0.1,0.7,0.2,1.4,0.3,2c0.3,1.2,0.7,2.5,1.3,3.6c0.5,0.9,1,1.8,1.6,2.6c0,0,0,0.1,0.1,0.1
	c0.1,0.1,0.1,0.1,0.2,0.2c0.1,0.1,0.1,0.1,0.2,0.2c0.1,0.1,0.1,0.1,0.2,0.2c0.2,0.2,0.5,0.5,0.7,0.7c0.1,0.1,0.3,0.3,0.3,0.5
	c0,0.3,0.2,0.4,0.4,0.5c0.3,0,0.5,0.3,0.7,0.4c0.2,0.2,0.4,0.5,0.8,0.5c0,0,0.1,0,0.1,0.1c0.7,0.7,1.3,1.4,2,2
	c0.1,0.1,0.2,0.1,0.4,0.2c0.3,0.1,0.5,0.2,0.8,0.4c0.1,0.1,0.3,0.2,0.3,0.4c0,0.3,0.1,0.4,0.4,0.3c0.3,0,0.5,0.1,0.7,0.3
	c0.1,0.1,0.3,0.3,0.4,0.4c0.1,0.1,0.4,0.1,0.5,0.2c0.4,0.4,0.9,0.6,1.4,0.9c0.6,0.4,1.3,0.7,1.9,1c0.4,0.2,0.9,0.4,1.3,0.6
	c0.2,0.1,0.4,0.2,0.6,0.3c0.3,0.2,0.7,0.4,1,0.6c1,0.5,2,0.9,3,1.3c1.3,0.5,2.6,0.9,3.9,1.3c1.7,0.5,3.4,0.9,5.1,1.2
	c1,0.2,2.1,0.3,3.1,0.4c0.8,0.1,1.7,0.1,2.6,0.2c1.4,0.1,2.8,0.1,4.2,0c1.4-0.1,2.8-0.2,4.2-0.4c1.2-0.2,2.3-0.4,3.5-0.6
	c1.9-0.4,3.7-1,5.5-1.7c1.6-0.6,3.2-1.3,4.7-2.2c0.8-0.5,1.7-1,2.5-1.6c0.6-0.4,1.2-0.9,1.7-1.3c0.7-0.6,1.4-1.3,2-2
	c1.5-1.6,2.7-3.4,3.2-5.5c0.3-1.1,0.3-2.2,0.4-3.3C80.9,52.5,80.9,51.4,80.8,50.3z"/>
<g>
	<path class="st1" d="M55.4,17.9c0-0.1,0-0.1-0.1-0.2c-0.5-1.1-1-2.1-1.6-3.2c-1-1.9-2.2-3.7-3.5-5.5c-0.3-0.4-0.6-0.6-1.1-0.6
		c-0.9,0-1.8-0.1-2.7,0c0,0.2-0.3,0-0.3,0.2v0c-0.5,0-0.9,0-1.4,0.2c-0.2,0.1-0.3,0.1-0.5,0.1c-0.1,0-0.2,0-0.3,0
		c-0.3,0.1-0.7,0.2-1,0.2c-0.3,0-0.6,0-0.9,0.2c-0.1,0-0.2,0-0.3,0.1c-0.5,0.1-1-0.1-1.4,0.3c-0.2,0.1-0.5,0-0.6,0.1
		c-0.4,0.3-0.9,0.4-1.4,0.5c-0.3,0.1-0.5,0.2-0.6,0.4c-0.1,0.1-0.3,0.2-0.3,0.2c-0.2-0.1-0.3,0-0.5,0.1c-0.4,0.2-0.7,0.5-1.1,0.4
		c-0.2-0.1-0.4,0-0.6,0.1c-0.2,0.2-0.5,0.3-0.7,0.3c-0.2,0-0.3,0.1-0.5,0.2c-0.5,0.3-1,0.6-1.6,0.9c-0.3,0.2-0.6,0.2-0.8,0.5
		c-0.1,0.3-0.2,0.6-0.5,0.7c-0.1,0-0.1,0.2,0,0.4c0,0.1,0.1,0.1,0.1,0.1c0.1-0.1,0.1-0.2,0.1-0.3c0,0,0,0,0,0c0-0.1,0-0.1,0.1-0.1
		c0.1,0,0.1,0.1,0.1,0.2c0,0.4-0.1,0.8-0.3,1c-0.4,0.4-0.4,1-0.6,1.5c-0.1,0.3-0.1,0.7-0.2,1c-0.1,0.1-0.1,0.3-0.1,0.5
		c0.1,0.2,0,0.3-0.1,0.5c-0.1,0.3-0.2,0.5,0,0.8c0.1,0.1,0.1,0.3-0.1,0.4c-0.3,0.1-0.3,0.3-0.1,0.5c0,0.1,0.1,0.2,0.1,0.3
		c0.1,0,0.2,0,0.3,0c0.1-0.3,0.4-0.4,0.6-0.6c0.2-0.1,0.4-0.4,0.7-0.4c0.5,0,0.9,0,1.4-0.3c0.2-0.1,0.4-0.3,0.6-0.3
		c0.5,0,0.8-0.4,1.2-0.4c0.2,0,0.4,0,0.6,0c0.3-0.1,0.7-0.2,1-0.3c0.4-0.2,0.9-0.3,1.3-0.3c0.7-0.1,1.3-0.2,1.9-0.4
		c0.2-0.1,0.4-0.1,0.6-0.1c0.4-0.1,0.9,0.1,1.3-0.2c0,0,0.1,0,0.2,0c0.3,0,0.7,0,1-0.1c0.4-0.1,0.7-0.2,1.1-0.2c0,0.1,0,0.3-0.1,0.4
		c2.4,0,4.9,0.1,7.3,0.3c1.3,0.1,2.7,0.3,4,0.6C55.4,18.2,55.5,18.2,55.4,17.9z"/>
	<path class="st1" d="M31.5,12.3c0.3-0.2,0.5-0.3,0.8-0.5c0,0-0.1-0.1-0.1-0.1c0,0,0.1,0.1,0.1,0.1c0.5-0.2,1-0.5,1.5-0.7
		c1.4-0.7,2.9-1.2,4.4-1.7c1.4-0.5,2.9-0.8,4.4-1.1c1.2-0.2,2.4-0.4,3.6-0.5c0,0,0.1,0,0.1,0c1,0,2.1-0.2,3.1,0c0.1,0,0.2,0,0.2-0.1
		c0-0.3,0.1-0.7-0.1-1C49.2,6.2,48.8,6,48.2,6c-0.9,0-1.9,0-2.8,0.1c-1.1,0-2.3,0.1-3.4,0.3c-1.2,0.2-2.5,0.4-3.7,0.6
		c-1.3,0.2-2.6,0.6-3.8,1c-0.8,0.3-1.5,0.5-2.1,1.2c-0.6,0.7-1,1.4-1,2.3c-0.1,0.2-0.2,0.4-0.1,0.7C31.3,12.3,31.4,12.4,31.5,12.3z
		 M45.1,6.2c0.1,0,0.2,0,0.3,0c0,0.1,0,0.3,0,0.4c0-0.1,0-0.3,0-0.4C45.3,6.3,45.2,6.2,45.1,6.2c-0.2,0-0.3,0-0.5,0
		C44.8,6.2,44.9,6.2,45.1,6.2z"/>
</g>
<g>
	<path class="st0" d="M54.2,19.2c0.1,0,0.1,0,0.1,0.1c0.1,0.2,0.4,0.1,0.6,0.2c0.2,0,0.2,0.3,0.5,0.2c0.4-0.1,0.8,0.1,1.2,0.2
		c0.1,0,0.1,0,0.2,0c0,0,0.1,0,0.1,0c0.3,0.3,0.7,0.5,1.2,0.5c0.8,0.1,1.5,0.6,2.4,0.6c0,0,0.1,0.1,0.1,0.1c0.3,0.1,0.5,0.3,0.8,0.4
		c0.3,0.1,0.7,0.2,1,0.4c0.2,0.1,0.4,0.3,0.6,0.3c0.3,0,0.4,0.1,0.4,0.4c0,0.1,0,0.1,0.1,0.1c0.1,0,0.1-0.1,0.1-0.1
		c0-0.1-0.1-0.1,0-0.1c0.5,0.4,1.1,0.5,1.5,0.9c0,0.3,0.2,0.3,0.3,0.4c0,0.1,0.1,0.1,0.2,0c0.1-0.1,0-0.1,0-0.2c0,0-0.1-0.1-0.1-0.1
		c0.4-0.1,0.7,0.3,1,0.4c0.4,0.2,0.7,0.5,1.1,0.4c0,0,0,0,0,0c0,0,0,0.1,0,0.1c0.2,0.2,0.3,0.4,0.2,0.7c0,0.1,0,0.2,0.1,0.1
		c0.6-0.3,0.9,0.4,1.3,0.4c0,0,0,0,0,0.1c0,0.4,0.3,0.4,0.5,0.5c0,0,0.1,0.1,0.2,0.1c0.3,0.4,0.7,0.6,1.1,1c0.7,0.7,1.5,1.4,2.2,2.2
		c0.1,0.2,0.4,0.3,0.3,0.6c0,0.2,0,0.3,0.2,0.3c0.2,0,0.2,0.1,0.1,0.3c-0.1,0.1,0,0.3,0.2,0.3c0.2,0,0.3,0.1,0.4,0.2
		c0.5,0.3,0.5,0.9,0.9,1.2c0.3,0.2,0.4,0.7,0.6,1c0.1,0.2,0.2,0.4,0.2,0.7c0,0.2,0,0.4,0.2,0.5c0.1,0,0.1,0.1,0.1,0.1
		c-0.1,0.1,0,0.2,0.1,0.2c0.2,0.2,0.4,0.2,0.4,0.5c0,0.2,0.1,0.3,0.2,0.4c0.2,0.2,0.3,0.3,0.2,0.6c-0.2,0.3,0.4,0.3,0.2,0.6
		c0,0,0,0.1,0,0.1c0,0.1,0.1,0.2,0.1,0.2c0.5,0.2,0.7,0.7,0.8,1.1c0.1,0.4,0.2,0.8,0.3,1.2c0,0.2-0.2,0.6,0.3,0.6c0,0,0,0,0,0
		c0.1,0.3,0.2,0.6,0.3,0.9c0.1,0.5,0,1,0.3,1.5c0,0.1,0.1,0.2,0.1,0.2c0,0.4,0.2,0.7,0.3,1.1c0,0.3,0,0.7,0.2,1
		c0.1,0.3,0.1,0.6,0.1,0.8c0,0.1,0,0.2,0,0.3c0,0.3,0.2,0.6,0.2,0.9c0.1,0.5,0,1,0.1,1.5c0.1,0.3,0.1,0.6,0.1,1c0,0.3,0,0.5,0.1,0.8
		c0.1,0.3,0.1,0.5-0.1,0.8c-0.1,0.1-0.1,0.2-0.1,0.3c0.1,0.8-0.1,1.5,0.2,2.3c-0.2,0.5,0,1-0.2,1.4c-0.1,0.2-0.1,0.4-0.1,0.6
		c0.2,0.7-0.2,1.2-0.5,1.7c-0.1,0.1-0.1,0.2-0.2,0.3c-0.1,0.3-0.1,0.6-0.2,1c0,0.1-0.2,0.2-0.2,0.3c0,0.4-0.3,0.5-0.5,0.7
		c-0.3,0.2-0.4,0.5-0.6,0.8c-0.1,0.3-0.3,0.4-0.5,0.4c-0.1,0-0.1,0-0.1,0c-0.4,0.2-0.3,0.7-0.7,0.9c0,0,0,0.1,0,0.1
		c0,0.3-0.1,0.4-0.3,0.4c-0.1,0-0.2,0-0.3,0c-0.4-0.1-0.5,0.1-0.5,0.5c0,0.1,0,0.2,0,0.2c-0.2,0.4-0.5,0.6-0.8,0.6
		c-0.4,0-0.3,0.2-0.3,0.4c0,0.5-0.5,0.8-1,0.6c-0.1,0-0.6,0.2-0.5,0.3c0.2,0.2,0,0.3-0.1,0.4c-0.3,0.3-0.7,0.5-1,0.8
		c-0.1,0.1-0.2,0.1-0.3,0.1c-0.1-0.1-0.3,0-0.4,0.1c-0.1,0-0.1,0.1-0.2,0.1c-0.2-0.1-0.2,0-0.3,0.2c-0.1,0.2-0.2,0.3-0.5,0.3
		c-0.2,0-0.3,0-0.5,0.2c-0.1,0.1-0.2,0.3-0.4,0c-0.1-0.1-0.2-0.1-0.2,0c-0.2,0.2-0.4,0.3-0.6,0.5c-0.1,0.1-0.2,0.2-0.3,0
		c0-0.1-0.1-0.1-0.2,0c-0.1,0.1-0.1,0.1-0.1,0.2c0.1,0.2,0,0.2-0.1,0.2c-0.1,0-0.1,0.1-0.2,0.1c-0.5,0.1-0.8,0.6-1.3,0.6
		c-0.5,0-0.9,0.3-1.4,0.4c-0.2,0-0.5,0.2-0.7,0.2c-0.3,0.1-0.6,0.4-0.9,0.4c-0.4,0-0.6,0.3-0.9,0.4c-0.7,0.1-1.4,0.4-2.1,0.5
		c-0.2,0-0.4,0.1-0.5,0c-0.3-0.1-0.5-0.1-0.7,0.2c0,0.1-0.1,0.2-0.2,0.1c-0.2-0.1-0.4,0-0.6,0.1c-0.6,0.1-1.3,0.1-1.9,0.3
		c-0.1,0.1-0.3,0.1-0.5,0c-0.1,0-0.2,0-0.2,0c-0.2,0.4-0.6,0.3-0.9,0.2c-0.4-0.1-0.7,0-1.1,0c-0.8,0.1-1.6,0.1-2.5,0.1
		c-0.1,0-0.2-0.2-0.4-0.1c-0.1,0.1-0.2,0.1-0.3,0c-0.1-0.1-0.3-0.1-0.5,0c-0.2,0.1-0.4,0.1-0.6,0c-0.3-0.1-0.6-0.1-0.9-0.1
		c-0.1,0-0.2,0-0.3,0c-0.4-0.3-0.9-0.2-1.3-0.1c-0.4,0-0.8-0.1-1.2,0c-0.5-0.4-1.3,0-1.8-0.4c-0.3,0.2-0.6,0-0.8-0.1
		c-0.1,0-0.2,0-0.2,0c-0.2,0.1-0.4,0.2-0.3-0.2c0-0.1,0-0.2-0.1-0.2c-0.1,0-0.2,0.1-0.1,0.2c0,0.1,0,0.1-0.1,0.1
		c-0.4-0.1-0.7-0.1-1.1-0.2c-0.4-0.1-0.7-0.4-1.1-0.4c-0.2,0-0.4-0.1-0.5-0.2c-0.3-0.2-0.5-0.3-0.9-0.2c-0.1,0-0.1,0-0.2,0
		c-0.6-0.4-1.3-0.6-2-0.7c-0.3,0-0.3-0.2-0.2-0.4c0-0.1,0.1-0.2-0.1-0.2c-0.1-0.1-0.2,0-0.2,0.1c-0.2,0.3-0.7,0.3-1,0
		c-0.1-0.1-0.1-0.2-0.3-0.1c-0.3,0.1-0.5,0-0.7-0.2c0,0-0.1-0.1-0.1-0.1c-0.4,0-0.7-0.2-1.1-0.3c-0.2,0-0.4-0.1-0.4-0.4
		c0-0.2-0.1-0.3-0.3-0.1c-0.1,0.1-0.2,0.1-0.2,0c0.1-0.4-0.2-0.3-0.4-0.3c-0.2,0-0.5,0.1-0.5-0.3c0-0.1-0.1-0.1-0.2,0
		c-0.1,0-0.2,0.1-0.2,0c-0.1-0.3-0.3-0.2-0.4-0.2c-0.2-0.1-0.5-0.1-0.7-0.3c-0.1-0.1-0.2-0.1-0.4-0.1c-0.2,0-0.5,0-0.6-0.3
		c0-0.1-0.1-0.1-0.2-0.1c-0.2,0-0.2-0.1-0.2-0.2c-0.1-0.3-0.4-0.6-0.7-0.6c-0.1,0-0.2,0.1-0.3-0.1c0-0.1,0.1-0.2,0.2-0.2
		c0.1,0,0.2-0.1,0.1-0.2c-0.1-0.1-0.2-0.1-0.2,0c-0.1,0.1-0.2,0.2-0.3,0.1c-0.4-0.1-0.8-0.3-1.1-0.6c-0.2-0.1-0.2-0.4-0.5-0.2
		c0,0-0.1,0-0.1-0.1c-0.1-0.3-0.4-0.3-0.6-0.4c-0.2-0.1-0.3-0.2-0.1-0.4c0.1-0.1,0.1-0.3-0.1-0.3c-0.1,0-0.2-0.1-0.2-0.1
		c-0.1,0-0.1-0.1-0.2,0c-0.1,0.1,0,0.1,0,0.2c0,0,0.1,0.1,0,0.2c-0.3-0.4-1-0.2-1.2-0.8c0,0,0,0-0.1,0c-0.3-0.1-0.6-0.3-0.9-0.5
		c-0.3-0.1-0.6-0.2-0.7-0.6c-0.3-0.5-0.6-0.9-1.1-1.3c-0.1-0.1-0.2-0.3-0.4-0.3c-0.4-0.1-0.7-0.2-1-0.5c-0.3-0.3-0.4-0.6-0.9-0.7
		c0,0-0.1-0.1-0.1-0.1c-0.2-0.3-0.3-0.6-0.4-0.9c0-0.1,0-0.2-0.1-0.1c-0.3,0-0.3-0.2-0.4-0.4c-0.1-0.1-0.1-0.2-0.3-0.2
		c-0.3-0.1-0.6-0.3-0.7-0.6c-0.1-0.5-0.5-0.7-0.7-1.1c0,0,0,0,0,0c0-0.2-0.1-0.4-0.2-0.6c-0.2-0.2-0.3-0.6-0.5-0.9
		c-0.3-0.5-0.3-1.1-0.7-1.4c-0.1-0.1-0.2-0.2-0.1-0.4c0-0.1,0-0.3-0.1-0.4c-0.2-0.3-0.2-0.6-0.1-0.9c0-0.1,0.1-0.3,0-0.3
		c-0.1-0.1-0.1-0.3-0.2-0.4c-0.1-0.5,0-1-0.3-1.4c0,0,0,0,0-0.1c0.3-0.6-0.2-1.3,0-2c0,0,0-0.1,0-0.1c-0.2-0.3,0-0.5,0-0.7
		c0.1-0.3,0.3-0.5,0.3-0.8c-0.1-0.4,0.1-0.9,0-1.3c0-0.1,0.1-0.2,0.1-0.3c0.1-0.2,0.2-0.3,0.2-0.6c0-0.1-0.2-0.3,0.1-0.4
		c0,0,0-0.1,0-0.1c-0.2,0-0.1-0.2-0.1-0.3c0.1-0.3,0-0.6,0.3-0.9c0.1-0.1,0-0.2,0-0.3c-0.1-0.1,0.1-0.6,0.2-0.7
		c0.4,0,0.5-0.2,0.3-0.5c0-0.1,0-0.1,0-0.2c0.1-0.3,0.2-0.6,0.2-1c0-0.2,0.2-0.3,0.3-0.5c0.1-0.2,0.8-0.2,0.4-0.7c0,0,0-0.1,0-0.1
		c0.1-0.2,0.1-0.4,0.3-0.6c0.2-0.2,0.2-0.4,0-0.5c0,0,0,0,0,0c0.1,0,0.1,0,0-0.1c0,0,0,0,0,0c0.2,0,0.5-0.2,0.4-0.3
		c0-0.2,0.1-0.3,0.2-0.5c0.1-0.2,0.5-0.3,0.4-0.7c0,0,0-0.1,0.1-0.1c0.2-0.1,0.4-0.3,0.3-0.6c0,0,0-0.2,0.1-0.2
		c0.1,0,0.1,0.1,0.1,0.1c0,0.1,0.1,0.1,0.2,0.1c0.1-0.1,0.1-0.2,0-0.2c-0.1-0.1-0.2-0.1-0.2-0.3c0,0,0,0,0,0c0.1,0,0.1-0.1,0.1-0.1
		l0,0c0,0,0,0,0,0c0.1,0,0.3,0,0.4-0.2c0.1-0.2,0.2-0.3,0.5-0.3c0.1,0,0.2,0,0.2-0.1c0.1-0.4,0.2-0.7,0.3-1.1c0,0,0-0.1,0-0.2
		c0,0,0,0,0,0c0.1,0.1,0.2,0,0.2-0.1c0.1-0.2,0.3-0.3,0.5-0.4c0.1-0.1,0.2-0.2,0.3-0.3c0.1-0.3,0.3-0.6,0.5-0.7
		c0.5-0.2,0.5-0.9,1.1-1c0,0,0.1-0.1,0.1-0.2c0.1-0.1,0.1-0.1,0.2-0.2c0.3-0.2,0.5-0.3,0.6-0.7c0.2-0.5,0.7-0.7,1.1-1.1
		c0.2-0.2,0.4-0.4,0.7-0.4c0.2,0,0.3-0.2,0.3-0.4c0-0.2,0.1-0.4,0.4-0.4c0.1,0,0.2-0.1,0.2-0.1c0.5-0.4,1-0.8,1.5-1.1
		c0.5-0.4,1-0.7,1.5-1c0.1-0.1,0.2-0.1,0.1-0.2c0,0,0,0,0,0c0.1,0.1,0.1,0.1,0.2,0c0.3-0.3,0.8-0.3,1.2-0.5c0,0,0,0,0,0
		c0.3-0.1,0.5-0.4,0.8-0.5c0.2-0.1,0.3,0,0.5-0.1c0.3-0.3,0.7-0.5,1.1-0.6c0.1,0,0.1-0.1,0.2-0.1c0.4-0.3,0.8-0.4,1.2-0.5
		c0.6-0.2,1.2-0.3,1.8-0.5c0.2-0.1,0.3-0.3,0.5-0.3c0.4-0.1,0.8-0.1,1.1-0.3c0.1-0.1,0.3,0,0.4,0c0.4,0.1,0.7-0.2,1.1,0
		c0,0,0.1,0,0.1-0.1c0.2-0.2,0.4-0.2,0.7-0.3c0.3-0.1,0.6,0,0.8-0.2c0.3-0.1,0.7-0.1,1.1-0.2c0.4-0.1,0.9-0.2,1.3-0.2
		c0.6,0,1.1,0,1.7-0.2c0.5-0.1,1,0,1.5,0c0.1,0,0.1,0,0.2,0c0.5,0.1,0.9,0,1.4,0c0.3,0,0.5,0,0.8,0c0.3,0.1,0.6,0.2,0.9,0.1
		c0.2-0.1,0.4-0.1,0.6,0c0.4,0.2,0.7,0,1.1,0.1c0.3-0.1,0.6,0,0.9,0.1c0.2,0.1,0.5,0.2,0.7,0.2c0.3,0,0.7,0,1,0c0.2,0,0.6,0,0.8,0.1
		C53.7,19.4,53.9,19.4,54.2,19.2z M37.9,31.4c0.1-0.1,0.1-0.2,0-0.3c-0.1,0-0.2-0.1-0.2,0c0,0,0,0,0,0c0-0.3-0.2-0.4-0.3-0.6
		c-0.2-0.3-0.2-0.3-0.5-0.1c-0.2-0.1-0.4-0.3-0.7-0.1c0.1,0.2,0.3,0.4,0.5,0.5c0.2,0.2,0.4,0.4,0.6,0.6c0.2,0.2,0.4,0.4,0.6,0.6
		c0,0.1,0.1,0.1,0.1,0.2c-0.1,0.3,0.3,0.4,0.3,0.6c-0.4,0.3-0.4,0.3,0,0.5c0.3,1.2,0.5,2.5,0,3.7c-0.2,0.6-0.4,1.2-0.8,1.8
		c-0.1,0-0.1,0-0.2,0.1c-0.1,0-0.2,0.1-0.2,0c-0.4-0.2-0.7-0.2-1.1-0.1c0,0-0.1,0-0.1,0c-0.5-0.1-1-0.2-1.5-0.3
		c-0.3-0.1-0.7,0-1-0.2C33,38.1,32.6,38,32.2,38c-0.1,0-0.2,0-0.3-0.1c-0.2-0.1-0.5-0.2-0.7-0.1c-0.1,0-0.2,0-0.3-0.1
		c-0.1-0.1-0.4-0.1-0.4-0.3c-0.2,0.3-0.4,0-0.6,0.1c-0.1,0-0.1,0.1-0.1,0.2c-0.1,0-0.1,0-0.2,0c-0.2,0-0.3-0.1-0.6,0
		c0.1,0.1,0.2,0.1,0.2,0.2c0,0.3,0.3,0.3,0.4,0.4c0.2,0.2,0.3,0.5,0.7,0.4c0.2-0.1,0.4,0,0.5,0.2c0,0.1,0.1,0.1,0.2,0.1
		c0.4,0.2,0.9,0.3,1.1,0.7c0.1,0.1,0.2,0.2,0.3,0.2c0.3-0.2,0.4,0.1,0.5,0.2c0.3,0.3,0.5,0.6,0.8,0.9c0.1,0,0.1,0.1,0.1,0.2
		c0,0.2,0,0.4,0.3,0.1c0,0,0.1,0,0.1,0c0.2,0.2,0.5,0.2,0.7,0.4c0.2,0.2,0.5,0.1,0.6,0.4c0,0,0.1,0,0.1,0c0.5-0.1,1,0,1.5,0.1
		c0.7,0.1,1.3,0.2,1.9,0.1c0.2,0,0.4-0.1,0.6,0c0.1,0,0.2,0,0.2,0c0.2-0.2,0.4-0.2,0.6-0.2c0.2,0,0.3-0.1,0.5-0.2
		c0.1-0.1,0.3-0.2,0.5-0.1c0.3,0.1,0.7-0.2,0.8-0.4c0.1-0.1,0.2-0.3,0.3-0.3c0.3,0,0.6-0.1,0.9-0.1c0.5,0.1,1,0.2,1.5,0.3
		c0.2,0.3,0.5,0.3,0.7,0.4c0,0,0.1,0,0.1,0c0.1,0.1,0.1,0.1,0.2,0.1c0.5,0.3,1.1,0.6,1.5,1c0.4,0.3,0.6,0.7,1,1.1
		c0,0,0.1,0.1,0.1,0.1c0.2,0.4,0.2,0.9-0.3,1c-0.1,0.1-0.2,0.2-0.3,0.3c-0.1,0.2-0.2,0.3-0.3,0.3c-0.4,0.2-0.7,0.6-0.9,1.1
		c0,0,0,0,0,0c-0.1,0.1-0.1,0.2-0.2,0.2c-0.6,0.1-0.6,0.6-0.8,1c-0.3,0.3-0.3,0.8-0.5,1.2c-0.3,0.5-0.2,1.1-0.4,1.7
		c0,0.1,0,0.1,0.1,0.2c-0.1,0.4-0.1,0.9-0.1,1.3c0.4,1.2,1.2,2,2.4,2.4c0.7,0.3,1.4,0.6,2.2,0.8c1,0.4,2.1,0.4,3.1,0.8
		c0.4,0.1,0.9,0.1,1.3,0.2c0.5,0.2,1.1,0.2,1.7,0.3c1.1,0.2,2.1,0.3,3.2,0.4c1,0.1,1.9,0.2,2.9,0.3c0.5,0,1,0,1.5,0.1
		c0.5,0.1,1,0,1.4,0c0.6,0,1.2-0.1,1.8-0.2c0.5-0.1,1.1-0.2,1.5-0.5c0.6-0.1,1.2-0.4,1.7-0.8c0.3-0.2,0.5-0.5,0.8-0.7
		c0.2-0.1,0.4-0.3,0.4-0.5c0-0.2,0.2-0.3,0.3-0.5c0.1-0.1,0.3-0.3,0.3-0.5c0.1-0.3,0.3-0.5,0.5-0.7c0.2-0.2,0.4-0.5,0.4-0.8
		c0.1-0.1,0.1-0.2,0.1-0.3c0-0.3,0-0.6,0-0.9c0-0.7,0.1-1.4,0-2c0-0.2-0.1-0.4-0.1-0.6c0.1-0.1,0.2-0.1,0.3,0
		c0.2,0.2,0.4,0.2,0.6,0.3c0.4,0.2,0.8,0.3,1.3,0.2c0.4,0,0.9-0.1,1.3-0.1c0.4,0.1,0.8,0,1.1-0.2c0.1,0,0.1-0.1,0.2-0.1
		c0.3,0,0.4-0.1,0.6-0.3c0.3-0.3,0.7-0.6,1-1c0.1-0.1,0.3-0.1,0.3-0.3c0-0.4,0.2-0.9,0.1-1.3c0-0.2-0.1-0.3-0.3-0.3
		c0-0.1,0-0.2,0-0.2c0-0.2-0.1-0.3-0.1-0.5c0-0.1-0.1-0.3-0.2-0.3c-0.2-0.1-0.4-0.3-0.5-0.4c-0.1-0.1-0.3-0.2-0.4-0.1
		c-0.2,0-0.4,0-0.5-0.1c-0.2-0.1-0.3-0.1-0.5-0.1c-0.7,0-1.5,0-2.2,0.2c-0.4,0.1-0.8,0.2-1,0.6c-0.4,0.2-0.8,0.3-1,0.6
		c-0.2-0.3-0.6-0.4-0.7-0.8c0,0,0,0,0,0c-0.2-0.1-0.3-0.2,0-0.4c0.1-0.1,0.3-0.2,0.4-0.1c0.3,0,0.5-0.1,0.6-0.3c0.1,0,0.1,0,0.2-0.1
		c0.2,0.1,0.4,0.1,0.6,0.1c0.1,0,0.2,0,0.2-0.1c0-0.1,0-0.1-0.1-0.2c-0.1,0-0.2-0.1-0.3-0.2c0.4-0.5,1.1-0.5,1.4-1.1
		c0.1-0.2,0.3-0.2,0.3-0.5c0-0.1,0.1-0.1,0.1-0.1c0.2,0.3,0.4,0,0.5,0c0.3-0.1,0.1-0.4,0.1-0.6c0-0.1-0.1-0.2-0.2-0.2
		c-0.2,0-0.5-0.1-0.7,0c-0.5,0.2-1.1,0.2-1.6,0.2c-0.1,0-0.2,0-0.3,0c-0.4,0.2-0.8,0.1-1.2,0.2c-0.3,0-0.5,0-0.8,0.1
		c-0.5,0.2-0.6,0.1-0.8-0.1c0.4-0.5,0.7-1,1.2-1.4c0.2-0.1,0.3-0.2,0.5-0.4c0.1-0.2,0.2-0.4,0.5-0.4c0.1,0,0.1-0.1,0-0.2
		c-0.1-0.1-0.1-0.1-0.2-0.1c0.1-0.1,0.1-0.2,0.2-0.2c0,0,0.1,0.1,0.1,0c0.3-0.3,0.6-0.5,0.7-0.9c0.5,0,0.9-0.2,1.3-0.4
		c0.5-0.2,1.1-0.2,1.6-0.4c0.1,0,0.2,0,0.3-0.1c0-0.1-0.1-0.2-0.2-0.2c-0.2,0-0.3,0-0.5-0.2c0,0-0.1,0-0.1,0c-0.5,0.1-0.9,0-1.4,0.1
		c-0.2,0-0.3,0.1-0.4,0.3c0,0,0,0-0.1,0c-0.3-0.1-0.6-0.1-0.9-0.1c-0.2,0-0.4,0.2-0.6,0.2c-0.5-0.1-1.1,0.2-1.6,0.1
		c-0.1,0-0.1,0.1-0.2,0.2c-0.2,0.2-0.3,0.5-0.6,0.5c-0.2,0-0.4,0.1-0.5,0.2c-0.1,0.1-0.2,0.1-0.3,0.1c-0.2-0.2-0.3-0.2-0.4,0
		c-0.2,0.4-0.5,0.7-0.9,0.7c-0.3,0-0.5,0-0.7,0.2c-0.1,0.1-0.4,0.2-0.5,0c-0.3-0.3-0.3,0-0.4,0.1c-0.1,0-0.2,0-0.2,0.1
		c-0.5,0-1,0.1-1.5,0.2c-1.3,0.2-2.7,0.3-4,0.5c-1.3,0.2-2.7,0.2-4.1,0.1c-1.1,0-2.1-0.3-3.2-0.3c0-0.1,0-0.2-0.1-0.3
		c-0.1-0.1-0.2-0.2,0-0.3c0.1-0.1,0.2-0.2,0.1-0.3c-0.1-0.1-0.2,0-0.3-0.1c0,0-0.1,0-0.1,0c0,0-0.1,0-0.1,0c0,0,0-0.1-0.1-0.1
		c-0.3,0-0.6-0.3-1-0.2c-0.2,0.1-0.4,0-0.7-0.1c-0.3-0.2-0.7-0.1-1-0.1c-0.8,0-1.4-0.5-2.1-0.5c-0.1,0-0.2-0.1-0.2-0.2
		c0-0.1-0.3-0.2-0.5-0.2c-0.2,0-0.3,0-0.3-0.1c-0.1-0.2-0.2-0.2-0.4-0.2c-0.1,0-0.2,0-0.2-0.1c-0.1-0.1-0.2-0.3-0.5-0.1
		c-0.1,0-0.1,0-0.1-0.1c0-0.1,0-0.1-0.1-0.1c-0.2,0-0.3-0.1-0.5,0l0,0c0.1-0.1,0-0.2,0-0.3c-0.2-0.3-0.6-0.4-0.9-0.6
		c-0.2-0.1-0.4-0.2-0.5-0.4c0-0.1-0.1-0.2-0.2-0.2c-0.6-0.2-1.1-0.5-1.6-0.9c-0.1-0.1-0.4-0.2-0.3-0.5c0,0-0.1-0.1-0.1-0.1
		c-0.3-0.3-0.6-0.2-0.9-0.1l0,0c0.1-0.2-0.1-0.2-0.2-0.1l0,0c0-0.1,0-0.1-0.1-0.2c-0.2-0.3-0.4-0.4-0.6-0.6
		c-0.2-0.2-0.4-0.3-0.7-0.2c0,0,0,0,0,0c0.1-0.1,0.2-0.3,0-0.4C38.4,31.4,38.2,31.3,37.9,31.4C37.9,31.4,37.9,31.4,37.9,31.4z
		 M58.3,59.1c0.1,0,0.3,0,0.4-0.1c0.1,0,0.3-0.2,0.1-0.3c-0.2-0.1-0.3-0.2-0.5-0.3c-0.3-0.2-0.5-0.1-0.7,0.2c-0.1,0-0.1,0-0.1-0.1
		c-0.2-0.3-0.5-0.4-0.9-0.4c-0.2,0-0.3,0-0.5,0c-0.7,0-1.5-0.2-2.2-0.2c-0.8-0.1-1.6-0.4-2.4-0.5c-0.7-0.1-1.3-0.4-1.9-0.5
		c0-0.2-0.1-0.3-0.4-0.3c-0.4,0-0.7-0.3-1.1-0.5c-0.1,0-0.2-0.1-0.3-0.1c-0.6-0.2-1.1-0.5-1.7-0.8c0-0.2-0.1-0.3-0.3-0.4
		c-0.2-0.1-0.4-0.1-0.6-0.2c-0.3-0.2-0.8-0.3-1-0.7c0-0.1-0.1-0.1-0.2-0.1c0-0.1,0-0.1-0.1-0.2c-0.6-0.5-1.1-1-1.8-1.4
		c-0.1,0-0.2-0.1-0.2-0.1c-0.1-0.4-0.4-0.5-0.7-0.6c-0.2-0.1-0.4-0.2-0.5,0c-0.1,0.2-0.3,0.4-0.1,0.6c0,0.5,0,1.1,0.1,1.6
		c0.1,0.5,0.1,1.1,0.4,1.6c0.3,0.5,0.5,1.1,0.9,1.5c0.1,0.1,0.2,0.3,0.3,0.5c0.3,0.3,0.3,0.8,0.8,0.9c0,0,0.1,0.1,0.1,0.1
		c0.1,0.3,0.4,0.4,0.6,0.5c0.2,0.2,0.5,0.2,0.7,0.4c0,0.1,0,0.2,0.1,0.2c0.3,0.1,0.4,0.3,0.7,0.4c0.4,0.1,0.7,0.3,1.1,0.3
		c0.4,0,0.7,0,1,0.3c0.3,0.3,0.8,0.3,1.2,0.4c0.1,0,0.3,0,0.3-0.1c0.2,0,0.3,0,0.5,0.1c0,0,0.1,0.1,0.1,0.1c0.4,0.1,0.8,0.2,1.1,0.4
		c0.1,0,0.2,0.1,0.3,0c0.3-0.1,0.5-0.2,0.8-0.2c0.4,0,0.8,0,1.3,0c0.1,0,0.2,0,0.2,0c0.3-0.3,0.6-0.2,0.9-0.2c0.2,0,0.4,0,0.5-0.3
		c0,0,0.1,0,0.1,0c0.2,0,0.4,0,0.5-0.2c0.7-0.4,1.5-0.4,2.2-0.7C58.2,59.5,58.3,59.4,58.3,59.1C58.3,59.1,58.3,59.1,58.3,59.1z
		 M44.4,62.1C44.4,62.1,44.4,62.1,44.4,62.1c-0.1-0.1-0.2-0.2-0.3-0.3c-0.1-0.1-0.2-0.3-0.4-0.1c-0.2,0.1-0.2,0.3-0.1,0.5
		c0.1,0.4,0.4,0.8,0.7,1.1c0.4,0.7,0.9,1.2,1.7,1.5c0.3,0.1,0.6,0.4,0.9,0.4c0.4,0,0.8,0.2,1.2,0.2c1,0.1,1.9,0.1,2.9-0.1
		c0.7-0.1,1.3-0.3,2-0.4c0.2,0,0.4,0,0.5-0.2c0.1-0.1,0.1-0.1,0.2-0.1c0.4,0,0.6-0.2,0.9-0.4c0.1-0.1,0.3-0.1,0.4-0.2
		c0.2-0.1,0.5-0.2,0.7-0.4c0.3,0,0.4-0.2,0.6-0.4c0.3,0,0.5,0,0.7-0.1c0.2-0.1,0.2-0.3,0.2-0.4c0-0.2-0.2-0.1-0.3-0.2
		c-0.2,0-0.4,0-0.5,0.1c-0.2,0-0.3,0.1-0.3,0.3C56,63,56,63,55.9,63c-0.2-0.1-0.4,0-0.5,0.2c-0.9,0.1-1.7,0.5-2.6,0.6
		c-0.9,0.1-1.7,0.1-2.6,0c-0.7-0.1-1.3-0.3-2-0.2c-0.1-0.2-0.2-0.3-0.4-0.3c-0.3,0-0.6-0.1-0.8-0.2c-0.6-0.2-1.1-0.5-1.7-0.7
		C45,62.3,44.7,62.1,44.4,62.1z M28.5,49c0.7,0,1.4,0.1,2.1,0.1c1.1,0.1,2.2,0,3.3-0.2c0.6,0.1,1.1-0.3,1.7-0.3
		c0.3,0,0.7-0.1,0.9-0.4c0.1-0.1,0.2-0.1,0.3-0.2c0.2-0.2,0.5-0.3,0.6-0.6c0.3-0.8,0.1-1.8-0.6-2.4c-0.3-0.3-0.7-0.4-1.1-0.6
		c-0.4-0.2-0.8-0.3-1.1-0.6c-0.3-0.2-0.7-0.2-1.1-0.3c-0.2-0.1-0.4-0.2-0.7-0.1c-0.2,0-0.3-0.1-0.5-0.1c-0.8-0.2-1.6-0.4-2.5-0.5
		c-0.8-0.1-1.7-0.2-2.5-0.2c-0.8,0-1.5,0-2.3,0c-0.1,0-0.3,0-0.4,0c-0.4,0-0.8,0.2-1.2,0.2c-0.7,0-1.5,0.3-2.1,0.6
		c-0.5,0.2-1.1,0.1-1.4,0.8c-0.2,0.4-0.4,0.8-0.2,1.2c0.2,0.6,0.5,1.2,1.1,1.5c0.2,0.1,0.5,0.2,0.7,0.4c0.5,0.3,1,0.6,1.6,0.7
		c0.8,0.2,1.6,0.5,2.4,0.7c0.9,0.2,1.8,0.3,2.7,0.4C28.2,49.1,28.4,49.1,28.5,49z M18.6,57.1c-0.1,0-0.2,0-0.1,0.1
		c0,0.1,0.1,0.2,0.2,0.2c0.1,0,0.1,0,0.1-0.1C18.7,57.2,18.7,57.1,18.6,57.1z"/>
	<path class="st2" d="M46.4,8.4c0.9-0.1,1.8-0.1,2.7,0c0.5,0,0.8,0.2,1.1,0.6c1.3,1.8,2.5,3.6,3.5,5.5c0.6,1,1.1,2.1,1.6,3.2
		c0,0.1,0,0.1,0.1,0.2c0.1,0.3,0,0.3-0.2,0.2c-1.3-0.3-2.6-0.5-4-0.6c-2.4-0.2-4.9-0.4-7.3-0.3c0-0.1,0-0.3,0.1-0.4
		c0.1-0.1,0.2-0.1,0.3-0.2c0.2-0.1,0.4-0.1,0.6-0.3c0.3-0.3,0.8-0.5,1-0.8c0,0,0.1,0,0.1-0.1c0.3-0.2,0.5-0.4,0.6-0.7
		c0.1-0.4,0.1-0.8,0.1-1.2c0.1-0.8-0.1-1.6-0.3-2.3c-0.1-0.4-0.1-0.8-0.2-1.1c-0.1-0.5-0.4-1-0.2-1.5C46.1,8.5,46.4,8.6,46.4,8.4z"
		/>
	<path class="st3" d="M21.4,61.5c0.1,0.3,0.4,0.5,0.7,0.6c0.3,0.1,0.6,0.4,0.9,0.5c0,0,0.1,0,0.1,0c0.2,0.6,0.9,0.4,1.2,0.8
		c0.1-0.1,0-0.1,0-0.2c0-0.1-0.1-0.1,0-0.2c0.1,0,0.1,0,0.2,0c0.1,0,0.1,0.1,0.2,0.1c0.2,0,0.2,0.1,0.1,0.3c-0.1,0.2,0,0.3,0.1,0.4
		c0.2,0.1,0.5,0.2,0.6,0.4c0,0,0.1,0.1,0.1,0.1c0.3-0.2,0.3,0,0.5,0.2c0.3,0.2,0.7,0.5,1.1,0.6c0.1,0,0.2,0,0.3-0.1
		c0-0.1,0.2-0.1,0.2,0c0.1,0.1,0,0.2-0.1,0.2c-0.1,0-0.2,0.1-0.2,0.2c0,0.1,0.2,0.1,0.3,0.1c0.2,0,0.6,0.3,0.7,0.6
		c0,0.1,0.1,0.2,0.2,0.2c0.1,0,0.2,0,0.2,0.1c0.1,0.3,0.3,0.3,0.6,0.3c0.2,0,0.3,0,0.4,0.1c0.2,0.2,0.4,0.2,0.7,0.3
		c0.1,0.1,0.4,0,0.4,0.2c0,0.1,0.1,0,0.2,0c0.1,0,0.2,0,0.2,0c0.1,0.3,0.3,0.2,0.5,0.3c0.2,0,0.5-0.1,0.4,0.3c0,0.1,0.1,0.1,0.2,0
		c0.1-0.2,0.2-0.2,0.3,0.1c0,0.3,0.2,0.3,0.4,0.4c0.4,0.1,0.7,0.3,1.1,0.3c0.1,0,0.1,0.1,0.1,0.1c0.2,0.2,0.4,0.3,0.7,0.2
		c0.1-0.1,0.2,0,0.3,0.1c0.3,0.2,0.7,0.2,1,0c0.1-0.1,0.1-0.1,0.2-0.1c0.1,0.1,0.1,0.1,0.1,0.2c-0.1,0.2,0,0.4,0.2,0.4
		c0.7,0.1,1.4,0.3,2,0.7c0.1,0,0.1,0.1,0.2,0c0.3-0.1,0.6,0,0.9,0.2c0.2,0.1,0.3,0.2,0.5,0.2c0.4,0,0.7,0.3,1.1,0.4
		c0.3,0.1,0.7,0.1,1.1,0.2c0.1,0,0.2,0,0.1-0.1c0-0.1,0-0.2,0.1-0.2c0.1,0,0.2,0.1,0.1,0.2c-0.1,0.4,0.1,0.3,0.3,0.2
		c0.1,0,0.2-0.1,0.2,0c0.3,0.1,0.5,0.3,0.8,0.1c0.5,0.4,1.3,0,1.8,0.4c0.4-0.1,0.8,0.1,1.2,0c0.4-0.1,0.9-0.2,1.3,0.1
		c0.1,0.1,0.2,0.1,0.3,0c0.3-0.1,0.6,0,0.9,0.1c0.2,0,0.4,0.1,0.6,0c0.2-0.1,0.3-0.1,0.5,0c0.1,0.1,0.2,0.1,0.3,0
		c0.2-0.1,0.3,0.1,0.4,0.1c0.8,0,1.6,0,2.5-0.1c0.4-0.1,0.7-0.2,1.1,0c0.2,0.1,0.6,0.1,0.9-0.2c0.1-0.1,0.2-0.1,0.2,0
		c0.2,0.1,0.4,0.1,0.5,0c0.6-0.3,1.3-0.2,1.9-0.3c0.2-0.1,0.4-0.2,0.6-0.1c0.1,0,0.2-0.1,0.2-0.1c0.2-0.3,0.4-0.3,0.7-0.2
		c0.2,0.1,0.4,0,0.5,0c0.7-0.1,1.4-0.3,2.1-0.5c0.3-0.1,0.5-0.4,0.9-0.4c0.4,0,0.6-0.3,0.9-0.4c0.2-0.1,0.4-0.2,0.7-0.2
		c0.5-0.1,0.9-0.4,1.4-0.4c0.5,0,0.8-0.5,1.3-0.6c0.1,0,0.1-0.1,0.2-0.1c0.2,0,0.3,0,0.1-0.2c-0.1-0.1,0-0.2,0.1-0.2
		c0.1-0.1,0.1,0,0.2,0c0.1,0.2,0.2,0.1,0.3,0c0.1-0.2,0.4-0.3,0.6-0.5c0.1-0.1,0.2-0.1,0.2,0c0.2,0.2,0.3,0.1,0.4,0
		c0.1-0.2,0.3-0.2,0.5-0.2c0.2,0,0.4-0.1,0.5-0.3c0-0.1,0.1-0.2,0.3-0.2c0.1,0,0.1-0.1,0.2-0.1c0.1-0.1,0.2-0.2,0.4-0.1
		c0.1,0,0.2,0,0.3-0.1c0.3-0.3,0.6-0.5,1-0.8c0.1-0.1,0.3-0.2,0.1-0.4C73,65.2,73.4,65,73.6,65c0.4,0.2,1-0.2,1-0.6
		c0-0.2-0.1-0.4,0.3-0.4c0.3,0,0.7-0.3,0.8-0.6c0-0.1,0-0.2,0-0.2c-0.1-0.4,0.1-0.5,0.5-0.5c0.1,0,0.2,0.1,0.3,0
		c0.2,0,0.4-0.2,0.3-0.4c0,0,0-0.1,0-0.1c0.4-0.2,0.2-0.8,0.7-0.9c0,0,0.1,0,0.1,0c0.2,0,0.4-0.1,0.5-0.4c0.1-0.3,0.3-0.6,0.6-0.8
		c0.2-0.2,0.6-0.3,0.5-0.7c0-0.1,0.2-0.2,0.2-0.3c0.1-0.3,0.1-0.6,0.2-1c0-0.1,0.1-0.2,0.2-0.3c0.3-0.5,0.7-1,0.5-1.7
		c-0.1-0.2,0-0.4,0.1-0.6c0.2-0.5,0-1,0.2-1.4c-0.2-0.8,0-1.5-0.2-2.3c0-0.1,0-0.2,0.1-0.3c0.2-0.3,0.1-0.5,0.1-0.8
		c-0.1-0.3-0.1-0.5-0.1-0.8c0-0.3,0-0.6-0.1-1c-0.2-0.5,0-1-0.1-1.5c0-0.3-0.2-0.6-0.2-0.9c0-0.1,0-0.2,0-0.3c0-0.3,0.1-0.6-0.1-0.8
		c-0.1-0.3-0.1-0.7-0.2-1c0-0.4-0.3-0.7-0.3-1.1c0-0.1,0-0.2-0.1-0.2c-0.4-0.4-0.2-1-0.3-1.5c-0.1-0.3-0.2-0.6-0.3-0.9c0,0,0,0,0,0
		c-0.5,0-0.3-0.4-0.3-0.6c-0.1-0.4-0.2-0.8-0.3-1.2c-0.1-0.4-0.3-0.9-0.8-1.1c-0.1,0-0.1-0.1-0.1-0.2c0,0,0-0.1,0-0.1
		c0.2-0.3-0.4-0.4-0.2-0.6c0.2-0.3,0-0.4-0.2-0.6c-0.1-0.1-0.2-0.3-0.2-0.4c0-0.2-0.3-0.3-0.4-0.5c-0.1-0.1-0.2-0.1-0.1-0.2
		c0.1-0.1,0-0.1-0.1-0.1c-0.2-0.1-0.3-0.2-0.2-0.5c0-0.2,0-0.5-0.2-0.7c-0.2-0.3-0.3-0.8-0.6-1c-0.5-0.3-0.5-0.9-0.9-1.2
		C74.2,31.1,74.1,31,74,31c-0.2,0-0.3-0.2-0.2-0.3c0.1-0.2,0-0.2-0.1-0.3c-0.2,0-0.3-0.1-0.2-0.3c0-0.2-0.2-0.4-0.3-0.6
		c-0.6-0.8-1.4-1.5-2.2-2.2c-0.4-0.3-0.8-0.6-1.1-1c0,0-0.1-0.1-0.2-0.1c-0.2-0.2-0.5-0.2-0.5-0.5c0,0,0-0.1,0-0.1
		c-0.5,0-0.7-0.7-1.3-0.4c-0.1,0.1-0.2-0.1-0.1-0.1c0.1-0.3,0-0.5-0.2-0.7c0,0,0-0.1,0-0.1c0.6,0.3,1.1,0.8,1.6,1.2
		c0.5,0.4,0.9,0.8,1.4,1.2c0.9,0.8,1.7,1.6,2.6,2.5c0.4,0.5,0.8,1,1.2,1.5c1.1,1.4,2,2.9,2.8,4.5c0.9,1.7,1.6,3.4,2.1,5.2
		c0.5,1.6,0.9,3.2,1.2,4.8c0.2,1,0.3,1.9,0.4,2.9c0.1,0.8,0,1.5,0.1,2.3c0.2,1.1,0.1,2.2,0.1,3.3c0,1.1-0.1,2.2-0.4,3.3
		c-0.6,2.1-1.8,3.9-3.2,5.5c-0.6,0.7-1.3,1.4-2,2c-0.6,0.4-1.1,0.9-1.7,1.3c-0.8,0.6-1.6,1.1-2.5,1.6c-1.5,0.9-3.1,1.6-4.7,2.2
		c-1.8,0.7-3.6,1.3-5.5,1.7c-1.1,0.2-2.3,0.4-3.5,0.6c-1.4,0.2-2.8,0.3-4.2,0.4c-1.4,0.1-2.8,0.1-4.2,0c-0.9-0.1-1.7-0.1-2.6-0.2
		c-1-0.2-2.1-0.3-3.1-0.4c-1.7-0.3-3.4-0.7-5.1-1.2c-1.3-0.4-2.6-0.8-3.9-1.3c-1-0.4-2-0.8-3-1.3c-0.3-0.2-0.7-0.4-1-0.6
		c-0.2-0.1-0.4-0.2-0.6-0.3c-0.4-0.2-0.9-0.4-1.3-0.6c-0.6-0.4-1.3-0.6-1.9-1c-0.4-0.3-1-0.5-1.4-0.9c-0.1-0.1-0.4-0.1-0.5-0.2
		c-0.1-0.1-0.3-0.3-0.4-0.4c-0.2-0.2-0.4-0.4-0.7-0.3c-0.2,0-0.4-0.1-0.4-0.3c0-0.2-0.2-0.3-0.3-0.4c-0.2-0.2-0.5-0.3-0.8-0.4
		c-0.1-0.1-0.3-0.1-0.4-0.2c-0.7-0.7-1.3-1.4-2-2c0,0-0.1-0.1-0.1-0.1c-0.4,0-0.6-0.3-0.8-0.5c-0.2-0.2-0.4-0.4-0.7-0.4
		c-0.2,0-0.4-0.2-0.4-0.5c0-0.2-0.2-0.4-0.3-0.5c-0.4-0.4-0.9-0.8-1.3-1.3c-0.3-0.3-0.4-0.7-0.7-1.1c-0.1-0.1-0.1-0.2-0.1-0.4
		c0.2,0.4,0.6,0.6,0.7,1.1c0.1,0.3,0.4,0.5,0.7,0.6c0.1,0.1,0.2,0.1,0.3,0.2c0.1,0.2,0.2,0.4,0.4,0.4c0.1,0,0.1,0.1,0.1,0.1
		c0.1,0.3,0.3,0.6,0.4,0.9c0,0,0.1,0.1,0.1,0.1c0.4,0,0.6,0.4,0.9,0.7c0.3,0.3,0.6,0.4,1,0.5c0,0.1,0,0.2,0.1,0.3
		c0.3,0.3,0.5,0.5,0.8,0.8C21,61.1,21.1,61.4,21.4,61.5z"/>
	<path class="st1" d="M32.3,11.9c-0.3,0.2-0.5,0.3-0.8,0.5c-0.1,0.1-0.2,0-0.2-0.1c0-0.2,0-0.5,0.1-0.7c0.1-0.1,0.1-0.4,0.2-0.5
		c0.3-0.2,0.3-0.6,0.4-0.8c0.1-0.4,0.5-0.6,0.8-0.8c0.3-0.1,0.6-0.3,0.8-0.6C34,8.3,34.5,8.2,35,8.1c0.4-0.1,0.8,0,1.1-0.2
		c0.4-0.3,1-0.3,1.4-0.5c0.4-0.2,0.8,0.1,1.1-0.1c0.5-0.2,1-0.1,1.4-0.4c0,0,0.1,0,0.1,0c0.3,0,0.5,0,0.8,0c0.5,0,0.9,0.1,1.3-0.3
		c0,0,0.1-0.1,0.2-0.1c0.5,0,1-0.1,1.5-0.1c0.1,0,0.3,0.1,0.4,0c0.3-0.2,0.7-0.1,1-0.1c-0.1,0.5,0.2,1,0.3,1.5c-0.3-0.1-0.5,0-0.8,0
		c-0.9,0-1.7,0.4-2.6,0.4c-0.1,0-0.1,0-0.2,0c-0.3,0.2-0.6,0.1-0.9,0c-0.1,0-0.1,0-0.2-0.1c-0.1,0-0.2,0-0.3,0.1
		c-0.1,0.1,0.1,0.1,0.2,0.2C41,8.3,41,8.3,41,8.4c0,0.1-0.1,0.1-0.2,0.1c-0.1,0-0.1,0-0.2,0c-0.6-0.1-1.2,0.2-1.7,0.4
		C38.5,9,38,9.2,37.6,9.3c-0.1,0-0.2,0-0.2,0c-0.3-0.2-0.5,0-0.7,0.1c-0.2,0.1-0.3,0.1-0.5,0.1c-0.1,0-0.1,0-0.2,0
		c-0.4,0.5-1.2,0.6-1.6,1c0,0-0.2,0-0.2,0c-0.2-0.3-0.7-0.2-0.9-0.5c-0.1-0.1-0.2-0.1-0.2,0c-0.1,0.1,0,0.1,0.1,0.2
		c0.2,0.1,0.3,0.2,0.5,0.3c0.1,0.1,0.2,0.1,0.1,0.2c-0.4,0.4-0.8,0.6-1.3,0.7c-0.1,0-0.2,0.1-0.2,0.2C32.1,11.7,32.2,11.8,32.3,11.9
		z"/>
	<path class="st3" d="M71,21.3c-0.6,0.2-1.3,0.3-1.8,0.6C69,22,68.9,22,68.7,22c-0.3,0.1-0.5,0.3-0.7,0.5c-0.1,0.1-0.1,0.3,0.1,0.4
		c0.4,0.2,0.8,0.4,1.1,0.7c0.6-0.2,0.4,0.4,0.7,0.6c0.1,0,0.2,0.2,0,0.3c-0.8-0.6-1.7-1.2-2.5-1.7c-0.1,0-0.2-0.1-0.2-0.2
		c0-0.1,0.1-0.1,0.2-0.1c0.9-0.4,1.8-0.8,2.7-1.1c0.3-0.1,0.6-0.1,0.9-0.3c0.3-0.2,0.6-0.4,0.9-0.3c0.4-0.5,1-0.2,1.5-0.3
		c0.5-0.1,1-0.1,1.6-0.1c3.7,0,7.5,0,11.2,0c0.5,0,0.5,0,0.4,0.5c-0.2,1.2-0.4,2.3-0.9,3.4c-0.3,0.9-0.8,1.8-1.3,2.7
		c-0.3,0.5-0.7,0.9-1.1,1.3c-0.4,0.5-0.9,0.9-1.4,1.4c-0.5,0.6-1.2,0.9-1.9,1.3c-0.9,0.6-1.9,0.9-2.9,1.3c-0.4,0.1-0.5,0.1-0.7-0.2
		c-0.5-0.9-1.1-1.7-1.7-2.5c-0.1-0.2-0.2-0.4-0.4-0.5c0,0,0-0.1-0.1-0.1c-1.1-1.2-2.1-2.4-3.3-3.4c-0.3-0.3-0.7-0.6-1-0.9
		c0.2-0.2,0.4-0.1,0.5,0.1c0.2,0.3,0.6,0.5,0.9,0.7c0.1,0,0.1,0,0.1,0.1c0.2,0.4,0.6,0.7,0.9,1.1c0.1,0.2,0.2,0.2,0.4,0.2
		c0.1,0,0.2,0.1,0.2,0.2c-0.1,0.2,0,0.3,0.1,0.3c0.2,0,0.4,0.4,0.7,0.3c0.1,0,0.4,0.5,0.3,0.6c0,0.1,0,0.2,0,0.2
		c0.3,0.2,0.4,0.6,0.7,0.7c0.1,0,0.1,0.1,0.1,0.1c0,0.4,0.3,0.5,0.5,0.6c0.4,0.1,0.3,0.5,0.4,0.7c0.1,0.4,0.4,0.7,0.6,1
		c0.1,0.1,0.2,0.1,0.2-0.1c0-0.1,0-0.1,0.1-0.1c0.1,0,0.1,0,0.1,0.1c0.2,0.3,0.7,0.4,0.9,0.1c0.1-0.1,0.2-0.2,0.4-0.2
		c0.4,0,0.7-0.1,0.9-0.4c0.1-0.2,0.3-0.1,0.5-0.2c0.2-0.1,0.4,0,0.3-0.4c0-0.1,0-0.2,0.1-0.2c0.3,0.1,0.3-0.2,0.4-0.4
		c0-0.2,0.1-0.3,0.3-0.2l0,0c0,0.1,0,0.2,0.1,0.2c0.2-0.1,0.3,0.1,0.5-0.1c0.2-0.2,0.3-0.5,0.5-0.7c0.3-0.4,0.6-0.8,0.9-1.2
		c0.1-0.1,0.2-0.2,0.4-0.2c0.2,0,0.4-0.2,0.4-0.5c0-0.2,0.1-0.3,0.3-0.4c0.4-0.1,0.5-0.8,0.2-1c0,0-0.1-0.1-0.1-0.1
		c0-0.1,0.1,0,0.1,0c0.2,0,0.3-0.1,0.5-0.2c0.1-0.1-0.2-0.2,0-0.4c0.1-0.1,0.3,0,0.4-0.2c0.1-0.2,0.2-0.5,0.2-0.7
		c0-0.1,0-0.2-0.2-0.3c-0.2,0-0.1-0.2-0.1-0.3c0-0.1,0.1,0,0.2-0.1c0.2-0.1,0.4-0.1,0.6-0.4c0.2-0.3,0.2-0.7,0.4-1
		c0.1-0.4,0.2-0.9,0.2-1.3c0-0.2-0.1-0.3-0.3-0.3c-0.5-0.1-1,0-1.6-0.1c-0.4,0-0.7,0-1.1,0c-0.1,0-0.2,0-0.3,0c-0.7,0.1-1.3,0-2,0
		c-0.7,0-1.3,0.1-2,0c-0.7-0.1-1.5,0.1-2.2,0c-0.8-0.1-1.6,0-2.4,0c-0.2,0-0.5,0-0.7-0.1c-0.3-0.1-0.7,0.2-1,0.2
		c-0.5-0.1-0.8,0.3-1.3,0.4c0,0-0.1,0.1-0.1,0.1C71.3,21.2,71.2,21.3,71,21.3z"/>
	<path class="st3" d="M19.2,28.9c-0.1-0.2-0.3-0.3,0.1-0.5c0.1,0,0.2-0.2,0.3-0.3c0.1,0,0.1-0.1,0-0.2c-0.1-0.1,0-0.2,0-0.3
		c0.2,0,0.3-0.2,0.4-0.3c0.1,0,0.1,0.1,0.1,0c0.5-0.4,1-0.9,1.5-1.4c0-0.1,0.1-0.1,0-0.2c-0.1-0.1,0-0.2,0.1-0.2
		c0.1,0,0.1-0.1,0.2-0.2c0-0.1,0.1-0.2,0.2-0.1c0.2,0.1,0.4,0,0.5-0.2c0.4-0.3,0.8-0.6,1.2-0.9c0.6-0.4,1.1-0.9,1.7-1.3
		c0.3-0.1,0.3-0.4,0.5-0.6c0,0,0-0.1,0-0.1c-0.1-0.2-0.7-0.2-0.8,0c-0.1,0.1-0.1,0-0.2,0c-0.4-0.3-0.7-0.6-1.2-0.8
		c-0.2-0.1-0.3-0.3-0.5-0.4c-0.3-0.2-0.6-0.3-1-0.4c-0.1,0-0.2,0-0.3,0.1c-0.1,0.2-0.3,0.2-0.3,0c-0.2-0.3-0.4-0.5-0.6-0.8
		c-0.1-0.1-0.1-0.2-0.3-0.1c-0.4,0-0.7-0.3-1.1-0.1c-0.1,0-0.1-0.1-0.1-0.1c-0.2-0.1-0.5-0.2-0.8-0.4c0,0-0.1,0-0.1,0.1
		c-0.3,0.2-0.3,0.2-0.5-0.1c-0.1-0.2-0.3-0.4-0.5-0.4c-0.3,0-0.6-0.1-0.8-0.3c-0.2-0.1-0.4-0.1-0.6,0c-0.1,0-0.2,0-0.2,0
		c-0.5-0.2-1,0-1.5,0.1c-0.2,0-0.4,0-0.5,0c-0.3,0-0.5,0.1-0.6,0.4c0,0.2-0.2,0.2-0.3,0.1c-0.2-0.1-0.4-0.1-0.6,0
		c-0.6,0.3-1.2,0.3-1.9,0.6c-0.3,0.1-0.5,0.1-0.8,0.2c0,0-0.1,0-0.1,0c-0.3,0.4-0.9,0.2-1.2,0.6c0,0.1-0.2,0-0.3,0c0,0,0-0.1,0-0.1
		C8.6,20.2,9,20,9.5,19.8c0,0,0,0,0,0l0,0c1.1-0.4,2.1-0.7,3.2-1.1c1-0.3,2-0.5,3-0.6c0.7-0.1,1.4,0.2,2,0.4c2.6,0.9,5.2,2,7.7,3.1
		c0.4,0.2,0.8,0.3,1.1,0.5c0.1,0.1,0.3,0.1,0.3,0.2c0,0.2-0.2,0.2-0.3,0.2c-0.7,0.4-1.2,0.9-1.9,1.3c-1.4,1-2.8,2.1-4,3.3
		C20.2,27.8,19.7,28.4,19.2,28.9z M21.9,20.6C21.9,20.6,21.9,20.5,21.9,20.6c-0.1-0.1-0.1-0.1-0.1,0C21.7,20.6,21.8,20.6,21.9,20.6
		C21.8,20.6,21.9,20.6,21.9,20.6z"/>
	<path class="st2" d="M45.7,7.7c-0.2-0.5-0.4-0.9-0.3-1.5c0,0,0.1-0.1,0.1-0.1C46.4,6,47.3,6,48.2,6c0.5,0,0.9,0.2,1.2,0.7
		c0.2,0.3,0.1,0.7,0.1,1c0,0.1-0.1,0.1-0.2,0.1c-1-0.1-2.1,0-3.1,0c0,0-0.1,0-0.1,0C46.1,7.6,45.9,7.8,45.7,7.7z"/>
	<path class="st4" d="M46.4,8.4c0,0.2-0.3,0-0.3,0.2c-0.5,0-0.9,0-1.4,0.2c-0.2,0.1-0.3,0.1-0.5,0.1c-0.1,0-0.2,0-0.3,0
		c-0.3,0.1-0.7,0.2-1,0.2c-0.3,0-0.6,0-0.9,0.2c-0.1,0-0.2,0-0.3,0.1c-0.5,0.1-1-0.1-1.4,0.3c-0.2,0.1-0.5,0-0.6,0.1
		c-0.4,0.3-0.9,0.4-1.4,0.5c-0.3,0.1-0.5,0.2-0.6,0.4c-0.1,0.1-0.3,0.2-0.3,0.2c-0.2-0.1-0.3,0-0.5,0.1c-0.4,0.2-0.7,0.5-1.1,0.4
		c-0.2-0.1-0.4,0-0.6,0.1c-0.2,0.2-0.5,0.3-0.7,0.3c-0.2,0-0.3,0.1-0.5,0.2c-0.5,0.3-1,0.6-1.6,0.9c-0.3,0.2-0.6,0.2-0.8,0.5
		c-0.1,0.3-0.2,0.6-0.5,0.7c-0.1,0-0.1,0.2,0,0.4c0,0.1,0.1,0.1,0.1,0.1c0.1-0.1,0.1-0.2,0.1-0.3c0,0,0,0,0,0c0-0.1,0-0.1,0.1-0.1
		c0.1,0,0.1,0.1,0.1,0.2c0,0.4-0.1,0.8-0.3,1c-0.4,0.4-0.4,1-0.6,1.5c-0.1,0.3-0.1,0.7-0.2,1c-0.1,0.1-0.1,0.3-0.1,0.5
		c0.1,0.2,0,0.3-0.1,0.5c-0.1,0.3-0.2,0.5,0,0.8c0.1,0.1,0.1,0.3-0.1,0.4c-0.3,0.1-0.3,0.3-0.1,0.5c0,0.1,0.1,0.2,0.1,0.3
		c-0.1,0.2-0.3,0.3-0.5,0.3c0-0.5,0.2-1.1,0.3-1.6c0.3-1.4,0.5-2.8,0.8-4.2c0.1-0.5,0.2-1.1,0.3-1.6c0-0.1,0.1-0.1,0.2-0.2
		c1.3-0.7,2.6-1.4,3.9-2c1.5-0.6,2.9-1.2,4.5-1.6c1-0.3,1.9-0.5,2.9-0.7c1.1-0.2,2.2-0.4,3.4-0.4C46,8.5,46.2,8.5,46.4,8.4z"/>
	<path class="st4" d="M45.7,7.7c0.2,0,0.4-0.1,0.5,0.1c-1.2,0.1-2.4,0.3-3.6,0.5c-1.5,0.3-2.9,0.6-4.4,1.1c-1.5,0.5-3,1.1-4.4,1.7
		c-0.5,0.2-1,0.5-1.5,0.7c-0.1-0.1-0.2-0.1-0.1-0.2c0-0.1,0.1-0.1,0.2-0.2c0.5-0.1,1-0.3,1.3-0.7c0.1-0.1,0-0.2-0.1-0.2
		c-0.2-0.1-0.3-0.2-0.5-0.3c-0.1,0-0.2-0.1-0.1-0.2c0.1-0.1,0.2-0.1,0.2,0c0.2,0.3,0.7,0.2,0.9,0.5c0,0,0.1,0,0.2,0
		c0.5-0.4,1.2-0.5,1.6-1c0-0.1,0.1-0.1,0.2,0c0.2,0,0.3,0,0.5-0.1c0.2-0.1,0.5-0.3,0.7-0.1c0,0,0.1,0,0.2,0C38,9.2,38.5,9,38.9,8.9
		c0.6-0.2,1.1-0.5,1.7-0.4c0.1,0,0.1,0,0.2,0c0.1,0,0.2,0,0.2-0.1c0-0.1,0-0.1-0.1-0.2c-0.1,0-0.2,0-0.2-0.2C40.8,8,40.9,8,41,8
		c0.1,0,0.1,0,0.2,0.1c0.3,0.1,0.6,0.2,0.9,0c0,0,0.1,0,0.2,0c0.9,0,1.7-0.4,2.6-0.4C45.2,7.7,45.4,7.7,45.7,7.7z"/>
	<path class="st3" d="M15.6,36.2c0.1,0.2,0.1,0.4,0,0.5c-0.1,0.2-0.2,0.4-0.3,0.6c0,0,0,0.1,0,0.1c0.4,0.5-0.3,0.5-0.4,0.7
		c-0.1,0.2-0.3,0.3-0.3,0.5c0,0.3-0.1,0.7-0.2,1c0,0.1,0,0.1,0,0.2c0.1,0.3,0,0.5-0.3,0.5c-0.1,0-0.2,0.6-0.2,0.7
		c0.1,0.1,0.1,0.2,0,0.3c-0.2,0.2-0.2,0.6-0.3,0.9c0,0.1-0.2,0.2,0.1,0.3c0,0,0,0.1,0,0.1c-0.3,0-0.1,0.2-0.1,0.4
		c0,0.2-0.2,0.4-0.2,0.6c0,0.1-0.1,0.2-0.1,0.3c0.1,0.4-0.1,0.9,0,1.3c0.1,0.3-0.2,0.5-0.3,0.8c0,0.3-0.2,0.5,0,0.7c0,0,0,0.1,0,0.1
		c-0.3,0.6,0.2,1.3,0,2c0,0,0,0,0,0.1c0.3,0.4,0.2,1,0.3,1.4c0,0.1,0,0.3,0.2,0.4c0.1,0.1,0.1,0.2,0,0.3c-0.1,0.3-0.1,0.6,0.1,0.9
		c0.1,0.1,0.1,0.3,0.1,0.4c0,0.2,0,0.3,0.1,0.4c0.4,0.4,0.4,1,0.7,1.4c0.2,0.3,0.3,0.7,0.5,0.9c0.2,0.2,0.2,0.4,0.2,0.6
		c-0.3-0.2-0.5-0.4-0.6-0.7c-0.1-0.3-0.2-0.6-0.4-0.8c-0.2-0.1-0.2-0.4-0.3-0.6c-0.1-0.4-0.5-0.6-0.4-1.1c0-0.1,0-0.2,0-0.2
		c-0.4-0.2-0.2-0.6-0.2-1c0-0.2,0-0.5-0.2-0.7c-0.2-0.1-0.1-0.4-0.1-0.7c0-0.3,0.1-0.6-0.2-0.8c-0.1-0.1,0-0.2,0-0.3
		c0-0.9,0-1.8,0-2.6c0-0.1,0-0.2,0-0.2c0.4-0.4,0.2-0.8,0.2-1.2c0,0,0,0,0,0c0,0,0,0,0,0c0-0.2,0-0.4,0-0.6c0,0,0,0,0,0c0,0,0,0,0,0
		c0-0.1,0-0.1,0-0.2c0,0,0-0.1,0-0.1c0.4-0.6,0.2-1.4,0.5-2.1c0.2-0.5,0.2-1,0.5-1.5c0.2-0.3,0.3-0.7,0.4-1.1
		C14.8,37.9,15.2,37.1,15.6,36.2z"/>
	<path class="st3" d="M49.1,18.7c-0.2-0.1-0.4-0.1-0.6,0c-0.3,0.1-0.6,0-0.9-0.1c-0.3,0-0.5,0-0.8,0c-0.5,0-0.9,0.1-1.4,0
		c-0.1,0-0.1,0-0.2,0c-0.5,0.1-1-0.1-1.5,0c-0.6,0.1-1.1,0.2-1.7,0.2c-0.4,0-0.9,0-1.3,0.2c-0.4,0.1-0.7,0-1.1,0.2
		c-0.3,0.1-0.6,0-0.8,0.2c-0.2,0.1-0.5,0.2-0.7,0.3c0,0-0.1,0.1-0.1,0.1c-0.4-0.2-0.7,0.1-1.1,0c-0.1,0-0.3,0-0.4,0
		c-0.4,0.2-0.7,0.2-1.1,0.3c-0.2,0-0.3,0.2-0.5,0.3c-0.6,0.2-1.2,0.3-1.8,0.5c-0.4,0.2-0.9,0.3-1.2,0.5c0,0-0.1,0.1-0.2,0.1
		c-0.4,0.1-0.8,0.3-1.1,0.6c-0.1,0.1-0.3,0.1-0.5,0.1c-0.3,0.1-0.5,0.4-0.8,0.5c0,0,0,0,0,0c-0.4,0.2-0.9,0.2-1.2,0.5
		c-0.1,0.1-0.1,0-0.2,0c0.8-0.5,1.7-0.9,2.6-1.4c0.8-0.4,1.5-0.7,2.3-1.1c0.6-0.2,1.2-0.4,1.8-0.6c1-0.4,2-0.6,3-0.8
		c1.3-0.3,2.6-0.5,4-0.6c1.3-0.1,2.6-0.3,4-0.2c0.7,0,1.5,0.1,2.2,0.2c0.4,0,0.7-0.1,1.1,0.1C49.2,18.6,49.1,18.7,49.1,18.7z"/>
	<path class="st4" d="M45.4,6.1c0,0.1,0,0.1-0.1,0.1c-0.3,0-0.7-0.1-1,0.1c-0.2,0.1-0.3,0-0.4,0c-0.5,0-1,0.1-1.5,0.1
		c-0.1,0-0.2,0-0.2,0.1c-0.4,0.4-0.9,0.3-1.3,0.3c-0.3,0-0.5,0-0.8,0c0,0-0.1,0-0.1,0c-0.4,0.4-1,0.2-1.4,0.4
		c-0.4,0.2-0.8-0.1-1.1,0.1c-0.4,0.2-1,0.2-1.4,0.5C35.7,8.1,35.3,8,35,8.1c-0.5,0.1-1,0.2-1.3,0.8c-0.2,0.2-0.4,0.4-0.8,0.6
		c-0.3,0.1-0.7,0.4-0.8,0.8C32,10.5,32,10.8,31.7,11c-0.1,0.1-0.1,0.3-0.2,0.5c0-0.9,0.4-1.6,1-2.3c0.6-0.7,1.3-0.9,2.1-1.2
		c1.2-0.4,2.5-0.8,3.8-1c1.2-0.2,2.5-0.5,3.7-0.6C43.2,6.3,44.3,6.2,45.4,6.1z"/>
	<path class="st4" d="M43.9,16.8c0,0.1,0,0.3-0.1,0.4c-1.4,0.2-2.8,0.3-4.2,0.5C37.8,18,36,18.5,34.3,19c-1,0.3-1.9,0.7-2.8,1.1
		c-0.3,0.1-0.6,0.3-0.9,0.4c0,0-0.1,0-0.1,0c0.1-0.3,0.4-0.4,0.6-0.6c0.2-0.1,0.4-0.4,0.7-0.4c0.5,0,0.9,0,1.4-0.3
		c0.2-0.1,0.4-0.3,0.6-0.3c0.5,0,0.8-0.4,1.2-0.4c0.2,0,0.4,0,0.6,0c0.3-0.1,0.7-0.2,1-0.3c0.4-0.2,0.9-0.3,1.3-0.3
		c0.7-0.1,1.3-0.2,1.9-0.4c0.2-0.1,0.4-0.1,0.6-0.1c0.4-0.1,0.9,0.1,1.3-0.2c0,0,0.1,0,0.2,0c0.3,0,0.7,0,1-0.1
		C43.2,16.9,43.5,16.9,43.9,16.8z"/>
	<path class="st3" d="M67.4,24.3c-0.4,0.1-0.8-0.2-1.1-0.4c-0.3-0.2-0.6-0.5-1-0.4c-0.1,0-0.2-0.2-0.4-0.1c-0.4-0.5-1-0.6-1.5-0.9
		c-0.1,0,0,0.1,0,0.1c0,0.1,0,0.1-0.1,0.1c-0.1,0-0.1-0.1-0.1-0.1c0-0.3-0.1-0.4-0.4-0.4c-0.3,0-0.4-0.2-0.6-0.3
		c-0.3-0.2-0.7-0.2-1-0.4c-0.3-0.1-0.6-0.3-0.8-0.4c0,0-0.1-0.1-0.1-0.1c-0.8,0-1.5-0.5-2.4-0.6c-0.4,0-0.8-0.2-1.2-0.5
		c0.7,0,1.3,0.3,2,0.4c1.3,0.4,2.5,0.8,3.7,1.3c1,0.4,1.9,0.9,2.8,1.4C66,23.4,66.7,23.8,67.4,24.3z"/>
	<path class="st3" d="M28.1,23.2c0.1,0.1,0,0.2-0.1,0.2c-0.5,0.3-1,0.6-1.5,1c-0.5,0.4-1,0.7-1.5,1.1c-0.1,0.1-0.1,0.1-0.2,0.1
		c-0.2,0.1-0.3,0.2-0.4,0.4c0,0.2-0.1,0.3-0.3,0.4c-0.3,0-0.5,0.2-0.7,0.4c-0.4,0.3-0.9,0.6-1.1,1.1c-0.1,0.4-0.3,0.5-0.6,0.7
		c-0.1,0-0.1,0.1-0.2,0.2c0,0-0.1,0.1-0.1,0.2c-0.6,0.1-0.6,0.8-1.1,1c-0.2,0.1-0.3,0.4-0.5,0.7c-0.1,0.1-0.2,0.2-0.3,0.3
		c-0.2,0.1-0.3,0.2-0.5,0.4c-0.1,0.1-0.1,0.1-0.2,0.1c1.3-1.8,2.9-3.3,4.6-4.8c0.7-0.6,1.4-1.2,2.2-1.8c0.4-0.3,0.8-0.6,1.2-0.9
		C27.2,23.7,27.6,23.4,28.1,23.2z"/>
	<path class="st3" d="M2.8,23.5c0.1,0.3,0.1,0.7,0.4,0.8c0,0,0.1,0,0.1,0c-0.1,0.4,0.3,0.7,0.3,1c0,0.3,0.1,0.4,0.4,0.4
		c-0.2,0.2,0,0.4,0,0.5c-0.1,0.5,0.3,0.7,0.5,1.1c0,0.1,0.1,0.2,0.1,0.3c0,0.1,0,0.1,0,0.2c-0.3-0.3-0.3-0.7-0.6-1c0,0,0-0.1,0-0.1
		c0.1-0.4-0.2-0.8-0.4-1.1c-0.2-0.3-0.1-0.6-0.3-0.8C3,24.6,3,24.3,2.7,24c-0.2-0.2-0.2-0.5-0.4-0.7c-0.1-0.1-0.3-0.1-0.3-0.3
		c0-0.1,0.2-0.2,0.3-0.2c0.1-0.1,0.3-0.2,0.4-0.1c0.1,0,0.2,0,0.3-0.1c0.2-0.2,0.4-0.3,0.7-0.2c0.1,0,0.2,0,0.2-0.1
		c0.1-0.2,0.2-0.2,0.3-0.2c0.1,0,0.1,0,0.2-0.1c0.2-0.3,0.6-0.4,1-0.6c0,0,0,0,0.1,0.1C5.4,21.7,5.2,22,5,22.2
		c-0.1,0.1-0.2,0.3-0.5,0.1c0,0-0.1,0-0.1,0c-0.2,0.3-0.5,0.3-0.7,0.5c-0.2,0.3-0.4,0.2-0.6,0.1c-0.1,0-0.2-0.1-0.3-0.1
		c-0.2,0-0.4,0-0.4,0.2C2.5,23.2,2.5,23.5,2.8,23.5L2.8,23.5z"/>
	<path class="st3" d="M17.3,33.4c0,0.1,0.1,0.2,0.2,0.3c0.1,0,0.1,0.2,0,0.2c-0.1,0.1-0.2,0-0.2-0.1c0-0.1,0-0.1-0.1-0.1
		c-0.1,0-0.1,0.1-0.1,0.2c0.1,0.3-0.1,0.5-0.3,0.6c0,0-0.1,0.1-0.1,0.1c0.1,0.4-0.2,0.5-0.4,0.7c-0.1,0.1-0.2,0.2-0.2,0.5
		c0,0.2-0.2,0.3-0.4,0.3C16.2,35.1,16.7,34.3,17.3,33.4z"/>
	<path class="st3" d="M54.2,19.2c-0.2,0.2-0.4,0.2-0.7,0c-0.2-0.2-0.5-0.1-0.8-0.1c-0.3,0-0.6,0-1,0c-0.2,0-0.5-0.1-0.7-0.2
		c-0.3-0.1-0.6-0.2-0.9-0.1c0,0,0,0,0-0.1c0.6-0.1,1.2,0,1.8,0.1C52.7,18.9,53.4,19.1,54.2,19.2C54.1,19.2,54.1,19.2,54.2,19.2z"/>
	<path class="st3" d="M12.2,32.5c0.3-0.2,0.5,0,0.8,0c0.4,0,0.7,0.1,1.1,0c0.3,0,0.5,0,0.7,0c0.7,0.1,1.3,0,1.8-0.5
		c0,0,0.1,0,0.1-0.1c-0.1,0.4-0.3,0.5-0.6,0.6c-0.9,0.2-1.8,0.1-2.6,0.1C13,32.7,12.6,32.6,12.2,32.5z"/>
	<path class="st3" d="M18.7,31.4c0,0.1,0,0.1,0,0.2c-0.1,0.4-0.2,0.7-0.3,1.1c0,0.1-0.1,0.1-0.2,0.1c-0.2,0-0.4,0.1-0.5,0.3
		c-0.1,0.2-0.2,0.2-0.4,0.2C17.8,32.6,18.3,32,18.7,31.4z"/>
	<path class="st3" d="M6.3,29.7c0.3,0.2,0.5,0.5,0.8,0.7c0.3,0.2,0.7,0.4,0.9,0.7c0.2,0.2,0.3,0.3,0.6,0.3c-0.1,0.3,0.2,0.3,0.3,0.5
		c-0.6-0.2-1-0.5-1.4-0.9c-0.4-0.4-1-0.6-1.3-1c0,0-0.1-0.1-0.1-0.1C6.2,29.7,6.2,29.7,6.3,29.7z"/>
	<path class="st5" d="M6.3,29.7c-0.1,0-0.1,0-0.2,0c0,0,0,0,0,0c0.1-0.1,0-0.1-0.1-0.1c0,0,0,0,0,0c0-0.2-0.2-0.3-0.4-0.3
		c-0.4-0.2-0.5-0.6-0.7-1c0.4,0,0.7,0.3,0.9,0.6c0.1,0.2,0.2,0.3,0.4,0.3C6.3,29.4,6.4,29.5,6.3,29.7z"/>
	<path class="st6" d="M8.9,31.8c-0.1-0.2-0.4-0.2-0.3-0.5c0.2,0,0.3,0.1,0.5,0.3c0.3,0.3,0.7,0.4,1.1,0.5c0.2,0,0.2,0.1,0.1,0.2
		C9.8,32.3,9.4,32,8.9,31.8z"/>
	<path class="st3" d="M17.4,31.1c-0.1-0.2-0.1-0.4,0.2-0.6c0.2-0.2,0.5-0.3,0.4-0.7c0-0.1,0-0.2,0.2-0.1c0.1,0.1,0.2,0,0.3,0.1
		C18.1,30.2,17.8,30.6,17.4,31.1z"/>
	<path class="st3" d="M56.7,19.8c0,0.1-0.1,0.1-0.2,0c-0.4-0.1-0.8-0.2-1.2-0.2c-0.3,0.1-0.3-0.2-0.5-0.2c-0.2,0-0.4,0.1-0.6-0.2
		c0.8,0.1,1.5,0.2,2.2,0.4C56.6,19.7,56.6,19.7,56.7,19.8z"/>
	<path class="st7" d="M26,22.2c-0.1-0.2-0.7-0.2-0.8,0c-0.1,0.1-0.1,0-0.2,0c-0.4-0.3-0.7-0.6-1.2-0.8c-0.2-0.1-0.3-0.3-0.5-0.4
		c-0.3-0.2-0.6-0.3-1-0.4c-0.1,0-0.2,0-0.3,0.1c-0.1,0.2-0.3,0.2-0.3,0c-0.2-0.3-0.4-0.5-0.6-0.8c-0.1-0.1-0.1-0.2-0.3-0.1
		c-0.4,0-0.7-0.3-1.1-0.1c-0.1,0-0.1-0.1-0.1-0.1c-0.2-0.1-0.5-0.2-0.8-0.4c0,0-0.1,0-0.1,0.1c-0.3,0.2-0.3,0.2-0.5-0.1
		c-0.1-0.2-0.3-0.4-0.5-0.4c-0.3,0-0.6-0.1-0.8-0.3c-0.2-0.1-0.4-0.1-0.6,0c-0.1,0-0.2,0-0.2,0c-0.5-0.2-1,0-1.5,0.1
		c-0.2,0-0.4,0-0.5,0c-0.3,0-0.5,0.1-0.6,0.4c0,0.2-0.2,0.2-0.3,0.1c-0.2-0.1-0.4-0.1-0.6,0c-0.6,0.3-1.2,0.3-1.9,0.6
		c-0.3,0.1-0.5,0.1-0.8,0.2c0,0-0.1,0-0.1,0c-0.3,0.4-0.9,0.2-1.2,0.6c0,0.1-0.2,0-0.3,0c-0.2,0.2-0.4,0.3-0.6,0.3
		c-0.1,0-0.2,0-0.3,0.1c0.1,0,0.2,0,0.3-0.1c0.2-0.1,0.4-0.1,0.6-0.3c0,0,0-0.1,0-0.1c-0.4,0-0.6,0.2-1,0.3
		c-0.3,0.1-0.6,0.2-0.9,0.4c-0.2,0.1-0.5,0.1-0.7,0.3c0,0,0,0,0.1,0.1C5.4,21.7,5.2,22,5,22.2c-0.1,0.1-0.2,0.3-0.5,0.1
		c0,0-0.1,0-0.1,0c-0.2,0.3-0.5,0.3-0.7,0.5c-0.2,0.3-0.4,0.2-0.6,0.1c-0.1,0-0.2-0.1-0.3-0.1c-0.2,0-0.4,0-0.4,0.2
		c0,0.2,0,0.4,0.3,0.4c0,0,0,0,0,0c0,0,0,0,0,0c0.1,0.3,0.1,0.7,0.4,0.8c0,0,0.1,0,0.1,0c-0.1,0.4,0.3,0.7,0.3,1
		c0,0.3,0.1,0.4,0.4,0.4c-0.2,0.2,0,0.4,0,0.5c-0.1,0.5,0.3,0.7,0.5,1.1c0,0.1,0.1,0.2,0.1,0.3c0,0.1,0,0.1,0,0.2c0,0,0,0.1,0,0.1
		c0,0,0.1-0.1,0.1-0.1c0.1,0.1,0,0.1,0,0.2c0,0,0,0,0,0c0,0,0,0,0.1,0.1c0,0,0,0,0,0c0.1,0,0.1,0,0.1,0.1c0,0,0,0,0,0l0,0
		c0,0,0,0,0,0c0,0,0,0,0.1,0.1l0,0c0,0,0,0,0,0c0,0,0,0,0,0c0.4,0,0.7,0.3,0.9,0.6c0.1,0.2,0.2,0.3,0.4,0.3c0.2,0.1,0.3,0.2,0.2,0.4
		c0.3,0.2,0.5,0.5,0.8,0.7c0.3,0.2,0.7,0.4,0.9,0.7c0.2,0.2,0.3,0.3,0.6,0.3c0.2,0,0.3,0.1,0.5,0.3c0.3,0.3,0.7,0.4,1.1,0.5
		c0.2,0,0.2,0.1,0.1,0.2c0.6,0.2,1.3,0.2,1.9,0.3c0.3-0.2,0.5,0,0.8,0c0.4,0,0.7,0.1,1.1,0c0.3,0,0.5,0,0.7,0c0.7,0.1,1.3,0,1.8-0.5
		c0,0,0.1,0,0.1-0.1c0.3-0.3,0.5-0.6,0.7-0.9c-0.1-0.2-0.1-0.4,0.2-0.6c0.2-0.2,0.5-0.3,0.4-0.7c0-0.1,0-0.2,0.2-0.1
		c0.1,0.1,0.2,0,0.3,0.1c0,0,0,0,0,0c0-0.1,0-0.1,0.1-0.1l0,0l0,0c0-0.5,0.1-0.7,0.5-0.6c0,0,0,0,0-0.1c0,0,0,0,0,0c0,0,0,0,0,0
		c0,0,0,0,0.1,0c-0.1-0.2-0.3-0.3,0.1-0.5c0.1,0,0.2-0.2,0.3-0.3c0.1,0,0.1-0.1,0-0.2c-0.1-0.1,0-0.2,0-0.3c0-0.3,0.2-0.4,0.4-0.6
		c0,0,0.1,0,0.1,0c0.1,0.1-0.1,0.2-0.1,0.3c0.1,0,0.1,0.1,0.1,0c0.5-0.4,1-0.9,1.5-1.4c0-0.1,0.1-0.1,0-0.2c-0.1-0.1,0-0.2,0.1-0.2
		c0.1,0,0.1-0.1,0.2-0.2c0-0.1,0.1-0.2,0.2-0.1c0.2,0.1,0.4,0,0.5-0.2c0.4-0.3,0.8-0.6,1.2-0.9c0.6-0.4,1.1-0.9,1.7-1.3
		c0.3-0.1,0.3-0.4,0.5-0.6C26.1,22.3,26.1,22.3,26,22.2z"/>
	<path class="st2" d="M30.4,20.5c0,0,0.1,0,0.1,0c-0.2,0.3-0.6,0.3-0.8,0.5c0,0-0.1,0-0.1,0c-0.1-0.1-0.1-0.2,0-0.3
		c0.3,0.1,0.4,0,0.5-0.3C30.2,20.5,30.3,20.5,30.4,20.5z"/>
	<path class="st3" d="M18.6,29.6c0-0.5,0.1-0.7,0.5-0.6C18.9,29.2,18.8,29.4,18.6,29.6z"/>
	<path class="st8" d="M50.2,18.7C50.2,18.7,50.2,18.8,50.2,18.7c-0.4,0-0.7,0.1-1.1,0c0-0.1,0.1-0.1,0.1-0.1
		C49.6,18.7,49.9,18.7,50.2,18.7z"/>
	<path class="st3" d="M5.6,29.4c0.2-0.1,0.4,0,0.4,0.3C5.9,29.6,5.7,29.5,5.6,29.4z"/>
	<path class="st9" d="M71.3,26.2C71.3,26.3,71.3,26.3,71.3,26.2c-0.1,0.1-0.2,0.1-0.1,0C71.2,26.3,71.2,26.2,71.3,26.2
		C71.3,26.2,71.3,26.2,71.3,26.2z"/>
	<path class="st9" d="M71.6,26.7c-0.1,0-0.1,0-0.1-0.1c0,0,0-0.1,0.1,0C71.7,26.5,71.6,26.6,71.6,26.7
		C71.6,26.7,71.6,26.7,71.6,26.7z"/>
	<path class="st3" d="M4.5,27.9c0,0,0.1-0.1,0.1-0.1c0.1,0.1,0,0.1,0,0.2C4.5,28,4.5,28,4.5,27.9z"/>
	<path class="st3" d="M18.5,29.7C18.5,29.7,18.5,29.6,18.5,29.7C18.5,29.7,18.5,29.7,18.5,29.7z"/>
	<path class="st5" d="M4.6,28.2C4.7,28.2,4.7,28.2,4.6,28.2C4.7,28.2,4.7,28.2,4.6,28.2z"/>
	<path class="st3" d="M6,29.6C6.1,29.6,6.2,29.6,6,29.6C6.1,29.7,6.1,29.7,6,29.6z"/>
	<path class="st3" d="M17.4,33.3c0,0.1,0,0.1-0.1,0.1C17.4,33.3,17.4,33.3,17.4,33.3z"/>
	<path class="st3" d="M15.7,36.1C15.7,36.2,15.8,36.2,15.7,36.1C15.7,36.2,15.7,36.1,15.7,36.1z"/>
	<path class="st6" d="M13,43.5C13,43.5,13,43.5,13,43.5C13,43.5,13,43.5,13,43.5z"/>
	<path class="st6" d="M13,43.8C13,43.8,13,43.8,13,43.8C13,43.8,13,43.8,13,43.8C13,43.8,13,43.8,13,43.8z"/>
	<path class="st6" d="M13,44.4C13,44.4,13,44.4,13,44.4C13,44.5,13,44.5,13,44.4C13,44.4,13,44.4,13,44.4z"/>
	<path class="st5" d="M4.6,28.1C4.6,28.1,4.6,28.1,4.6,28.1C4.6,28.2,4.6,28.1,4.6,28.1z"/>
	<polygon class="st5" points="4.8,28.3 4.8,28.3 4.8,28.3 	"/>
	<polygon class="st5" points="4.8,28.3 4.9,28.3 4.8,28.4 	"/>
	<path class="st3" d="M19.2,28.9C19.2,28.9,19.1,28.9,19.2,28.9C19.1,28.9,19.2,28.9,19.2,28.9C19.2,28.9,19.2,28.9,19.2,28.9z"/>
	<path class="st10" d="M78.9,45.2c0,0.1,0,0.2,0,0.2c0.1,0.2,0.3,0.5,0.1,0.7c-0.3,0.4-0.3,1-0.8,1.3c-0.4,0.3-0.7,0.6-1.1,0.9
		c-0.1,0-0.1,0.1-0.2,0.1c-0.5,0-0.8,0.3-1.2,0.5c-0.4,0-0.9,0.1-1.3,0.1c-0.1-0.1-0.1-0.2-0.2-0.2c-0.4-0.1-0.8-0.2-1.2-0.5
		c-0.2-0.2-0.5-0.2-0.6-0.5c0-0.1-0.1-0.1-0.1-0.1c0,0-0.1,0.1-0.1,0.1c0.1,0.2-0.1,0.4,0,0.5c0,0.2,0,0.4,0.1,0.6
		c0.1,0.7,0,1.4,0,2c0,0.3,0,0.6,0,0.9c0,0.1,0,0.2-0.1,0.3c-0.1,0-0.3-0.1-0.4,0.1c-0.2,0.4-0.6,0.7-0.8,1.1c-0.1,0-0.2,0-0.3,0.1
		c-0.3,0.3-0.7,0.2-0.9,0.5c0,0-0.1,0-0.1,0c-0.5-0.1-1,0.1-1.4,0.3c-0.2,0.1-0.4,0.2-0.6,0.2c-0.8-0.1-1.7,0-2.5-0.2
		c-0.8-0.1-1.6-0.1-2.4-0.2c-0.6-0.1-1.2-0.2-1.8-0.1c-0.1,0-0.2,0-0.2-0.1c-0.2-0.2-0.4-0.1-0.6-0.1c-0.1,0-0.2,0-0.3,0
		c-0.4-0.1-0.8,0-1.3,0c-0.4,0-0.9,0-1.3,0c-0.3,0-0.6-0.1-1,0c-1,0-1.9,0.1-2.9,0.1c-0.5,0-1.1,0-1.6,0c-0.3,0-0.5-0.2-0.8-0.2
		c-0.5,0-1-0.2-1.5-0.1c0,0-0.1,0-0.2,0c-0.5-0.2-1.1-0.2-1.6-0.4c-0.4-0.1-0.8-0.1-1.1-0.5c0,0-0.1,0-0.1-0.1
		c-0.5-0.1-0.9-0.6-1.1-1c-0.1-0.3-0.2-0.6-0.4-0.8c0.2-0.4,0.2-0.8,0.3-1.2c0.1-0.6,0.5-1.1,0.8-1.7c0.1-0.2,0.1-0.4,0.4-0.4
		c0,0,0.1-0.1,0.2-0.2c0-0.2,0.2-0.4,0.2-0.7c0,0,0,0,0,0c0.4-0.2,0.7-0.6,1.2-0.9c0.1,0,0.1-0.1,0.2-0.2c0.1-0.2,0.3-0.4,0.6-0.5
		C48.8,45,49,45,49,44.9c0.4-0.1,0.8-0.4,1.1-0.6c0.1-0.1,0.2-0.1,0.3-0.1c0.4-0.1,0.7-0.3,1-0.5c0.6-0.3,1.1-0.7,1.7-0.8
		c0.3,0,0.6,0,0.8-0.2c0.4-0.4,0.9-0.3,1.4-0.3c0.3,0,0.6,0.1,0.9-0.2c0,0,0.1,0,0.1,0c0.3-0.1,0.6,0,0.9-0.1
		c0.4-0.1,0.8-0.1,1.2-0.1c0.1,0,0.2,0,0.3-0.1c0.6,0,1.2-0.1,1.7,0.1c0.1,0,0.2,0.1,0.2,0.1c0.1,0.3,0.4,0.4,0.7,0.4
		c0.7,0,1.4,0.3,2.1,0.2c0.4,0,0.7,0.2,1.1,0.3c0.5,0,1,0.1,1.5,0.4c0.2,0.1,0.3,0.2,0.4,0.3c0.2,0.2,0.5,0.2,0.8,0.3
		c0.3,0,0.5,0.1,0.6,0.4c0.1,0.2,0.3,0.3,0.5,0.2c0.1,0,0.2-0.1,0.3,0c0.1,0.3,0.3,0.3,0.5,0.3c0,0,0.1,0.1,0.1,0.1
		c0.1,0.1,0.2,0.2,0.3,0.2c0.1,0,0.2,0,0.2,0.1c0.1,0.2,0.2,0.2,0.4,0.3c-0.1,0.3-0.1,0.4,0.2,0.6c0.2,0.1,0.4,0.3,0.5,0.5
		c0.2,0.5,0.2,0.5,0.7,0.3c0.1,0,0.2,0,0.2-0.1c0-0.2,0.1-0.3,0.3-0.4c0.1-0.1,0.2-0.1,0.2-0.3c0-0.3,0.1-0.5,0.3-0.7
		c0.3-0.3,0.7-0.5,1-0.6c0.5-0.3,1-0.4,1.5-0.5c0.4-0.1,0.8-0.1,1.3-0.1c0.3,0,0.6,0,0.8,0.3c0.2,0.2,0.4,0.2,0.6,0.2
		c0.1,0,0.2,0,0.3,0.1c0.3,0.2,0.5,0.3,0.7,0.6C78.7,45.1,78.8,45.2,78.9,45.2z M67.8,48.8c0,0-0.1,0-0.1,0
		c-0.3,0.1-0.5,0.1-0.8,0.3c-0.7,0.4-1,1-1.1,1.7c0,0.1,0,0.2,0.1,0.2c0.2,0.2,0.1,0.3,0,0.5c-0.1,0.2,0,0.2,0.1,0.3
		c0.1,0,0.2,0.1,0.3,0.1c0.2,0.1,0.5,0.1,0.7,0.1c0.1,0.1,0.2,0,0.3-0.1c0,0,0.1,0,0.1,0c0.4,0,0.7-0.3,1.1-0.5
		c0.1-0.1,0.1-0.1,0.1-0.2c-0.2-0.3-0.1-0.5,0.2-0.7c0.1-0.1,0.1-0.2,0.1-0.3c0.1-0.4,0-0.9,0.3-1.3c0.1-0.1,0.2-0.2,0-0.3
		c-0.1-0.1-0.2-0.3-0.4-0.2c-0.2,0.1-0.4,0.1-0.6,0.2C68,48.6,67.8,48.6,67.8,48.8z M53.1,47c0,0.1,0,0.3,0.1,0.4
		c-0.1,0.3,0,0.6,0.2,0.9c0.3,0.6,0.8,1.1,1.2,1.7c0.3,0.4,0.7,0.7,1.1,0.9c0.4,0.3,0.9,0.4,1.4,0.3c0.1,0,0.2,0,0.3,0
		c0.5,0.1,1.1-0.4,1-0.9c-0.2-0.9-0.6-1.7-1.4-2.2c-0.2-0.1-0.3-0.1-0.5-0.2c-0.4-0.2-0.6-0.5-1-0.7c-0.5-0.3-1-0.4-1.5-0.4
		c-0.1,0-0.2,0-0.2-0.1c-0.1-0.2-0.3-0.2-0.5-0.1C53,46.6,53.1,46.8,53.1,47z"/>
	<path class="st10" d="M21.2,43.4c0.7-0.3,1.4-0.5,2.1-0.6c0.4,0,0.8-0.2,1.2-0.2c0.1,0,0.3,0,0.4,0c0.8,0,1.5,0,2.3,0
		c0.9,0,1.7,0.1,2.5,0.2c0.8,0.1,1.6,0.3,2.5,0.5c0.2,0,0.3,0.2,0.5,0.1c0.2,0.2,0.3,0.3,0.6,0.3c0.1,0,0.3,0.1,0.5,0.1
		c0.4,0.2,0.8,0.4,1.2,0.6c0.5,0.1,0.9,0.4,1.2,0.7c0.3,0.2,0.4,0.5,0.7,0.8c0.4,0.4,0.5,1,0.1,1.4c-0.1,0.2-0.3,0.3-0.4,0.5
		c-0.2,0.1-0.4,0.2-0.5,0.3c-0.3,0.3-0.7,0.4-1.1,0.4c-0.3,0-0.5,0.2-0.8,0.2c-0.1,0-0.2,0.1-0.2,0.3c-1.1,0.2-2.2,0.2-3.3,0.2
		c-0.7,0-1.4-0.1-2.1-0.1c-0.3-0.1-0.5-0.2-0.8-0.2c-0.6,0-1.2-0.3-1.8-0.3c-0.4,0-0.7-0.2-1.1-0.2c-0.7-0.1-1.3-0.4-1.9-0.6
		c-0.7-0.2-1.4-0.7-2-1.1c-0.6-0.4-0.9-0.9-1.1-1.6c-0.1-0.3,0-0.6,0.2-0.8c0.3-0.3,0.5-0.5,0.9-0.6C21.1,43.6,21.2,43.5,21.2,43.4z
		"/>
	<path class="st11" d="M67.8,56.7c-0.4,0.3-1,0.4-1.5,0.5c-0.6,0.1-1.2,0.3-1.8,0.2c-0.5,0-1,0.1-1.4,0c-0.5-0.1-1,0-1.5-0.1
		c-1-0.1-1.9-0.2-2.9-0.3c-1.1-0.1-2.1-0.3-3.2-0.4c-0.6-0.1-1.1-0.1-1.7-0.3c-0.4-0.1-0.9-0.1-1.3-0.2c-1-0.3-2.1-0.4-3.1-0.8
		c-0.7-0.3-1.5-0.6-2.2-0.8c0-0.1,0.1-0.3-0.1-0.3c-0.5-0.1-0.8-0.4-1.1-0.7c-0.2-0.2-0.4-0.3-0.5-0.6c0.1-0.2,0.3-0.2,0.5,0
		c0.1,0.1,0.1,0.2,0.2,0.2c0.3-0.1,0.5,0,0.7,0.1c0.3,0.2,0.7,0.3,1,0.5c0.8,0.2,1.6,0.2,2.4,0.3c0.5,0.1,1.1,0.1,1.6,0.1
		c1.1,0,2.2,0,3.3,0c0.3,0,0.7,0,1,0c0.3,0.1,0.6,0.1,1,0c0.3,0,0.7-0.1,1,0c0.3,0.1,0.5,0.1,0.8,0c0.3,0,0.7,0,1-0.1
		c0.5,0,1,0.3,1.5,0.3c0.5,0,1,0,1.5,0.1c0.5,0,0.9,0.1,1.4,0.3c0.2,0.1,0.5,0.2,0.7,0.1c0.7-0.1,1.5-0.1,2.3-0.1
		c0.7,0,1.5,0,2.2-0.3c0.2-0.1,0.3-0.1,0.5-0.1c0.1,0,0.2,0,0.3,0.1c-0.2,0.3-0.4,0.7-0.7,0.9c-0.6,0.4-1.2,0.8-1.8,1.1
		C67.8,56.6,67.8,56.7,67.8,56.7z"/>
	<path class="st8" d="M49.7,60.7c-0.2,0-0.3,0-0.5-0.1c-0.4-0.2-0.9-0.3-1.3-0.4c-0.8-0.3-1.5-0.8-2.3-1.1c0-0.2-0.2-0.2-0.3-0.3
		c-0.2-0.3-0.5-0.4-0.8-0.5c-0.2-0.2-0.4-0.3-0.7-0.5c0,0,0,0,0-0.1c0-0.3-0.3-0.3-0.4-0.5c0-0.2-0.1-0.2-0.2-0.3
		c-0.4-0.4-0.6-0.8-0.9-1.3c-0.3-0.5-0.4-1.1-0.5-1.7c0-0.1,0-0.2,0.1-0.2c0.1,0,0.2,0,0.2,0.1c0.1,0.1,0.2,0.2,0.3,0.2
		c0.5,0.3,1,0.4,1.4,0.8c0.5,0.4,1.1,0.6,1.7,0.9c1,0.5,2,1,3.1,1.5c1,0.5,2,0.7,3.1,0.9c1.5,0.3,3,0.3,4.5,0.4c0.4,0,0.9,0,1.3,0.1
		c0,0.1,0.1,0.1,0.1,0.1c0.1,0.1,0.2,0.1,0.3,0.1c0.3,0,0.4,0.1,0.3,0.4l0,0c-0.2,0.1-0.4,0-0.6,0.1c-0.5,0.2-1,0.4-1.5,0.6
		c-0.4,0.1-0.8,0.2-1.2,0.4c-0.2,0.1-0.6,0-0.7,0.4c0,0-0.1,0-0.1,0c0,0,0-0.1-0.1-0.1c-0.1,0-0.1,0-0.1,0.1c-0.2,0-0.4,0.2-0.7,0.2
		c-0.8,0-1.6,0.1-2.4-0.1C50.5,60.7,50.1,60.7,49.7,60.7z"/>
	<path class="st12" d="M44.2,40.7c-0.3,0-0.6,0-0.8,0.1c-0.3,0-0.5,0.1-0.8,0.1c-0.4,0.1-0.6,0.4-1,0.6c-1.1,0.6-2.3,0.8-3.6,0.8
		c-0.5,0-1-0.1-1.5-0.2c-0.5-0.1-1-0.1-1.4-0.4c-0.1-0.1-0.2-0.2-0.4-0.3c-0.6-0.3-1.3-0.7-1.7-1.3c0.1-0.2,0-0.3-0.2-0.4
		c-0.4-0.2-0.8-0.4-1.2-0.6c-0.7-0.3-1.3-0.8-2-1c0.1-0.2-0.1-0.3-0.2-0.4c0.1,0,0.1,0,0.2,0c0.8,0.2,1.6,0.3,2.4,0.4
		c1.4,0.3,2.8,0.4,4.2,0.6c0.4,0.1,0.9,0.2,1.3,0.2c0.2,0.2,0.5,0.1,0.7,0.1c1.2,0.1,2.4,0.4,3.7,0.6c1.3,0.2,2.5,0.4,3.8,0.6
		c0,0.1,0.3,0,0.1,0.2C45.3,40.6,44.8,40.6,44.2,40.7z"/>
	<path class="st11" d="M48.2,63.6c0.7,0,1.3,0.2,2,0.2c0.9,0.1,1.7,0.1,2.6,0c0.9-0.1,1.7-0.4,2.6-0.6c0.2-0.1,0.4,0,0.5-0.2
		C56,63,56,63,56,63c0.2,0,0.4,0,0.2,0.3c0,0,0,0.1,0,0.1c-0.2,0.2-0.3,0.4-0.6,0.4c-0.4,0.1-0.7,0.2-1,0.4
		c-0.4,0.2-0.8,0.4-1.3,0.5c-0.2,0-0.4,0.1-0.4,0.4c-0.7,0.1-1.4,0.2-2,0.4c-1,0.2-1.9,0.2-2.9,0.1c-0.4,0-0.8-0.3-1.2-0.2
		c-0.1-0.3-0.5-0.4-0.7-0.5c-0.6-0.3-1-0.7-1.4-1.2c-0.3-0.3-0.5-0.7-0.8-1c-0.2-0.2-0.2-0.3,0.1-0.4c0.1,0,0.2,0,0.3,0
		c0,0,0,0,0.1,0.1c0,0,0,0.1,0.1,0.1c0.6,0.4,1.1,0.7,1.8,0.9c0.3,0.1,0.6,0.1,0.8,0.3C47.5,63.5,47.8,63.7,48.2,63.6z"/>
	<path class="st6" d="M43.8,57.8C43.8,57.8,43.8,57.8,43.8,57.8c-0.3,0.3-0.6,0.2-0.7-0.1c-0.1-0.3-0.2-0.3-0.4-0.3
		c-0.1-0.2-0.2-0.3-0.3-0.5c-0.4-0.5-0.7-1-0.9-1.5c-0.3-0.5-0.3-1.1-0.4-1.6C41,53.2,41,52.7,41,52.1c0.1-0.1,0.2-0.1,0.2-0.2
		c0.1-0.2,0.3-0.2,0.4,0c0.1,0.2,0.4,0.3,0.6,0.4c0.5,0.2,0.8,0.7,1.3,0.9c0,0,0,0.1,0.1,0.1c0.3,0.2,0.5,0.5,0.8,0.5
		c0.1,0,0.1,0.1,0.2,0.1c0.3,0.4,0.7,0.4,1,0.7c0,0.1-0.1,0.3,0.1,0.3c0.3,0.1,0.5,0.3,0.8,0.3c0.6,0.3,1.1,0.7,1.7,0.8
		c-0.1,0.2-0.1,0.3,0.2,0.4c0.3,0,0.5,0.2,0.7,0.3c0.3,0.1,0.5,0.3,0.8,0.3c0.7,0.1,1.3,0.4,1.9,0.5c0.8,0.2,1.6,0.4,2.4,0.5
		c0.7,0.1,1.4,0.3,2.2,0.2c0,0.1,0,0.2,0,0.3c-1.5-0.1-3-0.1-4.5-0.4c-1.1-0.2-2.1-0.4-3.1-0.9c-1-0.5-2.1-0.9-3.1-1.5
		c-0.6-0.3-1.2-0.5-1.7-0.9c-0.4-0.4-1-0.5-1.4-0.8c-0.1-0.1-0.2-0.2-0.3-0.2c-0.1-0.1-0.1-0.1-0.2-0.1c-0.1,0-0.1,0.1-0.1,0.2
		c0.1,0.6,0.2,1.2,0.5,1.7c0.3,0.4,0.5,0.9,0.9,1.3c0.1,0.1,0.2,0.2,0.2,0.3C43.4,57.6,43.7,57.6,43.8,57.8z"/>
	<path class="st13" d="M70.4,54.5c-0.1-0.1-0.2-0.1-0.3-0.1c-0.2,0-0.4,0.1-0.5,0.1c-0.7,0.3-1.4,0.3-2.2,0.3c-0.7,0-1.5,0-2.3,0.1
		c-0.3,0-0.5,0-0.7-0.1c-0.4-0.2-0.9-0.2-1.4-0.3c-0.5,0-1-0.1-1.5-0.1c-0.6,0-1-0.3-1.5-0.3c-0.3,0-0.7,0-1,0.1c-0.3,0-0.5,0-0.8,0
		c-0.3-0.1-0.6,0-1,0c-0.3,0-0.6,0-1,0c-0.3-0.1-0.7,0-1,0c-1.1,0-2.2,0-3.3,0c-0.5,0-1.1,0-1.6-0.1c-0.8-0.1-1.6-0.1-2.4-0.3
		c-0.4-0.1-0.7-0.3-1-0.5c-0.2-0.1-0.5-0.2-0.7-0.1C46,53.2,46,53,46,52.9c-0.2-0.2-0.4-0.2-0.5,0c-0.1-0.1-0.2-0.2-0.2-0.3
		c0-0.3-0.2-0.4-0.5-0.4c0-0.4,0-0.9,0.1-1.3c0,0,0.1,0,0.1-0.1c0.2,0.2,0.3,0.5,0.4,0.8c0.2,0.5,0.6,1,1.1,1c0.1,0,0.1,0,0.1,0.1
		c0.3,0.4,0.7,0.3,1.1,0.5c0.5,0.2,1.1,0.2,1.6,0.4c0.1,0,0.1,0.1,0.2,0c0.5-0.2,1,0.1,1.5,0.1c0.3,0,0.5,0.2,0.8,0.2
		c0.5,0,1.1,0,1.6,0c1,0,2,0,2.9-0.1c0.3,0,0.6,0,1,0c0.4,0,0.8,0,1.3,0c0.4,0,0.8,0,1.3,0c0.1,0,0.2,0,0.3,0c0.2,0,0.4-0.1,0.6,0.1
		c0.1,0,0.1,0.1,0.2,0.1c0.6-0.1,1.2,0.1,1.8,0.1c0.8,0.1,1.6,0.1,2.4,0.2c0.8,0.1,1.7,0.1,2.5,0.2c0.2,0,0.4-0.1,0.6-0.2
		c0.5-0.2,0.9-0.4,1.4-0.3c0,0,0.1,0,0.1,0c0.2-0.3,0.7-0.3,0.9-0.5c0.1-0.1,0.2,0,0.3-0.1c0,0.3-0.2,0.5-0.3,0.7
		C70.7,54.4,70.6,54.5,70.4,54.5z"/>
	<path class="st7" d="M70.2,44.7c0-0.4-0.3-0.5-0.4-0.8c0.9,0.2,1.7-0.1,2.5-0.5c0.1,0.1,0.3,0,0.4,0.1c-0.1,0.2-0.3,0.4-0.6,0.3
		c-0.2,0-0.3,0.1-0.4,0.1c-0.2,0.1-0.2,0.3,0,0.4c0,0,0,0,0,0c0.1,0.4,0.5,0.5,0.7,0.8c-0.2,0.2-0.3,0.4-0.3,0.7
		c0,0.1-0.1,0.2-0.2,0.3c-0.1,0.1-0.3,0.2-0.3,0.4c0,0.2-0.2,0.1-0.2,0.1c-0.2-0.5-0.6-0.8-0.9-1.2c0,0-0.1,0-0.1,0
		c-0.1-0.2-0.3-0.2-0.3-0.4C70.2,44.9,70.3,44.8,70.2,44.7z"/>
	<path class="st3" d="M29.7,38.2c0.7,0.3,1.3,0.7,2,1c0.4,0.2,0.8,0.4,1.2,0.6c0,0.1,0.1,0.3,0.2,0.4c0.4,0.6,1,1,1.7,1.3
		c0.1,0.1,0.2,0.2,0.4,0.3c0.4,0.3,0.9,0.3,1.4,0.4c0.5,0.1,1,0.2,1.5,0.2c1.2,0,2.4-0.2,3.6-0.8c0.3-0.2,0.6-0.5,1-0.6
		c0.3,0,0.5-0.1,0.8-0.1c0.1,0.1,0.1,0.1,0,0.2c-0.3,0.1-0.6,0.2-0.9,0.1c-0.2,0-0.3,0.2-0.3,0.3c-0.1,0.3-0.5,0.5-0.8,0.4
		c-0.2,0-0.4,0-0.5,0.1c-0.1,0.1-0.3,0.2-0.5,0.2c-0.2,0-0.4,0-0.6,0.2c-0.1,0.1-0.2,0.1-0.2,0c-0.2-0.2-0.4-0.1-0.6,0
		c-0.7,0.1-1.3,0-1.9-0.1c-0.5-0.1-1-0.2-1.5-0.1c0,0-0.1,0-0.1,0c-0.1-0.3-0.4-0.3-0.6-0.4c-0.2-0.2-0.5-0.2-0.7-0.4
		c0,0-0.1,0-0.1,0c-0.3,0.3-0.3,0.1-0.3-0.1c0-0.1,0-0.1-0.1-0.2c-0.3-0.2-0.6-0.6-0.8-0.9c-0.1-0.1-0.2-0.4-0.5-0.2
		c-0.1,0.1-0.2-0.1-0.3-0.2c-0.3-0.4-0.7-0.6-1.1-0.7c-0.1,0-0.2-0.1-0.2-0.1c-0.1-0.2-0.3-0.3-0.5-0.2c-0.4,0.1-0.5-0.2-0.7-0.4
		c-0.1-0.1-0.5-0.1-0.4-0.4C29.3,38.1,29.5,38.2,29.7,38.2z"/>
	<path class="st5" d="M21.2,43.4c0,0.1-0.1,0.2-0.2,0.2c-0.4,0.1-0.6,0.4-0.9,0.6c-0.2,0.3-0.3,0.5-0.2,0.8c0.2,0.6,0.5,1.2,1.1,1.6
		c0.7,0.4,1.3,0.9,2,1.1c0.6,0.2,1.2,0.5,1.9,0.6c0.3,0,0.7,0.2,1.1,0.2c0.6,0,1.2,0.3,1.8,0.3c0.3,0,0.5,0.1,0.8,0.2
		c-0.2,0.1-0.3,0.1-0.5,0.1c-0.9-0.1-1.8-0.2-2.7-0.4c-0.8-0.2-1.6-0.5-2.4-0.7c-0.5-0.2-1.1-0.4-1.6-0.7c-0.2-0.1-0.5-0.2-0.7-0.4
		c-0.6-0.4-0.9-1-1.1-1.5c-0.1-0.3,0-0.8,0.2-1.2C20.1,43.5,20.7,43.6,21.2,43.4z"/>
	<path class="st5" d="M33.9,48.9c0-0.2,0.1-0.3,0.2-0.3c0.3,0,0.5-0.1,0.8-0.2c0.4-0.1,0.8-0.2,1.1-0.4c0.2-0.1,0.4-0.2,0.5-0.3
		c0.2-0.1,0.3-0.3,0.4-0.5c0.3-0.5,0.2-1-0.1-1.4c-0.2-0.3-0.4-0.6-0.7-0.8c-0.4-0.3-0.8-0.5-1.2-0.7c-0.4-0.1-0.8-0.4-1.2-0.6
		c-0.1-0.1-0.3-0.1-0.5-0.1c-0.3,0-0.4-0.1-0.6-0.3c0.2-0.1,0.5,0,0.7,0.1c0.3,0.1,0.7,0.1,1.1,0.3c0.3,0.2,0.8,0.4,1.1,0.6
		c0.4,0.2,0.7,0.4,1.1,0.6c0.8,0.6,1,1.6,0.6,2.4c-0.1,0.3-0.3,0.4-0.6,0.6c-0.1,0.1-0.2,0.1-0.3,0.2c-0.2,0.3-0.6,0.4-0.9,0.4
		C35,48.6,34.5,49,33.9,48.9z"/>
	<path class="st3" d="M72.7,43.4c-0.1-0.1-0.3-0.1-0.4-0.1c0-0.2,0.2-0.2,0.3-0.3c0.6-0.5,1.1-1,1.7-1.4c0.4-0.2,0.8-0.4,1.1-0.7
		c0,0,0.2-0.1,0.1-0.2c0,0,0,0,0,0c0,0,0,0,0,0c0-0.1,0-0.1-0.1-0.1c-0.1,0-0.1,0-0.2,0c-0.5,0.1-1.1,0.2-1.6,0.3
		c-1,0.1-1.9,0.3-2.9,0.4c-0.5,0.1-1,0-1.5,0.2c0-0.1,0.1-0.2,0.2-0.2c0.2-0.1,0.5-0.1,0.6-0.3c0.2,0.3,0.3,0.3,0.8,0.1
		c0.3-0.1,0.5-0.1,0.8-0.1c0.4-0.1,0.8,0,1.2-0.2c0.1-0.1,0.2,0,0.3,0c0.5,0,1.1,0,1.6-0.2c0.2-0.1,0.5,0,0.7,0
		c0.1,0,0.2,0.1,0.2,0.2c0,0.2,0.2,0.5-0.1,0.6c-0.2,0.1-0.3,0.4-0.5,0c0,0-0.1,0-0.1,0.1c0,0.3-0.2,0.3-0.3,0.5
		c-0.4,0.5-1.1,0.6-1.4,1.1c-0.3,0-0.4,0.1-0.3,0.4C72.8,43.4,72.7,43.4,72.7,43.4z"/>
	<path class="st5" d="M45.8,40.3c-1.3-0.2-2.5-0.4-3.8-0.6c-1.2-0.2-2.4-0.4-3.7-0.6c-0.2,0-0.5,0-0.7-0.1c-0.1-0.2-0.4-0.1-0.4-0.4
		c0.1,0,0.1,0,0.2-0.1c0,0.2,0.3,0.4,0.6,0.4c0.4-0.1,0.7,0,1,0.1c0,0,0.1,0,0.1,0c0.4-0.2,0.7,0,1,0.1c0.2,0.1,0.3,0.1,0.5,0.1
		c0.7,0.2,1.5,0.1,2.2,0.3c0.4,0.1,0.9,0.1,1.3,0.2c0.2,0,0.5,0.1,0.7,0.2c0.2,0.1,0.5,0.1,0.7,0.1C45.8,40.2,45.9,40.2,45.8,40.3z"
		/>
	<path class="st5" d="M45.8,41.6c0.4,0,0.7,0.1,1,0.3c0.4,0.2,0.7,0.5,1.1,0.8c0.3,0.3,0.7,0.6,1,1c0.2,0.2,0.2,0.5,0.4,0.7
		c-0.1,0.2,0,0.3-0.1,0.5c0,0.2-0.2,0.2-0.3,0.2c-0.2,0.1-0.4,0.3-0.6,0.5c0,0.1-0.1,0.1-0.2,0.2c-0.4,0.2-0.7,0.7-1.2,0.9
		c0.1-0.5,0.4-0.8,0.9-1.1c0.1-0.1,0.3-0.2,0.3-0.3c0.1-0.1,0.1-0.2,0.3-0.3c0.4-0.2,0.4-0.7,0.3-1c0,0,0-0.1-0.1-0.1
		c-0.4-0.3-0.6-0.8-1-1.1c-0.5-0.4-1-0.6-1.5-1C45.9,41.7,45.8,41.7,45.8,41.6z"/>
	<path class="st3" d="M52.2,38.5c-0.1-0.2-0.3-0.2-0.5-0.2c-1.6,0-3.1-0.3-4.6-0.8c-0.5-0.2-1-0.4-1.5-0.7c-0.4-0.2-0.8-0.4-1.2-0.7
		c0.2-0.1,0.3,0,0.5,0c0.1,0,0.1,0,0.1,0.1c0,0.1,0,0.2,0.1,0.1c0.2-0.2,0.3,0,0.5,0.1c0.1,0.1,0.1,0.1,0.2,0.1
		c0.2,0,0.3,0.1,0.4,0.2c0.1,0.1,0.2,0.2,0.3,0.1c0.2,0,0.5,0,0.5,0.2c0,0.1,0.1,0.2,0.2,0.2c0.8,0,1.4,0.5,2.1,0.5
		c0.3,0,0.7,0,1,0.1c0.2,0.1,0.4,0.1,0.7,0.1c0.4-0.1,0.7,0.1,1,0.2c0,0,0,0.1,0.1,0.1C52.2,38.4,52.2,38.4,52.2,38.5z"/>
	<path class="st3" d="M37.3,38.7c-0.1,0.3,0.3,0.2,0.4,0.4c-0.5,0-0.9-0.1-1.3-0.2c-1.4-0.2-2.8-0.4-4.2-0.6
		c-0.8-0.1-1.6-0.2-2.4-0.4c0-0.1,0-0.2,0.1-0.2c0.2-0.1,0.5,0.2,0.6-0.1c0.1,0.2,0.3,0.2,0.4,0.3c0.1,0.1,0.2,0.1,0.3,0.1
		c0.3-0.1,0.5,0,0.7,0.1c0.1,0,0.2,0.1,0.3,0.1c0.4,0,0.7,0.1,1.1,0.2c0.3,0.1,0.7,0.1,1,0.2c0.5,0.1,1,0.1,1.5,0.3c0,0,0.1,0,0.1,0
		c0.4-0.1,0.7-0.1,1.1,0.1C37.1,38.8,37.2,38.7,37.3,38.7z"/>
	<path class="st5" d="M70.4,54.5c0.2,0,0.3-0.1,0.3-0.2c0.1-0.2,0.2-0.5,0.3-0.7c0.2-0.4,0.6-0.6,0.8-1.1c0.1-0.2,0.2-0.1,0.4-0.1
		c0,0.3-0.2,0.6-0.4,0.8c-0.2,0.2-0.4,0.4-0.5,0.7c-0.1,0.2-0.2,0.3-0.3,0.5c-0.1,0.1-0.3,0.3-0.3,0.5c0,0.2-0.2,0.4-0.4,0.5
		c-0.3,0.2-0.5,0.4-0.8,0.7c-0.5,0.4-1,0.7-1.7,0.8c0-0.1,0-0.1,0.1-0.2c0.7-0.3,1.2-0.7,1.8-1.1C70,55.2,70.2,54.8,70.4,54.5z"/>
	<path class="st5" d="M75.8,49c0.4-0.2,0.7-0.5,1.2-0.5c0.1,0,0.1-0.1,0.2-0.1c0.4-0.3,0.7-0.6,1.1-0.9c0.5-0.4,0.5-0.9,0.8-1.3
		c0.2-0.2,0-0.5-0.1-0.7c0.2,0,0.3,0.1,0.3,0.3c0,0.4-0.1,0.9-0.1,1.3c0,0.2-0.2,0.2-0.3,0.3c-0.3,0.4-0.7,0.7-1,1
		c-0.2,0.2-0.3,0.3-0.6,0.3c-0.1,0-0.2,0.1-0.2,0.1C76.5,49,76.2,49.1,75.8,49z"/>
	<path class="st7" d="M45.6,59.1c0.8,0.3,1.5,0.9,2.3,1.1c0.4,0.1,0.9,0.3,1.3,0.4c-0.1,0.1-0.2,0.1-0.3,0.1
		c-0.4-0.1-0.8-0.1-1.2-0.4c-0.3-0.2-0.6-0.3-1-0.3c-0.4,0-0.7-0.2-1.1-0.3c-0.2-0.1-0.4-0.3-0.7-0.4c-0.1,0-0.1-0.1-0.1-0.2
		c0.1,0,0.1,0.1,0.2,0.1C45.3,59.3,45.5,59.4,45.6,59.1C45.6,59.1,45.6,59.1,45.6,59.1z"/>
	<path class="st5" d="M78.9,45.2c-0.1,0-0.2-0.1-0.3-0.2c-0.2-0.3-0.4-0.5-0.7-0.6c-0.1-0.1-0.2-0.1-0.3-0.1c-0.2,0-0.4,0-0.6-0.2
		c-0.2-0.2-0.5-0.3-0.8-0.3c-0.4,0-0.8,0-1.3,0.1c-0.5,0.1-1,0.2-1.5,0.5c0.2-0.4,0.6-0.5,1-0.6c0.7-0.2,1.5-0.3,2.2-0.2
		c0.2,0,0.4,0.1,0.5,0.1c0.2,0.1,0.3,0.1,0.5,0.1c0.1,0,0.3,0.1,0.4,0.1c0.2,0.1,0.3,0.3,0.5,0.4c0.1,0,0.2,0.2,0.2,0.3
		C78.8,44.9,78.9,45,78.9,45.2z"/>
	<path class="st5" d="M45,50.8c0,0-0.1,0-0.1,0.1c-0.1,0-0.1-0.1-0.1-0.2c0.2-0.6,0.1-1.1,0.4-1.7c0.2-0.4,0.2-0.9,0.5-1.2
		c0.3-0.3,0.3-0.9,0.8-1c0.1,0,0.2-0.1,0.2-0.2c0,0.2-0.1,0.5-0.2,0.7c0,0.1-0.1,0.2-0.2,0.2c-0.3,0-0.3,0.2-0.4,0.4
		c-0.3,0.5-0.6,1.1-0.8,1.7C45.2,50,45.3,50.5,45,50.8z"/>
	<path class="st3" d="M44.5,36.1c-1.3-0.9-2.6-1.7-3.8-2.7c-0.2-0.2-0.5-0.2-0.6-0.4c0.3-0.2,0.6-0.2,0.9,0.1c0,0,0.1,0.1,0.1,0.1
		c-0.1,0.3,0.2,0.3,0.3,0.5c0.4,0.5,1,0.7,1.6,0.9c0.1,0,0.1,0.1,0.2,0.2c0.1,0.2,0.3,0.3,0.5,0.4c0.3,0.2,0.7,0.3,0.9,0.6
		C44.6,35.9,44.6,36,44.5,36.1z"/>
	<path class="st3" d="M73.5,36.4c-0.2,0.1-0.5,0.1-0.7,0.1c-0.8,0.1-1.6,0.3-2.4,0.6c-0.4,0.1-0.7,0.4-1.1,0.6
		c-0.2,0.1-0.4,0.3-0.7,0.4c-0.2-0.2,0-0.4,0.1-0.5c0.1,0,0.2,0,0.3-0.1c0.1-0.1,0.3-0.2,0.5-0.2c0.3,0,0.4-0.3,0.6-0.5
		c0.1,0,0.1-0.2,0.2-0.2c0.5,0.1,1.1-0.2,1.6-0.1c0.2,0,0.3-0.2,0.6-0.2C72.9,36.2,73.2,36.3,73.5,36.4z"/>
	<path class="st7" d="M49.7,60.7c0.4,0,0.8,0,1.2,0c0.8,0.1,1.6,0,2.4,0.1c0.2,0,0.4-0.2,0.7-0.2c0,0,0.1,0,0.1,0c0,0,0.1,0,0.1,0
		c0.3,0.1,0.5-0.1,0.8-0.1c-0.1,0.2-0.3,0.2-0.5,0.3c-0.3,0-0.6,0-0.9,0.2c0,0-0.2,0-0.2,0c-0.4,0-0.8,0-1.3,0c-0.3,0-0.6,0-0.8,0.2
		c-0.1,0.1-0.2,0-0.3,0c-0.4-0.2-0.7-0.3-1.1-0.4C49.8,60.8,49.8,60.8,49.7,60.7z"/>
	<path class="st3" d="M55.1,60.5c-0.3-0.1-0.5,0.1-0.8,0.1c0.1-0.4,0.5-0.3,0.7-0.4c0.4-0.1,0.8-0.2,1.2-0.4c0.5-0.2,1-0.4,1.5-0.6
		c0.2-0.1,0.4,0,0.6-0.1c0,0.3-0.1,0.4-0.4,0.5c-0.7,0.3-1.5,0.4-2.2,0.7c-0.2,0.1-0.4,0-0.5,0.2C55.2,60.5,55.1,60.5,55.1,60.5z"/>
	<path class="st5" d="M44.3,62.1c-0.1,0-0.2,0-0.3,0c-0.3,0.1-0.3,0.2-0.1,0.4c0.3,0.3,0.5,0.7,0.8,1c0.4,0.5,0.8,0.9,1.4,1.2
		c0.2,0.1,0.6,0.1,0.7,0.5c-0.4,0-0.6-0.3-0.9-0.4c-0.7-0.3-1.3-0.8-1.7-1.5c-0.2-0.4-0.5-0.7-0.7-1.1c-0.1-0.2-0.1-0.4,0.1-0.5
		c0.2-0.1,0.3,0.1,0.4,0.1C44.2,61.9,44.3,62,44.3,62.1z"/>
	<path class="st3" d="M73,37.2c0.8-0.5,1.7-0.7,2.7-0.8c-0.7-0.3-1.4-0.1-2.1,0c0-0.2,0.2-0.2,0.4-0.3c0.5-0.1,1,0,1.4-0.1
		c0,0,0.1,0,0.1,0c0.1,0.2,0.3,0.2,0.5,0.2c0.1,0,0.3,0.1,0.2,0.2c0,0.1-0.2,0.1-0.3,0.1c-0.5,0.3-1.1,0.2-1.6,0.4
		c-0.4,0.2-0.8,0.4-1.3,0.4c0,0,0,0,0,0C73,37.3,73,37.2,73,37.2z"/>
	<path class="st5" d="M45.6,59.1c-0.1,0.3-0.3,0.2-0.5,0.2c-0.1,0-0.1,0-0.2-0.1c-0.2-0.2-0.5-0.3-0.7-0.4c-0.2-0.2-0.5-0.3-0.6-0.5
		c0,0-0.1-0.1-0.1-0.1c-0.6,0-0.5-0.6-0.8-0.9c0.2,0,0.4,0.1,0.4,0.3c0.1,0.4,0.4,0.5,0.7,0.2c0.3,0.1,0.5,0.3,0.7,0.5
		C44.8,58.6,45,59.1,45.6,59.1z"/>
	<path class="st5" d="M44.3,53.8c-0.4-0.1-0.6-0.4-0.8-0.5c0,0,0-0.1-0.1-0.1c-0.5-0.2-0.8-0.7-1.3-0.9c-0.2-0.1-0.4-0.2-0.6-0.4
		c-0.1-0.2-0.3-0.2-0.4,0c0,0.1-0.2,0.1-0.2,0.2c-0.2-0.2-0.1-0.4,0.1-0.6c0.1-0.2,0.3-0.1,0.5,0c0.3,0.2,0.6,0.3,0.7,0.6
		c0,0.1,0.1,0.1,0.2,0.1c0.7,0.3,1.3,0.8,1.8,1.4C44.3,53.7,44.3,53.8,44.3,53.8z"/>
	<path class="st5" d="M48.2,63.6c-0.4,0.1-0.7-0.1-1.1-0.2c-0.3-0.1-0.6-0.2-0.8-0.3c-0.7-0.1-1.2-0.5-1.8-0.9c0,0,0-0.1-0.1-0.1
		c0.3,0,0.6,0.2,0.9,0.3c0.6,0.2,1.1,0.5,1.7,0.7c0.3,0.1,0.6,0.1,0.8,0.2C48,63.3,48.1,63.4,48.2,63.6z"/>
	<path class="st5" d="M68.8,37.6c-0.1,0.2-0.3,0.3-0.1,0.5c0,0,0,0,0,0c0,0-0.1-0.1-0.1,0c-0.9,0.5-1.8,0.6-2.8,0.5
		c0.1-0.2,0.1-0.4,0.4-0.1c0.1,0.1,0.4,0.1,0.5,0c0.2-0.3,0.5-0.2,0.7-0.2c0.4,0,0.8-0.3,0.9-0.7C68.5,37.4,68.6,37.4,68.8,37.6z"/>
	<path class="st5" d="M44.9,52.2c0.3,0,0.4,0.1,0.5,0.4c0,0.1,0,0.3,0.2,0.3c0.1,0.3,0.3,0.5,0.5,0.6c0.4,0.3,0.7,0.6,1.1,0.7
		c0.2,0.1,0.1,0.2,0.1,0.3C46,54.2,45.3,53.4,44.9,52.2z"/>
	<path class="st5" d="M72.2,48.6c-0.1-0.2,0-0.4,0-0.5c0,0,0-0.1,0.1-0.1c0.1,0,0.1,0,0.1,0.1c0.2,0.2,0.4,0.3,0.6,0.5
		c0.4,0.3,0.7,0.4,1.2,0.5c0.1,0,0.2,0.1,0.2,0.2c-0.5,0.1-0.9,0-1.3-0.2c-0.2-0.1-0.4-0.1-0.6-0.3C72.5,48.5,72.3,48.5,72.2,48.6z"
		/>
	<path class="st5" d="M56.2,63.4C56.2,63.3,56.2,63.3,56.2,63.4c0.2-0.4,0-0.4-0.2-0.4c0-0.2,0.1-0.2,0.3-0.3c0.2,0,0.4-0.1,0.5-0.1
		c0.1,0,0.3,0,0.3,0.2c0,0.2,0,0.3-0.2,0.4C56.7,63.3,56.5,63.4,56.2,63.4z"/>
	<path class="st5" d="M52.9,65c0-0.3,0.2-0.4,0.4-0.4c0.5-0.1,0.9-0.3,1.3-0.5c0.3-0.2,0.7-0.3,1-0.4c-0.2,0.2-0.4,0.3-0.7,0.4
		c-0.1,0.1-0.3,0.1-0.4,0.2c-0.3,0.2-0.5,0.4-0.9,0.4c-0.1,0-0.2,0-0.2,0.1C53.3,65,53.1,65,52.9,65z"/>
	<path class="st3" d="M52.1,38.6c0,0,0.1-0.1,0.1-0.1c0.1,0,0.2-0.1,0.2-0.2c0,0,0.1,0,0.1,0c0.1,0,0.2-0.1,0.3,0.1
		c0.1,0.1-0.1,0.2-0.1,0.3c-0.1,0.1-0.1,0.2,0,0.3c0.1,0.1,0.1,0.2,0.1,0.3c-0.2-0.1-0.4-0.2-0.7-0.1c-0.1,0.1-0.2-0.1-0.1-0.2
		C52,38.8,52.1,38.8,52.1,38.6z"/>
	<path class="st3" d="M58.3,59.1c0.1-0.3,0-0.4-0.3-0.4c-0.1,0-0.2,0-0.3-0.1c0.1-0.3,0.4-0.4,0.7-0.2c0.2,0.1,0.3,0.2,0.5,0.3
		c0.2,0.1,0,0.2-0.1,0.3C58.6,59.1,58.5,59.1,58.3,59.1z"/>
	<path class="st5" d="M49.7,56.9c-0.3,0-0.6-0.1-0.8-0.3c-0.2-0.1-0.4-0.3-0.7-0.3c-0.2,0-0.2-0.2-0.2-0.4c0.1,0,0.2,0,0.3,0.1
		c0.4,0.2,0.6,0.5,1.1,0.5C49.6,56.6,49.7,56.7,49.7,56.9z"/>
	<path class="st5" d="M56.2,58.5c0-0.1,0-0.2,0-0.3c0.2,0,0.3,0,0.5,0c0.4-0.1,0.7,0.1,0.9,0.4C57.1,58.6,56.7,58.6,56.2,58.5z"/>
	<path class="st5" d="M21.4,61.5c-0.3-0.1-0.4-0.3-0.6-0.5c-0.3-0.2-0.5-0.5-0.8-0.8c-0.1-0.1-0.1-0.2-0.1-0.3
		c0.2,0,0.3,0.2,0.4,0.3C20.8,60.6,21.2,61,21.4,61.5z"/>
	<path class="st3" d="M39.9,32.9c-0.5-0.3-0.9-0.7-1.4-1c0.3-0.1,0.5,0,0.7,0.2c0.2,0.2,0.5,0.3,0.6,0.6
		C39.9,32.7,39.9,32.8,39.9,32.9z"/>
	<path class="st7" d="M72.9,43.4c0-0.2,0.1-0.4,0.3-0.4c0.1,0.1,0.2,0.1,0.3,0.2c0.1,0,0.1,0.1,0.1,0.2c0,0.1-0.1,0.2-0.2,0.1
		C73.2,43.5,73,43.5,72.9,43.4z"/>
	<path class="st3" d="M37.5,31.1L37.5,31.1C37.5,31.1,37.5,31.1,37.5,31.1c-0.1,0-0.1-0.1-0.1-0.1c0,0,0,0,0,0c0,0-0.1-0.1-0.1-0.1
		c-0.1-0.1-0.3-0.3-0.4-0.3c0-0.1-0.1-0.1-0.1-0.2c0.3-0.2,0.4-0.2,0.5,0.1C37.4,30.7,37.6,30.9,37.5,31.1
		C37.6,31.1,37.6,31.1,37.5,31.1z"/>
	<g>
		<path class="st9" d="M51.7,38.3c-1.6,0-3.1-0.3-4.6-0.8c-0.5-0.2-1-0.4-1.5-0.7c-0.4-0.2-0.8-0.4-1.2-0.7l0,0
			c-1.3-0.9-2.6-1.7-3.8-2.7c-0.2-0.2-0.5-0.2-0.6-0.4c0,0,0,0,0,0c-0.1,0-0.1-0.1-0.2-0.1l0,0c-0.5-0.3-0.9-0.7-1.4-1c0,0,0,0,0,0
			c-0.2-0.2-0.4-0.2-0.6-0.4c0,0,0,0,0,0c-0.1-0.1-0.2-0.1-0.3-0.2c0,0,0,0,0,0c0,0,0,0-0.1,0l0,0l0,0c0,0-0.1,0-0.1-0.1
			c-0.1,0-0.2,0-0.1-0.1c-0.1-0.1-0.3-0.3-0.4-0.3c0-0.1-0.1-0.1-0.1-0.2c-0.2-0.1-0.4-0.3-0.7-0.1c0.1,0.2,0.3,0.4,0.5,0.5
			c0.2,0.2,0.4,0.4,0.6,0.6c0.2,0.2,0.4,0.4,0.6,0.6c0,0.1,0.1,0.1,0.1,0.2c0.3,0.1,0.5,0.4,0.7,0.7c0.1,0.1,0.3,0.3,0.4,0.4
			c0.8,0.7,1.5,1.5,2.2,2.1c0.4,0.3,0.8,0.6,1.1,0.9c0.3,0.3,0.6,0.5,0.8,0.8c0.2,0.2,0.4,0.3,0.6,0.5c0,0,0,0,0.1,0.1
			c0.2,0,0.3,0.1,0.4,0.3c0.5,0.4,1.2,0.8,1.7,1.2c0.1,0,0.1,0,0.1,0.1c0.1,0,0.2,0.1,0.2,0.1c0.1,0,0.1,0,0.1,0.1
			c0.3,0.1,0.5,0.4,0.8,0.4c0.2,0,0.4,0,0.6,0.1c0.3,0,0.6,0.1,0.8,0.1c0.2,0,0.3,0,0.5,0c0.2,0,0.5-0.1,0.7-0.1
			c0-0.1,0.1,0,0.1-0.1c0.7-0.2,1.4-0.5,1.8-1.1c0.1-0.1,0.2-0.2,0.3-0.2c0,0,0.1-0.1,0.1-0.1l0,0C52.1,38.2,51.9,38.3,51.7,38.3z"
			/>
		<polygon class="st9" points="44.2,37.8 44.2,37.8 44.2,37.8 		"/>
		<polygon class="st9" points="37.4,31 37.4,31 37.4,31 		"/>
	</g>
	<path class="st5" d="M46.4,55.2c-0.3,0-0.5-0.2-0.8-0.3c-0.1,0-0.1-0.2-0.1-0.3c0.2,0.1,0.4,0.1,0.6,0.2
		C46.3,54.9,46.4,55,46.4,55.2z"/>
	<path class="st2" d="M29.7,38.2c-0.2,0-0.4-0.2-0.6-0.2c-0.1,0-0.1-0.1-0.2-0.2c0.3-0.1,0.4-0.1,0.6,0C29.6,37.9,29.8,38,29.7,38.2
		z"/>
	<g>
		<polygon class="st6" points="44.2,37.8 44.2,37.8 44.2,37.8 		"/>
		<path class="st6" d="M72.1,37.8L72.1,37.8c0,0.2-0.1,0.2-0.2,0.1l0,0c0,0.2-0.1,0.2-0.2,0.1c0,0.1-0.1,0.1-0.2,0.1
			c-0.1,0.1-0.2,0.1-0.3,0.2c0.1,0.4-0.3,0.5-0.5,0.7c-0.2,0.1-0.3,0.2-0.4,0.4c-0.1,0.3-0.3,0.4-0.5,0.6c-0.1,0.1-0.2,0-0.4,0
			c0,0-0.1,0.1-0.1,0.1c0,0.3-0.1,0.4-0.4,0.4c0,0,0,0,0,0c-0.3,0.3-0.6,0.1-0.9,0.2c-0.1,0-0.2,0-0.3,0c-0.1,0-0.2-0.1-0.2,0
			c-0.2,0.3-0.4,0-0.6-0.1c-0.1,0-0.2-0.1-0.2-0.1c-0.3,0-0.6-0.2-0.7-0.5c-0.2-0.1-0.3-0.3-0.3-0.5c-0.1-0.2-0.1-0.5-0.1-0.7
			c-0.5,0-1,0.1-1.5,0.2c-1.3,0.2-2.7,0.3-4,0.5c-1.3,0.2-2.7,0.2-4.1,0.1c-1.1,0-2.1-0.3-3.2-0.3c-0.2-0.1-0.4-0.2-0.7-0.1
			c-0.1,0.1-0.2-0.1-0.1-0.2c0-0.1,0.2-0.2,0.2-0.3c-0.1,0-0.2,0.1-0.3,0.2c-0.5,0.6-1.1,0.9-1.8,1.1c-0.1,0-0.1,0-0.1,0.1
			c0,0,0.1,0,0.1,0c-0.2,0.1-0.5,0.3-0.8,0.1c-0.2,0-0.3,0-0.5,0c-0.3,0.1-0.7,0.1-0.8-0.1c-0.2-0.1-0.4-0.1-0.6-0.1
			c-0.1,0.2-0.3,0.1-0.4,0c-0.2-0.1-0.3-0.3-0.4-0.5c0-0.1-0.1-0.1-0.1-0.1c-0.1,0-0.2,0-0.2-0.1c0-0.1-0.1-0.1-0.1-0.1
			c0,0-0.1,0.1-0.1,0c-0.2-0.2-0.5-0.1-0.8-0.2c0,0,0,0-0.1,0c-0.3-0.3-0.7-0.5-0.7-1c-0.2,0-0.3-0.1-0.4-0.3c0,0,0,0-0.1-0.1
			c-0.1,0.3-0.2,0.1-0.3,0c-0.2-0.1-0.4-0.3-0.3-0.5c-0.2-0.3-0.6-0.5-0.8-0.8h0c-0.3-0.4-0.7-0.6-1.1-0.9c-0.8-0.7-1.5-1.5-2.2-2.1
			c-0.1-0.1-0.3-0.3-0.4-0.4c-0.2-0.3-0.4-0.6-0.7-0.7c-0.1,0.3,0.3,0.4,0.3,0.6c-0.4,0.3-0.4,0.3,0,0.5c0.3,1.2,0.5,2.5,0,3.7
			c-0.2,0.6-0.4,1.2-0.8,1.8c0,0.2,0.3,0.4,0.6,0.4c0.4-0.1,0.7,0,1,0.1c0,0,0.1,0,0.1,0c0.4-0.2,0.7,0,1,0.1
			c0.2,0.1,0.3,0.1,0.5,0.1c0.7,0.2,1.5,0.1,2.2,0.3c0.4,0.1,0.9,0.1,1.3,0.2c0.2,0,0.5,0.1,0.7,0.2c0.2,0.1,0.5,0.1,0.7,0.1
			c0.1,0,0.2,0,0.1,0.2c0,0.1,0.3,0,0.1,0.2c0,0.3-0.3,0.2-0.5,0.3c-0.1,0-0.1,0-0.2,0c-0.3,0-0.6-0.2-0.9-0.1c-0.1,0-0.1,0-0.1-0.1
			c-0.3,0-0.6,0-0.8,0.1c0.1,0.1,0.1,0.1,0,0.2c0.5,0.1,1,0.2,1.5,0.3c0.3,0,0.6,0,0.7,0.4c0,0,0.1,0,0.1,0c0.4,0,0.7,0.1,1,0.3
			c0.4,0.2,0.7,0.5,1.1,0.8c0.3,0.3,0.7,0.6,1,1c0.2,0.2,0.2,0.5,0.4,0.7c0.5-0.1,0.7-0.5,1.1-0.6c0.4-0.1,0.7-0.4,1-0.5
			c0.1,0,0.1-0.1,0.1-0.1c0.2-0.4,0.6-0.4,0.9-0.5c0.7-0.3,1.5-0.3,2.2-0.6c0.6-0.2,1.3-0.3,1.9-0.3c0.5,0,1-0.1,1.5-0.2
			c0.3,0,0.5,0.1,0.7,0.1c0.6,0,1.2-0.1,1.7,0.1c0.1-0.2,0.3,0,0.4,0c0.6,0,1.3,0.2,1.9,0.2c0,0,0.1,0,0.1,0
			c0.4,0.5,0.9,0.2,1.4,0.4c0.2,0.1,0.5,0,0.7,0c0.1,0,0.2,0,0.3,0.1c0.2,0.4,0.6,0.4,1,0.4c0.4,0,0.6,0.3,0.9,0.5
			c0,0,0,0.1,0.1,0.1c0.3-0.1,0.5,0.2,0.8,0.3c0.3,0,0.5,0.2,0.7,0.4c0.3,0.3,0.7,0.4,1.1,0.4c0.2,0,0.3,0.2,0.5,0.1
			c0-0.4-0.3-0.5-0.4-0.8c-0.8-0.2-1.4-0.6-1.7-1.4c-0.1-0.2-0.4-0.4-0.3-0.7c0.1-0.2,0.2-0.3,0.4-0.1c0,0,0.1,0,0.1,0
			c0.2-0.2,0.5-0.1,0.8-0.3c0,0,0.1,0.1,0.1,0.1c0,0,0.1,0,0.1,0c0-0.1,0.1-0.2,0.2-0.2c0.2-0.1,0.5-0.1,0.6-0.3
			c0.4-0.5,0.7-1,1.2-1.4c-0.1-0.2-0.1-0.3,0.1-0.4c0.2-0.2,0.5-0.5,0.7-0.7c0.1-0.1,0.1-0.2,0.2-0.2C72.3,38,72.3,37.9,72.1,37.8z"
			/>
		<path class="st6" d="M71.7,38C71.7,38,71.7,38,71.7,38C71.7,38,71.7,38,71.7,38L71.7,38z"/>
	</g>
	<path class="st3" d="M38.5,31.8c-0.2-0.2-0.4-0.2-0.6-0.4c0.2-0.1,0.4,0,0.6,0C38.7,31.6,38.6,31.7,38.5,31.8z"/>
	<path class="st5" d="M65,23.3c0.2,0,0.2,0.1,0.4,0.1c0,0,0.1,0.1,0.1,0.1c0.1,0.1,0.1,0.1,0,0.2c-0.1,0.1-0.1,0-0.2,0
		C65.2,23.6,64.9,23.5,65,23.3z"/>
	<path class="st5" d="M44.9,41.3c0.3,0,0.6,0,0.7,0.4C45.4,41.6,45.1,41.5,44.9,41.3z"/>
	<path class="st5" d="M18.6,57.1c0.1,0,0.2,0.1,0.2,0.2c0,0.1-0.1,0.1-0.1,0.1c-0.1,0-0.2-0.1-0.2-0.2
		C18.4,57.1,18.5,57.1,18.6,57.1z"/>
	<path class="st5" d="M55.9,63c-0.1,0.2-0.3,0.1-0.5,0.2C55.5,63,55.7,62.9,55.9,63z"/>
	<path class="st3" d="M37.9,31.4c-0.1-0.1-0.2-0.1-0.3-0.2c0.1-0.2,0.2-0.1,0.2,0C38,31.2,38,31.3,37.9,31.4z"/>
	<path class="st7" d="M55.2,60.5c0.1-0.2,0.3-0.1,0.5-0.2C55.6,60.6,55.4,60.5,55.2,60.5z"/>
	<path class="st6" d="M52.4,38.3c0,0.1,0,0.2-0.2,0.2c0,0,0,0,0,0c0,0,0-0.1,0-0.1C52.3,38.3,52.3,38.3,52.4,38.3z"/>
	<path class="st3" d="M40.1,33c-0.1,0-0.1-0.1-0.2-0.1C40,32.8,40.1,32.8,40.1,33z"/>
	<path class="st5" d="M20.1,27.3c-0.2,0.1-0.2,0.3-0.4,0.3c0-0.3,0.2-0.4,0.4-0.6c0,0,0.1,0,0.1,0C20.3,27.2,20.2,27.2,20.1,27.3z"
		/>
	<path class="st3" d="M2.8,23.5C2.8,23.5,2.8,23.4,2.8,23.5C2.8,23.4,2.8,23.5,2.8,23.5C2.8,23.5,2.8,23.5,2.8,23.5z"/>
	<path class="st7" d="M86,20.5c-0.5-0.1-1,0-1.6-0.1c-0.4,0-0.7,0-1.1,0c-0.1,0-0.2,0-0.3,0c-0.7,0.1-1.3,0-2,0c-0.7,0-1.3,0.1-2,0
		c-0.7-0.1-1.5,0.1-2.2,0c-0.8-0.1-1.6,0-2.4,0c-0.2,0-0.5,0-0.7-0.1c-0.3-0.1-0.7,0.2-1,0.2c-0.5-0.1-0.8,0.3-1.3,0.4
		c0,0-0.1,0.1-0.1,0.1h0c-0.1,0.1-0.2,0.2-0.4,0.2c-0.6,0.2-1.3,0.3-1.8,0.6C69,22,68.9,22,68.7,22c-0.3,0.1-0.5,0.3-0.7,0.5
		c-0.1,0.1-0.1,0.3,0.1,0.4c0.4,0.2,0.8,0.4,1.1,0.7c0.6-0.2,0.4,0.4,0.7,0.6c0.1,0,0.2,0.2,0,0.3c0,0.1,0.1,0.1,0.2,0.1
		c0.2-0.2,0.4-0.1,0.5,0.1c0.2,0.3,0.6,0.5,0.9,0.7c0.1,0,0.1,0,0.1,0.1c0.2,0.4,0.6,0.7,0.9,1.1c0.1,0.2,0.2,0.2,0.4,0.2
		c0.1,0,0.2,0.1,0.2,0.2c-0.1,0.2,0,0.3,0.1,0.3c0.2,0,0.4,0.4,0.7,0.3c0.1,0,0.4,0.5,0.3,0.6c0,0.1,0,0.2,0,0.2
		c0.3,0.2,0.4,0.6,0.7,0.7c0.1,0,0.1,0.1,0.1,0.1c0,0.4,0.3,0.5,0.5,0.6c0.4,0.1,0.3,0.5,0.4,0.7c0.1,0.4,0.4,0.7,0.6,1
		c0.1,0.1,0.2,0.1,0.2-0.1c0-0.1,0-0.1,0.1-0.1c0.1,0,0.1,0,0.1,0.1c0.2,0.3,0.7,0.4,0.9,0.1c0.1-0.1,0.2-0.2,0.4-0.2
		c0.4,0,0.7-0.1,0.9-0.4c0.1-0.2,0.3-0.1,0.5-0.2c0.2-0.1,0.4,0,0.3-0.4c0-0.1,0-0.2,0.1-0.2c0.3,0.1,0.3-0.2,0.4-0.4
		c0-0.2,0.1-0.2,0.3-0.2c0,0.1,0,0.2,0.1,0.2c0.2-0.1,0.3,0.1,0.5-0.1c0.2-0.2,0.3-0.5,0.5-0.7c0.3-0.4,0.6-0.8,0.9-1.2
		c0.1-0.1,0.2-0.2,0.4-0.2c0.2,0,0.4-0.2,0.4-0.5c0-0.2,0.1-0.3,0.3-0.4c0.4-0.1,0.5-0.8,0.2-1c0,0-0.1-0.1-0.1-0.1
		c0-0.1,0.1,0,0.1,0c0.2,0,0.3-0.1,0.5-0.2c0.1-0.1-0.2-0.2,0-0.4c0.1-0.1,0.3,0,0.4-0.2c0.1-0.2,0.2-0.5,0.2-0.7
		c0-0.1,0-0.2-0.2-0.3c-0.2,0-0.1-0.2-0.1-0.3c0-0.1,0.1,0,0.2-0.1c0.2-0.1,0.4-0.1,0.6-0.4c0.2-0.3,0.2-0.7,0.4-1
		c0.1-0.4,0.2-0.9,0.2-1.3C86.3,20.6,86.2,20.6,86,20.5z M81.1,29.5c0,0.1-0.1,0.1-0.2,0.2C80.9,29.5,81,29.4,81.1,29.5
		C81.1,29.4,81.1,29.4,81.1,29.5z"/>
	<path class="st3" d="M80.9,29.6c0-0.1,0.1-0.2,0.2-0.2c0,0,0.1,0,0.1,0.1C81.1,29.6,81,29.6,80.9,29.6
		C80.9,29.6,80.9,29.6,80.9,29.6z"/>
	<path class="st1" d="M30.4,20.5c-0.1,0-0.2,0-0.3,0c0-0.1-0.1-0.2-0.1-0.3c-0.1-0.2-0.2-0.4,0.1-0.5c0.2-0.1,0.2-0.3,0.1-0.4
		c-0.2-0.3-0.2-0.5,0-0.8c0.1-0.1,0.1-0.3,0.1-0.5c-0.1-0.2,0-0.3,0.1-0.5c0.2-0.3,0.1-0.7,0.2-1c0.1-0.5,0.1-1,0.6-1.5
		c0.2-0.2,0.3-0.6,0.3-1c0-0.1,0-0.2-0.1-0.2c-0.1,0-0.1,0.1-0.1,0.1c0,0,0,0,0,0c0,0.1,0.1,0.2-0.1,0.3c-0.1,0-0.1,0-0.1-0.1
		c-0.1-0.1-0.1-0.3,0-0.4c0.3-0.1,0.4-0.4,0.5-0.7c0.2-0.3,0.5-0.3,0.8-0.5c0.5-0.3,1-0.6,1.6-0.9c0.1-0.1,0.3-0.2,0.5-0.2
		c0.3-0.1,0.5-0.2,0.7-0.3c0.2-0.1,0.3-0.2,0.6-0.1c0.4,0.1,0.8-0.2,1.1-0.4c0.1-0.1,0.2-0.3,0.5-0.1c0.1,0.1,0.3,0,0.3-0.2
		c0.1-0.2,0.4-0.3,0.6-0.4c0.5-0.1,1-0.2,1.4-0.5c0.1-0.1,0.4,0,0.6-0.1c0.4-0.3,1-0.1,1.4-0.3c0.1,0,0.2,0,0.3-0.1
		c0.3-0.1,0.6-0.2,0.9-0.2c0.3,0,0.7-0.1,1-0.2c0.1,0,0.2-0.1,0.3,0c0.2,0.1,0.3,0,0.5-0.1c0.5-0.2,0.9-0.2,1.4-0.2
		c-0.3,0.5,0,1,0.2,1.5c0.1,0.4,0.2,0.8,0.2,1.1c0.1,0.8,0.3,1.5,0.3,2.3c0,0.4,0,0.8-0.1,1.2c-0.1,0.3-0.4,0.5-0.6,0.7
		c0,0-0.1,0-0.1,0.1c-0.3,0.4-0.7,0.6-1,0.8c-0.2,0.1-0.4,0.2-0.6,0.3c-0.1,0.1-0.2,0.1-0.3,0.2c-0.4,0-0.7,0.1-1.1,0.2
		c-0.3,0.1-0.7,0.2-1,0.1c-0.1,0-0.1,0-0.2,0c-0.4,0.3-0.9,0.1-1.3,0.2c-0.2,0.1-0.4,0.1-0.6,0.1c-0.6,0.2-1.3,0.3-1.9,0.4
		c-0.4,0.1-0.9,0.1-1.3,0.3c-0.3,0.2-0.7,0.2-1,0.3c-0.2,0.1-0.4,0-0.6,0c-0.4,0.1-0.8,0.5-1.2,0.4c-0.2,0-0.4,0.2-0.6,0.3
		c-0.4,0.3-0.9,0.3-1.4,0.3c-0.3,0-0.5,0.2-0.7,0.4C30.8,20.1,30.5,20.2,30.4,20.5z"/>
	<path class="st7" d="M21.9,20.6C21.9,20.6,21.8,20.6,21.9,20.6c-0.1,0-0.2,0-0.1,0C21.8,20.5,21.8,20.5,21.9,20.6
		C21.9,20.5,21.9,20.6,21.9,20.6z"/>
	<path class="st14" d="M53.1,47.4c0-0.1,0-0.3-0.1-0.4c0.2-0.3,0.5-0.2,0.8-0.1c0.2,0.1,0.4,0.2,0.7,0.2c1,0.2,1.8,0.9,2.6,1.4
		c0,0,0.1,0,0.1,0.1c0.2,0.5,0.6,0.8,0.8,1.3c0.1,0.3,0.1,0.7-0.1,0.9C57.6,50.9,57.3,51,57,51c-0.8-0.1-1.4-0.6-2-0.9
		c0,0-0.1-0.1-0.1-0.1c-0.3-0.3-0.5-0.7-0.8-1c-0.1-0.1-0.2-0.2-0.2-0.4C53.7,48.1,53.3,47.8,53.1,47.4z"/>
	<path class="st14" d="M67,51.9c-0.2,0-0.5,0-0.7-0.1c0-0.3,0-0.6-0.2-0.8c-0.1-0.2-0.1-0.4-0.1-0.6c0.1-0.6,0.6-0.9,1-1.2
		c0.2-0.2,0.5-0.2,0.6-0.5c0,0,0.1,0,0.1,0c0.2,0,0.4-0.1,0.6-0.1c0.4-0.1,0.5,0,0.5,0.5c0,0.4-0.2,0.7-0.3,1.2
		c-0.1,0.3-0.2,0.7-0.5,1c-0.2,0.2-0.4,0.3-0.5,0.6c0,0-0.1,0-0.1,0C67.2,51.8,67.1,51.7,67,51.9z"/>
	<path class="st13" d="M53.1,47.4c0.2,0.4,0.6,0.7,0.6,1.1c0,0.1,0.1,0.3,0.2,0.4c0.3,0.3,0.5,0.7,0.8,1c0,0,0.1,0.1,0.1,0.1
		c0.7,0.3,1.2,0.9,2,0.9c0.3,0,0.7-0.1,0.9-0.3c0.2-0.2,0.2-0.6,0.1-0.9c-0.2-0.5-0.6-0.8-0.8-1.3c0,0,0-0.1-0.1-0.1
		c-0.8-0.5-1.6-1.2-2.6-1.4c-0.2-0.1-0.4-0.1-0.7-0.2c-0.3-0.1-0.6-0.2-0.8,0.1c0-0.2-0.1-0.4,0.2-0.5c0.2-0.1,0.4-0.1,0.5,0.1
		c0,0.1,0.1,0.1,0.2,0.1c0.5,0,1.1,0.2,1.5,0.4c0.3,0.2,0.6,0.5,1,0.7c0.2,0.1,0.3,0.1,0.5,0.2c0.9,0.5,1.2,1.3,1.4,2.2
		c0.1,0.5-0.4,1.1-1,0.9c-0.1,0-0.2-0.1-0.3,0c-0.5,0.1-1,0-1.4-0.3c-0.4-0.3-0.8-0.6-1.1-0.9c-0.4-0.5-0.9-1-1.2-1.7
		C53.2,48,53,47.7,53.1,47.4z"/>
	<path class="st13" d="M70.2,44.7c0.1,0.1,0,0.2,0,0.3C70,45,70,45.1,70,45.2l0,0c-0.2,0-0.3,0-0.4-0.3c0-0.1-0.1-0.1-0.2-0.1
		c-0.1,0-0.2,0-0.3-0.2c0-0.1-0.1-0.1-0.1-0.1c-0.3,0-0.4,0-0.5-0.3c0-0.1-0.2,0-0.3,0c-0.2,0-0.4,0-0.5-0.2
		c-0.1-0.3-0.3-0.3-0.6-0.4c-0.3-0.1-0.6-0.1-0.8-0.3c-0.1-0.1-0.3-0.2-0.4-0.3c-0.5-0.2-1-0.3-1.5-0.4c-0.4,0-0.7-0.3-1.1-0.3
		c-0.7,0-1.4-0.2-2.1-0.2c-0.3,0-0.6-0.1-0.7-0.4c0-0.1-0.1-0.1-0.2-0.1c0.1-0.2,0.3,0,0.4,0c0.6,0,1.3,0.2,1.9,0.2c0,0,0.1,0,0.1,0
		c0.4,0.5,0.9,0.2,1.4,0.4c0.2,0.1,0.5,0,0.7,0c0.1,0,0.2,0,0.3,0.1c0.2,0.4,0.6,0.4,1,0.4c0.4,0,0.6,0.3,0.9,0.5c0,0,0,0.1,0.1,0.1
		c0.3-0.1,0.5,0.2,0.8,0.3c0.3,0,0.5,0.2,0.7,0.4c0.3,0.3,0.7,0.4,1.1,0.4C69.9,44.6,70,44.7,70.2,44.7z"/>
	<path class="st13" d="M49,44.9c0-0.2-0.1-0.4,0.1-0.5c0.5-0.1,0.7-0.5,1.1-0.6c0.4-0.1,0.7-0.4,1-0.5c0.1,0,0.1-0.1,0.1-0.1
		c0.2-0.4,0.6-0.4,0.9-0.5c0.7-0.3,1.5-0.3,2.2-0.6c0.6-0.2,1.3-0.3,1.9-0.3c0.5,0,1-0.1,1.5-0.2c0.3,0,0.5,0.1,0.7,0.1
		c0,0.2-0.1,0.1-0.3,0.1c-0.4,0-0.8,0-1.2,0.1c-0.3,0.1-0.6,0-0.9,0.1c0,0-0.1,0-0.1,0c-0.2,0.3-0.6,0.1-0.9,0.2
		c-0.5,0.1-1,0-1.4,0.3c-0.2,0.2-0.5,0.2-0.8,0.2c-0.7,0.1-1.2,0.5-1.7,0.8c-0.3,0.2-0.6,0.4-1,0.5c-0.1,0-0.2,0.1-0.3,0.1
		C49.8,44.5,49.5,44.7,49,44.9z"/>
	<path class="st13" d="M67.5,51.9c0.1-0.3,0.4-0.4,0.5-0.6c0.3-0.3,0.4-0.7,0.5-1c0.1-0.4,0.3-0.8,0.3-1.2c0.1-0.4,0-0.6-0.5-0.5
		c-0.2,0-0.4,0.1-0.6,0.1c0.1-0.2,0.2-0.2,0.4-0.2c0.2-0.1,0.4-0.1,0.6-0.2c0.2-0.1,0.3,0.1,0.4,0.2c0.1,0.1,0,0.2,0,0.3
		c-0.3,0.4-0.2,0.9-0.3,1.3c0,0.1,0,0.2-0.1,0.3c-0.2,0.2-0.3,0.4-0.2,0.7c0.1,0.1,0,0.2-0.1,0.2C68.2,51.5,67.9,51.8,67.5,51.9z"/>
	<path class="st13" d="M67.7,48.8c-0.1,0.3-0.4,0.3-0.6,0.5c-0.4,0.3-0.9,0.6-1,1.2c0,0.2-0.1,0.4,0.1,0.6c0.2,0.2,0.3,0.5,0.2,0.8
		c-0.1,0-0.2,0-0.3-0.1c-0.2-0.1-0.2-0.1-0.1-0.3c0.1-0.2,0.1-0.4,0-0.5c-0.1-0.1-0.1-0.1-0.1-0.2c0.2-0.7,0.4-1.3,1.1-1.7
		C67.1,48.9,67.4,48.8,67.7,48.8z"/>
	<path class="st13" d="M70.5,45.4C70.5,45.4,70.6,45.4,70.5,45.4c0.3,0.5,0.8,0.8,0.9,1.2c-0.5,0.2-0.5,0.2-0.7-0.3
		c-0.1-0.2-0.3-0.4-0.5-0.5C70,45.7,70,45.5,70,45.2c0,0,0,0,0,0c0.1,0,0.2,0,0.3,0.1C70.4,45.4,70.5,45.4,70.5,45.4z"/>
	<path class="st13" d="M67,51.9c0.1-0.2,0.2-0.2,0.3-0.1C67.2,51.9,67.2,52,67,51.9z"/>
	<path class="st9" d="M69.2,41.5c0.5-0.1,1-0.1,1.5-0.2c1-0.2,1.9-0.3,2.9-0.4c0.5-0.1,1.1-0.1,1.6-0.3c0.1,0,0.1,0,0.2,0
		c0.1,0,0.1,0,0.1,0.1c0,0,0,0,0,0c0,0,0,0,0,0c0.1,0.1,0,0.1-0.1,0.2c-0.3,0.3-0.7,0.5-1.1,0.7c-0.6,0.4-1.2,0.9-1.7,1.4
		c-0.1,0.1-0.3,0.1-0.3,0.3c-0.8,0.5-1.6,0.7-2.5,0.5c-0.8-0.2-1.4-0.6-1.7-1.4c-0.1-0.2-0.4-0.4-0.3-0.7c0.1,0,0.3-0.1,0.4-0.1
		c0,0,0.1,0,0.1,0c0.3,0,0.6,0,0.8-0.1C69.1,41.5,69.2,41.5,69.2,41.5z"/>
	<path class="st5" d="M44.2,37.8c0.5,0.4,1.2,0.8,1.7,1.2c0,0-0.1,0.1-0.1,0c-0.2-0.2-0.5-0.1-0.8-0.2c0,0,0,0-0.1,0
		C44.7,38.5,44.3,38.3,44.2,37.8z"/>
	<path class="st5" d="M44.2,40.7c0.6-0.1,1.1-0.1,1.7-0.2c0,0.3-0.3,0.2-0.5,0.3c-0.1,0-0.1,0-0.2,0c-0.3,0-0.6-0.2-0.9-0.1
		C44.3,40.8,44.2,40.7,44.2,40.7z"/>
	<path class="st5" d="M43.2,37c0.2,0.2,0.4,0.3,0.6,0.5c-0.1,0.3-0.2,0.1-0.3,0C43.3,37.4,43.1,37.3,43.2,37z"/>
	<path class="st5" d="M46.4,39.3c0.3,0.1,0.5,0.4,0.8,0.4c-0.1,0.2-0.3,0.1-0.4,0C46.6,39.7,46.5,39.5,46.4,39.3z"/>
	<path class="st3" d="M69.1,41.5c-0.3,0.1-0.6,0.1-0.8,0.1c0.2-0.2,0.5-0.1,0.8-0.3C69,41.3,69.1,41.4,69.1,41.5z"/>
	<path class="st5" d="M47.8,39.9c0.3,0,0.6,0.1,0.8,0.1C48.3,40.2,48,40.1,47.8,39.9z"/>
	<path class="st5" d="M49.2,40c0.2,0,0.5-0.1,0.7-0.1c0,0,0.1,0,0.1,0C49.7,40.1,49.4,40.2,49.2,40z"/>
	<path class="st5" d="M43.8,37.6c0.2,0,0.3,0.2,0.4,0.3C44,37.9,43.9,37.7,43.8,37.6z"/>
	<path class="st3" d="M68.1,41.7c-0.1,0-0.3,0.1-0.4,0.1C67.8,41.6,67.9,41.5,68.1,41.7z"/>
	<path class="st5" d="M46.1,39.1c0.1,0,0.2,0.1,0.2,0.1C46.2,39.3,46.1,39.3,46.1,39.1z"/>
	<g>
		<path class="st6" d="M72,38.4c-0.2,0.2-0.5,0.5-0.7,0.7c-0.1,0.1-0.2,0.3-0.1,0.4c0.2-0.1,0.3-0.2,0.5-0.4
			c0.1-0.2,0.2-0.4,0.5-0.4c0.1,0,0.1-0.1,0-0.2C72.1,38.5,72,38.5,72,38.4z"/>
		<path class="st6" d="M73,37.3c-0.2,0-0.2,0.1-0.3,0.2c-0.1,0.1-0.3,0.2-0.4,0.1c0,0-0.1,0.1-0.1,0.1c0.2,0.1,0.2,0.3,0.1,0.5
			c0,0,0.1,0.1,0.1,0C72.6,38,72.9,37.8,73,37.3C73,37.3,73,37.3,73,37.3z"/>
		<path class="st6" d="M71.2,38.4c-0.6,0.5-1.1,1.1-1.8,1.5c-0.2,0.1-0.4,0.2-0.5,0.3c-1,0.4-1.9,0.4-2.8-0.2c0,0,0,0-0.1,0
			c0.1,0.3,0.4,0.5,0.7,0.5c0.1,0,0.2,0.1,0.2,0.1c0.2,0.1,0.3,0.4,0.6,0.1c0,0,0.1,0,0.2,0c0.1,0,0.2,0,0.3,0
			c0.3-0.1,0.7,0.1,0.9-0.2c0,0,0,0,0,0c0.3,0,0.4-0.1,0.4-0.4c-0.1,0-0.2,0.1-0.3,0.1c0.1,0,0.2-0.1,0.3-0.1c0,0,0.1-0.1,0.1-0.1
			c0.1,0.1,0.3,0.1,0.4,0c0.2-0.2,0.5-0.3,0.5-0.6c0-0.2,0.2-0.3,0.4-0.4C71,38.9,71.3,38.8,71.2,38.4z"/>
		<path class="st6" d="M72.1,37.8c-0.1,0-0.1,0.1-0.2,0.1C72,37.9,72.1,37.9,72.1,37.8z"/>
		<path class="st6" d="M71.7,38c0.1,0,0.2,0,0.2-0.1C71.8,37.9,71.8,38,71.7,38C71.7,38,71.7,38,71.7,38c-0.1,0-0.1,0.1-0.2,0.1
			C71.6,38.2,71.7,38.2,71.7,38z"/>
	</g>
	<path class="st3" d="M45.6,59.1c-0.6,0-0.7-0.5-1-0.8c0.3,0.1,0.6,0.2,0.8,0.5C45.4,58.9,45.6,58.9,45.6,59.1
		C45.6,59.1,45.6,59.1,45.6,59.1z"/>
	<path class="st5" d="M43.8,57.8c-0.1-0.2-0.4-0.2-0.4-0.5C43.6,57.4,43.8,57.5,43.8,57.8z"/>
	<path class="st3" d="M54.2,60.6c0,0-0.1,0-0.1,0C54,60.5,54,60.5,54.2,60.6C54.1,60.5,54.2,60.6,54.2,60.6z"/>
	<path class="st4" d="M33.1,40.2c-0.2-0.1-0.2-0.2-0.2-0.4C33.2,39.9,33.2,40,33.1,40.2z"/>
	<path class="st6" d="M73,37.3c-0.2,0-0.2,0.1-0.3,0.2c-0.1,0.1-0.3,0.2-0.4,0.1c0.2-0.2,0.5-0.4,0.8-0.5C73,37.2,73,37.3,73,37.3z"
		/>
	<path class="st3" d="M68.6,38.2C68.5,38.1,68.6,38.1,68.6,38.2C68.6,38.1,68.6,38.2,68.6,38.2z"/>
	<path class="st6" d="M70.5,45.4c0,0.1-0.1,0.1-0.2,0c-0.1-0.1-0.2-0.1-0.3-0.1c0-0.1,0-0.2,0.1-0.3C70.2,45.2,70.4,45.2,70.5,45.4z
		"/>
	<path class="st9" d="M37.3,30.9c0,0,0.1,0.1,0.1,0.1C37.3,31.1,37.2,31.1,37.3,30.9z"/>
	<path class="st9" d="M37.4,31c0,0,0.1,0,0.1,0.1C37.5,31.1,37.4,31.1,37.4,31z"/>
</g>
<path class="st12" d="M78.8,62.3c-2.3,3.2-5.8,5.5-9.4,7.1c-2.5,1.1-5,1.9-7.6,2.5c-1.3,0.3-2.7,0.6-4,0.7c-0.9,0.1-1.8,0.1-2.7,0.2
	c-1,0.1-2,0.2-3,0.3c-1,0.1-2,0-3-0.1c-1.3-0.1-2.7-0.2-4-0.4c-2.5-0.4-5-0.9-7.4-1.6c-2.4-0.7-4.7-1.6-7-2.6
	c-2.3-1-4.5-2.3-6.7-3.6c-0.9-0.6-1.8-1.2-2.7-1.8c-1.7-1.2-3.4-2.5-4.9-4.1c-6.5-6.6-5.9-17.3-1.1-24.6c0.1-0.1,0.1-0.5,0.1-0.5
	c-1,0-2,0-3-0.1c-0.6-0.1-1.2-0.1-1.7-0.2c-0.5-0.2-1.1-0.2-1.6-0.4c-1.4-0.6-2.6-1.2-3.3-1.8C5.3,31,4.6,30.6,4,29.7
	c-0.8-1.1-1.3-2.3-1.6-2.9c-0.2-0.6-0.3-0.8-0.6-1.4c-0.3-0.6-0.5-0.8-0.8-1.4c-0.3-0.8-0.2-1.1-0.2-1.2c0.1-0.2,0.3-0.4,0.7-0.7
	c0.3-0.3,0.7-0.4,1-0.6c0.2-0.1,0.4,0,0.6-0.2c0.3-0.1,0.6-0.3,1-0.5c0.3-0.2,0.6-0.3,0.9-0.5C5.7,20,6.4,19.9,7,19.5
	c0.8-0.4,1.6-0.7,2.5-1c0.5-0.2,1-0.4,1.5-0.5c1-0.4,2-0.6,3-0.8c0.8-0.1,1.5-0.4,2.3-0.2c0.5,0.1,1.1,0.2,1.6,0.4
	c1.6,0.5,3.2,1.1,4.7,1.8c1.7,0.7,3.5,1.5,5.2,2.3c0.2,0.1,0.3,0.1,0.4-0.2c0.2-0.8,0.3-1.6,0.5-2.3c0.4-1.7,0.7-3.4,1.1-5.2
	c0.3-1.2,0.4-2.4,0.7-3.5c0.3-1.1,1-1.9,2-2.6c0.7-0.5,1.5-0.7,2.2-0.9c0.9-0.3,1.7-0.5,2.6-0.7c1-0.2,2-0.4,3-0.6
	c1-0.2,2.1-0.3,3.2-0.4C44.2,5,44.9,5,45.7,4.9c0.9-0.1,1.8,0,2.7-0.1c0.8,0,1.4,0.4,1.9,1c0.4,0.4,0.5,1,0.5,1.5
	c0.1,0.6,0.3,1,0.6,1.4c0.8,1.1,1.5,2.3,2.3,3.5c0.7,1.1,1.2,2.2,1.8,3.3c0.3,0.5,0.5,1.1,0.8,1.7c0.2,0.4,0.4,0.8,0.5,1.2
	c0,0.3,0.3,0.3,0.5,0.3c1,0.2,2,0.5,3,0.8c1.2,0.4,2.3,0.8,3.4,1.3c0.6,0.3,1.2,0.6,1.9,0.9c0.2,0.1,0.3,0.1,0.5,0
	c1.4-0.7,2.8-1.2,4.2-1.7c1.2-0.4,2.4-0.8,3.7-0.8c4.7,0,9.5,0,14.2,0c0.1,0,0.2,0,0.4,0c0.3,0,0.3,0.1,0.2,0.3
	c-0.4,0.9-0.7,1.9-1,2.8c-0.1,0.4-0.1,0.4-0.3,0.7c-0.1,0.3-0.6,1.5-1.6,3.2c-0.5,0.9-1.1,1.8-1.8,2.5c-0.2,0.2-0.4,0.5-0.7,0.7
	c-0.4,0.4-0.7,0.9-1.1,1.3c-0.6,0.5-1.3,0.9-2.1,1.2c-0.4,0.2-0.9,0.3-1.3,0.5c-0.3,0.1-0.9,0.3-1.1,0.7c-0.4,0.7,1.2,3.5,1.5,4.2
	c1.1,3,2.1,6,2.6,9.1c0.8,4.6,0.5,9.5-1.7,13.6C79.7,60.9,79.3,61.6,78.8,62.3z M4.8,28.4c1,1.4,2.4,2.5,3.9,3.3
	c1.2,0.6,2.4,0.9,3.7,1c0.6,0.1,1.3,0.1,1.9,0c0.6,0,1.2,0,1.8-0.1c0.3-0.1,0.5-0.2,0.6-0.6c0.3-0.3,0.5-0.6,0.7-0.9
	c0.4-0.4,0.7-0.9,1.1-1.3l0,0c0,0,0-0.1,0.1-0.1l0,0l0,0c0.2-0.2,0.4-0.4,0.5-0.6c0,0,0,0,0-0.1c0,0,0,0,0.1,0
	c0.5-0.5,1-1.1,1.5-1.6c1.2-1.2,2.6-2.4,4-3.3c0.6-0.4,1.2-0.9,1.9-1.3c0.1-0.1,0.3-0.1,0.3-0.2c0-0.2-0.2-0.2-0.3-0.2
	c-0.4-0.2-0.8-0.3-1.1-0.5c-2.5-1.2-5.1-2.3-7.7-3.1c-0.7-0.2-1.3-0.5-2-0.4c-0.8,0.1-1.5,0.2-3,0.6c-1.6,0.4-2.6,0.9-2.9,1
	c-0.7,0.3-1.2,0.5-1.7,0.7c-0.4,0.1-0.7,0.2-1,0.3c-0.3,0.1-0.6,0.2-0.9,0.4c-0.2,0.1-0.5,0.1-0.7,0.3c-0.3,0.2-0.7,0.3-1,0.6
	c0,0-0.1,0.1-0.2,0.1c-0.1,0-0.3,0-0.3,0.2c0,0.1-0.1,0.1-0.2,0.1c-0.3,0-0.5,0-0.7,0.2c-0.1,0.1-0.2,0.1-0.3,0.1
	c-0.2,0-0.3,0-0.4,0.1c-0.1,0.1-0.3,0.1-0.3,0.2c-0.1,0.2,0.2,0.2,0.3,0.3c0.2,0.2,0.3,0.5,0.5,0.8c0.2,0.3,0.3,0.7,0.4,1
	c0.3,0.8,0.6,1.7,1.1,2.4C4.5,27.9,4.6,28.1,4.8,28.4z M50.2,18.7c-0.3,0-0.6-0.1-0.9-0.1c-0.4-0.1-0.7,0-1.1-0.1
	c-0.7-0.1-1.5-0.1-2.2-0.2c-1.3,0-2.6,0.1-4,0.2c-1.4,0.1-2.7,0.4-4,0.6c-1,0.2-2.1,0.5-3,0.8c-0.6,0.2-1.2,0.4-1.8,0.6
	c-0.8,0.3-1.6,0.7-2.3,1.1c-0.9,0.4-1.8,0.9-2.6,1.4c0,0,0,0,0,0c-0.5,0.2-0.9,0.5-1.4,0.7c-0.4,0.2-0.8,0.6-1.2,0.9
	c-0.7,0.6-1.5,1.1-2.2,1.8c-1.7,1.5-3.3,3-4.6,4.8l0,0c-0.4,0.6-0.9,1.2-1.3,1.8l0,0l0,0c0,0-0.1,0.1-0.1,0.1l0,0
	c-0.6,0.9-1.1,1.8-1.6,2.7c0,0,0,0,0,0c0,0,0,0.1,0,0.1c0,0,0,0,0,0c-0.4,0.8-0.8,1.7-1.2,2.6c-0.1,0.4-0.2,0.8-0.4,1.1
	c-0.3,0.5-0.3,1-0.5,1.5c-0.2,0.5-0.2,1.1-0.3,1.6c-0.1,0.6-0.2,1.2-0.3,1.8c-0.2,1.2-0.2,2.4-0.1,3.6c0.1,0.7,0.2,1.4,0.3,2
	c0.3,1.2,0.7,2.5,1.3,3.6c0.6,1.1,1.2,2.3,2.1,3.2c0.3,0.3,0.6,0.6,0.9,0.9c0.1,0.1,0.3,0.3,0.3,0.5c0,0.3,0.2,0.4,0.4,0.5
	c0.3,0,0.5,0.3,0.7,0.4c0.2,0.2,0.4,0.5,0.8,0.5c0,0,0.1,0,0.1,0.1c0.7,0.7,1.3,1.4,2,2c0.1,0.1,0.2,0.1,0.4,0.2
	c0.3,0.1,0.5,0.2,0.8,0.4c0.1,0.1,0.3,0.2,0.3,0.4c0,0.3,0.1,0.4,0.4,0.3c0.3,0,0.5,0.1,0.7,0.3c0.1,0.1,0.3,0.3,0.4,0.4
	c0.1,0.1,0.4,0.1,0.5,0.2c0.4,0.4,0.9,0.6,1.4,0.9c0.6,0.4,1.3,0.7,1.9,1c0.4,0.2,0.9,0.4,1.3,0.6c0.2,0.1,0.4,0.2,0.6,0.3
	c0.3,0.2,0.7,0.4,1,0.6c1,0.5,2,0.9,3,1.3c1.3,0.5,2.6,0.9,3.9,1.3c1.7,0.5,3.4,0.9,5.1,1.2c1,0.2,2.1,0.3,3.1,0.4
	c0.8,0.1,1.7,0.1,2.6,0.2c1.4,0.1,2.8,0.1,4.2,0c1.4-0.1,2.8-0.2,4.2-0.4c1.2-0.2,2.3-0.4,3.5-0.6c1.9-0.4,3.7-1,5.5-1.7
	c1.6-0.6,3.2-1.3,4.7-2.2c0.8-0.5,1.7-1,2.5-1.6c0.6-0.4,1.2-0.9,1.7-1.3c0.7-0.6,1.4-1.3,2-2c1.5-1.6,2.7-3.4,3.2-5.5
	c0.3-1.1,0.3-2.2,0.4-3.3c0-1.1,0.1-2.2-0.1-3.3c-0.1-0.7-0.1-1.5-0.1-2.3c-0.1-1-0.3-1.9-0.4-2.9c-0.3-1.6-0.7-3.2-1.2-4.8
	c-0.6-1.8-1.3-3.6-2.1-5.2c-0.8-1.6-1.7-3.1-2.8-4.5c-0.4-0.5-0.7-1.1-1.2-1.5c-0.8-0.9-1.6-1.8-2.6-2.5c-0.5-0.4-0.9-0.8-1.4-1.2
	c-0.5-0.4-1-0.8-1.6-1.2l0,0c-0.7-0.5-1.4-0.9-2.1-1.3c-0.9-0.5-1.8-1-2.8-1.4c-1.2-0.5-2.5-0.9-3.7-1.3c-0.6-0.2-1.3-0.5-2-0.4
	c0,0-0.1,0-0.1,0c0,0-0.1-0.1-0.2-0.1c-0.7-0.2-1.5-0.3-2.2-0.4c0-0.1-0.1-0.1-0.1-0.1c0,0-0.1,0-0.1-0.1c-0.7-0.1-1.4-0.2-2.1-0.3
	C51.4,18.8,50.8,18.7,50.2,18.7z M30.5,20.5c0.3-0.1,0.6-0.3,0.9-0.4c1-0.3,1.9-0.8,2.8-1.1c1.8-0.5,3.6-1,5.4-1.3
	c1.4-0.2,2.8-0.3,4.2-0.5c2.4,0,4.9,0.1,7.3,0.3c1.3,0.1,2.7,0.3,4,0.6c0.3,0.1,0.3,0,0.2-0.2c0-0.1,0-0.1-0.1-0.2
	c-0.5-1.1-1-2.1-1.6-3.2c-1-1.9-2.2-3.7-3.5-5.5c-0.3-0.4-0.6-0.6-1.1-0.6c-0.9,0-1.8-0.1-2.7,0c-0.2,0-0.4,0-0.6,0.1
	c-1.1,0-2.3,0.2-3.4,0.4c-1,0.2-1.9,0.4-2.9,0.7c-1.5,0.4-3,1-4.5,1.6c-1.3,0.6-2.7,1.3-3.9,2c-0.1,0-0.1,0.1-0.2,0.2
	c-0.1,0.5-0.2,1.1-0.3,1.6c-0.3,1.4-0.5,2.8-0.8,4.2c-0.1,0.5-0.3,1.1-0.3,1.6c-0.1,0.1-0.1,0.2,0,0.3c0,0,0.1,0.1,0.1,0
	C29.9,20.8,30.3,20.8,30.5,20.5z M45.4,6.1c-1.1,0-2.3,0.1-3.4,0.3c-1.2,0.2-2.5,0.4-3.7,0.6c-1.3,0.2-2.6,0.6-3.8,1
	c-0.8,0.3-1.5,0.5-2.1,1.2c-0.6,0.7-1,1.4-1,2.3c-0.1,0.2-0.2,0.4-0.1,0.7c0,0.1,0.1,0.2,0.2,0.1c0.3-0.2,0.5-0.3,0.8-0.5
	c0.5-0.2,1-0.5,1.5-0.7c1.4-0.7,2.9-1.2,4.4-1.7c1.4-0.5,2.9-0.8,4.4-1.1c1.2-0.2,2.4-0.4,3.6-0.5c0,0,0.1,0,0.1,0
	c1,0,2.1-0.2,3.1,0c0.1,0,0.2,0,0.2-0.1c0-0.3,0.1-0.7-0.1-1C49.2,6.2,48.8,6,48.2,6C47.3,6,46.4,6,45.4,6.1z M76.5,31.9
	c0.2,0.3,0.3,0.4,0.7,0.2c1-0.4,2-0.7,2.9-1.3c0.6-0.4,1.3-0.8,1.9-1.3c0.4-0.5,1-0.9,1.4-1.4c0.3-0.4,0.8-0.8,1.1-1.3
	c0.5-0.8,1-1.7,1.3-2.7c0.4-1.1,0.7-2.2,0.9-3.4c0.1-0.5,0.1-0.5-0.4-0.5c-3.7,0-7.5,0-11.2,0c-0.5,0-1,0-1.6,0.1
	c-0.5,0.1-1.1-0.2-1.5,0.3c-0.4-0.1-0.7,0.1-0.9,0.3c-0.2,0.2-0.6,0.2-0.9,0.3c-0.9,0.3-1.8,0.7-2.7,1.1c-0.1,0-0.2,0-0.2,0.1
	c0,0.1,0.1,0.1,0.2,0.2c0.9,0.5,1.7,1.1,2.5,1.7c0,0.1,0.1,0.1,0.2,0.1c0.3,0.3,0.7,0.6,1,0.9c1.2,1,2.3,2.2,3.3,3.4
	C74.4,28.9,76,31,76.5,31.9z M71.3,26.2C71.3,26.2,71.3,26.2,71.3,26.2c-0.1,0-0.1,0-0.1,0C71.2,26.3,71.2,26.4,71.3,26.2
	C71.3,26.3,71.3,26.3,71.3,26.2z"/>
<path class="st9" d="M73.6,36.4C73.5,36.4,73.5,36.4,73.6,36.4c-0.3,0.1-0.6,0.1-0.8,0.1c-0.8,0.1-1.6,0.3-2.4,0.6
	c-0.4,0.1-0.7,0.4-1.1,0.6c-0.2,0.1-0.4,0.3-0.7,0.4l0,0c0,0-0.1,0-0.1,0c-0.9,0.5-1.8,0.6-2.8,0.5c-0.1,0-0.2,0-0.2,0.1
	c0.1,0.2,0,0.5,0.1,0.7l0,0c0,0.3,0.1,0.4,0.3,0.5c0,0,0,0,0.1,0c0.9,0.5,1.9,0.6,2.8,0.2c0.2-0.2,0.4-0.2,0.5-0.3
	c0.7-0.4,1.2-1,1.8-1.5c0.1-0.1,0.2-0.2,0.3-0.2c0.1,0,0.1-0.1,0.2-0.1c0,0,0,0,0,0c0.1,0,0.1-0.1,0.2-0.1c0,0,0,0,0,0
	c0.1,0,0.1-0.1,0.2-0.1c0,0,0,0,0,0c0,0,0.1-0.1,0.1-0.1c0.2-0.2,0.5-0.4,0.8-0.5c0.8-0.5,1.7-0.7,2.7-0.8
	C75,36.1,74.3,36.3,73.6,36.4z"/>
</svg>
