<?xml version="1.0" encoding="utf-8"?>
<!-- Generator: Adobe Illustrator 19.2.0, SVG Export Plug-In . SVG Version: 6.00 Build 0)  -->
<svg version="1.1" id="圖層_1" xmlns="http://www.w3.org/2000/svg" xmlns:xlink="http://www.w3.org/1999/xlink" x="0px" y="0px"
	 viewBox="0 0 89 78" style="enable-background:new 0 0 89 78;" xml:space="preserve">
<style type="text/css">
	.st0{fill:#F7B62B;}
	.st1{fill:#F19804;}
	.st2{fill:#E73427;}
	.st3{fill:#FACB4D;}
	.st4{fill:#F8F5EA;}
	.st5{fill:#F4DB72;}
	.st6{fill:#B7281B;}
	.st7{fill:#FBDDC4;}
	.st8{fill:#F4B29E;}
	.st9{fill:#FCFCFC;}
	.st10{fill:#DEC196;}
	.st11{fill:#050404;}
</style>
<g>
	<g>
		<path class="st0" d="M66.5,74.2C66.5,74.2,66.5,74.2,66.5,74.2C66.5,74.2,66.5,74.2,66.5,74.2C66.5,74.2,66.5,74.2,66.5,74.2z"/>
		<path class="st0" d="M65.4,73.5C65.4,73.5,65.4,73.5,65.4,73.5C65.4,73.5,65.4,73.5,65.4,73.5L65.4,73.5z"/>
		<path class="st0" d="M61.9,63.9c0,0.2,0.1,0.5,0.1,0.7c0.1-0.3,0.1-0.6,0.2-0.9C62.1,63.8,62,63.9,61.9,63.9z"/>
		<path class="st1" d="M34.9,22.7c-0.3,0.3-0.7,0.5-1,0.6c-0.3,0.1-0.7,0.2-1,0.2c-0.4,0-0.8-0.1-1,0.3c-0.1,0-0.2,0-0.3,0
			c-0.2-0.3-0.3-0.6-0.3-1c-0.2-1.1-0.3-2.2-0.6-3.3c-0.4-1.3,0.1-2.1,1-2.8c1.9-1.6,3.6-3.4,5.3-5.2c0.3-0.3,0.6-1,1.2-0.5
			c2.1,1.8,4.2,3.6,6.5,5.3c1.2,0.9,1.7,1.8,1.1,3.2c-0.4,1.1-0.3,2.4-0.8,3.5c-0.1,0-0.2,0-0.3,0c-0.4-0.5-1-0.4-1.5-0.4
			c-0.7,0-1.5,0.2-2.2-0.1c-0.6-0.3-1.2-0.6-1.9-0.7c-0.9-0.2-1.8-0.3-2.7,0.2c-0.4,0-0.8,0.1-1,0.6c0,0,0,0,0,0
			C35.1,22.4,34.8,22.3,34.9,22.7z"/>
		<path class="st1" d="M56.8,25.5L56.8,25.5l-0.1,0c-0.5-0.6-1.2-0.6-1.8-0.6l0,0c-0.2-0.4-0.6-0.3-0.9-0.4c-1.8-0.5-3.6-1-5.5-1.3
			c-0.2-0.1-0.2-0.3-0.1-0.5c0.4-1.4,0.6-2.8,0.9-4.2c0.1-0.4,0.3-0.7,0.7-0.9c2.2-1.1,4.5-2.3,6.7-3.4c0.6-0.3,1-0.3,1.4,0.4
			c1.4,2.3,2.8,4.5,4.2,6.7c0.3,0.5,0.3,0.9,0,1.4c-0.6,1-1.3,1.9-1.8,2.9c-0.3,0.6-0.7,1-1.4,0.9c0,0,0,0,0,0
			C58.8,26,58.5,26,58.1,26c-0.1,0-0.1,0-0.1,0c-0.1-0.5-0.4-0.3-0.7-0.3l-0.1,0l0,0C57.1,25.5,56.9,25.5,56.8,25.5z"/>
		<path class="st2" d="M39.4,8.4c1.8-0.6,3.4-0.5,5.1-0.6c1,0,2,0,2.9,0.2c0.7,0.1,1.6,0,2.3,0.5c0.4,0.3,0.9,0.2,1.4,0.3
			c1.8,0.4,3.3,1.3,5.1,1.9c0.2,0.1,0.4,0.2,0.4,0.4c0,0.3-0.2,0.4-0.4,0.5c-2.7,1.4-5.3,2.8-8,4.2c-0.4,0.2-0.6,0.1-0.9-0.1
			c-1.6-1.3-3.2-2.5-4.8-3.8c-1.1-0.9-2.2-1.8-3.3-2.8c-0.2-0.2-0.4-0.3-0.3-0.6C39.1,8,39.4,8.5,39.4,8.4z"/>
		<path class="st1" d="M69,31.6c-0.1,0-0.1-0.1-0.2-0.1c-0.1-0.4-0.4-0.6-0.8-0.6l0,0c-0.1-0.3-0.3-0.4-0.5-0.3c0,0,0,0,0,0
			c-0.2-0.6-0.7-0.6-1.1-0.7l0,0c-0.2-0.5-0.6-0.8-1.2-0.7c0,0,0,0,0,0c-0.5-0.8-1.3-1-2.1-1.2l0,0c0.1-0.4-0.5-0.3-0.5-0.6
			c0.3-0.1,0.5-0.3,0.6-0.6c0.5-1.3,1.4-2.4,2-3.6c0.1-0.2,0.3-0.5,0.6-0.5c1.6-0.4,3.1-0.8,4.7-1.2c0.5-0.1,0.7,0,0.9,0.5
			c0.3,1.5,0.7,2.9,1.1,4.4c0,0.2,0.1,0.3,0,0.5c-0.6,1.5-1.3,3.1-1.9,4.6c-0.2,0.4-0.4,0.5-0.7,0.2C69.6,31.6,69.4,31.3,69,31.6z"
			/>
		<path class="st0" d="M54,2.3c0.4,0.3,0.8,0.6,1.1,1c0,0.2,0.1,0.4,0.3,0.3c0,0,0,0,0,0c0,0.6,0.4,1.1,0.5,1.7
			C56,6,55.8,6.8,55.8,7.5c0,0.2-0.3,0.3-0.3,0.5c-0.3,0.2-0.6,0.3-1,0.1c-0.7-0.2-1.5-0.7-2.3-0.6l0,0c-0.2-0.3-0.4-0.2-0.7-0.2
			l0,0c-0.8-0.5-1.7-0.6-2.5-0.8c-0.9-0.2-1.1-0.6-1-1.4c0.1-0.4,0.3-0.8,0.2-1.3c0,0,0,0,0,0c0.2,0,0.4-0.1,0.3-0.4c0,0,0,0,0,0
			c0.1,0,0.3-0.1,0.4-0.2c0.7-0.8,1.5-1.2,2.5-1.4c0.8-0.2,1.4,0.3,2.1,0.1l0,0C53.6,2.3,53.8,2.3,54,2.3z"/>
		<path class="st3" d="M44.8,23c0.5-1.1,0.4-2.3,0.8-3.5c0.5-1.4,0.1-2.3-1.1-3.2c-2.2-1.7-4.3-3.5-6.5-5.3
			c-0.7-0.6-0.9,0.1-1.2,0.5c-1.7,1.8-3.4,3.6-5.3,5.2c-0.9,0.8-1.4,1.6-1,2.8c0.3,1.1,0.4,2.2,0.6,3.3c0.1,0.4,0.2,0.7,0.3,1
			c-0.9,0.4-0.7-0.4-0.8-0.8c-0.3-1.3-0.3-2.6-0.9-3.8l0,0c0-0.3,0.2-0.6-0.2-0.8l0,0c0.1-0.4,0.2-0.9,0.3-1.3
			c2.1-2.1,4.1-4.1,6.2-6.2c0.3-0.3,0.8-0.4,1-0.8c0.1-0.2,0.5-0.1,0.7,0.1c1.7,1.5,3.7,2.6,5.3,4.2c0.9,0.9,2.1,1.6,3.1,2.4
			c0.4,0.3,0.7,0.6,0.5,1.2c-0.6,0.8-0.6,1.7-0.5,2.6c0,0.1,0,0.2,0,0.3c-0.6,0.6-0.4,1.3-0.6,2c0,0,0,0,0,0c-0.1,0-0.1,0.1-0.2,0.1
			C45.3,23,45.1,23,44.8,23z"/>
		<path class="st3" d="M59,26.3c0.7,0.1,1.2-0.3,1.4-0.9c0.5-1.1,1.2-2,1.8-2.9c0.3-0.5,0.3-0.9,0-1.4c-1.4-2.2-2.9-4.5-4.2-6.7
			c-0.4-0.7-0.7-0.7-1.4-0.4c-2.2,1.2-4.5,2.3-6.7,3.4c-0.4,0.2-0.6,0.5-0.7,0.9c-0.3,1.4-0.5,2.9-0.9,4.2c-0.1,0.2-0.1,0.4,0.1,0.5
			c0,0,0,0.1,0,0.1c-0.3,0.1-0.6,0-0.8-0.2c0-0.4,0.1-0.7,0.1-1.1c0.1-1.2,0.7-2.4,0.6-3.7c-0.1-0.8,0.7-1.1,1.1-1.5
			c0.2-0.2,0.6-0.3,0.8-0.5c0.3,0.2,0.4,0,0.5-0.2l0,0c0.2,0,0.3,0,0.3-0.2c0,0,0,0,0,0c0.2,0,0.3,0,0.4-0.2l0,0
			c0.3,0,0.6,0,0.7-0.3l0,0c0.2,0,0.3,0,0.3-0.2c0.4-0.3,0.9-0.6,1.4-0.7c0.8-0.1,1.6-0.4,2.1-1.1c0.4-0.2,0.9-0.5,1.3-0.7
			c0.1,0.2,0.3,0.1,0.5,0.1c0,0,0,0,0,0c0.1,0.1,0.1,0.1,0.2,0.2l0,0c0,0.2,0,0.3,0.2,0.3l0,0c0,0.2,0,0.3,0.2,0.3l0,0
			c0.1,0.1,0.1,0.1,0.2,0.2l0,0c0,0.2,0,0.3,0.2,0.3c0.5,0.5,0.8,1.2,1.2,1.8c1.1,1.7,2.3,3.3,3.3,5.1c0.3,0.5,0.3,0.8,0.1,1.3
			c-0.8,1.4-1.6,2.8-2.5,4.2c-0.2,0.3-0.4,0.6-0.8,0.2C59.6,26.6,59.2,26.6,59,26.3z"/>
		<path class="st3" d="M28.7,24.8c-1.4,0.5-2.8,1-4.2,1.6c-0.4,0.2-0.8,0.6-1.3,0.7c0,0-0.1-0.1-0.1-0.1c1.3-1.1,3-1.5,4.5-2
			c0.7-0.2,0.9-0.6,0.7-1.2c-0.3-1.4-0.5-2.9-0.8-4.3c-0.1-0.4-0.3-0.8-0.7-1c-1.9-0.9-3.9-1.7-5.8-2.5c-0.5-0.2-0.7-0.1-0.9,0.5
			c-0.5,1.5-1,3.1-1.6,4.6c-0.2,0.6-0.2,1.1,0.2,1.6c1,1.5,2.1,3,3.1,4.5c0.2,0.2,0.3,0.5,0.7,0.5l0,0c-0.5,0.6-0.8,0.6-1.3-0.1
			c-1.1-1.7-2.3-3.3-3.4-5c0.2-0.3,0-0.3-0.2-0.3c0,0,0,0,0,0c-0.1-0.7,0.5-1.2,0.3-1.9c0,0,0,0,0,0c0.6-0.7,0.7-1.5,0.8-2.3l0,0
			c0.3-0.1,0.2-0.3,0.2-0.5c0,0,0,0,0,0c0.3-0.1,0.2-0.3,0.2-0.5l0,0c0.5-0.5,0.6-1.2,0.7-1.8l0,0c0.3-0.1,0.6-0.1,0.9-0.2
			c0.7,0,1.2,0.6,1.8,0.8c1,0.4,2.1,0.7,3.1,1.2c0.7,0.3,1.2,0.8,1.9,0.8c0.1,0,0.1,0.1,0.2,0.1l0,0c0.1,0.1,0.1,0.1,0.2,0.2l0,0
			c0,0.2-0.1,0.4,0.2,0.5l0,0c0.1,0.3-0.2,0.7,0.2,1c0,0,0,0,0,0c-0.1,0.6,0,1.2,0.3,1.7l0,0c-0.1,0.6,0,1.2,0.3,1.7l0,0
			c0.1,0.3-0.2,0.7,0.2,1c0,0,0,0,0,0c0,0.3,0,0.6,0,0.9c0,0,0,0,0,0C28.9,24.7,28.8,24.7,28.7,24.8z"/>
		<path class="st3" d="M69,31.6c0.4-0.3,0.6,0,0.8,0.2c0.3,0.3,0.5,0.2,0.7-0.2c0.6-1.5,1.3-3.1,1.9-4.6c0.1-0.2,0-0.3,0-0.5
			c-0.4-1.5-0.7-2.9-1.1-4.4c-0.1-0.5-0.4-0.6-0.9-0.5c-1.6,0.4-3.1,0.8-4.7,1.2c-0.3,0.1-0.5,0.3-0.6,0.5c-0.6,1.2-1.5,2.3-2,3.6
			c-0.1,0.3-0.3,0.5-0.6,0.6c0,0.4,0.6,0.2,0.5,0.6c-1.3-0.2-1.4-0.5-0.7-1.5c0.7-1.2,1.4-2.4,2.2-3.6c0.2,0,0.2-0.2,0.2-0.3l0,0
			c0.1-0.1,0.1-0.1,0.2-0.2l0,0c0.8-0.1,1.6-0.2,2.3-0.7l0,0c0.2,0,0.5,0.1,0.7-0.2c0,0,0,0,0,0c0.2,0,0.5,0.1,0.7-0.2l0,0
			c0.2,0,0.5,0.1,0.7-0.2c0,0,0,0,0,0c0.2,0,0.4,0.1,0.5-0.2l0,0c0.2,0,0.5,0.1,0.7-0.2l0,0c0.2,0,0.5,0.1,0.7-0.2l0,0
			c0.2,0.1,0.5,0.1,0.7,0.2c0,0,0,0,0,0c0.1,0.3-0.2,0.6,0.2,0.8l0,0c0,0.7,0.1,1.3,0.5,1.8c0,0,0,0,0,0c0,0.3-0.2,0.6,0.2,0.8
			c0,0,0,0,0,0c0,0.7,0,1.3,0.5,1.9l0,0c0.2,0.9-0.4,1.6-0.5,2.5c-0.3,0.6-0.5,1.1-0.8,1.7c-0.2,0.1-0.2,0.3-0.2,0.5l0,0
			c-0.2,0.1-0.2,0.2-0.2,0.3c0,0,0,0,0,0c-0.2,0.1-0.2,0.3-0.2,0.5l0,0C71,31.8,71,31.9,71,32.1l0,0c-0.2,0.1-0.5,0.2-0.7,0.3
			C69.9,32.1,69.5,31.9,69,31.6z"/>
		<path class="st2" d="M60.9,14c1.5,1.4,3.1,2.8,4.4,4.5c0.2,0.2,0.3,0.5,0.5,0.7c0.2,0.4,0.8,0.8,0.5,1.2c-0.2,0.3-0.9,0.3-1.4,0.4
			c-0.3,0.1-0.5-0.2-0.6-0.5c-1.3-2-2.6-4-3.9-6C60.5,14,60.7,13.9,60.9,14z"/>
		<path class="st4" d="M72.8,47.6c-0.1,0.4-0.5,0.5-0.7,0.7c-1.7,1.3-1.9,3.1-1.7,5c0.1,1,0.2,2-0.1,2.9c-0.3,1.1-1.6,1.8-2.7,1.4
			c-0.3-0.1-0.3-0.5-0.3-0.8c-0.1-0.9-0.3-1.8-0.3-2.7c0-2.4-0.4-4.8-0.1-7.2c0.1-0.8,0-1.6,0-2.5c0-0.7,0.1-1.4,0.2-2
			c0-0.2,0.2-0.5,0.4-0.6c0,0,0,0,0.1,0.1c-0.4,1.7-0.3,3.4-0.3,5.1c0,0,0,0.1,0,0.1c-0.4,2.1,0.1,4.1,0.1,6.2c0,1-0.1,2,0.2,3
			c0.1,0.5,0.4,0.6,0.8,0.8c0.4,0.2,0.8,0,1.1-0.3c0.6-0.8,0.8-1.7,0.6-2.5c-0.4-1.7,0-3.3,0.4-4.9C70.8,48.5,71.7,47.7,72.8,47.6
			L72.8,47.6z"/>
		<path class="st4" d="M18.1,44.7c0.3-1.1,0.3-2.5,1.5-3.4c0.4-0.3,0.9-0.3,1.3-0.4c0.2-0.1,0.5,0.1,0.4,0.4
			c-0.3,2.5-0.5,4.9-0.4,7.4c0,0.2,0,0.3-0.1,0.4c-0.2,0.2-0.3-0.1-0.5-0.2C18.9,48.1,18.2,46.6,18.1,44.7z M20.8,49
			c-0.2-1.8-0.3-3.4,0-5.1c0.1-0.6,0.2-1.2,0.2-1.9c-0.1-0.5-0.3-0.8-0.9-0.5c-1,0.4-1.1,1.4-1.4,2.1C18.1,45.6,18.8,47.5,20.8,49z"
			/>
		<path class="st5" d="M23.7,70.2c0.1,0.4,0.2,0.6,0.4,0.7c-0.3-1-0.7-2-1.2-2.9C23.2,68.7,23.5,69.4,23.7,70.2z"/>
		<path class="st4" d="M67.6,41.9c0.8-0.8,1.9-1.2,3-1.3c1.7-0.3,3.1,0.9,3.4,2.9c0.2,1.4-0.1,2.7-0.9,3.9c0-0.1,0-0.1-0.1-0.1
			c0.1-1,0.5-1.9,0.6-2.8c0.3-1.8-1.3-3.7-3-3.4c-0.7,0.1-1.6,0.2-2.2,0.8C68.2,42,67.9,42,67.6,41.9C67.7,41.9,67.7,41.9,67.6,41.9
			z"/>
		<path class="st5" d="M61.7,64.2c0,0,0-0.1,0.1-0.1C61.7,64.1,61.7,64.1,61.7,64.2C61.7,64.1,61.7,64.2,61.7,64.2z"/>
		<path class="st0" d="M36.2,21.8c0.9-0.5,1.8-0.4,2.7-0.2c0.7,0.2,1.3,0.4,1.9,0.7c0.7,0.4,1.5,0.1,2.2,0.1c0.5,0,1.1,0,1.5,0.4
			c-1-0.2-2-0.1-2.9-0.1c-0.3,0-0.6,0.1-0.9-0.1c-1.3-1-2.7-1-4.2-0.8C36.4,21.9,36.3,21.8,36.2,21.8z"/>
		<path class="st5" d="M64.8,40.1c-0.2-0.1-0.3-0.2-0.5-0.3c-0.6-0.3-0.9-0.1-1,0.5c-0.2,1.5-0.4,3-0.5,4.6c0,0.4,0.1,0.9-0.4,1.1
			c0.1-1.3,0.3-2.7,0.5-4c0.1-0.9,0.2-1.7,0.3-2.6c0-0.2,0.1-0.5,0.4-0.3C63.9,39.4,64.6,39.5,64.8,40.1z"/>
		<path class="st5" d="M48.3,3.9c0.1,0.4-0.1,0.8-0.2,1.3c-0.1,0.9,0.1,1.2,1,1.4c0.9,0.2,1.8,0.3,2.5,0.8c-1.2-0.1-2.3-0.7-3.5-0.6
			c-0.2,0-0.5-0.6-0.4-1C47.8,5.2,47.8,4.5,48.3,3.9z"/>
		<path class="st5" d="M53.6,2.1c-0.7,0.2-1.3-0.3-2.1-0.1c-1,0.2-1.9,0.6-2.5,1.4c-0.1,0.1-0.2,0.1-0.4,0.2c0-0.6,0.5-0.8,1-1.1
			C50.8,1.7,52.1,1.2,53.6,2.1z"/>
		<path class="st0" d="M48.5,23.3c0,0,0-0.1,0-0.1c1.9,0.2,3.7,0.8,5.5,1.3c0.3,0.1,0.7,0,0.9,0.4c-1.7-0.4-3.5-0.8-5.2-1.3
			C49.2,23.5,48.8,23.4,48.5,23.3z"/>
		<path class="st5" d="M29.8,19.2c0.6,1.2,0.6,2.5,0.9,3.8c0.1,0.3-0.1,1.2,0.8,0.8c0.1,0,0.2,0,0.3,0c0.1,0,0.1,0.1,0.2,0.1
			c-0.2,0.1-0.4,0.1-0.5,0.2c-0.4,0.1-0.7,0.1-0.8-0.5C30.3,22.2,30,20.7,29.8,19.2z"/>
		<path class="st5" d="M55.8,7.5C55.8,6.8,56,6,55.9,5.3c-0.1-0.6-0.5-1.1-0.5-1.7C56.4,4.8,56.4,6.1,55.8,7.5z"/>
		<path class="st5" d="M48.3,18.4c0.1,1.3-0.4,2.5-0.6,3.7c0,0.3-0.1,0.7-0.1,1.1c-0.5-0.5-0.1-1,0-1.5C47.8,20.6,48,19.5,48.3,18.4
			z"/>
		<path class="st5" d="M52.2,7.6c0.8-0.1,1.5,0.4,2.3,0.6c0.4,0.1,0.7,0.1,1-0.1c0,0.6-0.4,0.6-0.8,0.5C53.9,8.2,53,7.9,52.2,7.6z"
			/>
		<path class="st3" d="M63.1,28.1c0.8,0.2,1.6,0.4,2.1,1.2C64.5,29,63.7,28.7,63.1,28.1z"/>
		<path class="st5" d="M46.3,20.5c-0.1-0.9-0.1-1.8,0.5-2.6C46.7,18.8,46.5,19.7,46.3,20.5z"/>
		<path class="st6" d="M60.9,14c-0.3,0-0.5,0-0.5,0.4c-0.3-0.3-0.6-0.6-0.7-1.1C60.3,13.3,60.6,13.6,60.9,14z"/>
		<path class="st3" d="M32,24c-0.1,0-0.1-0.1-0.2-0.1c0.2-0.4,0.7-0.3,1-0.3c0.4,0,0.7-0.1,1-0.2c-0.1,0.5-0.5,0.3-0.8,0.3
			C32.7,23.8,32.4,23.9,32,24z"/>
		<path class="st5" d="M55.8,13.5c-0.5,0.7-1.3,1-2.1,1.1C54.4,14.3,55.1,13.9,55.8,13.5z"/>
		<path class="st5" d="M67.2,21.8c-0.7,0.5-1.5,0.6-2.3,0.7C65.6,22,66.4,22,67.2,21.8z"/>
		<path class="st5" d="M72.5,28.8c0.1-0.8,0.7-1.6,0.5-2.5C73.4,27.2,72.9,28,72.5,28.8z"/>
		<path class="st5" d="M18.8,17.9c-0.1,0.8-0.3,1.7-0.8,2.3C18.2,19.4,18.3,18.6,18.8,17.9z"/>
		<path class="st5" d="M45.7,22.9c0.2-0.7,0-1.4,0.6-2C46,21.5,46.2,22.3,45.7,22.9z"/>
		<path class="st0" d="M54.8,24.8c0.7,0,1.4,0,1.8,0.6C56,25.3,55.4,25.1,54.8,24.8z"/>
		<path class="st5" d="M73,26.3c-0.5-0.5-0.5-1.2-0.5-1.9C72.8,25,72.9,25.7,73,26.3z"/>
		<path class="st5" d="M17.9,20.2c0.1,0.7-0.4,1.2-0.3,1.9C17.2,21.4,17.7,20.8,17.9,20.2z"/>
		<path class="st5" d="M19.8,15.1c-0.1,0.7-0.2,1.3-0.7,1.8C19.2,16.3,19.4,15.6,19.8,15.1z"/>
		<path class="st5" d="M72.4,23.7c-0.4-0.5-0.5-1.2-0.5-1.8C72.1,22.4,72.3,23,72.4,23.7z"/>
		<path class="st3" d="M65.2,29.3c0.6-0.1,0.9,0.2,1.2,0.7C65.9,29.8,65.6,29.6,65.2,29.3z"/>
		<path class="st5" d="M30,17.1c-0.1,0.4-0.2,0.9-0.3,1.3C29.3,17.9,29.6,17.5,30,17.1z"/>
		<path class="st5" d="M28.6,21.2c-0.4-0.5-0.4-1.1-0.3-1.7C28.4,20.1,28.5,20.6,28.6,21.2z"/>
		<path class="st5" d="M28.9,22.8c-0.4-0.5-0.4-1.1-0.3-1.7C28.8,21.7,28.8,22.3,28.9,22.8z"/>
		<path class="st3" d="M66.4,29.9c0.5,0.1,1,0.1,1.1,0.7C67.1,30.5,66.7,30.3,66.4,29.9z"/>
		<path class="st3" d="M36.2,21.8c0.1,0,0.2,0,0.2,0.1c-0.4,0.2-0.8,0.3-1.2,0.5C35.4,21.9,35.8,21.8,36.2,21.8z"/>
		<path class="st5" d="M20.7,14.9c-0.3,0.1-0.6,0.1-0.9,0.2C19.9,14.3,20.3,14.7,20.7,14.9z"/>
		<path class="st3" d="M68,30.9c0.4,0,0.7,0.2,0.8,0.6C68.6,31.3,68.2,31.2,68,30.9z"/>
		<path class="st5" d="M70.3,32.4c0.2-0.1,0.5-0.2,0.7-0.3C70.9,32.5,70.8,32.8,70.3,32.4z"/>
		<path class="st0" d="M57.3,25.7c0.3,0,0.6-0.2,0.7,0.3C57.7,26,57.5,25.8,57.3,25.7z"/>
		<path class="st5" d="M29.1,23.8c-0.5-0.2-0.2-0.6-0.2-1C29.1,23.1,28.9,23.5,29.1,23.8z"/>
		<path class="st5" d="M28.3,19.5c-0.4-0.3-0.2-0.7-0.2-1C28.3,18.8,28.1,19.2,28.3,19.5z"/>
		<path class="st3" d="M58.1,26c0.3,0,0.6,0,0.8,0.3C58.6,26.3,58.4,26.2,58.1,26z"/>
		<path class="st3" d="M23.2,27.1c-0.2,0.2-0.4,0.3-0.7,0.4l0,0c0.1-0.3,0.4-0.4,0.7-0.5C23.1,27,23.1,27.1,23.2,27.1z"/>
		<path class="st5" d="M29.6,18.4c0.3,0.2,0.2,0.6,0.2,0.8C29.5,19,29.7,18.7,29.6,18.4z"/>
		<path class="st5" d="M72.5,24.5c-0.4-0.2-0.2-0.5-0.2-0.8C72.6,23.9,72.4,24.2,72.5,24.5z"/>
		<path class="st4" d="M26.2,62.5c0-0.2-0.1-0.4-0.3-0.5c0,0-0.1,0.1-0.1,0.1c0.1,0.2,0.2,0.3,0.4,0.5
			C26.2,62.6,26.2,62.6,26.2,62.5z"/>
		<path class="st5" d="M29,24.7c0-0.3,0-0.6,0-0.9C29.2,24.1,29.3,24.4,29,24.7z"/>
		<path class="st5" d="M52.1,15.6c-0.1,0.3-0.4,0.4-0.7,0.3C51.6,15.7,51.8,15.6,52.1,15.6z"/>
		<path class="st5" d="M71.9,21.8c-0.4-0.2-0.2-0.5-0.2-0.8C71.9,21.3,71.8,21.6,71.9,21.8z"/>
		<path class="st5" d="M71.7,21c-0.2-0.1-0.5-0.1-0.7-0.2C71.3,20.6,71.5,20.6,71.7,21z"/>
		<path class="st5" d="M55.4,3.6c-0.3,0-0.3-0.1-0.3-0.3C55.2,3.3,55.4,3.4,55.4,3.6z"/>
		<path class="st5" d="M67.9,21.7c-0.2,0.3-0.4,0.2-0.7,0.2C67.3,21.6,67.6,21.8,67.9,21.7z"/>
		<path class="st3" d="M67.5,30.6c0.3,0,0.5,0,0.5,0.3C67.8,30.9,67.6,30.8,67.5,30.6z"/>
		<path class="st5" d="M68.5,21.5c-0.2,0.3-0.4,0.2-0.7,0.2C68,21.4,68.3,21.6,68.5,21.5z"/>
		<path class="st3" d="M34.9,22.7c-0.1-0.4,0.2-0.3,0.4-0.3C35.2,22.5,35,22.6,34.9,22.7z"/>
		<path class="st5" d="M69.2,21.3c-0.1,0.3-0.4,0.2-0.7,0.2C68.7,21.2,69,21.4,69.2,21.3z"/>
		<path class="st5" d="M70.3,21c-0.2,0.3-0.4,0.2-0.7,0.2C69.8,20.9,70.1,21.1,70.3,21z"/>
		<path class="st5" d="M71,20.9c-0.2,0.3-0.4,0.2-0.7,0.2C70.5,20.7,70.8,20.9,71,20.9z"/>
		<path class="st5" d="M50.7,16.3c-0.1,0.2-0.2,0.4-0.5,0.2C50.4,16.4,50.5,16.2,50.7,16.3z"/>
		<path class="st5" d="M51.6,7.4c0.2,0,0.5-0.1,0.7,0.2C52,7.5,51.7,7.7,51.6,7.4z"/>
		<path class="st5" d="M17.6,22.1c0.2,0,0.4,0.1,0.2,0.3C17.7,22.3,17.6,22.2,17.6,22.1z"/>
		<path class="st5" d="M62.3,47.3c0.1,0.1,0.1,0.2-0.1,0.2C62.2,47.5,62.2,47.4,62.3,47.3z"/>
		<path class="st5" d="M71.5,30.9c0-0.2-0.1-0.4,0.2-0.5C71.6,30.6,71.8,30.8,71.5,30.9z"/>
		<path class="st5" d="M71.2,31.8c0-0.2-0.1-0.4,0.2-0.5C71.3,31.4,71.4,31.7,71.2,31.8z"/>
		<path class="st5" d="M48.5,3.5c0.1,0.3-0.1,0.3-0.3,0.4C48.3,3.7,48.3,3.5,48.5,3.5z"/>
		<path class="st5" d="M18.9,17.4c0,0.2,0.1,0.4-0.2,0.5C18.8,17.7,18.7,17.5,18.9,17.4z"/>
		<path class="st5" d="M69.7,21.2c-0.1,0.2-0.3,0.2-0.5,0.2C69.3,21.1,69.5,21.3,69.7,21.2z"/>
		<path class="st5" d="M57.7,13c-0.2,0-0.4,0.1-0.5-0.1C57.4,12.8,57.6,12.7,57.7,13z"/>
		<path class="st5" d="M54,2.3c-0.2,0-0.4,0.1-0.4-0.2C53.7,2.1,53.9,2.1,54,2.3z"/>
		<path class="st5" d="M28,18.6c-0.2-0.1-0.2-0.3-0.2-0.5C28.1,18.2,28,18.4,28,18.6z"/>
		<path class="st5" d="M19.1,16.9c0,0.2,0.1,0.4-0.2,0.5C19,17.2,18.9,17,19.1,16.9z"/>
		<path class="st5" d="M51.1,16.1c0,0.2-0.2,0.2-0.3,0.2C50.8,16.1,50.9,16.1,51.1,16.1z"/>
		<path class="st5" d="M64.7,22.7c0,0.2,0,0.3-0.2,0.3C64.6,22.9,64.6,22.7,64.7,22.7z"/>
		<path class="st5" d="M51.4,15.9c-0.1,0.2-0.2,0.2-0.4,0.2C51.1,15.9,51.3,15.9,51.4,15.9z"/>
		<path class="st5" d="M52.4,15.4c0,0.2-0.2,0.2-0.3,0.2C52.1,15.4,52.2,15.4,52.4,15.4z"/>
		<path class="st5" d="M58.5,14.3c-0.2-0.1-0.2-0.2-0.2-0.3C58.5,14,58.5,14.2,58.5,14.3z"/>
		<path class="st5" d="M28.7,24.8c0.1-0.1,0.2-0.1,0.3-0.1C29,24.8,28.8,24.8,28.7,24.8z"/>
		<path class="st0" d="M56.8,25.5c0.2,0,0.3,0,0.4,0.2C57,25.7,56.9,25.7,56.8,25.5z"/>
		<path class="st5" d="M58.2,13.8C58,13.7,58,13.6,58,13.4C58.2,13.5,58.1,13.7,58.2,13.8z"/>
		<path class="st5" d="M54.2,30.8c0,0.1,0,0.3-0.2,0.3C54.1,31,54.1,30.9,54.2,30.8z"/>
		<path class="st5" d="M71.3,31.3c0-0.2,0-0.3,0.2-0.3C71.5,31.1,71.5,31.2,71.3,31.3z"/>
		<path class="st5" d="M58,13.5c-0.2-0.1-0.2-0.2-0.2-0.3C58,13.2,58,13.3,58,13.5z"/>
		<path class="st5" d="M71,32.1c0-0.2,0-0.3,0.2-0.3C71.2,31.9,71.2,32,71,32.1z"/>
		<path class="st4" d="M73.1,47.4c-0.1,0.1-0.1,0.2-0.2,0.2l0,0c0-0.1,0-0.3,0.2-0.3C73,47.3,73,47.3,73.1,47.4z"/>
		<path class="st5" d="M45.5,23c0.1,0,0.1-0.1,0.2-0.1C45.6,22.9,45.6,23,45.5,23z"/>
		<path class="st5" d="M64.9,22.5c-0.1,0.1-0.1,0.1-0.2,0.2C64.8,22.6,64.8,22.6,64.9,22.5z"/>
		<path class="st4" d="M26.2,62.7c0.1,0,0.1,0,0.2,0c-0.1-0.1-0.1-0.1-0.2-0.2C26.2,62.6,26.2,62.6,26.2,62.7
			C26.2,62.7,26.2,62.7,26.2,62.7z"/>
		<path class="st5" d="M27.7,17.9c-0.1,0-0.1-0.1-0.2-0.1C27.6,17.8,27.7,17.8,27.7,17.9z"/>
		<path class="st5" d="M57.8,13.1c-0.1-0.1-0.1-0.1-0.2-0.2C57.7,13,57.8,13.1,57.8,13.1z"/>
		<path class="st5" d="M27.9,18.1c-0.1-0.1-0.1-0.1-0.2-0.2C27.8,18,27.8,18,27.9,18.1z"/>
		<path class="st5" d="M58.3,14c-0.1-0.1-0.1-0.1-0.2-0.2C58.2,13.8,58.3,13.9,58.3,14z"/>
		<path class="st5" d="M63.6,72.4c-0.1-0.1-0.1-0.2-0.2-0.2C63.4,72.3,63.5,72.4,63.6,72.4z"/>
		<path class="st1" d="M23.1,27c-0.2,0.1-0.5,0.2-0.7,0.5c-0.4,0.1-0.5-0.2-0.7-0.5c-1-1.5-2-3-3.1-4.5c-0.4-0.5-0.4-1-0.2-1.6
			c0.6-1.5,1.1-3,1.6-4.6c0.2-0.5,0.4-0.7,0.9-0.5c1.9,0.8,3.9,1.7,5.8,2.5c0.4,0.2,0.6,0.6,0.7,1c0.3,1.4,0.6,2.9,0.8,4.3
			c0.1,0.6-0.1,1-0.7,1.2C26,25.5,24.4,25.9,23.1,27z"/>
		<path class="st7" d="M73,47.2c-0.1,0.1-0.2,0.2-0.2,0.3c-1.1,0.2-2.1,1-2.3,1.9c-0.4,1.6-0.8,3.2-0.4,4.9c0.2,0.9,0,1.8-0.6,2.5
			c-0.3,0.3-0.6,0.5-1.1,0.3c-0.4-0.1-0.7-0.2-0.8-0.8c-0.2-1-0.2-2-0.2-3c-0.1-2.1-0.5-4.1-0.1-6.2c0,0,0-0.1,0-0.1
			c0.1-1.7-0.1-3.4,0.3-5.1c0.2,0,0.5,0,0.7-0.2c0.6-0.6,1.4-0.6,2.2-0.8c1.7-0.3,3.3,1.6,3,3.4C73.4,45.3,73,46.2,73,47.2z"/>
		<path class="st7" d="M20.8,49c-1.9-1.4-2.7-3.4-2.1-5.4c0.2-0.8,0.4-1.7,1.4-2.1c0.6-0.3,0.8,0,0.9,0.5c0.1,0.6,0,1.2-0.2,1.9
			C20.5,45.5,20.5,47.2,20.8,49z"/>
		<g>
			<path class="st0" d="M51.1,26.5c-1.3,0.1-2.1,0.9-2.1,2.2c0,1.3,0.9,2,2.2,2.1c1.1,0.1,2-0.8,2.2-2
				C53.4,27.6,52.3,26.4,51.1,26.5z"/>
			<path class="st0" d="M49.3,25.5c0.1-0.1,0.3-0.1,0.3-0.3c0-0.2-0.2-0.2-0.4-0.2c-0.6-0.3-1.2-0.1-1.8-0.2
				c-1.3-0.3-2.7-0.4-4.1-0.2h0c-0.3,0-0.6,0-0.9,0c-0.3,0-0.4,0.1-0.3,0.3c0.6,1.5,0.6,3,0.1,4.5c-0.2,0.6-0.1,0.8,0.5,0.7
				c0.6,0,1.1,0,1.7,0.1c0.9,0.1,1.8,0.1,2.6,0.5c0.5,0.2,0.7-0.1,0.6-0.7c0-0.2,0.1-0.5-0.2-0.6l0,0C47.3,27.8,47.8,26.4,49.3,25.5
				z"/>
			<path class="st0" d="M32.9,26.5c0.2-1.1,0-1.2-1-1C30.9,25.8,30,26,29,26.3c-1,0.3-1,0.4-0.3,1.1c0.7,1.2,1.1,2.4,0.6,3.8
				c-0.2,0.5,0.1,0.7,0.5,0.5c1.1-0.4,2.2-0.6,3.4-0.8c0.8-0.1,0.6-0.4,0.3-0.8C33,29,32.7,27.8,32.9,26.5z"/>
			<path class="st0" d="M26.5,27.6c-0.3-0.1-0.5-0.1-0.7,0.1c-0.9,0.6-1,2.1-0.2,3.1c0.1,0.2,0.2,0.3,0.3,0.5
				c0.7,0.6,1.6,0.6,1.9-0.1C28.5,29.6,27.6,28,26.5,27.6z"/>
			<path class="st0" d="M39.4,23.8c-0.1-0.1-0.2-0.2-0.3-0.3c-1.5-0.8-3.6-0.1-4.3,1.7l0,0c0,0.1,0,0.1-0.1,0.2
				c-0.8,1.7-0.5,3.2,0.6,4.6c0,0,0.1-0.1,0.1-0.1c-0.1-0.4-0.2-0.7-0.4-1c-0.1-0.1-0.2-0.3-0.2-0.4c0.1,0.1,0.1,0.3,0.2,0.4
				c0.2,0.3,0.4,0.7,0.4,1c0,0-0.1,0.1-0.1,0.1c1.3,1.4,3,1.6,4.2,0.4l0,0c0,0,0,0,0,0c1.4-0.8,1.7-2.2,1.6-3.6
				C41.1,25.6,40.6,24.5,39.4,23.8z M39.4,23.8L39.4,23.8L39.4,23.8C39.4,23.9,39.4,23.8,39.4,23.8z"/>
			<path class="st0" d="M69.2,33.7c-0.6-0.2-0.9-1.1-1.6-1c0-0.2-0.2-0.2-0.3-0.2c-0.1-0.5-0.5-0.5-0.8-0.7
				c-0.2-0.3-0.5-0.4-0.8-0.5c-0.4-0.4-0.9-0.7-1.5-0.8c0-0.2-0.2-0.1-0.3-0.2c-0.1-0.2-0.2-0.1-0.3-0.2c0-0.2-0.2-0.1-0.3-0.2
				c0-0.2-0.2-0.2-0.3-0.2c0,0,0,0,0,0c-2.6-1.5-5.5-2.6-8.3-3.6c-0.1,0-0.2,0-0.3,0.1c-0.2,0.1,0,0.2,0,0.3c0.9,1.3,0.7,2.7,0,4
				l0,0c0,0.1,0,0.3-0.2,0.3c0,0,0,0,0,0c-0.5,0.4-0.9,0.7-1.4,1.1c2.4,0.9,4.7,1.9,7,3c0.1,0.1,0.3,0.1,0.4,0
				c0.3,0.2,0.5,0.7,0.9,0.7l0,0c0.4,0.2,0.9,0.4,1.3,0.7c0,0,0,0,0,0c0.1,0.2,0.3,0.3,0.5,0.3c0,0,0,0,0,0c0.7,0.5,1.5,0.9,2.3,1.3
				l0,0c0.2,0.2,0.5,0.4,0.8,0.5c0.1,0.2,0.3,0.3,0.5,0.3c0,0,0,0,0,0c0.3,0.4,0.7,0.8,1.1,0.1c0.8-1.5,1.5-3,2.3-4.5
				C70,34.1,69.8,33.8,69.2,33.7z"/>
			<path class="st0" d="M23.6,30.1c0-0.2,0-0.4,0-0.6c0-0.2,0-0.4-0.2-0.6c-0.2-0.1-0.4,0.1-0.5,0.2c-0.3,0.2-0.1,0.4,0,0.6
				c0,0.2,0.1,0.3,0.3,0.4l0,0c0.4,1,0.9,1.9,1.5,2.8c0.3,0.6,0.4,0.6,1,0C24.5,32.3,24,31.2,23.6,30.1z"/>
		</g>
		<path class="st8" d="M55.5,50c1.3,0.2,2.6,0.4,3.6,1.3c0.6,0.5,0.6,0.9,0.1,1.5c-0.7,0.9-1.7,1.2-2.7,1.3
			c-1.4,0.1-2.9,0.2-4.3-0.3c-0.6-0.2-1.1-0.6-1.5-1c-0.6-0.7-0.1-1.9,0.8-2.2c0.7-0.2,1.4-0.4,2-0.6C54.2,50,54.8,50,55.5,50z"/>
		<path class="st9" d="M37,57.1c1.1,0.9,2.4,1.4,3.9,1.3c2.5,0.3,4.5-1,4.7-3.8c0-0.3,0.2-0.6-0.2-0.8c-0.3-0.1-0.5,0.1-0.7,0.3
			c-0.5,0.3-0.9,0.7-1.4,0.9c-2,0.8-4,0.7-6-0.2c-0.3-0.1-0.6-0.2-0.8,0c-0.3,0.2-0.3,0.5-0.2,0.7C36.5,56.2,36.6,56.8,37,57.1z"/>
		<path class="st8" d="M27.8,53c-0.7-0.1-1.4-0.1-2.2-0.3c-0.8-0.2-1.2-0.8-1.2-1.5c0-0.6,0.5-1,1.2-1.2c1.4-0.4,2.8-0.5,4.2-0.1
			c0.8,0.2,1.2,0.7,1.2,1.4c0.1,0.6-0.3,0.9-0.9,1.2C29.5,52.9,28.7,53,27.8,53z"/>
		<path class="st10" d="M38.7,52.5c-1.1,0-2.1-0.7-2.4-1.7c-0.1-0.2-0.1-0.4,0.1-0.5c0.1-0.1,0.3,0,0.4,0c0.9,0.6,1.8,0.4,2.8,0.3
			c0.3,0,0.7-0.2,0.9,0.1c0.3,0.3,0,0.7-0.1,1C40,52.4,39.4,52.6,38.7,52.5z"/>
		<path class="st7" d="M25.8,62.2c0,0,0.1-0.1,0.1-0.1c0.2,0.1,0.3,0.3,0.3,0.5c0.1,0.1,0.1,0.1,0.2,0.2c-0.1,0-0.1,0-0.2,0
			c1.3,1.5,2.8,2.7,4.6,3.6c3.3,1.6,6.8,2.1,10.4,2.3c2.6,0.1,5.2-0.2,7.8-0.8c3.9-0.9,7.4-2.7,10.4-5.4c0.5-0.5,0.7-1,0.7-1.7
			c-0.1-3.6,0.1-7.2,0.4-10.7c0.1-0.9,0.1-1.7,0.2-2.6c0.2-1.8,0.4-3.6,0.6-5.3c0-0.1,0-0.3-0.1-0.4c-3.5-1.7-7.1-2.6-11-2.7
			c-0.5,0-0.8-0.2-0.9-0.7c-0.3-0.9-0.1-1.6,0.2-2.4c0.3-0.1,0.5-0.2,0.9-0.2c1.1,0.3,2.2,0.3,3.3,0.5c1.9,0.3,3.8,0.6,5.4,1.7
			c0.8,0.9,1.6,1.7,2.5,2.6c0.4-2,0.7-2.2-0.6-2.7c-1.3-0.9-2.7-1.5-4.1-2.1c-4.2-2-8.5-3.5-13.1-3.9c-1.2-0.1-2.5-0.3-3.7,0.4
			c-1.3,0.9-2.8,0.8-4.2,0.2c-0.3-0.1-0.6-0.2-0.9-0.1c-2.6,0.4-5.1,1.1-7.5,2c-1.4,0.5-2.5,1.1-3.2,2.7c-1.2,2.8-1.6,5.8-1.7,8.7
			c-0.1,3.3-0.3,6.6,0.4,9.8C23.5,57.7,24.2,60.1,25.8,62.2z M59,37.7L59,37.7C59,37.6,59,37.6,59,37.7C59,37.6,59,37.6,59,37.7
			c0.1,0,0.2,0,0.3,0.1C59.2,37.7,59.1,37.7,59,37.7z M59.6,37.9c-0.1,0-0.1-0.1-0.2-0.1C59.5,37.8,59.5,37.8,59.6,37.9
			c0.1,0.1,0.2,0.2,0.3,0.3C59.8,38.1,59.7,38,59.6,37.9z M61,38c-0.1-0.1-0.2-0.2-0.2-0.3C60.9,37.8,60.9,37.9,61,38z M59.1,37
			c0.1,0.1,0.3,0.1,0.4,0.2c0.3,0.2,0.6,0.3,1,0.4c-0.3-0.1-0.7-0.3-1-0.4C59.4,37.1,59.2,37.1,59.1,37c-0.1,0-0.2-0.1-0.3-0.1
			C58.9,36.9,59,37,59.1,37z M58.7,37.2c0,0-0.1-0.1-0.1-0.1C58.6,37.1,58.6,37.1,58.7,37.2z M56,36.1c-0.2,0-0.4-0.1-0.6-0.1
			C55.6,36.1,55.8,36.1,56,36.1z M52.8,34.3c-0.2-0.2-0.5-0.3-0.8-0.4C52.3,34,52.5,34.1,52.8,34.3z M49.5,46c0.1,0,0.1,0,0.1,0
			C49.6,46,49.6,46,49.5,46z M59.2,52.8c-0.7,0.9-1.7,1.2-2.7,1.3c-1.4,0.1-2.9,0.2-4.3-0.3c-0.6-0.2-1.1-0.6-1.5-1
			c-0.6-0.7-0.1-1.9,0.8-2.2c0.7-0.2,1.4-0.4,2-0.6l0,0c0.6,0,1.3,0,1.9,0c1.3,0.2,2.6,0.4,3.6,1.3C59.7,51.8,59.7,52.2,59.2,52.8z
			 M51.2,44.1C51.2,44.1,51.3,44.1,51.2,44.1c0.1,0.1,0.2,0.1,0.2,0.2C51.4,44.3,51.3,44.2,51.2,44.1C51.3,44.1,51.2,44.1,51.2,44.1
			z M57.7,46.6c0.1,0,0.2,0.1,0.2,0.2C57.9,46.7,57.8,46.6,57.7,46.6z M59.5,46.6c0,0.1-0.1,0.1-0.2,0.2c-0.1,0.1-0.2,0.2-0.4,0.2
			c0.1,0,0.3-0.1,0.4-0.2C59.4,46.7,59.5,46.6,59.5,46.6z M58.8,44.6c0.1,0,0.1,0,0.2,0C58.9,44.6,58.9,44.6,58.8,44.6
			c0-0.1,0-0.2-0.1-0.2C58.8,44.4,58.8,44.5,58.8,44.6z M49.1,35.8c0.1,0,0.2-0.1,0.3-0.1l0,0C49.3,35.7,49.2,35.7,49.1,35.8z
			 M49.9,33.3c-0.3-0.1-0.6-0.2-1-0.3C49.3,33.1,49.6,33.2,49.9,33.3z M48.7,36.7c0,0.1-0.1,0.2-0.1,0.3
			C48.6,36.9,48.6,36.8,48.7,36.7z M48.4,44.7c0-0.7,0.5-1.1,0.9-1.6c2.3-2.1,6.5-1.6,8.3,0.6c0.3,0.4,0.7,0.7,1,1
			c0.2,0.2,0.4,0.4,0.5,0.7c0.2,0.4,0.3,0.8-0.1,1.1c-0.5,0.3-0.8,0.1-1.2-0.3c-0.2-0.3-0.4-0.7-0.9-1c0.1,1.2-0.1,2.2-0.8,3.1
			c-1,1-2.2,1.2-3.1,0.7c-1.1-0.6-1.9-2.4-1.6-3.6c0.1-0.7,0.4-1.3,0.8-2.1c-0.8,0.2-1.4,0.4-1.8,0.9v0c-0.1,0.1-0.1,0.1-0.2,0.2
			c-0.3,0.2-0.4,0.5-0.5,0.8c-0.2,0.4-0.6,0.4-0.9,0.3C48.5,45.3,48.4,45,48.4,44.7z M42.9,32c-0.3,0-0.5-0.1-0.8-0.1
			C42.3,31.9,42.6,31.9,42.9,32z M36.4,50.3c0.1-0.1,0.3,0,0.4,0c0.9,0.6,1.8,0.4,2.8,0.3c0.3,0,0.7-0.2,0.9,0.1
			c0.3,0.3,0,0.7-0.1,1c-0.3,0.7-1,0.9-1.6,0.8c-1.1,0-2.1-0.7-2.4-1.7C36.3,50.6,36.2,50.4,36.4,50.3z M36.5,54.9
			c0.3-0.2,0.6-0.1,0.8,0c2,0.9,4,1,6,0.2c0.5-0.2,1-0.6,1.4-0.9c0.2-0.2,0.4-0.4,0.7-0.3c0.4,0.2,0.2,0.5,0.2,0.8
			c-0.2,2.8-2.1,4.1-4.7,3.8c-1.5,0.1-2.8-0.3-3.9-1.3c-0.5-0.4-0.5-1-0.8-1.5C36.2,55.4,36.2,55.1,36.5,54.9z M30.2,52.5
			c-0.7,0.4-1.5,0.5-2.4,0.5c-0.7-0.1-1.4-0.1-2.2-0.3c-0.8-0.2-1.2-0.8-1.2-1.5c0-0.6,0.5-1,1.2-1.2c1.4-0.4,2.8-0.5,4.2-0.1
			c0.8,0.2,1.2,0.7,1.2,1.4C31.2,51.9,30.8,52.2,30.2,52.5z M33.8,42.6C33.8,42.6,33.8,42.6,33.8,42.6c0,0-0.1,0.1-0.1,0.1
			c1,1.5,0.4,2.9-0.2,4.3c-0.3,0.8-1.6,1.4-2.3,1.2c-1.3-0.3-2.1-1.2-2.2-2.5c0-0.6-0.1-1.3,0.2-2.1c-0.8,0.4-1.1,1.1-1.6,1.6
			c-0.3,0.4-0.6,0.7-1.1,0.4c-0.4-0.3-0.5-0.7-0.2-1.1l0,0c0.2-0.3,0.4-0.7,0.7-1c0.1-0.1,0.1-0.1,0.2-0.2c0.1-0.1,0.1-0.1,0.2-0.2
			c0.1-0.1,0.1-0.1,0.2-0.2l0,0c0.1-0.1,0.1-0.1,0.2-0.2c0.1-0.1,0.1-0.1,0.2-0.2c0.1-0.1,0.1-0.1,0.2-0.2c0.1-0.1,0.1-0.1,0.2-0.2
			c0.1-0.1,0.2-0.2,0.2-0.3c0.7-0.3,1.4-0.8,2.3-0.9c1.3-0.1,2.3,0.4,3,1.5C33.7,42.7,33.8,42.6,33.8,42.6z M28.2,42.1
			c0,0,0.1,0,0.1,0C28.3,42.1,28.3,42.1,28.2,42.1z M26.4,36.9c0.7-0.6,1.5-0.9,2.5-0.9c1.2,0,2.4-0.2,3.6,0.1
			c0.1-0.2,0.1-0.3,0-0.3c0,0.1,0,0.2,0,0.3l0,0c0.3,0.3,0.4,0.6,0.5,1c0.4,1.3,0.1,1.7-1.2,1.7c-2,0-4-0.3-5.9,0.4
			c-0.6,0.2-1,0.6-1.8,0.9C24.8,38.8,25.4,37.7,26.4,36.9z"/>
		<path class="st11" d="M32.5,36.1c0.3,0.3,0.4,0.6,0.5,1c0.4,1.3,0.1,1.7-1.2,1.7c-2,0-4-0.3-5.9,0.4c-0.6,0.2-1,0.6-1.8,0.9
			c0.7-1.3,1.3-2.4,2.4-3.3c0.7-0.6,1.5-0.9,2.5-0.9C30.1,36,31.3,35.8,32.5,36.1L32.5,36.1z"/>
		<path class="st11" d="M27.6,42.9c0.1-0.1,0.1-0.1,0.2-0.2c0.1-0.1,0.1-0.1,0.2-0.2c0.1-0.1,0.1-0.1,0.2-0.2
			c0.1-0.1,0.2-0.2,0.2-0.3c0.7-0.3,1.4-0.8,2.3-0.9c1.3-0.1,2.3,0.4,3,1.5c1,1.5,0.4,2.9-0.2,4.3c-0.3,0.8-1.6,1.4-2.3,1.2
			c-1.3-0.3-2.1-1.2-2.2-2.5c0-0.6-0.1-1.3,0.2-2.1c-0.8,0.4-1.1,1.1-1.6,1.6c-0.3,0.4-0.6,0.7-1.1,0.4c-0.4-0.3-0.5-0.7-0.2-1.1
			c0.2-0.3,0.4-0.7,0.7-1c0.1-0.1,0.1-0.1,0.2-0.2c0.1-0.1,0.1-0.1,0.2-0.2c0.1-0.1,0.1-0.1,0.2-0.2C27.5,43,27.6,42.9,27.6,42.9z"
			/>
		<path class="st11" d="M50.5,44.1c-0.1,0.1-0.1,0.1-0.2,0.2c-0.3,0.2-0.4,0.5-0.5,0.8c-0.2,0.4-0.6,0.4-0.9,0.3
			c-0.3-0.1-0.4-0.4-0.4-0.7c0-0.7,0.5-1.1,0.9-1.6c2.3-2.1,6.5-1.6,8.3,0.6c0.3,0.4,0.7,0.7,1,1c0.2,0.2,0.4,0.4,0.5,0.7
			c0.2,0.4,0.3,0.8-0.1,1.1c-0.5,0.3-0.8,0.1-1.2-0.3c-0.2-0.3-0.4-0.7-0.9-1c0.1,1.2-0.1,2.2-0.8,3.1c-1,1-2.2,1.2-3.1,0.7
			c-1.1-0.6-1.9-2.4-1.6-3.6c0.1-0.7,0.4-1.3,0.8-2.1C51.4,43.5,50.9,43.7,50.5,44.1z"/>
	</g>
	<g>
		<polygon class="st11" points="71.7,21 71.7,21 71.7,21 		"/>
		<path class="st11" d="M71,20.9C71,20.9,71,20.9,71,20.9C71,20.9,71,20.9,71,20.9L71,20.9z"/>
		<path class="st11" d="M70.3,21C70.3,21,70.3,21,70.3,21C70.3,21,70.3,21,70.3,21L70.3,21z"/>
		<path class="st11" d="M71.5,30.9C71.5,30.9,71.5,30.9,71.5,30.9C71.5,30.9,71.5,30.9,71.5,30.9L71.5,30.9z"/>
		<path class="st11" d="M72.4,23.7C72.4,23.7,72.4,23.7,72.4,23.7C72.3,23.7,72.3,23.7,72.4,23.7L72.4,23.7z"/>
		<path class="st11" d="M69.7,21.2C69.7,21.2,69.7,21.2,69.7,21.2C69.7,21.2,69.7,21.2,69.7,21.2L69.7,21.2z"/>
		<path class="st11" d="M67.9,21.7C67.9,21.7,67.8,21.7,67.9,21.7C67.8,21.7,67.8,21.7,67.9,21.7L67.9,21.7z"/>
		<path class="st11" d="M68.5,21.5C68.5,21.5,68.5,21.5,68.5,21.5C68.5,21.5,68.5,21.5,68.5,21.5L68.5,21.5z"/>
		<path class="st11" d="M71.3,31.3C71.3,31.3,71.3,31.3,71.3,31.3C71.3,31.3,71.4,31.3,71.3,31.3L71.3,31.3z"/>
		<polygon class="st11" points="69.2,21.3 69.2,21.3 69.1,21.3 		"/>
		<path class="st11" d="M52.1,15.6C52.1,15.6,52,15.6,52.1,15.6C52,15.6,52,15.6,52.1,15.6L52.1,15.6z"/>
		<polygon class="st11" points="64.1,30.6 64.1,30.6 64.1,30.6 		"/>
		<path class="st11" d="M54,31.1C54,31.1,54,31.1,54,31.1C54,31.1,54,31.1,54,31.1L54,31.1z"/>
		<path class="st11" d="M63.1,30.1C63.1,30.1,63.1,30.1,63.1,30.1C63.1,30.1,63.1,30.1,63.1,30.1L63.1,30.1z"/>
		<polygon class="st11" points="65.6,31.4 65.6,31.4 65.6,31.4 		"/>
		<path class="st11" d="M66.4,31.9C66.4,31.9,66.4,31.9,66.4,31.9C66.4,31.9,66.4,31.9,66.4,31.9L66.4,31.9z"/>
		<polygon class="st11" points="65.9,38.7 65.9,38.7 65.9,38.7 		"/>
		<path class="st11" d="M67.2,21.8C67.2,21.8,67.2,21.8,67.2,21.8C67.2,21.8,67.2,21.8,67.2,21.8L67.2,21.8z"/>
		<polygon class="st11" points="68,30.9 68,30.9 68,30.9 		"/>
		<path class="st11" d="M71,32.1C71,32.1,71,32.1,71,32.1C71,32.1,71,32.1,71,32.1L71,32.1z"/>
		<path class="st11" d="M26.7,70.5c-0.2,0.4-0.4,0.8-0.7,1.2C26.4,71.4,26.6,71,26.7,70.5z"/>
		<polygon class="st11" points="71.2,31.8 71.2,31.8 71.2,31.8 		"/>
		<path class="st11" d="M28,18.6C28,18.6,28,18.6,28,18.6C28,18.6,28,18.6,28,18.6L28,18.6z"/>
		<path class="st11" d="M27.7,17.9C27.7,17.9,27.7,17.9,27.7,17.9C27.7,17.9,27.7,17.9,27.7,17.9L27.7,17.9z"/>
		<path class="st11" d="M18.9,17.4C18.9,17.4,18.9,17.4,18.9,17.4C18.9,17.4,18.9,17.4,18.9,17.4L18.9,17.4z"/>
		<path class="st11" d="M19.1,16.9C19.1,16.9,19.1,16.9,19.1,16.9C19.1,16.9,19.1,16.9,19.1,16.9L19.1,16.9z"/>
		<polygon class="st11" points="29,24.7 29,24.7 29,24.7 		"/>
		<path class="st11" d="M28.9,22.8C28.9,22.8,28.9,22.8,28.9,22.8C28.9,22.8,28.9,22.8,28.9,22.8L28.9,22.8z"/>
		<path class="st11" d="M51.6,7.4C51.6,7.4,51.6,7.4,51.6,7.4C51.6,7.4,51.6,7.4,51.6,7.4L51.6,7.4z"/>
		<path class="st11" d="M58,13.5C58,13.5,58,13.5,58,13.5C58,13.5,58,13.5,58,13.5L58,13.5z"/>
		<polygon class="st11" points="53.6,2.1 53.5,2.1 53.5,2.1 		"/>
		<path class="st11" d="M51.4,15.9C51.4,15.9,51.4,15.9,51.4,15.9C51.4,15.9,51.4,15.9,51.4,15.9L51.4,15.9z"/>
		<polygon class="st11" points="51.1,16.1 51,16.1 51,16.1 		"/>
		<polygon class="st11" points="50.7,16.3 50.7,16.3 50.7,16.3 		"/>
		<polygon class="st11" points="59,26.3 59,26.3 59,26.3 		"/>
		<path class="st11" d="M45.7,22.9C45.7,22.9,45.7,22.9,45.7,22.9C45.7,22.9,45.7,22.9,45.7,22.9L45.7,22.9z"/>
		<polygon class="st11" points="29.8,19.2 29.8,19.3 29.8,19.3 		"/>
	</g>
	<path class="st2" d="M28.9,15.1c1-1.2,2.2-2.3,3.4-3.3c0.2-0.2,0.5-0.4,0.7-0.6c0.2-0.2,0.4-0.4,0.7-0.5c0.2-0.1,0.4-0.1,0.6-0.1
		c-0.3,0.3-0.6,0.5-0.9,0.8c-1.3,1.4-2.7,2.8-4,4.1c-0.3,0.3-0.6,0.7-0.9,0.4C28.1,15.7,28.6,15.4,28.9,15.1z"/>
</g>
<path class="st11" d="M75.2,42.5c-0.9-3.4-3.1-3.6-5.3-3.3c-0.2,0-0.5,0.3-0.6,0.1c-0.1-0.1,0.1-0.5,0.2-0.7c1.9-3.3,3.4-6.8,5-10.3
	c0.2-0.4,0.4-0.9,0.3-1.4c-0.4-2.4-1.2-4.7-1.7-7c-0.2-0.8-0.7-0.9-1.3-0.7c-0.8,0.2-1.7,0.3-2.5,0.7c-0.7,0.3-1.1,0-1.4-0.5
	C65,15.2,61.5,12,57.2,9.7c-0.4-0.2-0.6-0.4-0.3-0.9c0.8-1.4,1-2.9,0.6-4.4c-1.2-4.3-6-5.2-8.6-3.3c-1.6,1.1-2.6,2.5-2.6,4.5
	c0,0.6-0.2,0.8-0.8,0.8c-1.2,0-2.4,0-3.6,0.1c-3.5,0.2-6.6,1.4-9.5,3.3c-2,1.3-3.7,2.9-5.1,4.9c-0.7,0.9-0.9,0.9-1.9,0.5
	c-1.8-0.8-3.6-1.5-5.3-2.2c-0.8-0.3-1.1-0.2-1.5,0.7c-0.8,2.1-1.6,4.2-2.3,6.3c-0.4,1.1-1,2.2,0.1,3.2c0.3,0.3,0.5,0.6,0.7,0.9
	c2.3,3.1,4.5,6.2,6.2,9.6c0.2,0.4,0.3,0.7,0.1,1.1c-0.8,1.2-1.2,2.6-1.6,4c-0.1,0.4-0.3,0.6-0.8,0.6c-1.1,0.1-2.1,0.2-2.9,1.1
	C16,43,16.1,47.8,19,49.9c0.2,0.1,0.4,0.4,0.7,0.8c0.4,0.5,0.7,1.2,0.9,3.7c0.1,0.8,0.1,1.4,0.1,2.7c0,0.2,0,1.8,0,2.6
	c-0.1,2.8-0.6,5.3-1,6.9c-0.3,1.4-0.8,3.2-1.5,5.4l0,0.1c0,0,0,0.1,0,0.1c0,0,0,0.1,0,0.1c0,0,0,0,0,0c0,0.1,0,0.1,0.1,0.2l2.5,2.9
	c0.1,0.1,0.3,0.2,0.5,0.1l4.7-2.7c0.1-0.1,0.2-0.2,0.3-0.4l0.4-1.5l0.1-0.5c0,0,0,0,0,0c0,0,0,0,0,0c0.1-0.6,0.2-1.3,0.4-2
	c0.1-0.6,0.2-1.2,0.3-1.8c0.1-0.5,0.2-0.5,0.6-0.3c0.5,0.3,0.9,0.6,1.4,0.9c0.6,0.4,1.4,0.8,3,1.3c6.2,2.1,14.3,1.1,14.3,1.1
	c2.9-0.3,4.9-0.9,6.6-1.6c0.7-0.3,1.7-0.7,2.9-1.4c0.3-0.2,2-1.3,2.2-1.5c0.9-0.6,2.2-1.9,2.4-3c0.1-0.4,0.2,6.1,1,9.7
	c0,0,0,0.1,0,0.2c0.2,0.8,4.7,4,7,5.3c0.9,0.6,1.4,0.4,1.7-0.6c0.4-1,0.7-2,1-3c0.3-0.7,0.2-1.4-0.1-2.1c-0.5-1.4-1-2.9-1.4-4.3
	c-0.3-0.9-0.5-1.5-0.8-2.2c-0.7-2.1-1.1-3.1-1.4-4.4c-0.2-0.6-0.4-1.5-0.5-2.6c0.1,0.2,0.7,0.8,1.6,1c1.2,0.2,2-0.7,2.2-0.9
	c0.4-0.4,0.6-0.9,0.8-1.6c0.2-1.2,0.2-2.4,0.1-3.6c-0.2-1.6,0.2-2.9,1.6-3.8c0.2-0.1,0.3-0.2,0.4-0.4C75.3,46.9,75.8,44.8,75.2,42.5
	z M69.7,34.7c-0.8,1.5-1.5,3-2.3,4.5c-0.4,0.7-0.7,0.2-1.1-0.1l0,0c-0.2,0-0.4-0.1-0.5-0.3c-0.3-0.1-0.6-0.3-0.8-0.5l0,0
	c-0.8-0.4-1.6-0.8-2.3-1.3l0,0c-0.2,0-0.4-0.2-0.5-0.3l0,0c-0.4-0.2-0.9-0.4-1.3-0.7l0,0c-0.5,0-0.6-0.5-0.9-0.7
	c-0.1,0.1-0.3,0.1-0.4,0c-2.3-1.1-4.5-2.1-7-3c0.5-0.4,1-0.8,1.4-1.1c0.1-0.1,0.1-0.2,0.2-0.3l0,0c0.7-1.4,0.9-2.7,0-4
	c-0.1-0.1-0.2-0.2,0-0.3c0.1-0.1,0.2-0.1,0.3-0.1c2.8,1,5.7,2.1,8.3,3.6l0,0c0.1,0,0.3,0,0.3,0.2c0.1,0,0.3,0,0.3,0.2
	c0.1,0,0.3,0,0.3,0.2c0.1,0,0.3,0,0.3,0.2c0.6,0.2,1.1,0.4,1.5,0.8c0.3,0.1,0.6,0.2,0.8,0.5c0.3,0.2,0.8,0.2,0.8,0.7
	c0.1,0,0.3,0,0.3,0.2c0.8,0,1,0.8,1.6,1C69.8,33.8,70,34.1,69.7,34.7z M47.5,29.4L47.5,29.4c0.2,0.2,0.1,0.4,0.1,0.7
	c0.1,0.6-0.1,0.9-0.6,0.7c-0.8-0.4-1.7-0.4-2.6-0.5c-0.6-0.1-1.1-0.2-1.7-0.1c-0.6,0-0.7-0.2-0.5-0.7c0.6-1.5,0.6-3-0.1-4.5
	c-0.1-0.2,0-0.4,0.3-0.3c0.3,0,0.6,0,0.9,0c1.4-0.2,2.7-0.1,4.1,0.2c0.6,0.1,1.2,0,1.8,0.2c0.1,0.1,0.4,0,0.4,0.2
	c0,0.2-0.2,0.2-0.3,0.3C47.8,26.4,47.3,27.8,47.5,29.4z M51.1,26.5c1.2-0.1,2.3,1.1,2.2,2.3c-0.1,1.2-1.1,2.1-2.2,2
	c-1.3,0-2.2-0.8-2.2-2.1C49,27.4,49.8,26.6,51.1,26.5z M67.8,21.7c0.2-0.2,0.4-0.1,0.7-0.2c0.2-0.3,0.4-0.1,0.6-0.2
	c0.1-0.2,0.3-0.1,0.5-0.1c0.2-0.3,0.4-0.1,0.7-0.2c0.2-0.3,0.5-0.1,0.7-0.2c0.3-0.2,0.5-0.3,0.7,0.2c0.3,0.2,0.1,0.5,0.2,0.8l0,0
	c0.3,0.6,0.4,1.2,0.5,1.8c0.3,0.2,0,0.6,0.2,0.8l0,0c0.3,0.6,0.4,1.2,0.5,1.9l0,0c0.4,0.9,0,1.7-0.5,2.5c-0.3,0.6-0.5,1.1-0.8,1.7
	c-0.1,0.2,0.1,0.4-0.2,0.5c0,0.1,0,0.3-0.2,0.3c-0.1,0.2,0.1,0.4-0.2,0.5c0,0.1,0,0.3-0.2,0.3c-0.1,0.4-0.2,0.7-0.7,0.3
	c-0.4-0.3-0.9-0.6-1.3-0.8c-0.1,0-0.1-0.1-0.2-0.1c-0.3-0.2-0.6-0.3-0.8-0.6c-0.2,0-0.4-0.1-0.5-0.3l0,0c-0.4-0.2-0.8-0.3-1.1-0.7
	l0,0c-0.4-0.1-0.8-0.4-1.2-0.7l0,0c-0.7-0.4-1.5-0.6-2.1-1.2l0,0c-1.3-0.2-1.4-0.5-0.7-1.5c0.7-1.2,1.4-2.4,2.2-3.6
	c0-0.1,0-0.3,0.2-0.3l0,0c0.1-0.1,0.1-0.1,0.2-0.2l0,0c0.7-0.5,1.5-0.5,2.3-0.7C67.4,21.6,67.6,21.8,67.8,21.7z M60.9,14
	c1.5,1.4,3.1,2.8,4.4,4.5c0.2,0.2,0.3,0.5,0.5,0.7c0.2,0.4,0.8,0.8,0.5,1.2c-0.2,0.3-0.9,0.3-1.4,0.4c-0.3,0.1-0.5-0.2-0.6-0.5
	c-1.3-2-2.6-4-3.9-6c-0.3-0.3-0.6-0.6-0.7-1.1C60.3,13.3,60.6,13.6,60.9,14z M57.2,12.9c0.2-0.1,0.4-0.1,0.5,0.1l0,0
	c0.1,0.1,0.1,0.1,0.2,0.2l0,0c0.2,0,0.1,0.2,0.2,0.3c0.2,0.1,0.1,0.2,0.2,0.3l0,0c0.1,0.1,0.1,0.1,0.2,0.2l0,0
	c0.2,0,0.1,0.2,0.2,0.3c0.5,0.5,0.8,1.2,1.2,1.8c1.1,1.7,2.3,3.3,3.3,5.1c0.3,0.5,0.3,0.8,0.1,1.3c-0.8,1.4-1.6,2.8-2.5,4.2
	c-0.2,0.3-0.4,0.6-0.8,0.2c-0.2-0.2-0.7-0.2-0.9-0.5c-0.3,0-0.6-0.1-0.8-0.3c-0.1,0-0.1,0-0.1,0c-0.3,0-0.5-0.1-0.7-0.3l-0.1,0l0,0
	c-0.1,0-0.3,0-0.4-0.2l-0.1,0l-0.1,0c-0.6-0.2-1.3-0.3-1.8-0.6l0,0c-1.7-0.4-3.5-0.8-5.2-1.3c-0.4-0.1-0.8-0.2-1.2-0.3
	c-0.3,0.1-0.6,0-0.8-0.2c-0.5-0.5-0.1-1,0-1.5c0.2-1.1,0.4-2.2,0.6-3.3c-0.1-0.8,0.7-1.1,1.1-1.5c0.2-0.2,0.6-0.3,0.8-0.5
	c0.1-0.1,0.3-0.2,0.5-0.2c0-0.2,0.2-0.2,0.3-0.2c0.1-0.2,0.2-0.1,0.3-0.2c0.2-0.2,0.4-0.3,0.7-0.3c0-0.2,0.2-0.2,0.3-0.2
	c0.4-0.3,0.9-0.6,1.4-0.7c0.7-0.4,1.4-0.7,2.1-1.1C56.3,13.3,56.7,13.1,57.2,12.9z M47.6,5.8c0.1-0.7,0.2-1.4,0.6-1.9l0,0
	c0-0.2,0-0.4,0.3-0.4l0,0c0-0.6,0.5-0.8,1-1.1c1.3-0.8,2.6-1.3,4-0.4c0.2,0,0.3,0,0.4,0.2c0.4,0.3,0.8,0.6,1.1,1
	c0.2,0,0.3,0.1,0.3,0.3l0,0c1,1.2,1.1,2.5,0.5,3.9c0,0.2-0.3,0.3-0.3,0.5c0,0.6-0.4,0.6-0.8,0.5c-0.9-0.3-1.7-0.6-2.5-0.9l0,0
	c-0.2-0.1-0.5,0.1-0.7-0.2c-1.2-0.1-2.3-0.7-3.5-0.6C47.8,6.8,47.6,6.2,47.6,5.8z M38.9,8.5c0.1-0.5,0.4,0,0.5-0.1
	c1.8-0.6,3.4-0.5,5.1-0.6c1,0,2,0,2.9,0.2c0.7,0.1,1.6,0,2.3,0.5c0.4,0.3,0.9,0.2,1.4,0.3c1.8,0.4,3.3,1.3,5.1,1.9
	c0.2,0.1,0.4,0.2,0.4,0.4c0,0.3-0.2,0.4-0.4,0.5c-2.7,1.4-5.3,2.8-8,4.2c-0.4,0.2-0.6,0.1-0.9-0.1c-1.6-1.3-3.2-2.5-4.8-3.8
	c-1.1-0.9-2.2-1.8-3.3-2.8C39.1,8.9,38.8,8.8,38.9,8.5z M37.2,10c0.1-0.2,0.5-0.1,0.7,0.1c1.7,1.5,3.7,2.6,5.3,4.2
	c0.9,0.9,2.1,1.6,3.1,2.4c0.4,0.3,0.7,0.6,0.5,1.2c-0.1,0.9-0.2,1.8-0.5,2.6c0,0.1,0,0.2,0,0.3c-0.2,0.6,0,1.4-0.6,2
	c0,0.1-0.1,0.2-0.2,0.1c-0.2,0-0.4,0-0.7,0c-0.1,0-0.2,0-0.3,0c-1-0.2-2-0.1-2.9-0.1c-0.3,0-0.6,0.1-0.9-0.1
	c-0.7-0.6-1.6-0.8-2.6-0.9c-0.5,0-0.9,0-1.4,0c-0.5,0-0.9,0.3-1.3,0.5c-0.4,0.2-0.8,0.5-1.2,0.8c-0.2,0.1-0.3,0.2-0.4,0.4
	c-0.2,0.2-0.5,0.1-0.7,0.2c-0.4,0.1-0.8,0.2-1.1,0.3c-0.2,0.1-0.4,0.1-0.5,0.2c-0.4,0.1-0.7,0.1-0.8-0.5c-0.3-1.5-0.7-2.9-0.8-4.4
	c-0.3-0.2-0.1-0.6-0.2-0.8l0,0c-0.4-0.6-0.1-1,0.3-1.3c2.1-2.1,4.1-4.1,6.2-6.2C36.5,10.6,36.9,10.4,37.2,10z M39.6,30.5
	c-1.3,1.2-3,1-4.2-0.4c-1.1-1.4-1.4-2.9-0.6-4.6c0-0.1,0-0.1,0.1-0.2c0.7-1.8,2.9-2.5,4.3-1.7c0.1,0.1,0.2,0.2,0.3,0.3
	c1.2,0.7,1.7,1.8,1.8,3C41.3,28.3,41,29.6,39.6,30.5z M28.7,27.4C28,26.7,28,26.6,29,26.3c0.9-0.3,1.9-0.5,2.8-0.8
	c1-0.3,1.2-0.1,1,1c-0.2,1.3,0.1,2.5,0.7,3.7c0.3,0.4,0.5,0.7-0.3,0.8c-1.1,0.2-2.3,0.4-3.4,0.8c-0.5,0.2-0.7,0-0.5-0.5
	C29.9,29.9,29.5,28.6,28.7,27.4z M28.9,15.1c1-1.2,2.2-2.3,3.4-3.3c0.2-0.2,0.5-0.4,0.7-0.6c0.2-0.2,0.4-0.4,0.7-0.5
	c0.2-0.1,0.4-0.1,0.6-0.1c-0.3,0.3-0.6,0.5-0.9,0.8c-1.3,1.4-2.7,2.8-4,4.1c-0.3,0.3-0.6,0.7-0.9,0.4C28.1,15.7,28.6,15.4,28.9,15.1
	z M21.2,27.4c-1.1-1.7-2.3-3.3-3.4-5c-0.1-0.1-0.2-0.2-0.2-0.3l0,0c-0.4-0.7,0.1-1.3,0.3-1.9l0,0c0.2-0.8,0.4-1.6,0.8-2.3l0,0
	c0.1-0.2,0-0.4,0.2-0.5c0.1-0.2,0-0.4,0.2-0.5c0.2-0.6,0.3-1.3,0.7-1.8l0,0c0.2-0.8,0.6-0.4,0.9-0.2c0.7,0,1.2,0.6,1.8,0.8
	c1,0.4,2.1,0.7,3.1,1.2c0.7,0.3,1.2,0.8,1.9,0.8c0.1,0,0.1,0,0.2,0.1c0.1,0.1,0.1,0.1,0.2,0.2l0,0c0.2,0.1,0.1,0.3,0.2,0.5
	c0.3,0.3,0,0.7,0.2,1l0,0c0.2,0.5,0.3,1.1,0.3,1.7l0,0c0.2,0.5,0.3,1.1,0.3,1.7c0.2,0.3,0,0.7,0.2,1l0,0c0.1,0.3,0.3,0.6,0,0.9
	c-0.1,0.2-0.2,0.1-0.3,0.1c-1.4,0.5-2.8,1-4.2,1.6c-0.4,0.2-0.8,0.6-1.3,0.7c-0.2,0.2-0.4,0.3-0.7,0.4C22,28.1,21.6,28.1,21.2,27.4z
	 M27.8,31.1c-0.3,0.7-1.2,0.7-1.9,0.1c-0.1-0.2-0.2-0.3-0.3-0.5c-0.8-1-0.7-2.4,0.2-3.1c0.3-0.2,0.4-0.2,0.7-0.1
	C27.6,28,28.5,29.6,27.8,31.1z M23.2,30.2L23.2,30.2c-0.1-0.1-0.3-0.2-0.3-0.4c-0.1-0.2-0.3-0.4,0-0.6c0.1-0.1,0.3-0.3,0.5-0.2
	c0.2,0.1,0.2,0.3,0.2,0.6c0,0.2,0,0.4,0,0.6c0.4,1.1,0.9,2.2,2.1,2.8c-0.6,0.6-0.7,0.6-1,0C24.1,32,23.6,31.1,23.2,30.2z M20.3,49.1
	c-1.5-1-2.1-2.5-2.2-4.4c0.3-1.1,0.3-2.5,1.5-3.4c0.4-0.3,0.9-0.3,1.3-0.4c0.2-0.1,0.5,0.1,0.4,0.4c-0.3,2.5-0.5,4.9-0.4,7.4
	c0,0.2,0,0.3-0.1,0.4C20.6,49.4,20.5,49.2,20.3,49.1z M60.5,49.9c-0.2,3.6-0.4,7.2-0.4,10.7c0,0.7-0.2,1.3-0.7,1.7
	c-3,2.7-6.5,4.5-10.4,5.4c-2.6,0.6-5.1,0.9-7.8,0.8c-3.6-0.2-7.1-0.7-10.4-2.3c-1.8-0.9-3.3-2-4.6-3.6c0,0-0.1,0-0.1-0.1
	c-0.1-0.2-0.2-0.3-0.4-0.5c-1.6-2.1-2.3-4.4-2.9-6.9c-0.7-3.2-0.6-6.5-0.4-9.8c0.1-3,0.5-5.9,1.7-8.7c0.7-1.5,1.8-2.2,3.2-2.7
	c2.5-0.9,5-1.5,7.5-2c0.3-0.1,0.6,0,0.9,0.1c1.4,0.6,2.9,0.7,4.2-0.2c1.2-0.8,2.5-0.5,3.7-0.4c4.6,0.4,8.9,1.9,13.1,3.9
	c1.4,0.7,2.8,1.2,4.1,2.1c1.3,0.5,1,0.7,0.6,2.7c-0.8-0.9-1.6-1.7-2.5-2.6c-1.6-1.1-3.5-1.4-5.4-1.7c-1.1-0.2-2.2-0.2-3.3-0.5
	c-0.3-0.1-0.6,0.1-0.9,0.2c-0.3,0.8-0.5,1.6-0.2,2.4c0.2,0.5,0.4,0.7,0.9,0.7c3.9,0.1,7.5,1,11,2.7c0.1,0.1,0.1,0.2,0.1,0.4
	c-0.2,1.8-0.4,3.6-0.6,5.3C60.6,48.2,60.5,49,60.5,49.9z M73.1,47.4c-0.1,0.1-0.1,0.2-0.2,0.2c-0.1,0.4-0.5,0.5-0.7,0.7
	c-1.7,1.3-1.9,3.1-1.7,5c0.1,1,0.2,2-0.1,2.9c-0.3,1.1-1.6,1.8-2.7,1.4c-0.3-0.1-0.3-0.5-0.3-0.8c-0.1-0.9-0.3-1.8-0.3-2.7
	c0-2.4-0.4-4.8-0.1-7.2c0.1-0.8,0-1.6,0-2.5c0-0.7,0.1-1.4,0.2-2c0-0.2,0.2-0.5,0.4-0.6c0.8-0.8,1.9-1.2,3-1.3
	c1.7-0.3,3.1,0.9,3.4,2.9C74.1,44.9,73.9,46.2,73.1,47.4z"/>
<path class="st0" d="M21.6,55.9c0,0,1.4,4.2,2.2,5.7s3,4,3,4L25.5,72l-4.2,2.4l-2.2-2.2c0,0,1.9-5.8,2.2-8.2S21.6,55.9,21.6,55.9z"
	/>
<path class="st0" d="M70.2,72c-0.1-1.4-0.7-2.8-1-4.1c-0.3-1.1-2.4-7.5-2.6-8.8c-0.2-1.3-0.5-2.5-0.7-3.8c-0.1-0.9-0.1-1.5-0.2-2.7
	c-0.4-7,0.1-10.8,0.1-11.1c0,0,0-0.1,0-0.2c0-0.2,0-0.3-0.1-0.4c0-0.1-0.1-0.1-0.2-0.2c-0.1-0.1-0.2-0.2-0.4-0.3
	c-0.1-0.1-0.3-0.2-0.4-0.2c-0.2-0.6-0.9-0.7-1.3-1c-0.3-0.2-0.4,0.1-0.4,0.3c-0.1,0.9-0.2,1.7-0.3,2.6c-0.4,3.1-0.6,6.2-0.9,9.3
	c-0.2,2.7-0.3,4.5-0.3,9.6c0,4.3,0.4,7.5,0.4,7.5c0.1,1.2,0.1,2.4,1,3.4c0.3,0.3,0.6,0.6,1.3,1c1.2,0.9,1.4,0.8,2.7,1.6
	c0.4,0.2,0.8,0.5,1.2,0.8c0.5,0.4,0.9,0.5,1.1,0.4C70,75.4,70.3,73.6,70.2,72z"/>
</svg>
