<?xml version="1.0" encoding="utf-8"?>
<!-- Generator: Adobe Illustrator 19.2.0, SVG Export Plug-In . SVG Version: 6.00 Build 0)  -->
<svg version="1.1" id="clouds" xmlns="http://www.w3.org/2000/svg" xmlns:xlink="http://www.w3.org/1999/xlink" x="0px" y="0px"
	 viewBox="0 0 4493.1 2853" style="enable-background:new 0 0 4493.1 2853;" xml:space="preserve">
<style type="text/css">
	.st0{opacity:0.6;}
	.st1{fill:none;}
	.st2{fill:#FAEEDD;stroke:#D3B796;stroke-width:11.1608;stroke-linecap:round;stroke-linejoin:round;stroke-miterlimit:10;}
	.st3{fill:#FAEEDD;stroke:#D3B796;stroke-width:12.5194;stroke-linecap:round;stroke-linejoin:round;stroke-miterlimit:10;}
</style>
<g class="st0">
	<rect class="st1" width="4493.1" height="2853"/>
	<g>
		<path class="st2" d="M4591.4,1756.7c0,0-15.3-11.8-30.3-7.9c-15,3.9-16.1,23.6-14.4,30.1c1.7,6.5,5.4,14.4,17.2,20.9
			c11.8,6.5,28.8,5.8,32.2,5.4c3.4-0.4,15.1-4.1,22.8-10.3c7.7-6.2,11.4-12.5,11.4-12.5s15,2.8,19.4-13.1
			c4.5-15.9-4.7-23.7-8.6-26.2s-17.6-5.8-24.1-1.3c-1.7-5.3-5.7-14.7-14.6-22.8c-14.6-13.3-32.3-13.7-40-13.8
			c-9-0.2-24.4-0.5-36.3,9.3c-12.5,10.4-19.4,30.7-19.4,30.7s-15.7-5.1-27.2,3.5c-7.2,5.4-9.2,13.2-9.8,15.8
			c-0.6,2.6-2.9,13.4,3,21.9c5.5,7.8,17,12.3,17,12.3s2.6,18.3,26.2,35.7c23.6,17.4,71.4,14.6,84.9,11.4
			c13.5-3.2,25.8-7.3,39.3-17.4c13.5-10.1,20.8-23.9,20.8-23.9c12.9,10.7,31.1,11.5,43.7,2.4c15.5-11.2,17.7-33.6,9-46.9
			c-3.9-6-9.4-9.2-13.1-10.8c0,0,7.5-25.4-18.9-45.4c-26.4-20-62.3-5.4-62.3-5.4c-5.1-6.6-13.9-16.3-27.3-24.1
			c-33.2-19.5-68-12.2-80.8-9.5c-14.8,3.1-42.9,9-62.8,34.2c-10.4,13.2-14.7,26.9-16.6,35.3c-10.1,5.3-25,12.5-44.5,16.5
			c-26.9,5.4-46.2,6.5-74.6,8c-28.4,1.5-87.1-7.3-87.1-7.3s3.7,8.6,29.9,14.8c26.2,6.2,37.8,9.5,68.8,12c31,2.4,58.9,2.8,58.9,2.8
			c1.8,6.9,5.2,16,12,24.7c23,29.5,56.6,33,84.1,27.6"/>
		<g>
			<path class="st2" d="M3985.5,2187.5c0,0-63.8,62.4-160.4,41.6c-96.5-20.8-136.6-105.4-136.6-105.4s-30.1-11.5-59.4-30.4
				c-21.3-13.8-48.3-37.3-54.9-75c-8.5-47.8,24.1-84.7,26.7-87.6c31.2-34.3,84.3-45,133.6-26.7c4.3-5.5,65.2-83.5,158.9-71.3
				c90.6,11.9,112.8,57.9,112.8,57.9s78.7-37.1,121.8,5.9c43.1,43.1,41.6,72.8,41.6,72.8s75.7-10.4,93.5,49
				c17.8,59.4-52,90.6-52,90.6c0.5,4.6,6.7,67.4-41.6,106.9c-34.1,27.9-78.2,30.2-108.4,20.8
				C4023.5,2224.7,3985.5,2187.5,3985.5,2187.5L3985.5,2187.5z"/>
			<path class="st2" d="M3774,1975.2c6.8-13.6,22.6-39.9,53.5-56.8c48.2-26.3,106.4-15,144.8,12.2c30.2,21.4,44.2,49.8,50.1,64.6
				c23.2-19.8,57-19.9,79.1-1.1c21.6,18.5,28.1,52,12.2,75.7c-17.6,26.4-52,24.6-53.5,24.5c-0.4,1.7-5,20.5-23.4,27.8
				c-13.8,5.5-29.8,2.5-41.2-7.8c-7.8,8.6-21,21-40.1,31.2c-60.4,32.2-121.4,10.3-128.1,7.8c-39.8-15-62.8-42.5-72.4-55.7
				c-41.6,4.6-77.3-20-84.6-52.3c-5.1-22.7,4.2-47.1,21.2-62.4C3713.3,1963.5,3746.4,1960.1,3774,1975.2z"/>
			<path class="st2" d="M3971.1,2062c0,0,10-30.1-18.9-50.1c-29-20-76.8-17.8-99.1-3.3c-22.3,14.5-29,44.5-29,44.5"/>
		</g>
		<g>
			<path class="st2" d="M3921.9,1742.9c8.8,6,36.8,23.6,75.9,21.4c45.9-2.6,74.5-30.5,81-37.2c2.8,1.5,33.3,20.8,54.9,4.2
				c22.3-17.2,24.2-21,26.1-30.3s1.9-18.6,1.9-18.6s40-22.3,56.8-125.7s-132.2-75.4-132.2-75.4s-52.3-64.1-116.6-21.3
				c-64.3,42.8-23.1,119.1-23.1,119.1c-32.2,6.1-58.9,27.7-68.9,56.8C3864.5,1674.1,3882.2,1719.9,3921.9,1742.9z"/>
			<path class="st2" d="M3964,1587.9c-5.5,2.2-11.3,5.6-16.5,10.7c-18.7,18.2-22,51.2-6.5,81c8.9,9.8,24.1,23.7,46.6,32.1
				c12.1,4.6,29.8,11.2,50.3,5.6c15-4.1,24.8-12.9,26.5-14.4c4.9-4.5,8.4-9,10.8-12.8c1.1-1.7,3.1-2.7,5.1-2.5
				c6.1,0.6,19.2,0.5,29.3-9.8c8.4-8.6,11.5-21,8.6-32.7c-0.6-2.2,0.4-4.5,2.3-5.7c29.1-18.4,43.3-48.4,36.6-72.4
				c-3.1-11.1-11.5-24.1-25.1-31.7c-15.3-8.5-30.7-6.5-37.2-5.6c-7.7,1-14.1,3.2-18.7,5.3c-1.5,0.7-3.2,0-3.9-1.5
				c-15.5-33.4-45.9-50.4-65.8-44.8c-23.8,6.8-44.3,49.4-24.2,95c0,0,16.3,47.3,55.5,47.3c2,0,30,0.4,39.7-18.2
				c3-5.8,3.3-11.6,3.1-15.6c0-1.3-0.4-13.2-9.9-19.8c-8.9-6.2-22-5.2-31.3,3.1"/>
		</g>
		<g>
			<path class="st2" d="M4232.1,2518.1c-7.2,0.3-14.1,0.7-19.2-2.5c-5.7-3.7-9.3-11.3-10.2-17.2c-1.9-12.1,9.5-21.7,18-25.4
				c12.8-5.5,25.3-0.5,30.6,1.7c2.1,0.8,19.3,8.1,25.7,26.1c3.4,9.5,2.2,17.5,1.3,23.7c-1.1,7.5-3.1,20.5-14.5,31.4
				c-2.7,2.6-16.3,14.9-37.1,13.8c-17.6-1-28.7-11-31.4-13.6c-10.1,3.2-29,2.3-40.4-6.7c-8-6.3-10.8-19.7-10.7-25.8
				c0.1-8,4.1-17.5,12-20.6c0,0-2.9-23.1,3.9-37.3c7.2-15,19.7-22.4,28-27.1c43.4-24.9,95.6-10.2,100.8-9
				c31.2,6.8,43.2,15.8,43.2,15.8c21.7,14.1,38.8,41.7,65.2,42.2c46.2,0.9,30.7-0.9,81.6,13.2c-29.7-4.2-32-7.3-92.4,4.9
				c-18.6,3.8-36.2,8.1-52.8,12.8c-8.5,50.1-47.3,89.8-96.8,99.8c-60.9,12.3-106.9-26.7-111.2-30.5c-24.4,18.7-41.5,20.3-52.6,18.1
				c-18.8-3.7-41.7-22.3-41-21.8l0,0c0,0-44.8,24.9-80.8,12.8c-39.1-13.1-62.1-48.1-64-82.1c-2.3-42.2,27.2-78.5,63.4-91.9
				c22.1-8.2,42.5-6.4,53.4-4.5c0,0,12-24.1,43.2-27.9c31.2-3.8,68.8,19.6,68.8,19.6c3.4-0.9,30.5-7.7,52,8.3
				c0.6,0.4,1.1,0.8,1.6,1.2"/>
			<path class="st2" d="M4035.1,2503c0,0,11.6,25.5-12.8,38c-17.6,9-45.3,11.4-62.8-9.4c-30.6-36.4,17.2-64.8,34.9-59.9
				c1.6,0.5,3.3-0.7,3.3-2.4c0.1-9.6,4.2-32.4,42.4-31.3c38.6,1.1,42.4,20.9,42.4,28.7c0,1.6,1.4,2.7,3,2.5
				c10.6-1.8,37.1-3.1,42.8,25.9c8.9,45-39.1,44.3-50.7,43.5c-1.3-0.1-2.5,0.9-2.7,2.2c-0.8,6.2-4.7,25.2-20.1,31.1
				c-2.8,1.7-29.3,15.1-29.3,15.1"/>
		</g>
	</g>
	<g>
		<path class="st2" d="M98.3,1756.7c0,0-15.3-11.8-30.3-7.9c-15,3.9-16.1,23.6-14.4,30.1c1.7,6.5,5.4,14.4,17.2,20.9
			c11.8,6.5,28.8,5.8,32.2,5.4c3.4-0.4,15.1-4.1,22.8-10.3c7.7-6.2,11.4-12.5,11.4-12.5s15,2.8,19.4-13.1
			c4.5-15.9-4.7-23.7-8.6-26.2s-17.6-5.8-24.1-1.3c-1.7-5.3-5.7-14.7-14.6-22.8c-14.6-13.3-32.3-13.7-40-13.8
			c-9-0.2-24.4-0.5-36.3,9.3c-12.5,10.4-19.4,30.7-19.4,30.7s-15.7-5.1-27.2,3.5c-7.2,5.4-9.2,13.2-9.8,15.8
			c-0.6,2.6-2.9,13.4,3,21.9c5.5,7.8,17,12.3,17,12.3s2.6,18.3,26.2,35.7s71.4,14.6,84.9,11.4c13.5-3.2,25.8-7.3,39.3-17.4
			c13.5-10.1,20.8-23.9,20.8-23.9c12.9,10.7,31.1,11.5,43.7,2.4c15.5-11.2,17.7-33.6,9-46.9c-3.9-6-9.4-9.2-13.1-10.8
			c0,0,7.5-25.4-18.9-45.4c-26.4-20-62.3-5.4-62.3-5.4c-5.1-6.6-13.9-16.3-27.3-24.1c-33.2-19.5-68-12.2-80.8-9.5
			c-14.8,3.1-42.9,9-62.8,34.2c-10.4,13.2-14.7,26.9-16.6,35.3c-10.1,5.3-25,12.5-44.5,16.5c-26.9,5.4-46.2,6.5-74.6,8
			c-28.4,1.5-87.1-7.3-87.1-7.3s3.7,8.6,29.9,14.8c26.2,6.2,37.8,9.5,68.8,12c31,2.4,58.9,2.8,58.9,2.8c1.8,6.9,5.2,16,12,24.7
			c23,29.5,56.6,33,84.1,27.6"/>
		<g>
			<path class="st3" d="M320.3,2255.8c0,0-1.3-59.1,97.2-55.2s148.4,62,148.4,62s39.4-14.4,70.9,4.4c31.5,18.9,36.8,60.9,36.8,60.9
				s49.9,15.8,86.7,14.4c36.8-1.3,89.3-7.9,127.4-5.3c30.5,2.1,72.1,11.6,85.3,18.3c0,0,0.1,0,0.1,0.1c2.6,1.4,1.3,5.4-1.6,5.1
				c-13.3-1.6-53.9-11.9-89-7.7c-7.6,0.9-15.7,2.3-59.1,13.1c-82.1,20.6-86.7,24.3-106.4,26.3c-23.6,2.4-58.2,1.2-102.4-17.1
				c-2,9.5-6.2,15.2-9.2,18.4c-14,14.9-41.4,16.7-68.3,3.9c-13.1,10.7-37,27.2-70.6,33.9c-8,1.6-16.9,3.4-28.8,2.9
				c-47.2-1.9-82.1-37.3-98.9-48.6l0,0c-41.6,8.4-79.9-21.8-82.7-59.1C253.3,2292.4,281.4,2258.7,320.3,2255.8z"/>
			<path class="st3" d="M501.5,2360.9c-15.2,8.9-32.3,10.3-43.3,2.6c-18-12.6-14.3-45.5-0.4-61.7c20.8-24.3,71.4-19.3,91.1,7.9
				c18.3,25.2,3.9,61.3,2,65.9c-4.1,10-9.6,17.3-13.8,22.1"/>
			<path class="st3" d="M368,2356.5c14-2.2,36.3-13.6,39.8-25.8c3.5-12.3,7.4-47.4-21.9-63.5s-65.7-11.3-65.7-11.3"/>
		</g>
		<g>
			<path class="st2" d="M884.4,1682.8c-0.6-9.2-3.9-38.6-27.8-61.9c-26.5-25.7-67.9-33.8-106.6-21.1c-10.6-43.5-47.2-76-91.2-81.5
				c-39.4-4.9-78.8,12.7-102,45.3c-5.5-2-71.5-24.7-126.7,15.1c-34.1,24.6-44.8,59.2-47.9,70.9c-11.2,8-36.5,28.7-46.4,63.4
				c-11.7,41.3,5.9,76.1,18.5,101.1c11.3,22.4,32.4,64.1,75.7,80c35.4,13,45.4-6.2,94.3,3c49.7,9.4,57.7,32.6,98.9,40.7
				c25.1,4.9,62.7,4.3,114.3-24.1c7.6,9.9,53.7,67.9,137.5,77c88.7,9.5,148.9-43.4,157.6-51.3"/>
			<path class="st2" d="M539.8,1696.4c-3.9-3.2-22.2-17.5-47.9-15.1c-23.2,2.2-37.3,16.6-43.3,22.6c-4.4,4.5-19.9,21.8-21.7,45.6
				c-2.6,34.7,24.8,60,24.8,60l0,0l0,0c0,0,70.9,36.1,71.1,36.2c8.9,5.9,63,40.3,126.7,22.6c4.9-1.3,74.7-21.7,88.8-74.7
				c3.1-11.5,2.6-21.3,2.4-26c-2.1-38.8-28.4-66.1-40.2-75.8C663.1,1660.8,596.8,1660.8,539.8,1696.4z"/>
		</g>
		<g>
			<path class="st2" d="M992,1643.5c-75.9-24.6-142.6-0.7-163.8,49.9c-4.3,10.3-10.2,29.9-6.2,60.5c-18.6,9.2-31.4,29.3-32.3,51.4
				c-1.3,30.2,20.2,53.4,37.2,59c0,0,3.3,1.1,34.7,1.5l0,0l0,0c0,0,3.7,45.4,101.8,71.1c98,25.7,147.7-80.1,147.7-80.1
				c19.5-4.1,33.8-23.6,34.7-45.4c1.1-25.7-16.6-49.9-40.3-51.3v0c0,0,0,0,0,0c3.5-40.9-11-80.6-37.9-103
				C1034,1629.2,997.1,1641.6,992,1643.5z"/>
			<path class="st2" d="M949.8,1719.1c0,0-64.5-18.9-64.5,47.2c0,66.2,69.5,72.2,69.5,72.2s28.5,57.5,75.7,42.3
				c47.2-15.1,33.5-71.1,33.5-71.1c8.5-34,0.7-70.4-19.9-92.2C1018.8,1690.7,978.4,1690.3,949.8,1719.1z"/>
		</g>
	</g>
	<g>
		<g>
			<path class="st2" d="M3838.3,97.3c5.8-10.5,19.7-32.2,46.4-47.4c21.1-12,40.1-14.1,43.6-14.5c54.1-5.5,94.7,38.9,100.2,45
				c0,0,73.2-36,136.2,23.6c63,59.7,65.3,100.2,67.5,126.1c6.7,76.6-39.5,142.4-117.1,155.3c-67.5,11.3-79.8,0-79.8,0
				c-11,9.8-56.9,48.5-119.4,43.9c-14.2-1-44.1-3.6-72-25.9c-21.3-17-31.5-37.4-36-48.4c-48.6-2.2-91.7-29.3-112.6-70.9
				c-1.4-2.8-26.8-55.6-1.1-110.3C3718,123.2,3775.5,92.3,3838.3,97.3z"/>
			<path class="st2" d="M4007.1,252.3c0,0-14.6,80.2,72,66.7s64.2-83.3,64.2-83.3s-6.8-41.6-65.3-49.5c0,0-22.5-56.3-74.3-55.1
				s-60.7,19.1-70.9,34.9s-13.5,37.1-13.5,37.1s-69.8,4.5-70.9,55.1c-0.4,17.3,1.8,36.5,14.4,50.9c17.4,19.9,41.7,20.9,48.7,21.2
				c22,0.9,41.8-8.7,41.7-9.4l-1.2-0.5l0,0c0,0,10.1,47.1,43.9,53.8c17.4,3.5,30.4,10.7,39.5,11.3"/>
		</g>
		<g>
			<path class="st2" d="M3788.4,796c-5.9-10.7-20.1-32.9-47.4-48.4c-21.6-12.3-40.9-14.4-44.5-14.8c-55.2-5.6-96.7,39.7-102.3,46
				c0,0-74.7-36.8-139,24.1c-64.3,60.9-66.6,102.3-68.9,128.7c-1.9,22.2,2.7,49.8,9.2,71.1c14.3,47.2,63.1,79.5,110.3,87.4
				c68.9,11.5,81.5,0,81.5,0c11.2,10,58,49.5,121.9,44.8c14.5-1.1,45-3.7,73.5-26.4c21.8-17.3,32.2-38.2,36.8-49.4
				c49.6-2.2,93.6-29.9,114.9-72.4c1.4-2.8,27.4-56.8,1.1-112.6C3911.3,822.4,3852.5,790.9,3788.4,796z"/>
			<path class="st2" d="M3616.1,954.2c2.4,15.5,0.9,33.2-7.3,46.8c-19.2,31.7-72.5,27.7-100.1,11.3c-27-16-40.5-44.4-31.6-75
				c0,0,6.9-42.5,66.6-50.6c1-0.1,5.6-11.1,6.3-12.3c5.3-8.9,11.8-17.4,19.6-24.2c16.7-14.7,39.4-22.3,61.6-20.5
				c41.6,3.4,67.7,35.1,74.5,74.3c0,0,71.2,4.6,72.4,56.3c0.4,17.6-1.9,37.3-14.7,51.9c-17.7,20.3-42.6,21.3-49.7,21.6
				c-9.3,0.4-36.7-13.7-42.3-8.8c-3.4,3-6.9,20-9.2,25.3c-4.4,10.1-12,19.3-18.7,24.3c-14.8,11.1-37.9,14.5-56.3,15.5"/>
		</g>
		<g>
			<path class="st2" d="M3977,423.3c1.1-0.6,1.8-1.7,2-2.9c1.5-7.6,8.7-35.6,37.3-50.1c27.3-13.8,50.7-12.1,58.3-11
				c1.6,0.2,3.2-0.5,4-1.8c8.2-12.2,49.9-69.4,110.1-69.4c56.8,0,86.8,31.5,94.8,41.3c1.3,1.6,3.6,2,5.3,1
				c10.1-5.9,43.7-22.2,82.3-5.8c38.3,16.3,37.5,54.7,36.1,67.5c-0.2,2.2,1.3,4.2,3.4,4.6c8.3,1.6,26.8,9.6,30.7,50.2
				c4.2,44.1-36.7,58.2-50.1,61.6c-2.1,0.5-3.5,2.6-3.1,4.8c2.1,11.8,0.5,47.9-88,76.9c-87.4,28.7-119.9-13.3-128.9-29.7
				c-1.4-2.6-5.1-2.9-7-0.6c-11.8,14.8-48.7,53-105.3,38.7c-57.6-14.5-68-42.1-69.8-51.2c-0.4-1.7-1.7-3-3.4-3.3
				c-9-1.4-35.7-9-44.1-49.6C3932.8,451.2,3968.6,428,3977,423.3z"/>
			<path class="st2" d="M4251,418.9c0,0-10.9-20-33.7-15.8c-22.8,4.2-28.2,22.1-28.2,37.9c0,23.4,31.3,39,53.2,43.2
				c26.8,5.1,48-6.2,54.7-9.8c18-9.9,45.5-33.3,40.9-58.7c-0.3-1.7-3.9-19.7-20.6-26.7c-14.2-5.9-27.8,0.3-30.1,1.4
				c-3.5-6.6-9.9-16.8-21-26c-30.4-25.2-67.9-19.9-71.7-19.3c-7.5,1.2-32.3,6.7-49.4,25.3c-16.7,18.3-18,39-18,39
				s-41.3-6.3-58.7,32.7s18.5,67.5,54.3,65.4c2.6,6.9,8.3,28.1,21.5,39.7c10.2,9,14.2,12.6,30.6,23.1"/>
		</g>
		<g>
			<path class="st2" d="M4516,511.9c-57.2-26.7-93.9-78.2-95.4-134.4c-0.1-4.9-0.7-84,74.8-130.2c61.9-37.9,128.6-25.3,139.5-23
				c37.6-35.5,93.1-47.4,138.2-30.4c44.7,16.8,61,55.2,64,62.7c7.1-1.4,44-8,78.6,12.4c23.1,13.7,33.2,32.3,36.9,40.3
				c7.3,3.2,55.3,25.2,69.3,74.9c17,60.6-32.1,105.8-35.6,108.9c-39.7,35.3-103.1,44.6-159,22.9c-52.8,60-135.3,86.9-207.5,68.6
				C4558.3,568.8,4525.6,525.7,4516,511.9z"/>
		</g>
	</g>
	<g>
		<g>
			<path class="st2" d="M1591.7,1523.8c5.8-10.5,19.7-32.2,46.4-47.4c21.1-12,40.1-14.1,43.6-14.5c54.1-5.5,94.7,38.9,100.2,45
				c0,0,73.2-36,136.2,23.6c63,59.7,65.3,100.2,67.5,126.1c6.7,76.6-39.5,142.4-117.1,155.3c-67.5,11.3-79.8,0-79.8,0
				c-11,9.8-56.9,48.5-119.4,43.9c-14.2-1-44.1-3.6-72-25.9c-21.3-17-31.5-37.4-36-48.4c-48.6-2.2-91.7-29.3-112.6-70.9
				c-1.4-2.8-26.8-55.6-1.1-110.3C1471.4,1549.7,1528.9,1518.8,1591.7,1523.8z"/>
			<path class="st2" d="M1760.6,1678.8c0,0-14.6,80.2,72,66.7c86.7-13.5,64.2-83.3,64.2-83.3s-6.8-41.6-65.3-49.5
				c0,0-22.5-56.3-74.3-55.1c-51.8,1.1-60.7,19.1-70.9,34.9s-13.5,37.1-13.5,37.1s-69.8,4.5-70.9,55.1c-0.4,17.3,1.8,36.5,14.4,50.9
				c17.4,19.9,41.7,20.9,48.7,21.2c22,0.9,41.8-8.7,41.7-9.4l-1.2-0.5l0,0c0,0,10.1,47.1,43.9,53.8c17.4,3.5,30.4,10.7,39.5,11.3"/>
		</g>
		<g>
			<path class="st2" d="M1541.9,2222.5c-5.9-10.7-20.1-32.9-47.4-48.4c-21.6-12.3-40.9-14.4-44.5-14.8c-55.2-5.6-96.7,39.7-102.3,46
				c0,0-74.7-36.8-139,24.1c-64.3,60.9-66.6,102.3-68.9,128.7c-1.9,22.2,2.7,49.8,9.2,71.1c14.3,47.2,63.1,79.5,110.3,87.4
				c68.9,11.5,81.5,0,81.5,0c11.2,10,58,49.5,121.9,44.8c14.5-1.1,45-3.7,73.5-26.4c21.8-17.3,32.2-38.2,36.8-49.4
				c49.6-2.2,93.6-29.9,114.9-72.4c1.4-2.8,27.4-56.8,1.1-112.6C1664.7,2248.9,1606,2217.4,1541.9,2222.5z"/>
			<path class="st2" d="M1369.6,2380.7c2.4,15.5,0.9,33.2-7.3,46.8c-19.2,31.7-72.5,27.7-100.1,11.3c-27-16-40.5-44.4-31.6-75
				c0,0,6.9-42.5,66.6-50.6c1-0.1,5.6-11.1,6.3-12.3c5.3-8.9,11.8-17.4,19.6-24.2c16.7-14.7,39.4-22.3,61.6-20.5
				c41.6,3.4,67.7,35.1,74.5,74.3c0,0,71.2,4.6,72.4,56.3c0.4,17.6-1.9,37.3-14.7,51.9c-17.7,20.3-42.6,21.3-49.7,21.6
				c-9.3,0.4-36.7-13.7-42.3-8.8c-3.4,3-6.9,20-9.2,25.3c-4.4,10.1-12,19.3-18.7,24.3c-14.8,11.1-37.9,14.5-56.3,15.5"/>
		</g>
		<g>
			<path class="st2" d="M2480.9,2386.7c-16-33.8-7.7-74.3,20.2-99c28.3-24.9,70.1-27.8,101.6-7c2.3-2.8,56.9-67.3,135.3-54
				c49.6,8.4,78.4,42.8,86.1,52.6c67.7,7.8,113.8,60.8,111.2,112.7c-1.8,35.9-26.8,73.4-59.9,84c-9.6,10.1-37.7,36.8-82.5,44.2
				c-65,10.8-112.8-27.4-120.3-33.6c-39.1,25.4-89.1,27.1-129.2,4.4C2484.4,2457.7,2481.1,2390.4,2480.9,2386.7z"/>
			<path class="st2" d="M2551.5,2355.7c3.3-3.3,8.6-7.7,16-10.7c16.8-6.8,32.4-1.7,36.9,0c2.6-5.5,18.9-38.1,56.7-49.2
				c32-9.4,67.3,0.2,92,24.6c31.3,8,51.4,36,49.2,62.6c-2.7,32.6-38.7,60.6-78.6,51.7"/>
			<path class="st2" d="M2645.1,2369.6c0,0,18.3-13.4,41.2-8c24,5.7,29.8,39.4,25.4,50c-3.7,8.7-9.4,15.2-9.4,15.2"/>
		</g>
		<path class="st2" d="M2344.9,330.2c0,0-15.3-11.8-30.3-7.9c-15,3.9-16.1,23.6-14.4,30.1c1.7,6.5,5.4,14.4,17.2,20.9
			c11.8,6.5,28.8,5.8,32.2,5.4c3.4-0.4,15.1-4.1,22.8-10.3s11.4-12.5,11.4-12.5s15,2.8,19.4-13.1c4.5-15.9-4.7-23.7-8.6-26.2
			c-3.9-2.4-17.6-5.8-24.1-1.3c-1.7-5.3-5.7-14.7-14.6-22.8c-14.6-13.3-32.3-13.7-40-13.8c-9-0.2-24.4-0.5-36.3,9.3
			c-12.5,10.4-19.4,30.7-19.4,30.7s-15.7-5.1-27.2,3.5c-7.2,5.4-9.2,13.2-9.8,15.8c-0.6,2.6-2.9,13.4,3,21.9
			c5.5,7.8,17,12.3,17,12.3s2.6,18.3,26.2,35.7s71.4,14.6,84.9,11.4s25.8-7.3,39.3-17.4s20.8-23.9,20.8-23.9
			c12.9,10.7,31.1,11.5,43.7,2.4c15.5-11.2,17.7-33.6,9-46.9c-3.9-6-9.4-9.2-13.1-10.8c0,0,7.5-25.4-18.9-45.4
			c-26.4-20-62.3-5.4-62.3-5.4c-5.1-6.6-13.9-16.3-27.3-24.1c-33.2-19.5-68-12.2-80.8-9.5c-14.8,3.1-42.9,9-62.8,34.2
			c-10.4,13.2-14.7,26.9-16.6,35.3c-10.1,5.3-25,12.5-44.5,16.5c-26.9,5.4-46.2,6.5-74.6,8c-28.4,1.5-87.1-7.3-87.1-7.3
			s3.7,8.6,29.9,14.8c26.2,6.2,37.8,9.5,68.8,12c31,2.4,58.9,2.8,58.9,2.8c1.8,6.9,5.2,16,12,24.7c23,29.5,56.6,33,84.1,27.6"/>
		<g>
			<path class="st3" d="M2566.8,829.3c0,0-1.3-59.1,97.2-55.2c98.5,3.9,148.4,62,148.4,62s39.4-14.4,70.9,4.4
				c31.5,18.9,36.8,60.9,36.8,60.9s49.9,15.8,86.7,14.4c36.8-1.3,89.3-7.9,127.4-5.3c30.5,2.1,72.1,11.6,85.3,18.3
				c0,0,0.1,0,0.1,0.1c2.6,1.4,1.3,5.4-1.6,5.1c-13.3-1.6-53.9-11.9-89-7.7c-7.6,0.9-15.7,2.3-59.1,13.1
				c-82.1,20.6-86.7,24.3-106.4,26.3c-23.6,2.4-58.2,1.2-102.4-17.1c-2,9.5-6.2,15.2-9.2,18.4c-14,14.9-41.4,16.7-68.3,3.9
				c-13.1,10.7-37,27.2-70.6,33.9c-8,1.6-16.9,3.4-28.8,2.9c-47.2-1.9-82.1-37.3-98.9-48.6l0,0c-41.6,8.4-79.9-21.8-82.7-59.1
				C2499.9,865.9,2528,832.2,2566.8,829.3z"/>
			<path class="st3" d="M2748.1,934.4c-15.2,8.9-32.3,10.3-43.3,2.6c-18-12.6-14.3-45.5-0.4-61.7c20.8-24.3,71.4-19.3,91.1,7.9
				c18.3,25.2,3.9,61.3,2,65.9c-4.1,10-9.6,17.3-13.8,22.1"/>
			<path class="st3" d="M2614.5,930c14-2.2,36.3-13.6,39.8-25.8c3.5-12.3,7.4-47.4-21.9-63.5c-29.3-16.1-65.7-11.3-65.7-11.3"/>
		</g>
		<g>
			<path class="st2" d="M1730.5,1849.8c1.1-0.6,1.8-1.7,2-2.9c1.5-7.6,8.7-35.6,37.3-50.1c27.3-13.8,50.7-12.1,58.3-11
				c1.6,0.2,3.2-0.5,4-1.8c8.2-12.2,49.9-69.4,110.1-69.4c56.8,0,86.8,31.5,94.8,41.3c1.3,1.6,3.6,2,5.3,1
				c10.1-5.9,43.7-22.2,82.3-5.8c38.3,16.3,37.5,54.7,36.1,67.5c-0.2,2.2,1.3,4.2,3.4,4.6c8.3,1.6,26.8,9.6,30.7,50.2
				c4.2,44.1-36.7,58.2-50.1,61.6c-2.1,0.5-3.5,2.6-3.1,4.8c2.1,11.8,0.5,47.9-88,76.9c-87.4,28.7-119.9-13.3-128.9-29.7
				c-1.4-2.6-5.1-2.9-7-0.6c-11.8,14.8-48.7,53-105.3,38.7c-57.6-14.5-68-42.1-69.8-51.2c-0.4-1.7-1.7-3-3.4-3.3
				c-9-1.4-35.7-9-44.1-49.6C1686.3,1877.7,1722.1,1854.5,1730.5,1849.8z"/>
			<path class="st2" d="M2004.5,1845.4c0,0-10.9-20-33.7-15.8c-22.8,4.2-28.2,22.1-28.2,37.9c0,23.4,31.3,39,53.2,43.2
				c26.8,5.1,48-6.2,54.7-9.8c18-9.9,45.5-33.3,40.9-58.7c-0.3-1.7-3.9-19.7-20.6-26.7c-14.2-5.9-27.8,0.3-30.1,1.4
				c-3.5-6.6-9.9-16.8-21-26c-30.4-25.2-67.9-19.9-71.7-19.3c-7.5,1.2-32.3,6.7-49.4,25.3c-16.7,18.3-18,39-18,39
				s-41.3-6.3-58.7,32.7c-17.4,39,18.5,67.5,54.3,65.4c2.6,6.9,8.3,28.1,21.5,39.7c10.2,9,14.2,12.6,30.6,23.1"/>
		</g>
		<g>
			<path class="st2" d="M1739,761c0,0-63.8,62.4-160.4,41.6c-96.5-20.8-136.6-105.4-136.6-105.4s-30.1-11.5-59.4-30.4
				c-21.3-13.8-48.3-37.3-54.9-75c-8.5-47.8,24.1-84.7,26.7-87.6c31.2-34.3,84.3-45,133.6-26.7c4.3-5.5,65.2-83.5,158.9-71.3
				c90.6,11.9,112.8,57.9,112.8,57.9s78.7-37.1,121.8,5.9c43.1,43.1,41.6,72.8,41.6,72.8s75.7-10.4,93.5,49
				c17.8,59.4-52,90.6-52,90.6c0.5,4.6,6.7,67.4-41.6,106.9c-34.1,27.9-78.2,30.2-108.4,20.8C1777,798.2,1739,761,1739,761L1739,761
				z"/>
			<path class="st2" d="M1527.4,548.7c6.8-13.6,22.6-39.9,53.5-56.8c48.2-26.3,106.4-15,144.8,12.2c30.2,21.4,44.2,49.8,50.1,64.6
				c23.2-19.8,57-19.9,79.1-1.1c21.6,18.5,28.1,52,12.2,75.7c-17.6,26.4-52,24.6-53.5,24.5c-0.4,1.7-5,20.5-23.4,27.8
				c-13.8,5.5-29.8,2.5-41.2-7.8c-7.8,8.6-21,21-40.1,31.2c-60.4,32.2-121.4,10.3-128.1,7.8c-39.8-15-62.8-42.5-72.4-55.7
				c-41.6,4.6-77.3-20-84.6-52.3c-5.1-22.7,4.2-47.1,21.2-62.4C1466.7,537,1499.9,533.6,1527.4,548.7z"/>
			<path class="st2" d="M1724.5,635.5c0,0,10-30.1-18.9-50.1c-29-20-76.8-17.8-99.1-3.3c-22.3,14.5-29,44.5-29,44.5"/>
		</g>
		<g>
			<path class="st2" d="M3131,256.3c-0.6-9.2-3.9-38.6-27.8-61.9c-26.5-25.7-67.9-33.8-106.6-21.1c-10.6-43.5-47.2-76-91.2-81.5
				c-39.4-4.9-78.8,12.7-102,45.3c-5.5-2-71.5-24.7-126.7,15.1c-34.1,24.6-44.8,59.2-47.9,70.9c-11.2,8-36.5,28.7-46.4,63.4
				c-11.7,41.3,5.9,76.1,18.5,101.1c11.3,22.4,32.4,64.1,75.7,80c35.4,13,45.4-6.2,94.3,3c49.7,9.4,57.7,32.6,98.9,40.7
				c25.1,4.9,62.7,4.3,114.3-24.1c7.6,9.9,53.7,67.9,137.5,77c88.7,9.5,148.9-43.4,157.6-51.3"/>
			<path class="st2" d="M2786.4,269.9c-3.9-3.2-22.2-17.5-47.9-15.1c-23.2,2.2-37.3,16.6-43.3,22.6c-4.4,4.5-19.9,21.8-21.7,45.6
				c-2.6,34.7,24.8,60,24.8,60l0,0l0,0c0,0,70.9,36.1,71.1,36.2c8.9,5.9,63,40.3,126.7,22.6c4.9-1.3,74.7-21.7,88.8-74.7
				c3.1-11.5,2.6-21.3,2.4-26c-2.1-38.8-28.4-66.1-40.2-75.8C2909.6,234.3,2843.3,234.3,2786.4,269.9z"/>
		</g>
		<g>
			<path class="st2" d="M1675.3,316.4c8.8,6,36.8,23.6,75.9,21.4c45.9-2.6,74.5-30.5,81-37.2c2.8,1.5,33.3,20.8,54.9,4.2
				c22.3-17.2,24.2-21,26.1-30.3c1.9-9.3,1.9-18.6,1.9-18.6s40-22.3,56.8-125.7c16.8-103.4-132.2-75.4-132.2-75.4
				s-52.3-64.1-116.6-21.3c-64.3,42.8-23.1,119.1-23.1,119.1c-32.2,6.1-58.9,27.7-68.9,56.8C1617.9,247.6,1635.6,293.4,1675.3,316.4
				z"/>
			<path class="st2" d="M1717.5,161.4c-5.5,2.2-11.3,5.6-16.5,10.7c-18.7,18.2-22,51.2-6.5,81c8.9,9.8,24.1,23.7,46.6,32.1
				c12.1,4.6,29.8,11.2,50.3,5.6c15-4.1,24.8-12.9,26.5-14.4c4.9-4.5,8.4-9,10.8-12.8c1.1-1.7,3.1-2.7,5.1-2.5
				c6.1,0.6,19.2,0.5,29.3-9.8c8.4-8.6,11.5-21,8.6-32.7c-0.6-2.2,0.4-4.5,2.3-5.7c29.1-18.4,43.3-48.4,36.6-72.4
				c-3.1-11.1-11.5-24.1-25.1-31.7c-15.3-8.5-30.7-6.5-37.2-5.6c-7.7,1-14.1,3.2-18.7,5.3c-1.5,0.7-3.2,0-3.9-1.5
				c-15.5-33.4-45.9-50.4-65.8-44.8c-23.8,6.8-44.3,49.4-24.2,95c0,0,16.3,47.3,55.5,47.3c2,0,30,0.4,39.7-18.2
				c3-5.8,3.3-11.6,3.1-15.6c0-1.3-0.4-13.2-9.9-19.8c-8.9-6.2-22-5.2-31.3,3.1"/>
		</g>
		<g>
			<path class="st2" d="M3238.5,217c-75.9-24.6-142.6-0.7-163.8,49.9c-4.3,10.3-10.2,29.9-6.2,60.5c-18.6,9.2-31.4,29.3-32.3,51.4
				c-1.3,30.2,20.2,53.4,37.2,59c0,0,3.3,1.1,34.7,1.5l0,0l0,0c0,0,3.7,45.4,101.8,71.1c98,25.7,147.7-80.1,147.7-80.1
				c19.5-4.1,33.8-23.6,34.7-45.4c1.1-25.7-16.6-49.9-40.3-51.3v0c0,0,0,0,0,0c3.5-40.9-11-80.6-37.9-103
				C3280.6,202.7,3243.6,215.1,3238.5,217z"/>
			<path class="st2" d="M3196.3,292.6c0,0-64.5-18.9-64.5,47.2c0,66.2,69.5,72.2,69.5,72.2s28.5,57.5,75.7,42.3
				c47.2-15.1,33.5-71.1,33.5-71.1c8.5-34,0.7-70.4-19.9-92.2C3265.3,264.2,3224.9,263.8,3196.3,292.6z"/>
		</g>
		<g>
			<path class="st2" d="M2269.4,1938.4c-57.2-26.7-93.9-78.2-95.4-134.4c-0.1-4.9-0.7-84,74.8-130.2c61.9-37.9,128.6-25.3,139.5-23
				c37.6-35.5,93.1-47.4,138.2-30.4c44.7,16.8,61,55.2,64,62.7c7.1-1.4,44-8,78.6,12.4c23.1,13.7,33.2,32.3,36.9,40.3
				c7.3,3.2,55.3,25.2,69.3,74.9c17,60.6-32.1,105.8-35.6,108.9c-39.7,35.3-103.1,44.6-159,22.9c-52.8,60-135.3,86.9-207.5,68.6
				C2311.7,1995.3,2279,1952.2,2269.4,1938.4z"/>
			<path class="st2" d="M2408.8,1816.1c0,0,11.4,24.9-6.1,54.4c-17.4,29.6-67.4,24.9-78,22.2c-10.6-2.7-82.5-38.3-56-93.4
				c26.5-55.1,69-41.7,69-41.7s20.4-60.5,88.6-53.1c68.2,7.4,78.8,66.5,78.8,66.5s12.9-0.8,27.6,2.9c19.9,5.1,32.6,19.2,39,30.7
				c15.2,26.9,4.4,62.3-20.4,82.7c-24.1,19.8-54.3,19.7-62.1,19.5c-19.9,14.4-70.1,47.7-121.2,47c-16.9-0.2-35.6-2.7-35.6-2.7
				c0,0-16.5-2.2-65.8-14.2l0,0"/>
		</g>
		<g>
			<path class="st2" d="M2483.9,2656.2c-60.4-1.6-173.1-9.5-185.8-94.7c-12.7-85.2,33.4-97.8,33.4-97.8s-4.8-94.7,93.7-119.9
				c61.6-15.8,167.2-26.7,204.9,31.6c5.6,8.6,11.4,21.4,13.1,39.9c96.8-3.3,181.7,32.2,215.9,96.1c7,13.1,35.4,66.1,13.7,116.1
				c-4,9.2-13.3,26.6-31.4,39.9c-98.5,72.6-250.9-20.5-250.9-20.5S2544.3,2657.8,2483.9,2656.2z"/>
			<path class="st2" d="M2453.8,2525.2c0,0-58.8-14.2-32.6-75c1.4-3.2,5.7-10.2,13.3-16.1c20.2-15.5,54-12.7,75.7,1.9
				c24.2,16.2,37.7,49.9,38.1,50.5l0,0c47.5,1.3,77.5,42.3,71.5,73.4c-5.7,29.3-44.5,55.4-87.4,44.2"/>
		</g>
		<g>
			<path class="st2" d="M1985.5,1091.6c-7.2,0.3-14.1,0.7-19.2-2.5c-5.7-3.7-9.3-11.3-10.2-17.2c-1.9-12.1,9.5-21.7,18-25.4
				c12.8-5.5,25.3-0.5,30.6,1.7c2.1,0.8,19.3,8.1,25.7,26.1c3.4,9.5,2.2,17.5,1.3,23.7c-1.1,7.5-3.1,20.5-14.5,31.4
				c-2.7,2.6-16.3,14.9-37.1,13.8c-17.6-1-28.7-11-31.4-13.6c-10.1,3.2-29,2.3-40.4-6.7c-8-6.3-10.8-19.7-10.7-25.8
				c0.1-8,4.1-17.5,12-20.6c0,0-2.9-23.1,3.9-37.3c7.2-15,19.7-22.4,28-27.1c43.4-24.9,95.6-10.2,100.8-9
				c31.2,6.8,43.2,15.8,43.2,15.8c21.7,14.1,38.8,41.7,65.2,42.2c46.2,0.9,30.7-0.9,81.6,13.2c-29.7-4.2-32-7.3-92.4,4.9
				c-18.6,3.8-36.2,8.1-52.8,12.8c-8.5,50.1-47.3,89.8-96.8,99.8c-60.9,12.3-106.9-26.7-111.2-30.5c-24.4,18.7-41.5,20.3-52.6,18.1
				c-18.8-3.7-41.7-22.3-41-21.8l0,0c0,0-44.8,24.9-80.8,12.8c-39.1-13.1-62.1-48.1-64-82.1c-2.3-42.2,27.2-78.5,63.4-91.9
				c22.1-8.2,42.5-6.4,53.4-4.5c0,0,12-24.1,43.2-27.9c31.2-3.8,68.8,19.6,68.8,19.6c3.4-0.9,30.5-7.7,52,8.3
				c0.6,0.4,1.1,0.8,1.6,1.2"/>
			<path class="st2" d="M1788.6,1076.5c0,0,11.6,25.5-12.8,38c-17.6,9-45.3,11.4-62.8-9.4c-30.6-36.4,17.2-64.8,34.9-59.9
				c1.6,0.5,3.3-0.7,3.3-2.4c0.1-9.6,4.2-32.4,42.4-31.3c38.6,1.1,42.4,20.9,42.4,28.7c0,1.6,1.4,2.7,3,2.5
				c10.6-1.8,37.1-3.1,42.8,25.9c8.9,45-39.1,44.3-50.7,43.5c-1.3-0.1-2.5,0.9-2.7,2.2c-0.8,6.2-4.7,25.2-20.1,31.1
				c-2.8,1.7-29.3,15.1-29.3,15.1"/>
		</g>
	</g>
	<g>
		<g>
			<path class="st2" d="M234.4,960.2c-16-33.8-7.7-74.3,20.2-99c28.3-24.9,70.1-27.8,101.6-7c2.3-2.8,56.9-67.3,135.3-54
				c49.6,8.4,78.4,42.8,86.1,52.6c67.7,7.8,113.8,60.8,111.2,112.7c-1.8,35.9-26.8,73.4-59.9,84c-9.6,10.1-37.7,36.8-82.5,44.2
				c-65,10.8-112.8-27.4-120.3-33.6c-39.1,25.4-89.1,27.1-129.2,4.4C237.9,1031.2,234.5,963.9,234.4,960.2z"/>
			<path class="st2" d="M304.9,929.2c3.3-3.3,8.6-7.7,16-10.7c16.8-6.8,32.4-1.7,36.9,0c2.6-5.5,18.9-38.1,56.7-49.2
				c32-9.4,67.3,0.2,92,24.6c31.3,8,51.4,36,49.2,62.6c-2.7,32.6-38.7,60.6-78.6,51.7"/>
			<path class="st2" d="M398.5,943.1c0,0,18.3-13.4,41.2-8c24,5.7,29.8,39.4,25.4,50c-3.7,8.7-9.4,15.2-9.4,15.2"/>
		</g>
		<g>
			<path class="st2" d="M22.9,511.9c-57.2-26.7-93.9-78.2-95.4-134.4c-0.1-4.9-0.7-84,74.8-130.2c61.9-37.9,128.6-25.3,139.5-23
				c37.6-35.5,93.1-47.4,138.2-30.4c44.7,16.8,61,55.2,64,62.7c7.1-1.4,44-8,78.6,12.4c23.1,13.7,33.2,32.3,36.9,40.3
				c7.3,3.2,55.3,25.2,69.3,74.9c17,60.6-32.1,105.8-35.6,108.9c-39.7,35.3-103.1,44.6-159,22.9c-52.8,60-135.3,86.9-207.5,68.6
				C65.2,568.8,32.5,525.7,22.9,511.9z"/>
			<path class="st2" d="M162.2,389.6c0,0,11.4,24.9-6.1,54.4s-67.4,24.9-78,22.2c-10.6-2.7-82.5-38.3-56-93.4s69-41.7,69-41.7
				s20.4-60.5,88.6-53.1c68.2,7.4,78.8,66.5,78.8,66.5s12.9-0.8,27.6,2.9c19.9,5.1,32.6,19.2,39,30.7c15.2,26.9,4.4,62.3-20.4,82.7
				c-24.1,19.8-54.3,19.7-62.1,19.5c-19.9,14.4-70.1,47.7-121.2,47c-16.9-0.2-35.6-2.7-35.6-2.7c0,0-16.5-2.2-65.8-14.2l0,0"/>
		</g>
		<g>
			<path class="st2" d="M237.4,1229.7c-60.4-1.6-173.1-9.5-185.8-94.7c-12.7-85.2,33.4-97.8,33.4-97.8s-4.8-94.7,93.7-119.9
				c61.6-15.8,167.2-26.7,204.9,31.6c5.6,8.6,11.4,21.4,13.1,39.9c96.8-3.3,181.7,32.2,215.9,96.1c7,13.1,35.4,66.1,13.7,116.1
				c-4,9.2-13.3,26.6-31.4,39.9c-98.5,72.6-250.9-20.5-250.9-20.5S297.7,1231.3,237.4,1229.7z"/>
			<path class="st2" d="M207.2,1098.7c0,0-58.8-14.2-32.6-75c1.4-3.2,5.7-10.2,13.3-16.1c20.2-15.5,54-12.7,75.7,1.9
				c24.2,16.2,37.7,49.9,38.1,50.5l0,0c47.5,1.3,77.5,42.3,71.5,73.4c-5.7,29.3-44.5,55.4-87.4,44.2"/>
		</g>
	</g>
</g>
</svg>
