<?xml version="1.0" encoding="utf-8"?>
<!-- Generator: Adobe Illustrator 19.2.0, SVG Export Plug-In . SVG Version: 6.00 Build 0)  -->
<svg version="1.1" id="圖層_1" xmlns="http://www.w3.org/2000/svg" xmlns:xlink="http://www.w3.org/1999/xlink" x="0px" y="0px"
	 viewBox="0 0 89 78" style="enable-background:new 0 0 89 78;" xml:space="preserve">
<style type="text/css">
	.st0{opacity:0.49;fill:url(#SVGID_1_);}
	.st1{fill:url(#SVGID_2_);}
	.st2{fill:#EAEDCF;}
	.st3{fill:#FFFFFF;}
	.st4{fill:#80CAD9;}
	.st5{fill:#0094B3;}
	.st6{fill:#9E9D9D;}
	.st7{fill:#424242;}
	.st8{fill:#E0E0E0;}
	.st9{fill:url(#SVGID_3_);}
	.st10{fill:url(#SVGID_4_);}
	.st11{fill:url(#SVGID_5_);}
	.st12{fill:url(#SVGID_6_);}
	.st13{fill:url(#SVGID_7_);}
	.st14{fill:url(#SVGID_8_);}
	.st15{fill:url(#SVGID_9_);}
	.st16{fill:#333333;}
	.st17{fill:url(#SVGID_10_);}
	.st18{fill:#1F1F1F;}
	.st19{fill:#4A4A4A;}
	.st20{fill:url(#SVGID_11_);}
	.st21{fill:url(#SVGID_12_);}
	.st22{fill:#FFBD65;}
	.st23{fill:url(#SVGID_13_);}
	.st24{fill:#FF9C4A;}
	.st25{fill:#FFC680;}
	.st26{fill:#FFBF8F;}
	.st27{fill:#FFE0B3;}
	.st28{fill:url(#SVGID_14_);}
	.st29{fill:url(#SVGID_15_);}
	.st30{fill:url(#SVGID_16_);}
	.st31{fill:url(#SVGID_17_);}
	.st32{fill:url(#SVGID_18_);}
	.st33{fill:#9E6600;}
	.st34{fill:url(#SVGID_19_);}
	.st35{fill:url(#SVGID_20_);}
	.st36{fill:url(#SVGID_21_);}
</style>
<radialGradient id="SVGID_1_" cx="449.3182" cy="-4234.6382" r="22.3041" gradientTransform="matrix(1.2841 0 0 0.1054 -527.5926 521.8399)" gradientUnits="userSpaceOnUse">
	<stop  offset="0" style="stop-color:#C0C0C0"/>
	<stop  offset="1" style="stop-color:#FFFFFF"/>
</radialGradient>
<ellipse class="st0" cx="49.4" cy="75.5" rx="28.6" ry="2.4"/>
<g>
	<g>
		<g>
			<linearGradient id="SVGID_2_" gradientUnits="userSpaceOnUse" x1="28.1651" y1="17.8093" x2="28.1651" y2="50.278">
				<stop  offset="0" style="stop-color:#5A5A5A"/>
				<stop  offset="1" style="stop-color:#000000"/>
			</linearGradient>
			<path class="st1" d="M31.2,47.3c-4.5,0.6-9.7,1.2-10.2,1.2c-0.9,0-1.7-0.6-1.9-1.5C18.9,46.4,16,23.7,16,22.9
				c0-0.5,0.1-0.9,0.4-1.2c0.3-0.3,0.6-0.6,1.1-0.7c0.6-0.1,6.5-0.9,8.3-1.1c3.6-0.5,9.1-1.2,9.6-1.2c0.5,0,0.9,0.1,1.2,0.4
				c0.3,0.3,0.6,0.6,0.7,1.1c0.1,0.4,1.9,14.6,2.3,17.5c0.3,2.3,0.8,6.2,0.8,6.6c0,0.5-0.1,0.9-0.4,1.2c-0.2,0.3-0.6,0.5-1.1,0.7
				C38.4,46.4,33.9,47,31.2,47.3L31.2,47.3z"/>
			<path class="st2" d="M29.5,45c-1,0.1-7.5,0.9-7.9,0.9c-0.3,0-0.5-0.1-0.5-0.4c-0.1-0.5-2.8-21.4-2.8-22c0-0.3,0.1-0.4,0.4-0.5
				c0.3-0.1,6.5-0.9,7.5-1c1-0.1,8.2-1,8.5-1c0.3,0,0.5,0.1,0.5,0.4c0.2,0.7,2.8,21.5,2.8,22c0,0.2,0,0.3-0.1,0.4
				c0,0-0.1,0.1-0.4,0.2C37.3,43.9,30.4,44.9,29.5,45L29.5,45z"/>
		</g>
		<g>
			<g>
				<g>
					
						<rect x="27.6" y="22.6" transform="matrix(0.9918 -0.1279 0.1279 0.9918 -2.9452 4.1906)" class="st3" width="7" height="4.9"/>
					<g>
						<g>
							
								<rect x="27.9" y="23.3" transform="matrix(0.9918 -0.1279 0.1279 0.9918 -2.7589 4.1455)" class="st4" width="6" height="0.4"/>
							
								<rect x="27.9" y="23.5" transform="matrix(0.9918 -0.1279 0.1279 0.9918 -2.7954 3.9549)" class="st5" width="3" height="0.4"/>
							
								<rect x="32.9" y="23" transform="matrix(0.9918 -0.1279 0.1279 0.9918 -2.6967 4.4584)" class="st6" width="1" height="0.4"/>
						</g>
						<g>
							
								<rect x="28" y="24.1" transform="matrix(0.9918 -0.1279 0.1279 0.9918 -2.8566 4.1646)" class="st4" width="6" height="0.4"/>
							
								<rect x="28" y="24.4" transform="matrix(0.9918 -0.128 0.128 0.9918 -2.9163 3.8627)" class="st5" width="1.2" height="0.4"/>
							
								<rect x="31.9" y="23.9" transform="matrix(0.9918 -0.1279 0.1279 0.9918 -2.8072 4.4128)" class="st6" width="2.1" height="0.4"/>
						</g>
						<g>
							
								<rect x="28.1" y="24.9" transform="matrix(0.9918 -0.1279 0.1279 0.9918 -2.9545 4.1841)" class="st4" width="6" height="0.4"/>
							
								<rect x="28.1" y="25.1" transform="matrix(0.9918 -0.1279 0.1279 0.9918 -2.9987 3.953)" class="st5" width="2.4" height="0.4"/>
							
								<rect x="32.7" y="24.6" transform="matrix(0.9918 -0.128 0.128 0.9918 -2.8975 4.4795)" class="st6" width="1.4" height="0.4"/>
						</g>
						<g>
							
								<rect x="28.2" y="25.6" transform="matrix(0.9918 -0.1279 0.1279 0.9918 -3.0522 4.2031)" class="st4" width="6" height="0.4"/>
							
								<rect x="28.2" y="25.8" transform="matrix(0.9918 -0.1279 0.1279 0.9918 -3.0807 4.0561)" class="st5" width="3.7" height="0.4"/>
							
								<rect x="33.6" y="25.3" transform="matrix(0.9918 -0.1279 0.1279 0.9918 -2.9849 4.5442)" class="st6" width="0.6" height="0.4"/>
						</g>
						<g>
							
								<rect x="28.3" y="26.4" transform="matrix(0.9918 -0.1279 0.1279 0.9918 -3.1499 4.2221)" class="st4" width="6" height="0.4"/>
							
								<rect x="28.3" y="26.7" transform="matrix(0.9918 -0.128 0.128 0.9918 -3.2062 3.9355)" class="st5" width="1.5" height="0.4"/>
							
								<rect x="32.4" y="26.2" transform="matrix(0.9918 -0.1279 0.1279 0.9918 -3.0995 4.4803)" class="st6" width="1.9" height="0.4"/>
						</g>
					</g>
				</g>
				<g>
					<rect x="19.3" y="23.7" transform="matrix(0.9918 -0.1279 0.1279 0.9918 -3.15 3.1395)" class="st3" width="7" height="4.9"/>
					
						<rect x="21.3" y="37.9" transform="matrix(0.9918 -0.1279 0.1279 0.9918 -5.0068 4.0466)" class="st3" width="15.4" height="6.3"/>
					<polygon class="st4" points="25.6,24.2 25,24.1 24.5,24.7 23.9,25.1 23.4,25.6 22.8,25.5 22.2,25.8 21.7,26.7 21.1,26.4 
						20.4,26.1 20,27.6 20.1,28.2 26,27.4 					"/>
					<polygon class="st5" points="25.8,25.8 25.2,25.9 24.6,25.5 24.1,26.6 23.5,26.1 22.9,26.5 22.3,26.4 21.8,27 21.2,27.4 
						20.6,27.4 20.1,27.9 20.1,28.2 26,27.4 					"/>
					<g>
						<rect x="19.7" y="24.8" transform="matrix(0.9918 -0.1277 0.1277 0.9918 -2.9817 3.1004)" class="st7" width="6" height="0"/>
						<rect x="19.8" y="25.4" transform="matrix(0.9918 -0.1278 0.1278 0.9918 -3.0581 3.1161)" class="st7" width="6" height="0"/>
						<rect x="19.8" y="26" transform="matrix(0.9918 -0.1277 0.1277 0.9918 -3.1326 3.1298)" class="st7" width="6" height="0"/>
						<rect x="19.9" y="26.6" transform="matrix(0.9918 -0.1281 0.1281 0.9918 -3.2157 3.153)" class="st7" width="6" height="0"/>
						<rect x="20" y="27.2" transform="matrix(0.9918 -0.128 0.128 0.9918 -3.2908 3.1672)" class="st7" width="6" height="0"/>
					</g>
					<g>
						<rect x="21.3" y="28" transform="matrix(0.9918 -0.128 0.128 0.9918 -3.4313 2.9579)" class="st7" width="0" height="0.4"/>
						<rect x="21.9" y="27.9" transform="matrix(0.9918 -0.128 0.128 0.9918 -3.4166 3.0335)" class="st7" width="0" height="0.4"/>
						<polygon class="st7" points="22.5,28.2 22.5,27.9 22.5,27.9 22.5,28.2 						"/>
						<polygon class="st7" points="23.1,28.1 23.1,27.8 23.1,27.8 23.1,28.1 						"/>
						<polygon class="st7" points="23.7,28.1 23.7,27.7 23.7,27.7 23.7,28 						"/>
						<polygon class="st7" points="24.3,28 24.2,27.6 24.3,27.6 24.3,28 						"/>
						
							<rect x="24.9" y="27.5" transform="matrix(0.9918 -0.1279 0.1279 0.9918 -3.3423 3.4106)" class="st7" width="0" height="0.4"/>
						<polygon class="st7" points="25.5,27.8 25.4,27.5 25.5,27.5 25.5,27.8 						"/>
						<polygon class="st7" points="20.7,28.4 20.7,28.1 20.7,28.1 20.7,28.4 						"/>
					</g>
					<polygon class="st7" points="20,28.2 19.6,24.6 19.7,24.6 20.2,28.1 26,27.3 26.1,27.5 					"/>
				</g>
			</g>
			<g>
				<g>
					<path class="st8" d="M28.1,36.7c-1.6,0-3-1.2-3.2-2.9c-0.2-1.8,1-3.4,2.8-3.7c0.1,0,0.3,0,0.4,0c1.6,0,3,1.2,3.2,2.9
						c0.2,1.8-1,3.4-2.8,3.7C28.4,36.7,28.3,36.7,28.1,36.7z M28.2,30.3c-0.1,0-0.3,0-0.4,0c-1.8,0.2-3,1.8-2.8,3.6
						c0.2,1.6,1.6,2.8,3.2,2.8c0.1,0,0.3,0,0.4,0c1.8-0.2,3-1.8,2.8-3.6C31.1,31.5,29.8,30.3,28.2,30.3z"/>
					<path class="st8" d="M27.9,36.7C27.9,36.7,27.9,36.7,27.9,36.7C27.9,36.7,27.9,36.7,27.9,36.7c0.1-0.1,0.3-0.2,0.6-0.7
						c0.6-1.1,0.8-2.7,0.8-3.7c0-0.8-0.1-1.6-0.3-2c0,0,0,0,0,0c0,0,0,0,0,0c0.2,0.4,0.3,1.2,0.3,2c0,1.1-0.2,2.6-0.8,3.7
						C28.3,36.5,28,36.7,27.9,36.7C27.9,36.7,27.9,36.7,27.9,36.7z"/>
					<path class="st8" d="M28.8,36.7C28.8,36.7,28.8,36.7,28.8,36.7c-0.1-0.1-0.2-0.2-0.3-0.5c0,0,0-0.1-0.1-0.1
						c-0.2-0.4-0.8-2.8-1-3.7c-0.2-0.9-0.3-1.8-0.2-2.1c0,0,0,0,0,0c0,0,0,0,0,0c0,0.3,0.1,1.2,0.2,2c0.2,0.9,0.8,3.3,1,3.6
						c0,0.1,0,0.1,0.1,0.1C28.7,36.4,28.7,36.5,28.8,36.7C28.8,36.6,28.8,36.7,28.8,36.7C28.8,36.7,28.8,36.7,28.8,36.7z"/>
					<path class="st8" d="M27,36.5C27,36.5,27,36.5,27,36.5C27,36.5,27,36.5,27,36.5C27,36.5,27,36.5,27,36.5
						C27,36.5,27,36.5,27,36.5c0.4-0.1,1.1-0.3,1.4-0.5c0.5-0.3,1.2-0.9,1.6-1.8c0.5-0.8,0.8-1.7,0.5-2.8c0,0,0,0,0,0c0,0,0,0,0,0
						c0.3,1.1-0.1,2-0.5,2.9c-0.5,0.9-1.2,1.5-1.7,1.8C28.1,36.3,27.4,36.5,27,36.5z"/>
					<path class="st8" d="M27.6,36.2c-0.6,0-1.3-0.1-1.9-0.5c0,0,0,0,0,0c0,0,0,0,0,0c0.9,0.5,2,0.5,2.7,0.4c0.6-0.1,1.6-0.6,1.9-1
						c0.4-0.4,0.8-0.9,0.9-1.5c0,0,0,0,0,0c0,0,0,0,0,0c-0.1,0.7-0.5,1.2-1,1.6c-0.4,0.4-1.3,0.9-2,1C28.2,36.1,27.9,36.2,27.6,36.2
						z"/>
					<path class="st8" d="M28.9,36.1c-0.1,0-0.3,0-0.4,0c-0.7-0.1-1.4-0.3-2.3-0.9c-1-0.6-1.2-1.5-1.3-1.8c0,0,0,0,0,0c0,0,0,0,0,0
						c0.1,0.3,0.4,1.1,1.3,1.7c0.9,0.5,1.6,0.8,2.2,0.9c0.9,0.1,1.6-0.1,2.2-0.5c0,0,0,0,0,0c0,0,0,0,0,0
						C30.2,35.9,29.6,36.1,28.9,36.1z"/>
					<path class="st8" d="M29.5,36.4c-0.3,0-0.7-0.1-1.1-0.3C28,35.8,27,35,26.4,34c-0.7-1.2-0.9-2.2-0.6-2.8c0,0,0,0,0,0
						c0,0,0,0,0,0c-0.3,0.6-0.1,1.5,0.6,2.8c0.6,0.9,1.5,1.8,2,2C28.9,36.2,29.3,36.3,29.5,36.4c0.1-0.1,0.1-0.1,0.1,0
						C29.7,36.4,29.6,36.4,29.5,36.4C29.6,36.4,29.6,36.4,29.5,36.4z"/>
					<path class="st8" d="M28.3,36.5c-0.5,0-0.8-0.2-0.9-0.5c0-0.3,0.4-0.7,0.9-0.7c0.1,0,0.1,0,0.2,0c0.5,0,0.8,0.2,0.9,0.5
						c0,0.2-0.1,0.3-0.2,0.5c-0.2,0.1-0.4,0.2-0.7,0.3C28.5,36.5,28.4,36.5,28.3,36.5z M28.6,35.4c-0.1,0-0.1,0-0.2,0
						c-0.5,0.1-0.9,0.4-0.9,0.7c0,0.3,0.4,0.4,0.8,0.4c0.1,0,0.1,0,0.2,0c0.3,0,0.5-0.1,0.6-0.2c0.2-0.1,0.2-0.3,0.2-0.4
						C29.3,35.5,29,35.4,28.6,35.4z"/>
					<path class="st8" d="M28.1,36.7c-0.9,0-1.6-0.4-1.6-0.9c0-0.3,0.1-0.6,0.5-0.9c0.3-0.3,0.8-0.4,1.3-0.5c0.1,0,0.3,0,0.4,0
						c0.9,0,1.6,0.4,1.6,0.9c0,0.3-0.1,0.6-0.5,0.9c-0.3,0.3-0.8,0.4-1.3,0.5C28.4,36.7,28.3,36.7,28.1,36.7z M28.6,34.4
						c-0.1,0-0.3,0-0.4,0c-0.5,0.1-0.9,0.2-1.3,0.5c-0.3,0.3-0.5,0.5-0.4,0.8c0.1,0.5,0.7,0.9,1.6,0.9c0.1,0,0.3,0,0.4,0
						c0.5-0.1,0.9-0.2,1.3-0.5c0.3-0.3,0.5-0.5,0.4-0.8C30.1,34.8,29.5,34.4,28.6,34.4z"/>
					<path class="st8" d="M28.2,36.7c-1.1,0-2.3-0.5-2.4-1.4c-0.1-0.5,0.2-0.9,0.6-1.3c0.4-0.4,1-0.6,1.7-0.7c0.2,0,0.3,0,0.5,0
						c1.2,0,2.2,0.6,2.3,1.4c0.1,0.9-1,1.8-2.3,2C28.4,36.7,28.3,36.7,28.2,36.7z M28.6,33.4c-0.2,0-0.3,0-0.5,0
						c-0.7,0.1-1.3,0.3-1.7,0.7c-0.4,0.4-0.6,0.8-0.6,1.2c0.1,0.8,1.3,1.3,2.3,1.3c0.1,0,0.3,0,0.4,0c1.3-0.2,2.4-1.1,2.3-1.9
						C30.7,33.9,29.8,33.4,28.6,33.4z"/>
					<path class="st8" d="M28.2,36.7c-1.3,0-2.6-0.8-2.9-1.9c-0.1-0.4-0.1-0.8,0.2-1.2c0.5-0.7,1.4-1.3,2.5-1.4c0.2,0,0.4,0,0.6,0
						c0.9,0,1.8,0.3,2.3,0.8c0.3,0.3,0.4,0.8,0.4,1.2c-0.1,1-1,2.2-2.6,2.4C28.4,36.7,28.3,36.7,28.2,36.7z M28.6,32.3
						c-0.2,0-0.4,0-0.5,0c-1,0.1-2,0.7-2.5,1.4c-0.2,0.4-0.3,0.8-0.2,1.2c0.3,1,1.5,1.8,2.8,1.8c0.1,0,0.3,0,0.4,0
						c1.6-0.2,2.5-1.3,2.6-2.4c0-0.4-0.1-0.8-0.4-1.2C30.3,32.6,29.5,32.3,28.6,32.3z"/>
					<path class="st8" d="M25.1,34.5C25.1,34.5,25,34.5,25.1,34.5c-0.2-0.5-0.1-1.1,0.2-1.6c0.5-0.8,1.5-1.4,2.6-1.5
						c1.1-0.1,2.2,0.2,2.9,0.8c0.5,0.4,0.7,1,0.6,1.7c0,0,0,0,0,0c0,0,0,0,0,0c0-0.6-0.2-1.2-0.6-1.6c-0.6-0.6-1.7-0.9-2.8-0.8
						c-1.1,0.1-2,0.7-2.6,1.5C25.1,33.4,25,33.9,25.1,34.5C25.1,34.5,25.1,34.5,25.1,34.5C25.1,34.5,25.1,34.5,25.1,34.5z"/>
					<path class="st8" d="M25,33.9C25,33.9,25,33.8,25,33.9c-0.2-0.5-0.1-1.1,0.2-1.6c0.5-0.8,1.5-1.4,2.6-1.5
						c1.1-0.1,2.2,0.2,2.9,0.8c0.5,0.4,0.7,1,0.6,1.7c0,0,0,0,0,0c0,0,0,0,0,0c0-0.6-0.2-1.2-0.6-1.6c-0.6-0.6-1.7-0.9-2.8-0.8
						c-1.1,0.1-2,0.7-2.6,1.5C25,32.8,24.9,33.3,25,33.9C25,33.8,25,33.8,25,33.9C25,33.9,25,33.9,25,33.9z"/>
				</g>
				<g>
					<path class="st5" d="M28.1,36.9c-1.7,0-3.2-1.3-3.4-3c-0.2-1.9,1.1-3.6,3-3.9c0.1,0,0.3,0,0.4,0c1.7,0,3.2,1.3,3.4,3
						c0.2,1.9-1.1,3.6-3,3.9C28.4,36.9,28.3,36.9,28.1,36.9z M28.2,30.4c-0.1,0-0.3,0-0.4,0c-1.7,0.2-2.8,1.7-2.6,3.4
						c0.2,1.5,1.5,2.6,3,2.6c0.1,0,0.3,0,0.4,0c1.7-0.2,2.8-1.7,2.6-3.4C31,31.6,29.7,30.4,28.2,30.4z"/>
					<path class="st5" d="M27.3,36.6C27.3,36.6,27.3,36.6,27.3,36.6c-0.2-0.4-0.3-1.2-0.3-2c0-1.1,0.2-2.6,0.8-3.7
						c0.2-0.5,0.5-0.6,0.6-0.7c0,0,0,0,0,0c0,0,0,0,0,0c-0.1,0-0.3,0.2-0.6,0.6C27.3,32,27,33.5,27,34.6
						C27,35.4,27.1,36.2,27.3,36.6C27.3,36.6,27.3,36.6,27.3,36.6C27.3,36.6,27.3,36.6,27.3,36.6z"/>
					<path class="st5" d="M29,36.6C29,36.6,29,36.6,29,36.6C29,36.6,29,36.6,29,36.6c0-0.3-0.1-1.2-0.3-2.1c-0.2-0.9-0.8-3.3-1-3.6
						c0-0.1,0-0.1-0.1-0.1c-0.1-0.2-0.2-0.4-0.2-0.4c0,0,0,0,0,0c0,0,0,0,0,0c0.1,0.1,0.1,0.2,0.2,0.5c0,0,0,0.1,0.1,0.1
						c0.2,0.4,0.8,2.8,1,3.7C29,35.4,29.1,36.3,29,36.6C29.1,36.6,29,36.6,29,36.6z"/>
					<path class="st5" d="M25.6,35.5C25.6,35.5,25.6,35.5,25.6,35.5c-0.3-1.1,0.1-2.1,0.5-2.9c0.5-0.9,1.2-1.5,1.7-1.8
						c0.4-0.3,1.1-0.5,1.5-0.5c0,0,0,0,0,0c0,0,0,0,0,0c0,0,0,0,0,0c0,0,0,0,0,0c-0.4,0-1.1,0.2-1.4,0.5c-0.5,0.3-1.2,0.9-1.6,1.8
						C25.7,33.5,25.4,34.4,25.6,35.5C25.7,35.5,25.7,35.5,25.6,35.5C25.6,35.5,25.6,35.5,25.6,35.5z"/>
					<path class="st5" d="M24.9,33.4C24.9,33.4,24.9,33.4,24.9,33.4C24.9,33.4,24.9,33.4,24.9,33.4c0.1-0.7,0.5-1.2,0.9-1.6
						c0.4-0.4,1.3-0.9,2-1c0.7-0.2,1.9-0.1,2.7,0.4c0,0,0,0,0,0c0,0,0,0,0,0c-0.9-0.5-2-0.5-2.7-0.4c-0.6,0.1-1.6,0.6-1.9,1
						C25.5,32.3,25.1,32.7,24.9,33.4C25,33.4,24.9,33.4,24.9,33.4z"/>
					<path class="st5" d="M31.4,33.5C31.4,33.5,31.4,33.5,31.4,33.5c-0.1-0.3-0.4-1.2-1.3-1.7c-0.9-0.5-1.6-0.8-2.2-0.9
						c-0.9-0.1-1.6,0.1-2.2,0.5c0,0,0,0,0,0c0,0,0,0,0,0c0.6-0.4,1.3-0.6,2.2-0.5c0.7,0.1,1.4,0.3,2.3,0.9
						C31.1,32.3,31.3,33.2,31.4,33.5C31.4,33.5,31.4,33.5,31.4,33.5C31.4,33.5,31.4,33.5,31.4,33.5z"/>
					<path class="st5" d="M30.5,35.8C30.5,35.8,30.5,35.8,30.5,35.8C30.4,35.7,30.4,35.7,30.5,35.8c0.3-0.7,0.1-1.6-0.7-2.8
						c-0.6-0.9-1.5-1.8-2-2c-0.4-0.2-0.8-0.3-1.1-0.3c0,0,0,0,0,0c0,0,0,0,0,0c0.3,0,0.7,0.1,1.2,0.3c0.5,0.3,1.5,1.1,2,2.1
						C30.6,34.2,30.8,35.1,30.5,35.8C30.5,35.8,30.5,35.8,30.5,35.8z"/>
					<path class="st5" d="M27.7,31.6c-0.5,0-0.8-0.2-0.9-0.5c0-0.3,0.4-0.7,0.9-0.7c0.1,0,0.1,0,0.2,0c0.5,0,0.8,0.2,0.9,0.5
						c0,0.2-0.1,0.3-0.2,0.5c-0.2,0.1-0.4,0.2-0.7,0.3C27.9,31.6,27.8,31.6,27.7,31.6z M28,30.5c-0.1,0-0.1,0-0.2,0
						c-0.5,0.1-0.9,0.4-0.9,0.7c0,0.3,0.4,0.4,0.8,0.4c0.1,0,0.1,0,0.2,0c0.3,0,0.5-0.1,0.6-0.2c0.2-0.1,0.2-0.3,0.2-0.4
						C28.7,30.6,28.4,30.5,28,30.5z"/>
					<path class="st5" d="M27.7,32.6c-0.9,0-1.6-0.4-1.6-0.9c-0.1-0.6,0.7-1.3,1.7-1.4c0.1,0,0.3,0,0.4,0c0.9,0,1.6,0.4,1.6,0.9
						c0.1,0.6-0.7,1.3-1.7,1.4C27.9,32.6,27.8,32.6,27.7,32.6z M28.2,30.3c-0.1,0-0.3,0-0.4,0c-1,0.1-1.8,0.7-1.7,1.3
						c0.1,0.5,0.7,0.9,1.6,0.9c0.1,0,0.3,0,0.4,0c1-0.1,1.8-0.7,1.7-1.3C29.7,30.6,29,30.3,28.2,30.3z"/>
					<path class="st5" d="M27.7,33.6c-1.2,0-2.2-0.6-2.3-1.4c-0.1-0.4,0.2-0.9,0.6-1.3c0.4-0.4,1.1-0.6,1.7-0.7c0.1,0,0.3,0,0.4,0
						c1.1,0,2.3,0.5,2.4,1.4c0.1,0.5-0.2,0.9-0.6,1.3c-0.4,0.4-1,0.6-1.7,0.7C28,33.6,27.9,33.6,27.7,33.6z M28.1,30.3
						c-0.1,0-0.3,0-0.4,0c-0.6,0.1-1.2,0.3-1.7,0.7c-0.4,0.4-0.7,0.8-0.6,1.2c0.1,0.8,1,1.3,2.2,1.3c0.2,0,0.3,0,0.5,0
						c0.7-0.1,1.3-0.3,1.7-0.7c0.4-0.4,0.6-0.8,0.6-1.2C30.3,30.8,29.2,30.3,28.1,30.3z"/>
					<path class="st5" d="M27.7,34.7c-0.9,0-1.8-0.3-2.3-0.8c-0.3-0.3-0.4-0.8-0.4-1.2c0.1-1,1-2.2,2.6-2.4c0.1,0,0.3,0,0.4,0
						c1.3,0,2.6,0.8,2.9,1.9c0.1,0.4,0.1,0.8-0.2,1.2c-0.5,0.7-1.4,1.3-2.5,1.4C28.1,34.7,27.9,34.7,27.7,34.7z M28.1,30.3
						c-0.1,0-0.3,0-0.4,0c-1.6,0.2-2.5,1.3-2.6,2.4c0,0.4,0.1,0.8,0.4,1.2c0.5,0.5,1.3,0.8,2.2,0.8c0.2,0,0.4,0,0.5,0
						c1-0.1,2-0.7,2.5-1.4c0.2-0.4,0.3-0.8,0.2-1.2C30.6,31,29.4,30.3,28.1,30.3z"/>
					<path class="st5" d="M27.8,35.6c-0.9,0-1.8-0.3-2.3-0.8c-0.5-0.4-0.7-1-0.6-1.7c0,0,0,0,0,0c0,0,0,0,0,0c0,0.6,0.2,1.2,0.6,1.6
						c0.6,0.6,1.7,0.9,2.8,0.8c1.1-0.1,2-0.7,2.6-1.5c0.3-0.5,0.4-1,0.3-1.5c0,0,0,0,0,0c0,0,0,0,0,0c0.2,0.5,0.1,1.1-0.3,1.6
						c-0.5,0.8-1.5,1.4-2.6,1.5C28.2,35.6,28,35.6,27.8,35.6z"/>
					<path class="st5" d="M27.9,36.2c-0.9,0-1.8-0.3-2.3-0.8c-0.5-0.4-0.7-1-0.6-1.7c0,0,0,0,0,0c0,0,0,0,0,0c0,0.6,0.2,1.2,0.6,1.6
						c0.6,0.6,1.7,0.9,2.8,0.8c1.1-0.1,2-0.7,2.6-1.5c0.3-0.5,0.4-1,0.3-1.5c0,0,0,0,0,0c0,0,0,0,0,0c0.2,0.5,0.1,1.1-0.3,1.6
						c-0.5,0.8-1.5,1.4-2.6,1.5C28.3,36.2,28.1,36.2,27.9,36.2z"/>
				</g>
				<ellipse transform="matrix(0.9918 -0.1278 0.1278 0.9918 -3.6499 4.1758)" class="st5" cx="30.7" cy="30.5" rx="0.2" ry="0.2"/>
				<ellipse transform="matrix(0.9918 -0.1278 0.1278 0.9918 -3.8825 3.396)" class="st5" cx="24.5" cy="32" rx="0.2" ry="0.2"/>
				<ellipse transform="matrix(0.9918 -0.1281 0.1281 0.9918 -4.0865 3.3636)" class="st5" cx="24.1" cy="33.5" rx="0.2" ry="0.2"/>
				<ellipse transform="matrix(0.9918 -0.1281 0.1281 0.9918 -4.3417 3.4574)" class="st5" cx="24.7" cy="35.5" rx="0.2" ry="0.2"/>
				<ellipse transform="matrix(0.9918 -0.128 0.128 0.9918 -4.1152 4.3798)" class="st5" cx="32" cy="34.2" rx="0.2" ry="0.2"/>
				<ellipse transform="matrix(0.9918 -0.1281 0.1281 0.9918 -4.3308 4.312)" class="st5" cx="31.4" cy="35.8" rx="0.2" ry="0.2"/>
				<polygon class="st5" points="30.7,30.5 30.7,30.5 31.2,29.8 32.2,29.7 32.2,29.8 31.2,29.9 				"/>
				<polygon class="st5" points="32,34.2 32,34.2 32.4,33.6 32.7,33.5 32.7,33.6 32.5,33.6 				"/>
				<polygon class="st5" points="23.7,36.3 23.7,36.3 24.3,36.2 24.7,35.5 24.7,35.5 24.4,36.2 				"/>
				
					<rect x="23.4" y="33.5" transform="matrix(0.9918 -0.1275 0.1275 0.9918 -4.0803 3.3021)" class="st5" width="0.7" height="0.1"/>
				<polygon class="st5" points="24.5,32 24,31.4 23.1,31.5 23.1,31.5 24,31.3 24.6,31.9 				"/>
				<polygon class="st5" points="31.4,35.8 31.3,35.8 31.7,35.3 32.9,35.1 32.9,35.2 31.7,35.4 				"/>
				<rect x="33" y="34.7" transform="matrix(0.9918 -0.128 0.128 0.9918 -4.1907 4.7016)" class="st6" width="2.9" height="0.4"/>
				<rect x="32.8" y="33.2" transform="matrix(0.9918 -0.128 0.128 0.9918 -3.9956 4.6636)" class="st6" width="2.9" height="0.4"/>
				<rect x="20" y="31.4" transform="matrix(0.9918 -0.1279 0.1279 0.9918 -3.8643 3.0105)" class="st6" width="2.9" height="0.4"/>
				
					<rect x="20.3" y="33.5" transform="matrix(0.9918 -0.1279 0.1279 0.9918 -4.1378 3.0638)" class="st6" width="2.9" height="0.4"/>
				<rect x="20.7" y="36.3" transform="matrix(0.9918 -0.128 0.128 0.9918 -4.4857 3.1321)" class="st6" width="2.9" height="0.4"/>
				
					<rect x="21.8" y="39.6" transform="matrix(0.9918 -0.1279 0.1279 0.9918 -4.8583 4.0159)" class="st6" width="14.1" height="0.4"/>
				
					<rect x="21.9" y="40.3" transform="matrix(0.9918 -0.1279 0.1279 0.9918 -4.9494 4.0336)" class="st6" width="14.1" height="0.4"/>
				
					<rect x="21.9" y="41.2" transform="matrix(0.9918 -0.1279 0.1279 0.9918 -5.06 3.9507)" class="st6" width="12.5" height="0.4"/>
				
					<rect x="22" y="41.8" transform="matrix(0.9918 -0.1279 0.1279 0.9918 -5.1315 4.0691)" class="st6" width="14.1" height="0.4"/>
				
					<rect x="22.1" y="42.5" transform="matrix(0.9918 -0.1279 0.1279 0.9918 -5.2226 4.0869)" class="st6" width="14.1" height="0.4"/>
				
					<rect x="22.2" y="43.3" transform="matrix(0.9918 -0.1279 0.1279 0.9918 -5.3329 4.0037)" class="st6" width="12.5" height="0.4"/>
				
					<rect x="21.7" y="39.1" transform="matrix(0.9918 -0.1279 0.1279 0.9918 -4.8437 3.4406)" class="st5" width="5.4" height="0.7"/>
				
					<rect x="32.3" y="29.3" transform="matrix(0.9918 -0.1279 0.1279 0.9918 -3.5001 4.5652)" class="st6" width="2.9" height="0.4"/>
			</g>
		</g>
	</g>
	<path class="st6" d="M40.1,42.9c-0.4-0.1-1.2-0.7-1.6-2c-0.3-0.8-0.7-1.9-1.1-2.8c0,0,0,0,0,0c0,0-0.4-0.9-0.8-1.2
		c-0.3-0.2-0.7-0.3-1-0.2c-0.3-0.4-0.8-0.3-1.1-0.3c-0.6-0.8-0.9-1.5-2-1.3c0,0-0.1,0-0.1,0c-0.2-0.3-0.6-0.7-1-1.1
		c-1.4-1.2-2.4,0.2-1.8,1.2c0.4,0.6,1.7,3,1.9,4.9c-1.2-1.5-3.1-1-2.6,0.3c1.1,2.4,1.8,3.6,2.8,3.7c1.1,0.2,1.9,0.6,3.2,1
		c0.6,0.2,1.4,0.9,2,1.4c0.5-0.1,1-0.1,1.3-0.2C39.2,45.3,40.4,43,40.1,42.9z"/>
	<g>
		<g>
			<g>
				
					<linearGradient id="SVGID_3_" gradientUnits="userSpaceOnUse" x1="510.2183" y1="105.1916" x2="510.2183" y2="110.0693" gradientTransform="matrix(0.9937 -0.1117 0.1117 0.9937 -484.1478 -8.6217)">
					<stop  offset="0" style="stop-color:#FFE0B3"/>
					<stop  offset="1" style="stop-color:#FFCF95"/>
				</linearGradient>
				<path class="st9" d="M35.1,43.5c-1.3-0.5-2.1-0.9-3.2-1c-0.9-0.1-1.6-1.3-2.8-3.7c-0.6-1.2,1.4-1.8,2.6-0.3
					c-0.2-1.9-1.4-4.3-1.9-4.9c-0.6-0.9,0.4-2.4,1.8-1.2c1.4,1.2,1.6,2.2,1.9,2.9c0.9-0.3,2.4-0.3,3.2,0.1c0.8,0.4,1.6,2.6,2,3.9
					c0.4,1.3,1.2,1.9,1.6,2c0.4,0.1-2.1,4.6-2.8,4C36.9,44.8,35.9,43.8,35.1,43.5z"/>
				<linearGradient id="SVGID_4_" gradientUnits="userSpaceOnUse" x1="38.3139" y1="37.4373" x2="36.0199" y2="36.1897">
					<stop  offset="0" style="stop-color:#FFE0B3"/>
					<stop  offset="1" style="stop-color:#FFCF95"/>
				</linearGradient>
				<path class="st10" d="M36.8,35.4c-0.3-0.2-0.7-0.3-1-0.2c-0.3-0.4-0.8-0.3-1.1-0.3c-0.6-0.8-0.9-1.5-2-1.3c0,0-0.1,0-0.1,0
					c0.4,0.6,0.6,1.2,0.8,1.6c0,0.1,0.1,0.1,0.1,0.2c0.2,0.5,0.3,0.6,0.3,0.8c0.1,0.2,0.6-0.1,0.8-0.2c0.2-0.1,0.7-0.1,1,0
					c0.3,0.1,0.4,0,0.7-0.1c0.3-0.1,1,0.3,1.3,0.6C37.6,36.6,37.2,35.7,36.8,35.4z"/>
			</g>
			
				<linearGradient id="SVGID_5_" gradientUnits="userSpaceOnUse" x1="507.5099" y1="98.7476" x2="507.5099" y2="99.059" gradientTransform="matrix(0.9937 -0.1117 0.1117 0.9937 -484.1478 -8.6217)">
				<stop  offset="0" style="stop-color:#FFEED5"/>
				<stop  offset="1" style="stop-color:#FFEED9"/>
			</linearGradient>
			<path class="st11" d="M31.4,32.4c-0.2-0.1-1.1,0-1,0.2c0.1,0.3,0.1,0.5,0.2,0.6c0.1,0.1,0.4-0.2,0.7-0.2c0.3,0,0.8,0.1,0.7,0
				C31.9,32.9,31.6,32.6,31.4,32.4z"/>
			<g>
				
					<linearGradient id="SVGID_6_" gradientUnits="userSpaceOnUse" x1="505.3082" y1="105.0155" x2="505.3082" y2="105.6512" gradientTransform="matrix(0.9937 -0.1117 0.1117 0.9937 -484.1478 -8.6217)">
					<stop  offset="0" style="stop-color:#FFEED5"/>
					<stop  offset="1" style="stop-color:#FFEED9"/>
				</linearGradient>
				<path class="st12" d="M30.1,39.3c-0.1-0.1-0.5-0.8-0.6-0.9c-0.1-0.1-0.3,0.6-0.2,0.8c0.2,0.4,0.3,0.7,0.5,1
					C29.8,39.9,30.2,39.4,30.1,39.3z"/>
			</g>
		</g>
		
			<linearGradient id="SVGID_7_" gradientUnits="userSpaceOnUse" x1="-2040.4387" y1="-3083" x2="-2040.7814" y2="-3100.0237" gradientTransform="matrix(4.080000e-002 0.9992 -0.9992 4.080000e-002 -2962.5369 2209.3584)">
			<stop  offset="0" style="stop-color:#000000"/>
			<stop  offset="1" style="stop-color:#474747"/>
		</linearGradient>
		<path class="st13" d="M47.3,49.9c2.8-0.3,7.1-5.2,8.5-7.9c1.4-2.6,0.5-4.5-1.5-4.4c-4.6,0.2-7.1,6.1-7.8,6.1c-0.7,0-5.3-3-6.1-3.6
			c-0.8-0.6-5.2,4-4.3,5.3C37,46.6,44.4,50.3,47.3,49.9z"/>
	</g>
	<path class="st6" d="M28.8,43.5c-0.5-1-2-0.5-1.9,0.4c0.1,0.8,0.2,3,0.4,4c1-0.1,3.9-0.5,3.9-0.5S29,43.9,28.8,43.5z"/>
	<linearGradient id="SVGID_8_" gradientUnits="userSpaceOnUse" x1="26.7675" y1="44.9715" x2="29.5245" y2="49.9341">
		<stop  offset="0" style="stop-color:#FFE0B3"/>
		<stop  offset="1" style="stop-color:#FFCF95"/>
	</linearGradient>
	<path class="st14" d="M31.7,48.3c-0.3-0.5-1.7-3.3-2-4.5c-0.4-1.3-2.4-1.4-2.3,0.2c0.2,1.6,0.4,2.6,0.6,3.7
		c-0.5,0.1-2.1,0.3-2.9,0.4c0.8,2.7,2.7,3.6,4.4,4.1C32.8,53.1,32.6,49.5,31.7,48.3z"/>
	<linearGradient id="SVGID_9_" gradientUnits="userSpaceOnUse" x1="28.2656" y1="43.4208" x2="28.7656" y2="44.3208">
		<stop  offset="0" style="stop-color:#FFEED5"/>
		<stop  offset="1" style="stop-color:#FFEED9"/>
	</linearGradient>
	<path class="st15" d="M28,44.6c0,0.1,1.6,0,1.5-0.2s-0.2-0.9-0.3-1.2c-0.1-0.3-1.3-0.1-1.3,0.2C27.8,43.8,27.9,44.4,28,44.6z"/>
	<g>
		<path class="st16" d="M56.7,71.9c-0.5,0.6-1.6,1.3-2.3,1.4s-2.8,0.1-3.8,0.1c-1.1-0.1-1.5,1-0.8,1.5c0.7,0.5,3.2,0.8,4.3,0.8
			c1.3,0,2.7-0.6,3.3-0.7c0,0.3,0,0.6,0,0.6s3.6,0.1,3.5-0.4c-0.1-0.6-0.5-3.2-0.5-3.2H56.7z"/>
		<linearGradient id="SVGID_10_" gradientUnits="userSpaceOnUse" x1="57.6965" y1="55.8779" x2="57.6965" y2="75.7209">
			<stop  offset="0" style="stop-color:#000000"/>
			<stop  offset="1" style="stop-color:#474747"/>
		</linearGradient>
		<path class="st17" d="M54.2,59c-0.8,3.7,0.2,7.4,1.2,12.1c0.6,0.1,6,0,6,0c-1.8-4.7-2.3-8.7-1.7-12.3C60.2,56,54.7,57.1,54.2,59z"
			/>
		<polygon class="st18" points="54.9,70 55.1,72.3 61.9,72.1 61.8,70.2 		"/>
	</g>
	<g>
		<path class="st19" d="M46.4,73.2c-0.5,0.6-1.6,1.3-2.3,1.4s-2.8,0.1-3.8,0.1c-1.1-0.1-1.5,1-0.8,1.5c0.7,0.5,3.2,0.8,4.3,0.8
			c1.3,0,2.7-0.6,3.3-0.7c0,0.3,0,0.6,0,0.6s3.6,0.1,3.5-0.4c-0.1-0.6-0.5-3.2-0.5-3.2H46.4z"/>
		<linearGradient id="SVGID_11_" gradientUnits="userSpaceOnUse" x1="48.3347" y1="56.0771" x2="48.3347" y2="66.2169">
			<stop  offset="0" style="stop-color:#000000"/>
			<stop  offset="1" style="stop-color:#474747"/>
		</linearGradient>
		<path class="st20" d="M46.6,58.3c-1.1,3-2.3,7.4-1.4,14.1c0.6,0.1,6,0,6,0c-0.9-5.7-0.5-9.2,0.6-12.1
			C52.7,57.5,47.3,56.4,46.6,58.3z"/>
		<polygon class="st18" points="44.6,71.2 44.8,73.5 51.6,73.4 51.5,71.4 		"/>
	</g>
	<g>
		<g>
			<g>
				
					<linearGradient id="SVGID_12_" gradientUnits="userSpaceOnUse" x1="608.2608" y1="-232.1387" x2="610.03" y2="-231.7768" gradientTransform="matrix(0.9817 -0.1903 0.1903 0.9817 -519.1472 370.2109)">
					<stop  offset="0" style="stop-color:#FFE0B3"/>
					<stop  offset="1" style="stop-color:#FFCF95"/>
				</linearGradient>
				<path class="st21" d="M41,22.3l0,8.8c-2.2,0.3-5.8-0.2-5.7-4.5C35.3,22.4,38.8,21.7,41,22.3z"/>
			</g>
			<path class="st22" d="M41.4,24.3c-0.8-0.7-3.2-1.2-3.7,1.2c-0.5,2.4,1.9,2.8,2.8,2.6C40.8,27.3,41.4,24.3,41.4,24.3z"/>
		</g>
		
			<linearGradient id="SVGID_13_" gradientUnits="userSpaceOnUse" x1="10083.2529" y1="1796.2738" x2="10083.2529" y2="1804.4486" gradientTransform="matrix(0.9805 0.1956 -0.1956 0.9805 -9484.665 -3700.5095)">
			<stop  offset="0" style="stop-color:#FFE0B3"/>
			<stop  offset="1" style="stop-color:#FFCF95"/>
		</linearGradient>
		<path class="st23" d="M63.9,35.7c5.9-12,3.2-21.9-8.4-25.3c-5.3-1.5-13.6-4.6-16.3,6.3c-0.6,2.6-1.4,5.3-1.9,9.4
			c-0.5,3.7-0.1,8.3,1.2,10.2c1.6,2.4,4.4,4.6,11.5,5.2C59.6,42.4,62.3,38.8,63.9,35.7z"/>
		<g>
			<path class="st24" d="M45.1,33.1c3.1,2.2,7.3,1.2,9.7-0.2c-0.3-0.2-0.5-0.5-0.5-0.5C52.2,33.2,48.9,34.4,45.1,33.1z"/>
			<path class="st24" d="M54,31.1c0.2,0.9,1.3,2.1,2.3,2.2C54.8,33.8,53.6,32.4,54,31.1z"/>
		</g>
		<g>
			<path class="st25" d="M45.5,28.3c-1.5-0.7-3-0.3-3.6,0.7c-0.6,1,0.8,1.7,2.1,2.2C41.6,30,43.7,27.8,45.5,28.3z"/>
		</g>
		<ellipse transform="matrix(0.1957 -0.9807 0.9807 0.1957 16.3999 80.4154)" class="st26" cx="57.2" cy="30.2" rx="1.5" ry="2.7"/>
		<g>
			<g>
				<path class="st27" d="M66.3,26.8l-3.5,7.9c1.8,1.2,6.8,2.9,8.5-0.9C73,30,69.8,26.9,66.3,26.8z"/>
			</g>
			<path class="st22" d="M66.3,28.9c1.5,0.4,3.9,1.5,2.9,3.7c-1,2.2-3.9,1.1-4.9,0.4C64.9,31.4,66.3,28.9,66.3,28.9z"/>
		</g>
		
			<linearGradient id="SVGID_14_" gradientUnits="userSpaceOnUse" x1="9022.8662" y1="4633.8135" x2="9053.8926" y2="4633.8135" gradientTransform="matrix(0.9847 -0.1742 0.1742 0.9847 -9652.4609 -2971.8218)">
			<stop  offset="0" style="stop-color:#664000"/>
			<stop  offset="1" style="stop-color:#6B4000"/>
		</linearGradient>
		<path class="st28" d="M68.7,12.1c-2.4-3.4-9.6-4.2-11.1-5.6c-1.4-1.3,1.3-3.1,1.3-3.1s-6.6-1.4-8.2,2.4c-0.6-3.5,2.8-4.6,2.8-4.6
			s-6.4,0.4-7.4,4.6c-0.3-2.3-0.1-3.3,1.7-4.8c-5.2,0.7-6.8,3.8-7.7,7c-0.7,2.5-1,7.2-0.9,8.9c0.8-2.7,1.6-3.5,2-3.7
			c0.2-0.2,5.2,1.4,6.2,1.5c1.4,0.2,13.2,0.5,15.2,2.6c1,1.1,0.5,5.5,0.2,6.8c1.3,0.9,1,3.6-0.8,7.7c0.7,0.2,1.6,0.3,2,0.4
			c0.3-0.7,2.2-4.5,2.5-5.3c0.8,0.1,1.6,0.2,2.6,0.6C72.3,19.6,70.6,14.9,68.7,12.1z"/>
		<g>
			
				<linearGradient id="SVGID_15_" gradientUnits="userSpaceOnUse" x1="7970.8574" y1="-738.6915" x2="7970.8574" y2="-743.5723" gradientTransform="matrix(0.979 0.2032 -0.2032 0.979 -7903.0225 -868.0827)">
				<stop  offset="0" style="stop-color:#FFE0B3"/>
				<stop  offset="1" style="stop-color:#FFBD6D"/>
			</linearGradient>
			<path class="st29" d="M50.5,28.7c-1.5-0.3-2.4-1.8-2.1-3.3c0.3-1.5,1.8-2.4,3.3-2.1c1.5,0.3,2.4,1.8,2.1,3.3
				C53.4,28,52,29,50.5,28.7L50.5,28.7z"/>
			<ellipse transform="matrix(0.2031 -0.9791 0.9791 0.2031 15.2494 70.6898)" class="st3" cx="51.1" cy="26" rx="2.5" ry="2.5"/>
			
				<linearGradient id="SVGID_16_" gradientUnits="userSpaceOnUse" x1="7971.5171" y1="-742.7966" x2="7971.5171" y2="-740.1534" gradientTransform="matrix(0.979 0.2032 -0.2032 0.979 -7903.0225 -868.0827)">
				<stop  offset="0" style="stop-color:#664000"/>
				<stop  offset="1" style="stop-color:#6B4000"/>
			</linearGradient>
			<path class="st30" d="M51.5,27.1c-0.8-0.2-1.3-1-1.2-1.8c0.2-0.8,1-1.3,1.8-1.2c0.8,0.2,1.3,1,1.2,1.8
				C53.1,26.8,52.3,27.3,51.5,27.1L51.5,27.1z"/>
			<ellipse transform="matrix(0.2032 -0.9791 0.9791 0.2032 17.3318 71.1039)" class="st3" cx="52.4" cy="24.9" rx="0.3" ry="0.3"/>
		</g>
		<g>
			
				<linearGradient id="SVGID_17_" gradientUnits="userSpaceOnUse" x1="7961.6055" y1="-738.414" x2="7961.6055" y2="-743.2947" gradientTransform="matrix(0.979 0.2032 -0.2032 0.979 -7903.0225 -868.0827)">
				<stop  offset="0" style="stop-color:#FFE0B3"/>
				<stop  offset="1" style="stop-color:#FFBD6D"/>
			</linearGradient>
			<path class="st31" d="M41.4,27.1c-1.5-0.3-2.4-1.8-2.1-3.3c0.3-1.5,1.8-2.4,3.3-2.1c1.5,0.3,2.4,1.8,2.1,3.3
				C44.3,26.4,42.9,27.4,41.4,27.1L41.4,27.1z"/>
			<ellipse transform="matrix(0.2032 -0.9791 0.9791 0.2032 9.5607 60.4836)" class="st3" cx="41.9" cy="24.4" rx="2.5" ry="2.5"/>
			
				<linearGradient id="SVGID_18_" gradientUnits="userSpaceOnUse" x1="7962.2656" y1="-742.519" x2="7962.2656" y2="-739.876" gradientTransform="matrix(0.979 0.2032 -0.2032 0.979 -7903.0225 -868.0827)">
				<stop  offset="0" style="stop-color:#664000"/>
				<stop  offset="1" style="stop-color:#6B4000"/>
			</linearGradient>
			<path class="st32" d="M42.4,25.5c-0.8-0.2-1.3-1-1.2-1.8c0.2-0.8,1-1.3,1.8-1.2c0.8,0.2,1.3,1,1.2,1.8
				C44,25.2,43.2,25.7,42.4,25.5L42.4,25.5z"/>
			<ellipse transform="matrix(0.2033 -0.9791 0.9791 0.2033 11.6409 60.8954)" class="st3" cx="43.2" cy="23.3" rx="0.3" ry="0.3"/>
		</g>
		<path class="st33" d="M44,18.5c-0.1,0-0.2-0.1-0.3-0.2c-0.2-0.4-0.7-0.7-1.2-0.7c-0.4,0-0.7,0.1-0.9,0.3c-0.1,0.2-0.3,0.2-0.5,0.1
			c-0.2-0.1-0.2-0.3-0.1-0.5c0.3-0.5,0.8-0.7,1.5-0.7c0.8,0,1.5,0.4,1.8,1.1c0.1,0.2,0,0.4-0.1,0.5C44.1,18.5,44,18.5,44,18.5z"/>
		<path class="st33" d="M54.2,20.9c-0.1,0-0.3-0.1-0.3-0.2c-0.2-0.3-0.7-0.7-1.5-0.9c-0.9-0.3-1.8-0.2-2.2,0
			c-0.2,0.1-0.4,0.1-0.5-0.1c-0.1-0.2-0.1-0.4,0.1-0.5c0.8-0.5,2-0.4,2.8-0.1c0.9,0.3,1.6,0.7,1.9,1.3c0.1,0.2,0,0.4-0.2,0.5
			C54.3,20.9,54.3,20.9,54.2,20.9z"/>
	</g>
	<g>
		<g>
			<linearGradient id="SVGID_19_" gradientUnits="userSpaceOnUse" x1="53.0197" y1="40.6809" x2="53.0197" y2="41.8659">
				<stop  offset="0" style="stop-color:#000000"/>
				<stop  offset="1" style="stop-color:#474747"/>
			</linearGradient>
			<path class="st34" d="M43.1,40.9c2.3-2.4,8.2-3.9,14.1-3.5c5.9,0.4,5.6,3.2,5.8,4.1C63.2,42.3,41.9,42.1,43.1,40.9z"/>
			<linearGradient id="SVGID_20_" gradientUnits="userSpaceOnUse" x1="52.9518" y1="61.8458" x2="52.9518" y2="41.433">
				<stop  offset="0" style="stop-color:#000000"/>
				<stop  offset="1" style="stop-color:#474747"/>
			</linearGradient>
			<path class="st35" d="M59.2,39.3c-3.6-0.4-18.6,0.1-18.2,3.2c1.3,9.7,0,14.3-0.1,19.2c4.5,1,19.7,1.4,24,0.5
				c-1-6.4,0.8-18.1-0.2-20.4C64.2,40.7,63.5,39.7,59.2,39.3z"/>
		</g>
	</g>
	
		<linearGradient id="SVGID_21_" gradientUnits="userSpaceOnUse" x1="1786.2683" y1="71.9062" x2="1793.9365" y2="58.1844" gradientTransform="matrix(0.9892 -0.1465 0.1465 0.9892 -1741.8351 244.402)">
		<stop  offset="0" style="stop-color:#000000"/>
		<stop  offset="1" style="stop-color:#474747"/>
	</linearGradient>
	<path class="st36" d="M34.9,56.1c7.1,4,7.6-0.6,11.9-11.9c1.6-4.2-5.1-4.2-5.8-1.8c-1.8,6.1-3.2,8.9-3.9,8.4
		c-0.4-0.2-3.8-2.1-4.8-2.8c-1.3-0.9-4.2,3.6-2.6,4.8C30.5,53.4,33.9,55.5,34.9,56.1z"/>
</g>
</svg>
