<?xml version="1.0" encoding="utf-8"?>
<!-- Generator: Adobe Illustrator 19.2.0, SVG Export Plug-In . SVG Version: 6.00 Build 0)  -->
<svg version="1.1" id="圖層_1" xmlns="http://www.w3.org/2000/svg" xmlns:xlink="http://www.w3.org/1999/xlink" x="0px" y="0px"
	 viewBox="0 0 89 78" style="enable-background:new 0 0 89 78;" xml:space="preserve">
<style type="text/css">
	.st0{fill:url(#SVGID_1_);}
	.st1{fill:url(#SVGID_2_);}
	.st2{fill:url(#SVGID_3_);}
	.st3{fill:url(#SVGID_4_);}
	.st4{fill:url(#SVGID_5_);}
	.st5{fill:url(#SVGID_6_);}
	.st6{fill:#6E8791;}
	.st7{fill:url(#SVGID_7_);}
	.st8{fill:url(#SVGID_8_);}
	.st9{fill:url(#SVGID_9_);}
	.st10{fill:#444444;}
	.st11{fill:url(#SVGID_10_);}
	.st12{fill:url(#SVGID_11_);}
	.st13{fill:url(#SVGID_12_);}
	.st14{fill:url(#SVGID_13_);}
	.st15{fill:url(#SVGID_14_);}
	.st16{fill:#4A4A4A;}
	.st17{fill:url(#SVGID_15_);}
	.st18{fill:url(#SVGID_16_);}
	.st19{fill:url(#SVGID_17_);}
	.st20{fill:#1F1F1F;}
	.st21{fill:#FFFFFF;}
	.st22{fill:#858585;}
	.st23{fill:#FF5C00;}
	.st24{fill:#D5DBDE;}
	.st25{fill:url(#SVGID_18_);}
	.st26{fill:url(#SVGID_19_);}
	.st27{fill:url(#SVGID_20_);}
	.st28{fill:url(#SVGID_21_);}
	.st29{fill:url(#SVGID_22_);}
	.st30{fill:url(#SVGID_23_);}
	.st31{fill:url(#SVGID_24_);}
	.st32{fill:url(#SVGID_25_);}
	.st33{fill:#EB9E4D;}
	.st34{fill:#FFE0B3;}
	.st35{fill:#FFBD65;}
	.st36{fill:url(#SVGID_26_);}
	.st37{fill:url(#SVGID_27_);}
	.st38{fill:url(#SVGID_28_);}
	.st39{fill:#9E6600;}
	.st40{fill:#FFAB5C;}
	.st41{fill:#FFD4AB;}
	.st42{fill:url(#SVGID_29_);}
	.st43{fill:url(#SVGID_30_);}
	.st44{fill:url(#SVGID_31_);}
	.st45{fill:url(#SVGID_32_);}
	.st46{fill:url(#SVGID_33_);}
</style>
<g>
	
		<linearGradient id="SVGID_1_" gradientUnits="userSpaceOnUse" x1="-389.4402" y1="20.4749" x2="-389.4402" y2="52.8899" gradientTransform="matrix(1 0 0 1 454.6777 0)">
		<stop  offset="0" style="stop-color:#DCF0FF"/>
		<stop  offset="1" style="stop-color:#5FC2FF"/>
	</linearGradient>
	<path class="st0" d="M86.4,51.5c-8.3,1.8-35.2,2-42.3,0c-2.8-4.1-2.8-25.7,0-29.7c7.6-1.6,35.8-1.3,42.3,0
		C89.2,25.9,89.2,47.5,86.4,51.5z"/>
	<g>
		<g>
			
				<linearGradient id="SVGID_2_" gradientUnits="userSpaceOnUse" x1="-392.3329" y1="594.0181" x2="-392.3329" y2="586.5183" gradientTransform="matrix(1 0 0 -1 454.6777 631.5898)">
				<stop  offset="0" style="stop-color:#ADAD87"/>
				<stop  offset="1" style="stop-color:#70C8FF"/>
			</linearGradient>
			<path class="st1" d="M64.2,45.1c0.2-1.4,0.3-6,0-7.2c-0.5-0.5-3.2-0.5-3.7,0c-0.2,1.3-0.2,6.1,0,7.2C61,45.5,63.7,45.5,64.2,45.1
				z"/>
		</g>
		
			<linearGradient id="SVGID_3_" gradientUnits="userSpaceOnUse" x1="-392.3329" y1="38.4983" x2="-392.3329" y2="27.4736" gradientTransform="matrix(1 0 0 1 454.6777 0)">
			<stop  offset="0" style="stop-color:#E08A00"/>
			<stop  offset="1" style="stop-color:#FFD600"/>
		</linearGradient>
		<path class="st2" d="M64.2,27.5c0.2,2.1,0.3,8.8,0,10.6c-0.5,0.7-3.2,0.7-3.7,0c-0.2-1.9-0.2-9,0-10.6
			C61,26.8,63.7,26.8,64.2,27.5z"/>
		
			<linearGradient id="SVGID_4_" gradientUnits="userSpaceOnUse" x1="-385.3809" y1="589.8253" x2="-385.3809" y2="593.885" gradientTransform="matrix(1 0 0 -1 454.6777 631.5898)">
			<stop  offset="0" style="stop-color:#7ACCFF"/>
			<stop  offset="1" style="stop-color:#A36B8C"/>
		</linearGradient>
		<path class="st3" d="M71.1,41.9c0.2-0.8,0.3-3.5,0-4.3c-0.5-0.3-3.2-0.3-3.7,0c-0.2,0.8-0.2,3.6,0,4.3
			C67.9,42.2,70.6,42.2,71.1,41.9z"/>
		
			<linearGradient id="SVGID_5_" gradientUnits="userSpaceOnUse" x1="-385.3809" y1="32.3348" x2="-385.3809" y2="38.3026" gradientTransform="matrix(1 0 0 1 454.6777 0)">
			<stop  offset="0" style="stop-color:#FF5F98"/>
			<stop  offset="1" style="stop-color:#E01C6B"/>
		</linearGradient>
		<path class="st4" d="M71.1,32.1c0.2,1.2,0.3,5.2,0,6.2c-0.5,0.4-3.2,0.4-3.7,0c-0.2-1.1-0.2-5.3,0-6.2
			C67.9,31.7,70.6,31.7,71.1,32.1z"/>
		
			<linearGradient id="SVGID_6_" gradientUnits="userSpaceOnUse" x1="-378.5407" y1="586.3717" x2="-378.5407" y2="593.7402" gradientTransform="matrix(1 0 0 -1 454.6777 631.5898)">
			<stop  offset="0" style="stop-color:#7BCCFF"/>
			<stop  offset="1" style="stop-color:#548FFF"/>
		</linearGradient>
		<path class="st5" d="M78,45.1c0.2-1.4,0.3-6,0-7.2c-0.5-0.5-3.2-0.5-3.7,0c-0.2,1.3-0.2,6.1,0,7.2C74.8,45.5,77.5,45.5,78,45.1z"
			/>
		<path class="st6" d="M55.9,43.5c0,0-0.3-1.3-0.3-1.4c1.3,0,2.5,0.1,3.8,0.2c1.2,0.1,2.4,0.2,3.6,0.3c2.1,0.2,4.2,0.4,6.3,0.5
			c2.3,0.1,4.6-0.4,6.9-0.2c0,0.5,0.1,1.1-0.2,1.4c-4.4,0.2-8.9-0.3-13.3-0.2C60.4,44,58.2,43.6,55.9,43.5z"/>
		<path class="st6" d="M55.8,46.6c0,0-0.2-1.3-0.2-1.4c0.8,0,1.7,0.1,2.5,0.2c0.8,0.1,1.6,0.2,2.4,0.3c1.4,0.2,7.3,0.1,8.8,0.2
			c0,0.5,0.1,1.1-0.2,1.4c-3,0.2-5.9-0.3-8.9-0.2C58.8,47,57.3,46.6,55.8,46.6z"/>
		<path class="st6" d="M55.7,50.1c0,0-0.3-1.3-0.3-1.4c1.1,0,2.2,0.1,3.3,0.2c1.1,0.1,2.1,0.2,3.2,0.3c1.8,0.2,9.6,0.1,11.5,0.2
			c0,0.5,0.1,1.1-0.2,1.4c-3.9,0.2-7.7-0.3-11.6-0.2C59.6,50.5,57.7,50.1,55.7,50.1z"/>
		
			<linearGradient id="SVGID_7_" gradientUnits="userSpaceOnUse" x1="-378.5407" y1="27.2581" x2="-378.5407" y2="38.0897" gradientTransform="matrix(1 0 0 1 454.6777 0)">
			<stop  offset="0" style="stop-color:#2978EB"/>
			<stop  offset="1" style="stop-color:#00308F"/>
		</linearGradient>
		<path class="st7" d="M78,27.5c0.2,2.1,0.3,8.8,0,10.6c-0.5,0.7-3.2,0.7-3.7,0c-0.2-1.9-0.2-9,0-10.6C74.8,26.8,77.5,26.8,78,27.5z
			"/>
	</g>
</g>
<g>
	<linearGradient id="SVGID_8_" gradientUnits="userSpaceOnUse" x1="50.1708" y1="39.637" x2="51.989" y2="43.0917">
		<stop  offset="0" style="stop-color:#FFE0B3"/>
		<stop  offset="1" style="stop-color:#FFBD6D"/>
	</linearGradient>
	<path class="st8" d="M54.7,43.9c0.4-0.6,0.8-1.4,0.9-2c0.3-1.3-0.5-2.9-1.7-3.5c-1.6-0.9-3-0.1-4.2,0.9c-0.9,0.8-3.7,2.8-2.5,4.4
		c0.9,1.1,2.3,1.3,3.5,0.8c0.9,0.2,2.5,0.6,3.4,0C54.4,44.3,54.5,44.1,54.7,43.9z"/>
	<linearGradient id="SVGID_9_" gradientUnits="userSpaceOnUse" x1="51.1649" y1="38.0616" x2="53.544" y2="39.3593">
		<stop  offset="0" style="stop-color:#FFE0B3"/>
		<stop  offset="1" style="stop-color:#FFBD6D"/>
	</linearGradient>
	<path class="st9" d="M49.8,39.2c0.6-0.5,2.1-1.8,2.7-2.2c0.7-0.4,1.9-0.5,2.2,0.4c0.6,1.7-2.2,3.1-3.3,3.3
		C50.3,40.9,49.3,39.6,49.8,39.2z"/>
	<path class="st10" d="M50.4,40.3c-0.5,0.4,0.6,1.9,1.1,1.5c0.6-0.4,12.1-10.7,12.5-11.2c0.5-0.4,0-0.9-0.5-0.5
		C63.1,30.5,50.9,39.9,50.4,40.3z"/>
	<linearGradient id="SVGID_10_" gradientUnits="userSpaceOnUse" x1="53.9733" y1="40.421" x2="55.6628" y2="43.8974">
		<stop  offset="0" style="stop-color:#FFE0B3"/>
		<stop  offset="1" style="stop-color:#FFBD6D"/>
	</linearGradient>
	<path class="st11" d="M57.2,39.8c-0.4-0.9-1-1.4-1.8-1.8c-1.3-0.7-1.9,0.5-1.6,1.3c-1.1-0.2-1.5,0.5-1.3,1.4
		c-1.1,0.2-1,1.5-0.7,2.3c0.2,0.5,0.4,1.5,0.9,1.6c1.9,0.5,4.5-1.7,4.6-3.6C57.5,40.7,57.4,40.2,57.2,39.8z"/>
	
		<linearGradient id="SVGID_11_" gradientUnits="userSpaceOnUse" x1="2520.021" y1="27.2455" x2="2521.1284" y2="30.9368" gradientTransform="matrix(-0.9972 2.000000e-003 -2.000000e-003 1.0159 2519.1482 2.4547)">
		<stop  offset="0" style="stop-color:#FFE0B3"/>
		<stop  offset="1" style="stop-color:#FFAB63"/>
	</linearGradient>
	<path class="st12" d="M5.4,41.3c0.9,0.5,2.9,0.4,3.6-0.4c0.6-0.7,0.1-1.9-0.1-2.6c-0.2-0.7-0.5-1.7-1.1-2.2c-0.5-0.5-1.4-0.7-1.6,0
		c-0.1,0.5-0.2,1.3-0.3,1.7c-1.7-0.3-3.4-2.1-4.6-1.1c-1.1,0.9,0.7,2.2,1.3,2.7C3.5,40,4.4,40.7,5.4,41.3z"/>
	
		<linearGradient id="SVGID_12_" gradientUnits="userSpaceOnUse" x1="2479.9622" y1="62.6896" x2="2480.4773" y2="65.993" gradientTransform="matrix(-0.9983 5.820000e-002 5.820000e-002 0.9983 2476.7222 -168.1285)">
		<stop  offset="0" style="stop-color:#FFE0B3"/>
		<stop  offset="1" style="stop-color:#FFAB63"/>
	</linearGradient>
	<path class="st13" d="M8.3,41.4c0.5-0.4,0.6-1.3-0.1-2c-0.7-0.7-1.9-1.1-3-1c-0.7,0.1-1.2-0.1-1.5-0.2c-0.5-0.3-2-1.1-2.5-1.2
		c-0.5-0.1-1,0.6-0.5,1.2c0.5,0.6,1.3,1.3,2.1,1.9c0.8,0.6,2,1.2,2.6,1.4C6,41.7,7.6,42.1,8.3,41.4z"/>
	<linearGradient id="SVGID_13_" gradientUnits="userSpaceOnUse" x1="43.6478" y1="48.1715" x2="43.6478" y2="38.6192">
		<stop  offset="0" style="stop-color:#000000"/>
		<stop  offset="1" style="stop-color:#474747"/>
	</linearGradient>
	<path class="st14" d="M38.3,37.9c0.4,0.1,0.9,0.4,1.3,1.1c0.8,1.6,1.9,3.3,3.5,3.6c2,0.4,3.7-1,4.1-1.2c0.7-0.4,3.6,3.3,3.2,3.5
		c-3.4,2.3-5.3,2.4-7.8,1.9c-2.3-0.4-4.8-2.7-5.2-4.5C36.6,39.5,37.2,37.9,38.3,37.9z"/>
	
		<linearGradient id="SVGID_14_" gradientUnits="userSpaceOnUse" x1="381.8982" y1="48.0296" x2="381.8982" y2="38.609" gradientTransform="matrix(-1 0 0 1 395.2949 0)">
		<stop  offset="0" style="stop-color:#000000"/>
		<stop  offset="1" style="stop-color:#474747"/>
	</linearGradient>
	<path class="st15" d="M18.8,37.9c-0.4,0.1-0.9,0.4-1.3,1.1c-0.8,1.6-1.9,3.6-3.5,3.6c-2.8,0-3.7-3.1-4.1-3.3
		c-0.7-0.4-3.5,3.1-3.2,3.5c2,3.1,5.3,4.4,7.8,4c2.3-0.4,4.8-2.7,5.2-4.5C20.4,39.5,19.9,37.9,18.8,37.9z"/>
	<g>
		<path class="st16" d="M23.2,65.5c-0.3,0.5-1.4,1-1.9,1.1c-0.5,0.2-2.1,0.4-2.9,0.4c-0.8,0-1.1,0.9-0.5,1.2
			c0.6,0.3,2.5,0.5,3.3,0.2c0.8-0.4,2.1-0.7,2.4-0.8c0.1,0.2,0,0.4,0,0.4s2.3-0.2,2.3-0.8c0-0.5-0.2-1.9-0.2-1.9L23.2,65.5z"/>
		<path class="st16" d="M33.7,65.5c0.3,0.5,1.4,1,1.9,1.1c0.5,0.2,2.1,0.4,2.9,0.4c0.8,0,1.1,0.9,0.5,1.2c-0.6,0.3-2.5,0.5-3.3,0.2
			c-0.8-0.4-2.1-0.7-2.4-0.8c-0.1,0.2,0,0.4,0,0.4s-2.3-0.2-2.3-0.8c0-0.5,0.2-1.9,0.2-1.9L33.7,65.5z"/>
		<g>
			<linearGradient id="SVGID_15_" gradientUnits="userSpaceOnUse" x1="28.5975" y1="53.2214" x2="28.5975" y2="60.4762">
				<stop  offset="0" style="stop-color:#000000"/>
				<stop  offset="1" style="stop-color:#474747"/>
			</linearGradient>
			<path class="st17" d="M18.8,52.3c0,1.1,0.2,3,2.7,3.3c2.5,0.3,12,0.2,13.9,0c1.9-0.2,2.9-1.5,3-3.3
				C35.6,52.3,20.9,52.3,18.8,52.3z"/>
			<linearGradient id="SVGID_16_" gradientUnits="userSpaceOnUse" x1="24.2368" y1="53.2214" x2="24.2368" y2="60.4763">
				<stop  offset="0" style="stop-color:#000000"/>
				<stop  offset="1" style="stop-color:#474747"/>
			</linearGradient>
			<path class="st18" d="M21.9,55.5c0,2.4,0.1,6.1,0.2,9.4c0.5,0.1,4.5,0,4.5,0c-0.2-3.5-0.5-7-0.5-9.3C26,53.4,21.9,54,21.9,55.5z"
				/>
			<linearGradient id="SVGID_17_" gradientUnits="userSpaceOnUse" x1="32.7112" y1="53.2214" x2="32.7112" y2="60.4763">
				<stop  offset="0" style="stop-color:#000000"/>
				<stop  offset="1" style="stop-color:#474747"/>
			</linearGradient>
			<path class="st19" d="M35,55.3c0,2.4-0.1,6.1-0.2,9.4c-0.5,0.1-4.5,0-4.5,0c0.2-3.5,0.5-7,0.5-9.3C30.9,53.2,35,53.8,35,55.3z"/>
			<polygon class="st20" points="21.7,64 21.8,65.8 26.9,65.6 26.8,64.2 			"/>
			<polygon class="st20" points="35.3,64 35.1,65.8 30,65.6 30.1,64.2 			"/>
		</g>
		<g>
			<rect x="18.8" y="38.1" class="st21" width="19.5" height="14.2"/>
			<g>
				<g>
					<path class="st22" d="M28.6,42c-2.7,0-4.8-0.8-4.8-0.8l0.7-2.5l7.5,0.2l0.5,2.4C32.5,41.3,31.3,42,28.6,42z"/>
					<g>
						<path class="st22" d="M27.2,38H19c0,0.3-0.9,1.3-0.9,2.7c1.5,1.2,4.5,2.5,7,3.3C25.5,41.7,27.2,38,27.2,38z"/>
					</g>
					<g>
						<g>
							<path class="st22" d="M30,38h9.2c0,0.3,0,1.3,0,2.7c-1.5,1.2-4.5,2.5-7,3.3C31.7,41.7,30,38,30,38z"/>
						</g>
					</g>
					<g>
						<polygon class="st22" points="29.8,43.4 28.2,43.4 26.6,50.4 29,52.5 31.4,50.4 						"/>
						<g>
							<path class="st22" d="M25.3,40.2h7.5l0.4,0.7c0,0-3.4,2.2-3.7,2.3c-0.3,0.1-1,0.1-1.2,0c-0.2-0.2-3.5-2.3-3.5-2.3L25.3,40.2z
								"/>
						</g>
						<g>
							<path class="st23" d="M25,39.3h7.5l0.4,0.7c0,0-3.4,2.2-3.7,2.3c-0.3,0.1-1,0.1-1.2,0c-0.2-0.2-3.5-2.3-3.5-2.3L25,39.3z"/>
							<polygon class="st23" points="29.5,42.1 27.9,42.1 26.3,49.1 28.7,51.1 31.1,49.1 							"/>
						</g>
						<g>
							<g>
								<path class="st24" d="M38.5,37.9c-0.1-0.1-0.1-0.2-0.2-0.3C36,37.2,30,38,30,38s1.1,1.4,2,2.9C35.2,40.3,39,38.6,38.5,37.9z
									"/>
							</g>
						</g>
						<g>
							<g>
								<path class="st24" d="M18.7,37.9c0.1-0.1,0.1-0.2,0.2-0.3c2.3-0.4,8.3,0.4,8.3,0.4s-1.1,1.4-2,2.9
									C22,40.3,18.2,38.6,18.7,37.9z"/>
							</g>
						</g>
					</g>
				</g>
				<g>
					
						<linearGradient id="SVGID_18_" gradientUnits="userSpaceOnUse" x1="-1975.1057" y1="51.2019" x2="-1975.1057" y2="36.3088" gradientTransform="matrix(-1 0 0 1 -1941.5186 0)">
						<stop  offset="0" style="stop-color:#000000"/>
						<stop  offset="1" style="stop-color:#474747"/>
					</linearGradient>
					<path class="st25" d="M37.6,36.9c1-0.1,1.7,0.9,2.2,2.1c0,2.5-0.1,15.1-0.3,16.5c-0.6,0.1-6.8,0.8-12,0.6
						c-0.2-1.8,0.3-9.4,0.3-9.4s6.6-8.2,7.5-9.8C36,37,36.6,36.9,37.6,36.9z"/>
					
						<linearGradient id="SVGID_19_" gradientUnits="userSpaceOnUse" x1="-2011.5496" y1="52.7682" x2="-2011.5496" y2="48.9573" gradientTransform="matrix(-1 0 0 1 -1976.6641 0)">
						<stop  offset="0" style="stop-color:#000000"/>
						<stop  offset="1" style="stop-color:#474747"/>
					</linearGradient>
					<path class="st26" d="M32.2,50.6c0,0.4,0,0.6,0,0.9c0.9,0.1,4.4,0,5.3-0.1c0-0.5,0-0.8,0-1C36.7,50.5,33.4,50.6,32.2,50.6z"/>
					
						<linearGradient id="SVGID_20_" gradientUnits="userSpaceOnUse" x1="-1934.8101" y1="43.7864" x2="-1934.8101" y2="36.1962" gradientTransform="matrix(-1 0 0 1 -1902.6338 0)">
						<stop  offset="0" style="stop-color:#000000"/>
						<stop  offset="1" style="stop-color:#474747"/>
					</linearGradient>
					<path class="st27" d="M35.2,36.9l-7.5,9.8c1.2-0.2,6.8-4,7-4.1c0.2-0.1-0.5-1.7-0.4-1.8c0.1-0.2,1.9-0.5,1.9-0.5
						c0.2-0.2,0.5-3.4,0.4-3.4C36.4,36.9,35.2,36.9,35.2,36.9z"/>
				</g>
				<g>
					
						<linearGradient id="SVGID_21_" gradientUnits="userSpaceOnUse" x1="-1971.4999" y1="53.3838" x2="-1971.4999" y2="38.4907" gradientTransform="matrix(1 0 0 1 1995.5107 0)">
						<stop  offset="0" style="stop-color:#000000"/>
						<stop  offset="1" style="stop-color:#474747"/>
					</linearGradient>
					<path class="st28" d="M20,36.9c-1-0.1-1.7,0.9-2.2,2.1c0,2.5,0.1,15.1,0.3,16.5c0.6,0.1,6.8,0.8,12,0.6
						c0.2-1.8-0.3-9.4-0.3-9.4s-6.6-8.2-7.5-9.8C21.6,37,21,36.9,20,36.9z"/>
					<linearGradient id="SVGID_22_" gradientUnits="userSpaceOnUse" x1="22.7031" y1="52.7682" x2="22.7031" y2="48.9573">
						<stop  offset="0" style="stop-color:#000000"/>
						<stop  offset="1" style="stop-color:#474747"/>
					</linearGradient>
					<path class="st29" d="M25.4,50.6c0,0.4,0,0.6,0,0.9c-0.9,0.1-4.4,0-5.3-0.1c0-0.5,0-0.8,0-1C20.8,50.5,24.2,50.6,25.4,50.6z"/>
					<linearGradient id="SVGID_23_" gradientUnits="userSpaceOnUse" x1="25.1841" y1="43.5948" x2="25.1841" y2="35.9811">
						<stop  offset="0" style="stop-color:#000000"/>
						<stop  offset="1" style="stop-color:#474747"/>
					</linearGradient>
					<path class="st30" d="M22.2,36.9l7.7,9.8c-1.2-0.2-7.3-4-7.4-4.2c-0.2-0.1,0.5-1.7,0.4-1.8c-0.1-0.2-1.9-0.5-1.9-0.5
						c-0.2-0.2-0.5-3.4-0.4-3.4C20.7,36.9,22.2,36.9,22.2,36.9z"/>
					<linearGradient id="SVGID_24_" gradientUnits="userSpaceOnUse" x1="28.1579" y1="48.8904" x2="28.1579" y2="48.0783">
						<stop  offset="0" style="stop-color:#000000"/>
						<stop  offset="1" style="stop-color:#474747"/>
					</linearGradient>
					<circle class="st31" cx="28.2" cy="48.6" r="0.5"/>
					<linearGradient id="SVGID_25_" gradientUnits="userSpaceOnUse" x1="28.1984" y1="51.9614" x2="28.1984" y2="51.1492">
						<stop  offset="0" style="stop-color:#000000"/>
						<stop  offset="1" style="stop-color:#474747"/>
					</linearGradient>
					<circle class="st32" cx="28.2" cy="51.7" r="0.5"/>
				</g>
			</g>
		</g>
	</g>
	<path class="st33" d="M53.9,39.3c0.9,0.8,2.1,2.3,2.2,3.8C56.3,41.2,55.2,39.9,53.9,39.3z"/>
	<path class="st33" d="M52.6,40.7c0.9,0.8,2,2.1,2,3.5C55,42.5,53.9,41.4,52.6,40.7z"/>
	<g>
		<g>
			<g>
				<g>
					<path class="st34" d="M16.8,24.4v7.2c-1.8,0.3-4.7-0.1-4.7-3.6C12.1,24.6,15,24,16.8,24.4z"/>
				</g>
				<path class="st35" d="M16.8,26.4C16.1,26,14.1,26,14.1,28c0,2,2,1.9,2.7,1.7C16.8,28.9,16.8,26.4,16.8,26.4z"/>
			</g>
			<g>
				<g>
					<path class="st34" d="M39.6,24.4v7.2c1.8,0.3,4.7-0.1,4.7-3.6C44.3,24.6,41.4,24,39.6,24.4z"/>
				</g>
				<path class="st35" d="M39.6,26.4c0.7-0.5,2.7-0.4,2.7,1.6c0,2-2,1.9-2.7,1.7C39.6,28.9,39.6,26.4,39.6,26.4z"/>
			</g>
			<linearGradient id="SVGID_26_" gradientUnits="userSpaceOnUse" x1="28.1926" y1="33.0702" x2="28.1926" y2="39.1175">
				<stop  offset="0" style="stop-color:#FFE0B3"/>
				<stop  offset="1" style="stop-color:#FFBD6D"/>
			</linearGradient>
			<path class="st36" d="M40,18.9c0-1.4-0.8-2.2-2.5-2.5c-1.8-0.4-5.5-0.6-9.3-0.6c-3.8,0-7.5,0.2-9.3,0.6c-1.8,0.3-2.5,1.1-2.5,2.5
				c0,0-0.8,15,1.2,17.7c1,1.3,2.8,2.2,4.4,2.5c3,0.5,10,0.5,12.5,0c1.7-0.3,3.5-1.2,4.4-2.5C40.8,33.9,40,18.9,40,18.9z"/>
			<g>
				<linearGradient id="SVGID_27_" gradientUnits="userSpaceOnUse" x1="28.2005" y1="28.4636" x2="28.2005" y2="21.8714">
					<stop  offset="0" style="stop-color:#FFE0B3"/>
					<stop  offset="1" style="stop-color:#FFBD6D"/>
				</linearGradient>
				<path class="st37" d="M40.1,18.9c0-0.5-0.1-0.9-0.3-1.3L16.5,18c-0.1,0.3-0.1,0.6-0.1,0.9c0,0-0.2,3.5-0.2,7.3l0,2.6
					c0.1-1.6,1.5-8,2.4-8.8c0.9-0.9,5.6,0.5,9.7,0.4c4.4,0,8.5-1.3,9.5-0.2c1,1.1,2,7.5,2.4,9.1C40.2,25.4,40.1,18.9,40.1,18.9z"/>
			</g>
			<linearGradient id="SVGID_28_" gradientUnits="userSpaceOnUse" x1="28.1231" y1="22.4987" x2="28.1231" y2="28.9734">
				<stop  offset="0" style="stop-color:#664000"/>
				<stop  offset="1" style="stop-color:#6B4000"/>
			</linearGradient>
			<path class="st38" d="M40.7,18.5c-0.6-2.8-2.1-5.6-6-5.9c-2.6-0.2-5.5-1.6-6.4-2.3c0.2,0.9,0.5,2.2,0.5,2.2s-4.1-1.7-4.7-2.4
				c0,0.9-0.1,1.8,0.2,2.3c-1.4-0.3-4.5-2.2-4.9-3c-0.2,1.2-0.2,2.1,0,2.7c-1-0.2-2.4-1-3.3-1.9c0,1.2,1.1,4.4,0.1,6.8
				c-1.8,4.5-1.1,11.3,0,11.8c0-2,0.7-7.8,1.6-9.3c0.1-0.1,0.2-0.3,0.3-0.5c0,0,0.1-0.1,0.1-0.1c1-1.1,5.9,0.3,10,0.2
				c4.1-0.1,9.1-1,10.1,0.1c1.3,1.5,1.9,7.9,1.9,10.1C41,27.6,41.5,22.5,40.7,18.5z"/>
			<path class="st39" d="M33.2,22.8c0,0-0.1,0-0.1,0c-0.8-0.3-2.9-0.4-3.5-0.1c-0.2,0.1-0.3,0-0.4-0.2c-0.1-0.2,0-0.3,0.2-0.4
				c0.8-0.4,3.1-0.3,4,0.1c0.2,0.1,0.2,0.2,0.1,0.4C33.4,22.7,33.3,22.8,33.2,22.8L33.2,22.8z"/>
			<path class="st39" d="M22.6,22.8c-0.1,0-0.2-0.1-0.3-0.2c-0.1-0.2,0-0.3,0.1-0.4c0.9-0.4,3.1-0.5,4-0.1c0.2,0.1,0.2,0.2,0.2,0.4
				c-0.1,0.2-0.2,0.2-0.4,0.2c-0.6-0.3-2.7-0.3-3.5,0.1C22.6,22.8,22.6,22.8,22.6,22.8L22.6,22.8z"/>
			<g>
				<path class="st40" d="M28.7,29.5c-1.3-0.3-2.5,0.2-2.7,1.2c-0.3,0.9,0.9,1.3,2,1.4C25.9,31.5,27.2,29.4,28.7,29.5z"/>
			</g>
			<ellipse class="st41" cx="19.5" cy="30.3" rx="1.4" ry="1"/>
			<ellipse class="st41" cx="37" cy="30.3" rx="1.4" ry="1"/>
			<g>
				<linearGradient id="SVGID_29_" gradientUnits="userSpaceOnUse" x1="24.0762" y1="29.9651" x2="24.0762" y2="25.7803">
					<stop  offset="0" style="stop-color:#FFE0B3"/>
					<stop  offset="1" style="stop-color:#FFBD6D"/>
				</linearGradient>
				<path class="st42" d="M24.1,30.2c-1.3,0-2.4-1.1-2.4-2.4c0-1.3,1.1-2.4,2.4-2.4c1.3,0,2.4,1.1,2.4,2.4
					C26.4,29.1,25.4,30.2,24.1,30.2L24.1,30.2z"/>
				<circle class="st21" cx="24.1" cy="27.8" r="2.1"/>
				<linearGradient id="SVGID_30_" gradientUnits="userSpaceOnUse" x1="24.0762" y1="26.8317" x2="24.0762" y2="29.0978">
					<stop  offset="0" style="stop-color:#664000"/>
					<stop  offset="1" style="stop-color:#6B4000"/>
				</linearGradient>
				<path class="st43" d="M24.1,29.1c-0.7,0-1.3-0.6-1.3-1.3c0-0.7,0.6-1.3,1.3-1.3c0.7,0,1.3,0.6,1.3,1.3
					C25.3,28.5,24.8,29.1,24.1,29.1L24.1,29.1z"/>
				<circle class="st21" cx="24.4" cy="27.1" r="0.3"/>
			</g>
			<g>
				<linearGradient id="SVGID_31_" gradientUnits="userSpaceOnUse" x1="30.9657" y1="29.9652" x2="30.9657" y2="25.7804">
					<stop  offset="0" style="stop-color:#FFE0B3"/>
					<stop  offset="1" style="stop-color:#FFBD6D"/>
				</linearGradient>
				<path class="st44" d="M31,30.3c-1.3,0-2.4-1.1-2.4-2.4c0-1.3,1.1-2.4,2.4-2.4c1.3,0,2.4,1.1,2.4,2.4
					C33.3,29.2,32.3,30.3,31,30.3L31,30.3z"/>
				<circle class="st21" cx="31" cy="27.9" r="2.1"/>
				<linearGradient id="SVGID_32_" gradientUnits="userSpaceOnUse" x1="31.0077" y1="26.9206" x2="31.0077" y2="28.9607">
					<stop  offset="0" style="stop-color:#664000"/>
					<stop  offset="1" style="stop-color:#6B4000"/>
				</linearGradient>
				<path class="st45" d="M31,29.2c-0.7,0-1.3-0.6-1.3-1.3c0-0.7,0.6-1.3,1.3-1.3c0.7,0,1.3,0.6,1.3,1.3
					C32.3,28.6,31.7,29.2,31,29.2L31,29.2z"/>
				<circle class="st21" cx="31.3" cy="27.1" r="0.3"/>
			</g>
		</g>
		<linearGradient id="SVGID_33_" gradientUnits="userSpaceOnUse" x1="28.1231" y1="35.9843" x2="28.1231" y2="32.9812">
			<stop  offset="0" style="stop-color:#FFA78C"/>
			<stop  offset="1" style="stop-color:#ED694A"/>
		</linearGradient>
		<path class="st46" d="M33,32.5c-1.1,0-8.6,0-9.8,0c-0.5,0-0.5,1.4,0.9,2.5c1.7,1.3,6.3,1.3,8,0.1C33.3,34.2,33.5,32.5,33,32.5z"/>
	</g>
</g>
</svg>
