<?xml version="1.0" encoding="utf-8"?>
<!-- Generator: Adobe Illustrator 19.2.0, SVG Export Plug-In . SVG Version: 6.00 Build 0)  -->
<svg version="1.1" id="圖層_1" xmlns="http://www.w3.org/2000/svg" xmlns:xlink="http://www.w3.org/1999/xlink" x="0px" y="0px"
	 viewBox="0 0 89 78" style="enable-background:new 0 0 89 78;" xml:space="preserve">
<style type="text/css">
	.st0{fill:url(#SVGID_1_);}
	.st1{fill:url(#SVGID_2_);}
	.st2{fill:url(#SVGID_3_);}
	.st3{fill:#BDC2C2;}
	.st4{fill:url(#SVGID_4_);}
	.st5{fill:url(#SVGID_5_);}
	.st6{fill:url(#SVGID_6_);}
	.st7{fill:url(#SVGID_7_);}
	.st8{fill:url(#SVGID_8_);}
	.st9{fill:url(#SVGID_9_);}
	.st10{fill:url(#SVGID_10_);}
	.st11{fill:url(#SVGID_11_);}
	.st12{fill:url(#SVGID_12_);}
	.st13{fill:#EAEDCF;}
	.st14{fill:#0094B3;}
	.st15{fill:#FFFFFF;}
	.st16{fill:#80CAD9;}
	.st17{fill:#9E9D9D;}
	.st18{fill:#424242;}
	.st19{fill:#E0E0E0;}
	.st20{fill:#4A4A4A;}
	.st21{fill:url(#SVGID_13_);}
	.st22{fill:url(#SVGID_14_);}
	.st23{fill:#1F1F1F;}
	.st24{fill:url(#SVGID_15_);}
	.st25{fill:url(#SVGID_16_);}
	.st26{fill:#BBC5CD;}
	.st27{fill:#595757;}
	.st28{fill:url(#SVGID_17_);}
	.st29{fill:url(#SVGID_18_);}
	.st30{fill:#F2F7FA;}
	.st31{fill:url(#SVGID_19_);}
	.st32{fill:url(#SVGID_20_);}
	.st33{fill:url(#SVGID_21_);}
	.st34{fill:url(#SVGID_22_);}
	.st35{fill:url(#SVGID_23_);}
	.st36{fill:url(#SVGID_24_);}
	.st37{fill:url(#SVGID_25_);}
	.st38{fill:url(#SVGID_26_);}
	.st39{fill:url(#SVGID_27_);}
	.st40{fill:url(#SVGID_28_);}
	.st41{fill:url(#SVGID_29_);}
	.st42{fill:url(#SVGID_30_);}
	.st43{fill:url(#SVGID_31_);}
	.st44{fill:#FFBD65;}
	.st45{fill:url(#SVGID_32_);}
	.st46{fill:url(#SVGID_33_);}
	.st47{fill:#9E6600;}
	.st48{fill:#FFC680;}
	.st49{fill:#FFD4AB;}
	.st50{fill:url(#SVGID_34_);}
	.st51{fill:#FFE0B3;}
	.st52{fill:url(#SVGID_35_);}
	.st53{fill:url(#SVGID_36_);}
	.st54{fill:url(#SVGID_37_);}
	.st55{fill:url(#SVGID_38_);}
	.st56{fill:url(#SVGID_39_);}
	.st57{fill:url(#SVGID_40_);}
	.st58{fill:url(#SVGID_41_);}
	.st59{fill:url(#SVGID_42_);}
	.st60{fill:url(#SVGID_43_);}
	.st61{fill:url(#SVGID_44_);}
	.st62{fill:url(#SVGID_45_);}
	.st63{fill:url(#SVGID_46_);}
	.st64{fill:url(#SVGID_47_);}
	.st65{fill:url(#SVGID_48_);}
	.st66{fill:url(#SVGID_49_);}
	.st67{fill:url(#SVGID_50_);}
	.st68{fill:url(#SVGID_51_);}
	.st69{fill:url(#SVGID_52_);}
	.st70{fill:url(#SVGID_53_);}
	.st71{fill:url(#SVGID_54_);}
	.st72{fill:url(#SVGID_55_);}
	.st73{fill:url(#SVGID_56_);}
	.st74{fill:url(#SVGID_57_);}
	.st75{fill:url(#SVGID_58_);}
	.st76{fill:url(#SVGID_59_);}
	.st77{fill:url(#SVGID_60_);}
	.st78{fill:url(#SVGID_61_);}
	.st79{fill:url(#SVGID_62_);}
	.st80{fill:url(#SVGID_63_);}
	.st81{fill:url(#SVGID_64_);}
	.st82{fill:url(#SVGID_65_);}
	.st83{fill:url(#SVGID_66_);}
	.st84{fill:url(#SVGID_67_);}
	.st85{fill:url(#SVGID_68_);}
	.st86{fill:url(#SVGID_69_);}
	.st87{fill:url(#SVGID_70_);}
	.st88{fill:url(#SVGID_71_);}
	.st89{fill:url(#SVGID_72_);}
	.st90{fill:url(#SVGID_73_);}
	.st91{fill:url(#SVGID_74_);}
	.st92{fill:url(#SVGID_75_);}
	.st93{fill:url(#SVGID_76_);}
	.st94{fill:url(#SVGID_77_);}
	.st95{fill:#8B8B8B;}
	.st96{fill:url(#SVGID_78_);}
	.st97{fill:url(#SVGID_79_);}
	.st98{fill:url(#SVGID_80_);}
	.st99{fill:url(#SVGID_81_);}
</style>
<g>
	
		<radialGradient id="SVGID_1_" cx="652.5333" cy="-10024.7393" r="15.8705" gradientTransform="matrix(1.7562 0 0 6.480000e-002 -1117.3616 713.5787)" gradientUnits="userSpaceOnUse">
		<stop  offset="0" style="stop-color:#C0C0C0"/>
		<stop  offset="1" style="stop-color:#FFFFFF"/>
	</radialGradient>
	<ellipse class="st0" cx="28.6" cy="64" rx="27.9" ry="1"/>
</g>
<g>
	
		<radialGradient id="SVGID_2_" cx="764.4641" cy="-9985.6377" r="15.8706" gradientTransform="matrix(1.3281 0 0 6.480000e-002 -965.2701 713.5787)" gradientUnits="userSpaceOnUse">
		<stop  offset="0" style="stop-color:#C0C0C0"/>
		<stop  offset="1" style="stop-color:#FFFFFF"/>
	</radialGradient>
	<ellipse class="st1" cx="50" cy="66.5" rx="21.1" ry="1"/>
</g>
<g>
	
		<radialGradient id="SVGID_3_" cx="1143.9552" cy="-10003.4844" r="15.8707" gradientTransform="matrix(0.8999 0 0 6.480000e-002 -956.4321 713.5787)" gradientUnits="userSpaceOnUse">
		<stop  offset="0" style="stop-color:#C0C0C0"/>
		<stop  offset="1" style="stop-color:#FFFFFF"/>
	</radialGradient>
	<ellipse class="st2" cx="73" cy="65.4" rx="14.3" ry="1"/>
</g>
<g>
	<g>
		<g>
			<rect x="10.4" y="51.8" class="st3" width="2" height="12.3"/>
			<rect x="6.2" y="51.8" class="st3" width="2" height="12.3"/>
		</g>
		<g>
			<rect x="44.6" y="51.8" class="st3" width="2" height="12.3"/>
			<rect x="40.4" y="51.8" class="st3" width="2" height="12.3"/>
		</g>
	</g>
	<linearGradient id="SVGID_4_" gradientUnits="userSpaceOnUse" x1="22.7865" y1="50.739" x2="53.1407" y2="50.739">
		<stop  offset="0" style="stop-color:#E7EAEB"/>
		<stop  offset="1" style="stop-color:#CCD3D9"/>
	</linearGradient>
	<rect x="3.5" y="49.7" class="st4" width="46" height="2.1"/>
	<linearGradient id="SVGID_5_" gradientUnits="userSpaceOnUse" x1="6.0779" y1="50.739" x2="10.198" y2="50.739">
		<stop  offset="0" style="stop-color:#E7EAEB"/>
		<stop  offset="1" style="stop-color:#CCD3D9"/>
	</linearGradient>
	<rect x="3.5" y="49.7" class="st5" width="6.2" height="2.1"/>
</g>
<linearGradient id="SVGID_6_" gradientUnits="userSpaceOnUse" x1="38.3758" y1="47.6339" x2="38.3758" y2="49.3579">
	<stop  offset="0" style="stop-color:#000000"/>
	<stop  offset="1" style="stop-color:#474747"/>
</linearGradient>
<path class="st6" d="M40.2,48.7c0-0.6-0.5-1.1-1.1-1.1h-1.6c-0.6,0-1.1,0.5-1.1,1.1v1h3.7V48.7z"/>
<g>
	<g>
		<g>
			<linearGradient id="SVGID_7_" gradientUnits="userSpaceOnUse" x1="24.4828" y1="49.8225" x2="24.4828" y2="43.0784">
				<stop  offset="0" style="stop-color:#505050"/>
				<stop  offset="1" style="stop-color:#9B9B9B"/>
			</linearGradient>
			<polygon class="st7" points="26.5,49.7 22.5,49.7 23.3,42.9 26.5,42.9 			"/>
			<linearGradient id="SVGID_8_" gradientUnits="userSpaceOnUse" x1="23.8892" y1="52.4712" x2="23.8892" y2="50.0151">
				<stop  offset="0" style="stop-color:#505050"/>
				<stop  offset="1" style="stop-color:#9B9B9B"/>
			</linearGradient>
			<rect x="21.3" y="48.7" class="st8" width="5.2" height="1"/>
			
				<linearGradient id="SVGID_9_" gradientUnits="userSpaceOnUse" x1="-2402.5193" y1="49.8225" x2="-2402.5193" y2="43.0784" gradientTransform="matrix(-1 0 0 1 -2374 0)">
				<stop  offset="0" style="stop-color:#505050"/>
				<stop  offset="1" style="stop-color:#9B9B9B"/>
			</linearGradient>
			<polygon class="st9" points="26.5,49.7 30.5,49.7 29.7,42.9 26.5,42.9 			"/>
			
				<linearGradient id="SVGID_10_" gradientUnits="userSpaceOnUse" x1="-2403.1128" y1="52.4712" x2="-2403.1128" y2="50.0151" gradientTransform="matrix(-1 0 0 1 -2374 0)">
				<stop  offset="0" style="stop-color:#505050"/>
				<stop  offset="1" style="stop-color:#9B9B9B"/>
			</linearGradient>
			<rect x="26.5" y="48.7" class="st10" width="5.2" height="1"/>
		</g>
		<linearGradient id="SVGID_11_" gradientUnits="userSpaceOnUse" x1="26.501" y1="44.6236" x2="26.501" y2="24.4214">
			<stop  offset="0" style="stop-color:#000000"/>
			<stop  offset="1" style="stop-color:#474747"/>
		</linearGradient>
		<path class="st11" d="M39.9,43.2c0,0.5-0.4,1-1,1H14c-0.5,0-1-0.4-1-1V27.5c0-0.5,0.4-1,1-1H39c0.5,0,1,0.4,1,1V43.2z"/>
		<linearGradient id="SVGID_12_" gradientUnits="userSpaceOnUse" x1="26.501" y1="28.5596" x2="26.501" y2="45.4104">
			<stop  offset="0" style="stop-color:#5FCEFF"/>
			<stop  offset="1" style="stop-color:#0082DF"/>
		</linearGradient>
		<rect x="14.3" y="27.8" class="st12" width="24.4" height="15.1"/>
	</g>
	<g>
		<g>
			<rect x="14.3" y="27.8" class="st13" width="24.4" height="15.1"/>
		</g>
		<g>
			<rect x="14.3" y="27.8" class="st14" width="24.4" height="1"/>
		</g>
		<circle class="st15" cx="19.3" cy="28.3" r="0.2"/>
		<circle class="st15" cx="19.9" cy="28.3" r="0.2"/>
		<circle class="st15" cx="20.6" cy="28.3" r="0.2"/>
	</g>
	<g>
		<g>
			<g>
				<rect x="27" y="30.1" class="st15" width="5.9" height="4.1"/>
				<g>
					<g>
						<rect x="27.3" y="30.7" class="st16" width="5.1" height="0.4"/>
						<rect x="27.3" y="30.7" class="st14" width="2.5" height="0.4"/>
						<rect x="31.5" y="30.7" class="st17" width="0.9" height="0.4"/>
					</g>
					<g>
						<rect x="27.3" y="31.3" class="st16" width="5.1" height="0.4"/>
						<rect x="27.3" y="31.3" class="st14" width="1" height="0.4"/>
						<rect x="30.7" y="31.3" class="st17" width="1.7" height="0.4"/>
					</g>
					<g>
						<rect x="27.3" y="32" class="st16" width="5.1" height="0.4"/>
						<rect x="27.3" y="32" class="st14" width="2" height="0.4"/>
						<rect x="31.3" y="32" class="st17" width="1.1" height="0.4"/>
					</g>
					<g>
						<rect x="27.3" y="32.7" class="st16" width="5.1" height="0.4"/>
						<rect x="27.3" y="32.7" class="st14" width="3.1" height="0.4"/>
						<rect x="31.9" y="32.7" class="st17" width="0.5" height="0.4"/>
					</g>
					<g>
						<rect x="27.3" y="33.3" class="st16" width="5.1" height="0.4"/>
						<rect x="27.3" y="33.3" class="st14" width="1.2" height="0.4"/>
						<rect x="30.8" y="33.3" class="st17" width="1.6" height="0.4"/>
					</g>
				</g>
			</g>
			<g>
				<rect x="20" y="30.1" class="st15" width="5.9" height="4.1"/>
				<polygon class="st16" points="25.4,30.8 24.9,30.7 24.4,31.2 23.9,31.4 23.4,31.7 22.9,31.6 22.4,31.8 21.9,32.5 21.4,32.2 
					20.9,31.8 20.4,33.1 20.4,33.6 25.4,33.6 				"/>
				<polygon class="st14" points="25.4,32.2 24.9,32.2 24.4,31.8 23.9,32.7 23.4,32.2 22.9,32.5 22.4,32.3 21.9,32.8 21.4,33.1 
					20.9,33 20.4,33.3 20.4,33.6 25.4,33.6 				"/>
				<g>
					<rect x="20.4" y="31" class="st18" width="5" height="0"/>
					<rect x="20.4" y="31.5" class="st18" width="5" height="0"/>
					<rect x="20.4" y="32" class="st18" width="5" height="0"/>
					<rect x="20.4" y="32.5" class="st18" width="5" height="0"/>
					<rect x="20.4" y="33" class="st18" width="5" height="0"/>
				</g>
				<g>
					<rect x="21.4" y="33.6" class="st18" width="0" height="0.3"/>
					<rect x="21.9" y="33.6" class="st18" width="0" height="0.3"/>
					<rect x="22.4" y="33.6" class="st18" width="0" height="0.3"/>
					<rect x="22.9" y="33.6" class="st18" width="0" height="0.3"/>
					<rect x="23.4" y="33.6" class="st18" width="0" height="0.3"/>
					<rect x="23.9" y="33.6" class="st18" width="0" height="0.3"/>
					<rect x="24.4" y="33.6" class="st18" width="0" height="0.3"/>
					<rect x="24.9" y="33.6" class="st18" width="0" height="0.3"/>
					<rect x="20.9" y="33.6" class="st18" width="0" height="0.3"/>
				</g>
				<polygon class="st18" points="25.4,33.6 20.3,33.6 20.3,30.5 20.5,30.5 20.5,33.5 25.4,33.5 				"/>
			</g>
		</g>
		<g>
			<g>
				<path class="st19" d="M26.5,41.6c-1.5,0-2.7-1.2-2.7-2.7c0-1.5,1.2-2.7,2.7-2.7c1.5,0,2.7,1.2,2.7,2.7
					C29.3,40.4,28,41.6,26.5,41.6z M26.5,36.1c-1.5,0-2.7,1.2-2.7,2.7c0,1.5,1.2,2.7,2.7,2.7c1.5,0,2.7-1.2,2.7-2.7
					C29.2,37.4,28,36.1,26.5,36.1z"/>
				<path class="st19" d="M26,41.5C26,41.5,25.9,41.5,26,41.5C25.9,41.5,25.9,41.5,26,41.5c0.1-0.1,0.3-0.2,0.5-0.5
					c0.6-0.9,1-2.1,1.1-3c0.1-0.7,0.1-1.3,0-1.7c0,0,0,0,0,0c0,0,0,0,0,0c0.1,0.4,0.1,1,0,1.7c-0.1,0.9-0.5,2.1-1.1,3
					C26.3,41.4,26.1,41.5,26,41.5C26,41.5,26,41.5,26,41.5z"/>
				<path class="st19" d="M26.7,41.6C26.7,41.6,26.7,41.6,26.7,41.6c-0.1-0.1-0.1-0.2-0.2-0.4c0,0,0-0.1,0-0.1
					c-0.1-0.3-0.4-2.4-0.4-3.2c0-0.7,0-1.5,0-1.7c0,0,0,0,0,0c0,0,0,0,0,0c-0.1,0.2-0.1,1,0,1.7c0,0.8,0.3,2.8,0.4,3.1
					c0,0,0,0.1,0,0.1C26.6,41.4,26.7,41.5,26.7,41.6C26.7,41.5,26.7,41.6,26.7,41.6C26.7,41.6,26.7,41.6,26.7,41.6z"/>
				<path class="st19" d="M25.4,41.3c-0.1,0-0.1,0-0.2,0c0,0,0,0,0,0c0,0,0,0,0,0c0.3,0,0.9-0.1,1.3-0.2c0.4-0.2,1.1-0.6,1.6-1.3
					c0.5-0.6,0.9-1.3,0.8-2.3c0,0,0,0,0,0c0,0,0,0,0,0c0.1,1-0.3,1.7-0.8,2.3c-0.5,0.7-1.2,1.1-1.6,1.3
					C26.2,41.2,25.8,41.3,25.4,41.3z"/>
				<path class="st19" d="M26.3,41.1c-0.6,0-1.4-0.2-2-0.6c0,0,0,0,0,0c0,0,0,0,0,0c0.7,0.5,1.6,0.7,2.2,0.6c0.5,0,1.4-0.3,1.7-0.6
					c0.4-0.3,0.8-0.6,0.9-1.2c0,0,0,0,0,0c0,0,0,0,0,0c-0.2,0.6-0.6,0.9-1,1.2c-0.4,0.3-1.2,0.6-1.8,0.6
					C26.4,41,26.4,41.1,26.3,41.1z"/>
				<path class="st19" d="M27.2,41.1c-0.2,0-0.5,0-0.7-0.1c-0.5-0.1-1.1-0.4-1.8-1c-0.7-0.6-0.9-1.4-0.9-1.6c0,0,0,0,0,0
					c0,0,0,0,0,0c0,0.2,0.2,1,0.9,1.6c0.7,0.6,1.2,0.9,1.8,1c0.7,0.2,1.3,0.1,1.9-0.2c0,0,0,0,0,0s0,0,0,0
					C28.1,41,27.7,41.1,27.2,41.1z"/>
				<path class="st19" d="M27.4,41.4C27.4,41.4,27.4,41.4,27.4,41.4c-0.3,0-0.6-0.2-0.9-0.4c-0.4-0.3-1.1-1.1-1.5-1.9
					c-0.5-1.1-0.6-1.9-0.2-2.4c0,0,0,0,0,0c0,0,0,0,0,0c-0.3,0.5-0.2,1.3,0.2,2.4c0.4,0.8,1.1,1.6,1.4,1.9
					C26.9,41.2,27.2,41.4,27.4,41.4C27.5,41.4,27.5,41.4,27.4,41.4C27.5,41.4,27.5,41.4,27.4,41.4z"/>
				<path class="st19" d="M26.5,41.4c-0.5,0-0.8-0.2-0.8-0.5c0-0.3,0.4-0.5,0.8-0.5c0.5,0,0.8,0.2,0.8,0.5
					C27.4,41.2,27,41.4,26.5,41.4z M26.5,40.5c-0.4,0-0.8,0.2-0.8,0.5c0,0.3,0.4,0.5,0.8,0.5c0.4,0,0.8-0.2,0.8-0.5
					C27.3,40.7,26.9,40.5,26.5,40.5z"/>
				<path class="st19" d="M26.5,41.6c-0.9,0-1.6-0.4-1.6-1c0-0.5,0.7-1,1.6-1c0.9,0,1.6,0.4,1.6,1C28.1,41.1,27.4,41.6,26.5,41.6z
					 M26.5,39.7c-0.9,0-1.5,0.4-1.5,0.9c0,0.5,0.7,0.9,1.5,0.9s1.5-0.4,1.5-0.9C28,40.1,27.3,39.7,26.5,39.7z"/>
				<path class="st19" d="M26.5,41.6c-1,0-2.1-0.6-2.1-1.4c0-0.8,1-1.4,2.1-1.4c1.2,0,2.1,0.6,2.1,1.4
					C28.7,40.9,27.7,41.6,26.5,41.6z M26.5,38.8c-1.2,0-2.1,0.6-2.1,1.4c0,0.8,1.1,1.4,2.1,1.4c1.1,0,2.1-0.6,2.1-1.4
					C28.6,39.4,27.7,38.8,26.5,38.8z"/>
				<path class="st19" d="M26.5,41.6c-1.2,0-2.4-0.9-2.5-1.9c-0.1-0.3,0-0.7,0.3-1c0.5-0.5,1.3-0.9,2.2-0.9c0.9,0,1.8,0.3,2.2,0.9
					c0.3,0.3,0.4,0.7,0.3,1.1C28.8,40.7,27.9,41.6,26.5,41.6z M26.5,37.9c-0.9,0-1.7,0.3-2.2,0.9c-0.2,0.3-0.3,0.6-0.3,0.9
					c0.2,1,1.3,1.8,2.5,1.8c1.3,0,2.2-0.9,2.4-1.7c0.1-0.4,0-0.8-0.2-1.1C28.3,38.2,27.4,37.9,26.5,37.9z"/>
				<path class="st19" d="M29.2,39.5C29.2,39.5,29.2,39.5,29.2,39.5C29.2,39.5,29.2,39.5,29.2,39.5c0.1-0.6,0-1-0.4-1.4
					c-0.5-0.6-1.3-0.9-2.3-0.9c-0.9,0-1.8,0.4-2.3,1c-0.3,0.4-0.5,0.8-0.4,1.2c0,0,0,0,0,0c0,0,0,0,0,0c-0.1-0.4,0.1-0.9,0.4-1.3
					c0.5-0.6,1.4-1,2.3-1c0.9,0,1.8,0.4,2.3,1C29.2,38.5,29.3,39,29.2,39.5C29.2,39.5,29.2,39.5,29.2,39.5z"/>
				<path class="st19" d="M29.2,39C29.2,39,29.2,39,29.2,39C29.2,39,29.2,39,29.2,39c0.1-0.6,0-1-0.4-1.4c-0.5-0.6-1.3-0.9-2.3-0.9
					c-0.9,0-1.8,0.4-2.3,1c-0.3,0.4-0.5,0.8-0.4,1.2c0,0,0,0,0,0c0,0,0,0,0,0c-0.1-0.4,0.1-0.9,0.4-1.3c0.5-0.6,1.4-1,2.3-1
					c0.9,0,1.8,0.4,2.3,1C29.2,37.9,29.3,38.4,29.2,39C29.2,39,29.2,39,29.2,39z"/>
			</g>
			<g>
				<path class="st14" d="M26.5,41.7c-1.6,0-2.9-1.3-2.9-2.9c0-1.6,1.3-2.9,2.9-2.9c1.6,0,2.9,1.3,2.9,2.9
					C29.4,40.4,28.1,41.7,26.5,41.7z M26.5,36.3c-1.4,0-2.5,1.1-2.5,2.5s1.1,2.5,2.5,2.5c1.4,0,2.5-1.1,2.5-2.5S27.9,36.3,26.5,36.3
					z"/>
				<path class="st14" d="M25.5,41.4C25.5,41.4,25.5,41.4,25.5,41.4c-0.2-0.4-0.2-1-0.1-1.7c0.1-0.9,0.5-2.1,1.1-3
					c0.2-0.4,0.5-0.5,0.6-0.5c0,0,0,0,0,0s0,0,0,0c-0.1,0-0.3,0.1-0.5,0.5c-0.6,0.9-1,2.1-1.1,3C25.4,40.3,25.4,41,25.5,41.4
					C25.5,41.4,25.5,41.4,25.5,41.4C25.5,41.4,25.5,41.4,25.5,41.4z"/>
				<path class="st14" d="M26.9,41.6C26.9,41.6,26.9,41.6,26.9,41.6C26.9,41.6,26.9,41.5,26.9,41.6c0-0.3,0-1,0-1.8
					c0-0.8-0.3-2.8-0.4-3.1c0,0,0-0.1,0-0.1c-0.1-0.2-0.1-0.3-0.1-0.4c0,0,0,0,0,0c0,0,0,0,0,0c0.1,0.1,0.1,0.2,0.2,0.4
					c0,0,0,0.1,0,0.1c0.1,0.3,0.4,2.4,0.4,3.2C27,40.5,27,41.3,26.9,41.6C27,41.5,26.9,41.6,26.9,41.6z"/>
				<path class="st14" d="M24.2,40.3C24.2,40.3,24.2,40.3,24.2,40.3c-0.2-1,0.3-1.7,0.7-2.3c0.5-0.7,1.2-1.1,1.6-1.3
					c0.4-0.2,1-0.3,1.3-0.2c0,0,0,0,0,0c0,0,0,0,0,0c-0.3,0-0.9,0.1-1.3,0.2c-0.4,0.2-1.1,0.6-1.6,1.3
					C24.5,38.6,24.1,39.3,24.2,40.3C24.2,40.3,24.2,40.3,24.2,40.3C24.2,40.3,24.2,40.3,24.2,40.3z"/>
				<path class="st14" d="M23.8,38.5C23.8,38.5,23.8,38.5,23.8,38.5C23.8,38.5,23.8,38.5,23.8,38.5c0.1-0.6,0.6-0.9,0.9-1.2
					c0.4-0.3,1.2-0.6,1.8-0.6c0.6,0,1.6,0.1,2.2,0.6c0,0,0,0,0,0c0,0,0,0,0,0c-0.7-0.5-1.6-0.7-2.2-0.6c-0.5,0-1.4,0.3-1.7,0.6
					C24.4,37.6,24,37.9,23.8,38.5C23.9,38.5,23.9,38.5,23.8,38.5z"/>
				<path class="st14" d="M29.2,39.3C29.2,39.3,29.2,39.2,29.2,39.3c-0.1-0.3-0.2-1-0.9-1.6c-0.7-0.6-1.2-0.9-1.8-1
					c-0.7-0.2-1.3-0.1-1.9,0.2c0,0,0,0,0,0c0,0,0,0,0,0c0.5-0.3,1.2-0.4,1.9-0.2c0.5,0.1,1.1,0.4,1.8,1C29.1,38.2,29.2,39,29.2,39.3
					C29.3,39.2,29.2,39.3,29.2,39.3C29.2,39.3,29.2,39.3,29.2,39.3z"/>
				<path class="st14" d="M28.2,41C28.2,41,28.2,41,28.2,41C28.2,41,28.2,41,28.2,41c0.3-0.5,0.2-1.3-0.3-2.4
					c-0.4-0.8-1.1-1.6-1.4-1.9c-0.3-0.2-0.6-0.4-0.9-0.4c0,0,0,0,0,0c0,0,0,0,0,0c0.3,0,0.6,0.2,0.9,0.4c0.4,0.3,1.1,1.1,1.5,1.9
					C28.5,39.7,28.6,40.5,28.2,41C28.2,41,28.2,41,28.2,41z"/>
				<path class="st14" d="M26.5,37.3c-0.5,0-0.8-0.2-0.8-0.5c0-0.3,0.4-0.5,0.8-0.5c0.5,0,0.8,0.2,0.8,0.5
					C27.4,37.1,27,37.3,26.5,37.3z M26.5,36.3c-0.4,0-0.8,0.2-0.8,0.5c0,0.3,0.4,0.5,0.8,0.5c0.4,0,0.8-0.2,0.8-0.5
					C27.3,36.5,27,36.3,26.5,36.3z"/>
				<path class="st14" d="M26.6,38.1c-0.9,0-1.6-0.4-1.6-1c0-0.5,0.7-1,1.6-1c0.9,0,1.6,0.4,1.6,1C28.2,37.6,27.4,38.1,26.6,38.1z
					 M26.6,36.1c-0.9,0-1.5,0.4-1.5,0.9c0,0.5,0.7,0.9,1.5,0.9c0.9,0,1.5-0.4,1.5-0.9C28.1,36.6,27.4,36.1,26.6,36.1z"/>
				<path class="st14" d="M26.5,39c-1.2,0-2.1-0.6-2.1-1.4c0-0.8,1-1.4,2.1-1.4c1,0,2.1,0.6,2.1,1.4C28.7,38.3,27.7,39,26.5,39z
					 M26.5,36.1c-1.1,0-2.1,0.6-2.1,1.4c0,0.8,0.9,1.4,2.1,1.4c1.2,0,2.1-0.6,2.1-1.4C28.6,36.8,27.5,36.1,26.5,36.1z"/>
				<path class="st14" d="M26.5,39.8c-0.9,0-1.8-0.3-2.2-0.9c-0.3-0.3-0.4-0.7-0.3-1.1c0.2-0.9,1.1-1.7,2.5-1.7
					c1.2,0,2.4,0.9,2.5,1.9c0.1,0.3,0,0.7-0.3,1C28.3,39.5,27.4,39.8,26.5,39.8z M26.5,36.1c-1.3,0-2.2,0.9-2.4,1.7
					c-0.1,0.4,0,0.8,0.2,1.1c0.4,0.5,1.3,0.9,2.2,0.9c0.9,0,1.7-0.3,2.2-0.9c0.2-0.3,0.3-0.6,0.3-0.9C28.8,37,27.7,36.1,26.5,36.1z"
					/>
				<path class="st14" d="M26.5,40.6c-0.9,0-1.8-0.4-2.3-1c-0.3-0.4-0.5-0.9-0.4-1.5c0,0,0,0,0,0c0,0,0,0,0,0c-0.1,0.5,0,1,0.3,1.4
					C24.7,40.2,25.6,40.5,26.5,40.6c0.9-0.1,1.8-0.4,2.3-1c0.3-0.4,0.5-0.8,0.4-1.2c0,0,0,0,0,0c0,0,0,0,0,0
					c0.1,0.4-0.1,0.9-0.4,1.3C28.3,40.2,27.4,40.6,26.5,40.6z"/>
				<path class="st14" d="M26.5,41.1c-0.9,0-1.8-0.4-2.3-1c-0.3-0.4-0.5-0.9-0.4-1.5c0,0,0,0,0,0c0,0,0,0,0,0c-0.1,0.5,0,1,0.3,1.4
					C24.7,40.7,25.6,41.1,26.5,41.1c0.9-0.1,1.8-0.4,2.3-1c0.3-0.4,0.5-0.8,0.4-1.2c0,0,0,0,0,0c0,0,0,0,0,0
					c0.1,0.4-0.1,0.9-0.4,1.3C28.3,40.8,27.4,41.1,26.5,41.1z"/>
			</g>
			<circle class="st14" cx="29" cy="36.7" r="0.1"/>
			<circle class="st14" cx="23.7" cy="37.2" r="0.1"/>
			<circle class="st14" cx="23.2" cy="38.4" r="0.1"/>
			<circle class="st14" cx="23.4" cy="40.2" r="0.1"/>
			<circle class="st14" cx="29.7" cy="39.9" r="0.1"/>
			<circle class="st14" cx="29" cy="41.2" r="0.1"/>
			<polygon class="st14" points="29,36.7 29,36.6 29.5,36.1 30.3,36.1 30.3,36.2 29.5,36.2 			"/>
			<polygon class="st14" points="29.7,39.9 29.6,39.8 30.1,39.4 30.3,39.4 30.3,39.4 30.1,39.4 			"/>
			<polygon class="st14" points="23.1,40.7 22.5,40.7 22.5,40.7 23.1,40.7 23.4,40.1 23.5,40.2 			"/>
			<rect x="22.5" y="38.4" class="st14" width="0.6" height="0.1"/>
			<polygon class="st14" points="23.7,37.2 23.3,36.7 22.5,36.7 22.5,36.6 23.3,36.6 23.7,37.2 			"/>
			<polygon class="st14" points="29,41.2 28.9,41.1 29.3,40.7 30.3,40.7 30.3,40.8 29.3,40.8 			"/>
			<rect x="30.4" y="40.6" class="st17" width="2.5" height="0.4"/>
			<rect x="30.4" y="39.3" class="st17" width="2.5" height="0.4"/>
			<rect x="20" y="36.4" class="st17" width="2.5" height="0.4"/>
			<rect x="20" y="38.2" class="st17" width="2.5" height="0.4"/>
			<rect x="20" y="40.5" class="st17" width="2.5" height="0.4"/>
			<rect x="30.4" y="36" class="st17" width="2.5" height="0.4"/>
		</g>
	</g>
</g>
<g>
	<path class="st20" d="M68.9,63.5c-0.3,0.4-1.2,0.8-1.6,1c-0.4,0.1-1.7,0.3-2.4,0.3c-0.7,0-0.9,0.7-0.4,1c0.5,0.2,2.1,0.4,2.8,0.1
		c0.6-0.3,1.8-0.6,2-0.7c0.1,0.2,0,0.4,0,0.4s2-0.2,1.9-0.6c0-0.4-0.1-1.6-0.1-1.6L68.9,63.5z"/>
	<path class="st20" d="M77.8,63.5c0.3,0.4,1.2,0.8,1.6,1c0.4,0.1,1.7,0.3,2.4,0.3c0.7,0,0.9,0.7,0.4,1c-0.5,0.2-2.1,0.4-2.8,0.1
		c-0.6-0.3-1.8-0.6-2-0.7c-0.1,0.2,0,0.4,0,0.4s-2-0.2-1.9-0.6c0-0.4,0.1-1.6,0.1-1.6L77.8,63.5z"/>
	<g>
		<linearGradient id="SVGID_13_" gradientUnits="userSpaceOnUse" x1="69.8531" y1="53.1716" x2="69.8531" y2="59.2813">
			<stop  offset="0" style="stop-color:#000000"/>
			<stop  offset="1" style="stop-color:#474747"/>
		</linearGradient>
		<path class="st21" d="M67.9,55.1c0,2,0.1,5.1,0.2,7.9c0.4,0,3.8,0,3.8,0c-0.2-3-0.5-5.9-0.5-7.8C71.4,53.3,67.9,53.8,67.9,55.1z"
			/>
		<linearGradient id="SVGID_14_" gradientUnits="userSpaceOnUse" x1="76.9897" y1="53.1717" x2="76.9897" y2="59.2813">
			<stop  offset="0" style="stop-color:#000000"/>
			<stop  offset="1" style="stop-color:#474747"/>
		</linearGradient>
		<path class="st22" d="M79,55c0,2-0.1,5.1-0.2,7.9c-0.4,0-3.8,0-3.8,0c0.2-3,0.5-5.9,0.5-7.8C75.5,53.2,79,53.7,79,55z"/>
		<polygon class="st23" points="67.7,62.3 67.8,63.7 72.1,63.6 72.1,62.4 		"/>
		<polygon class="st23" points="79.1,62.3 79,63.7 74.7,63.6 74.8,62.4 		"/>
	</g>
	<g>
		<g>
			
				<linearGradient id="SVGID_15_" gradientUnits="userSpaceOnUse" x1="160.845" y1="688.5432" x2="160.845" y2="694.6156" gradientTransform="matrix(1 1.070000e-002 -1.070000e-002 1 -79.9678 -637.0162)">
				<stop  offset="0" style="stop-color:#000000"/>
				<stop  offset="1" style="stop-color:#474747"/>
			</linearGradient>
			<path class="st24" d="M65.3,52.4c0,0.9,0.1,2.5,2.2,2.8c2.1,0.3,10,0.3,11.6,0.1c1.6-0.2,2.5-1.3,2.5-2.7
				C79.4,52.6,67.1,52.4,65.3,52.4z"/>
			
				<linearGradient id="SVGID_16_" gradientUnits="userSpaceOnUse" x1="160.8396" y1="677.133" x2="160.8396" y2="687.2192" gradientTransform="matrix(1 1.070000e-002 -1.070000e-002 1 -79.9678 -637.0162)">
				<stop  offset="0" style="stop-color:#E7EAEB"/>
				<stop  offset="1" style="stop-color:#CCD3D9"/>
			</linearGradient>
			<path class="st25" d="M79.5,39.1L76,38.7l-8.8-0.5C66.3,45,65,51.9,65.3,52.4c1.9,0.4,14.4,0.5,16.3,0.2
				C82,52.1,80.7,42.8,79.5,39.1z"/>
			<path class="st26" d="M72.8,43.1c-0.4,0.1-0.9,0.1-1.4-0.1c0.2,4-0.8,5.9-1.4,8.3c0.7,0.6,2,1.9,2,1.9s1.3-1.1,2-1.7
				C74.5,48.6,74.1,46.4,72.8,43.1z"/>
			<path class="st27" d="M75.3,52.5l-3.8,0c-2.9,0-5.5-0.1-6.2-0.1c0,0.1,0,0.3,0,0.5c1.4,0.2,4.4,0.4,6.2,0.4l3.8,0
				c1.8,0,5-0.1,6.3-0.3c0-0.2,0-0.3,0.1-0.5C80.8,52.6,78.2,52.6,75.3,52.5z"/>
			<g>
				<path class="st15" d="M71.5,52.5c-0.9,0-1.7,0-2.5,0l0,0.8c0.9,0,1.8,0.1,2.5,0.1l1.3,0l0-0.9L71.5,52.5z"/>
			</g>
			<g>
				<g>
					<path class="st26" d="M69.9,40.8l6.3,0.7l0.2,0.6c0,0-3,1.5-3.3,1.6c-0.3,0.1-0.8,0-1-0.1c-0.2-0.2-2.7-2.3-2.7-2.3L69.9,40.8z
						"/>
				</g>
				<g>
					<path class="st26" d="M72.3,39l-1.7-0.2l-3.9-0.5c-0.2,0.9-0.3,1.8-0.4,2.6c0.8,1,1.8,1.7,3.5,2.8C70.4,41.9,72.3,39,72.3,39z"
						/>
				</g>
				<g>
					<linearGradient id="SVGID_17_" gradientUnits="userSpaceOnUse" x1="71.9388" y1="53.5951" x2="71.8363" y2="48.7812">
						<stop  offset="0" style="stop-color:#BFE6FF"/>
						<stop  offset="0.107" style="stop-color:#B8E4FD"/>
						<stop  offset="0.263" style="stop-color:#A4DDF9"/>
						<stop  offset="0.4491" style="stop-color:#85D3F1"/>
						<stop  offset="0.6584" style="stop-color:#58C5E6"/>
						<stop  offset="0.8842" style="stop-color:#20B2D9"/>
						<stop  offset="1" style="stop-color:#00A8D1"/>
					</linearGradient>
					<path class="st28" d="M68.6,40l6.3,0.7l0.2,0.6c0,0-3,1.5-3.3,1.6c-0.3,0.1-0.8,0-1-0.1c-0.2-0.2-2.7-2.3-2.7-2.3L68.6,40z"/>
					<linearGradient id="SVGID_18_" gradientUnits="userSpaceOnUse" x1="71.0424" y1="53.6139" x2="70.94" y2="48.8002">
						<stop  offset="0" style="stop-color:#BFE6FF"/>
						<stop  offset="0.107" style="stop-color:#B8E4FD"/>
						<stop  offset="0.263" style="stop-color:#A4DDF9"/>
						<stop  offset="0.4491" style="stop-color:#85D3F1"/>
						<stop  offset="0.6584" style="stop-color:#58C5E6"/>
						<stop  offset="0.8842" style="stop-color:#20B2D9"/>
						<stop  offset="1" style="stop-color:#00A8D1"/>
					</linearGradient>
					<path class="st29" d="M72.2,42.8c-0.4,0.1-0.9,0.1-1.4-0.2c-0.1,3.8-0.8,5.9-2,8c0.6,0.6,1.8,1.9,1.8,1.9s1.3-0.7,2-1.3
						C73.5,48.6,73.1,46,72.2,42.8z"/>
				</g>
				<path class="st30" d="M79.1,38.9c0.7-0.1,2.1,1.6,2.1,1.6c-1,0.7-4,2.2-7.1,2.5c-0.5-1.5-1.8-4-1.8-4S77.6,39.1,79.1,38.9z"/>
				<path class="st30" d="M66.7,38.3c-0.3,0.4-0.6,1.3-0.6,1.3c0.6,0.8,1.6,1.9,3.4,2.9c0.8-1.4,2.8-3.5,2.8-3.5
					S67.4,37.4,66.7,38.3z"/>
			</g>
			<g>
				
					<linearGradient id="SVGID_19_" gradientUnits="userSpaceOnUse" x1="413.2248" y1="1475.101" x2="413.2248" y2="1464.5132" gradientTransform="matrix(0.9915 0.1305 -0.1305 0.9915 -150.3201 -1468.8009)">
					<stop  offset="0" style="stop-color:#000000"/>
					<stop  offset="1" style="stop-color:#474747"/>
				</linearGradient>
				<path class="st31" d="M68.6,38.5c0,0,1.2,7.6,1.1,9c-0.2,2.2-0.9,4.7-1.5,6.5c-2.3,0-4.6-1-4.6-1s1.1-6,1.3-7.9
					c0.2-1.9,0-5.6,0.7-5.8C66.3,39,68.1,38.6,68.6,38.5z"/>
				
					<linearGradient id="SVGID_20_" gradientUnits="userSpaceOnUse" x1="534.6336" y1="1818.491" x2="534.6336" y2="1812.5688" gradientTransform="matrix(0.964 0.2659 -0.2659 0.964 36.4784 -1851.5624)">
					<stop  offset="0" style="stop-color:#000000"/>
					<stop  offset="1" style="stop-color:#474747"/>
				</linearGradient>
				<path class="st32" d="M69.1,38.8c0.1,1,1,7.3,0.5,8.8c-0.3-0.8-2.6-5.1-2.6-5.1l1.5-0.6L66.8,41c0,0,0.4-2.7,0.7-2.9
					C67.9,37.9,69.1,37.9,69.1,38.8z"/>
				
					<linearGradient id="SVGID_21_" gradientUnits="userSpaceOnUse" x1="3765.4604" y1="1407.6702" x2="3764.7227" y2="1403.8938" gradientTransform="matrix(-0.9967 -8.150000e-002 -8.150000e-002 0.9967 3932.8916 -1045.6415)">
					<stop  offset="0" style="stop-color:#000000"/>
					<stop  offset="1" style="stop-color:#474747"/>
				</linearGradient>
				<path class="st33" d="M67,48.4c0,0.2-0.1,0.6-0.2,0.7c-0.6-0.1-2.2-0.4-2.5-0.5c0.1-0.2,0.2-0.8,0.2-0.8
					C65.1,48.1,66.4,48.2,67,48.4z"/>
			</g>
			<g>
				<g>
					
						<linearGradient id="SVGID_22_" gradientUnits="userSpaceOnUse" x1="421.7791" y1="1564.7902" x2="421.7791" y2="1549.1732" gradientTransform="matrix(0.9937 0.1121 -0.1121 0.9937 -166.4041 -1549.4189)">
						<stop  offset="0" style="stop-color:#000000"/>
						<stop  offset="1" style="stop-color:#474747"/>
					</linearGradient>
					<path class="st34" d="M77.8,39.4c-1.3-0.2-4.8,6.4-4.9,7.7c-0.1,1.8,0,5.7,0.6,7.3c3.6,0.3,7.4-0.1,8.6-0.6
						c-0.2-2.5-0.8-4.2-0.7-8.3c0.1-2.2,1.3-4.7,0.2-5.3C80.4,39.5,78.8,39.6,77.8,39.4z"/>
					
						<linearGradient id="SVGID_23_" gradientUnits="userSpaceOnUse" x1="889.4999" y1="2465.3474" x2="889.4999" y2="2459.2173" gradientTransform="matrix(0.8837 0.468 -0.468 0.8837 443.3205 -2551.1057)">
						<stop  offset="0" style="stop-color:#000000"/>
						<stop  offset="1" style="stop-color:#474747"/>
					</linearGradient>
					<path class="st35" d="M76.8,39.4c-1.1,0.9-3.1,4.3-3.9,7.8c1.4-1.5,3.9-2.6,3.9-2.6L76,43.2l1.4,0.3c0,0,2.4-4.4,2-4.4
						C79,39,77.6,38.7,76.8,39.4z"/>
				</g>
				
					<linearGradient id="SVGID_24_" gradientUnits="userSpaceOnUse" x1="567.7162" y1="1948.8776" x2="566.8483" y2="1944.4363" gradientTransform="matrix(0.9666 0.2566 -0.2566 0.9666 27.8363 -1976.6775)">
					<stop  offset="0" style="stop-color:#000000"/>
					<stop  offset="1" style="stop-color:#474747"/>
				</linearGradient>
				<path class="st36" d="M74.5,49.7c0,0.2,0,0.6,0,0.8c0.7,0.2,4,0.7,4.4,0.7c0-0.3,0.1-0.8,0.1-0.8C78.2,50.3,75.3,49.8,74.5,49.7
					z"/>
			</g>
		</g>
		<linearGradient id="SVGID_25_" gradientUnits="userSpaceOnUse" x1="78.5703" y1="47.2403" x2="83.062" y2="36.0876">
			<stop  offset="0" style="stop-color:#000000"/>
			<stop  offset="1" style="stop-color:#474747"/>
		</linearGradient>
		<path class="st37" d="M82.7,42.1c-0.6,2.2-2,5.1-2.6,5.8c-0.4,0.5-0.8,0.8-1.3,0.8c-1.5,0-2.7-1.3-1.8-3.2c0.9-2,1.6-3.7,2.1-4.5
			C80.6,38.9,83.1,40.5,82.7,42.1z"/>
		<g>
			
				<linearGradient id="SVGID_26_" gradientUnits="userSpaceOnUse" x1="703.9076" y1="-99.6571" x2="704.5648" y2="-96.6338" gradientTransform="matrix(-0.9928 0.1202 0.1202 0.9928 786.4155 56.8388)">
				<stop  offset="0" style="stop-color:#FFE0B3"/>
				<stop  offset="1" style="stop-color:#FFAB63"/>
			</linearGradient>
			<path class="st38" d="M73.5,45.3c-0.4-0.5-0.8-1.1-0.7-1.7c0.1-1.1,2.2-1.5,3.1-1.6c1.4-0.2,2.6,0.7,2.3,2.2
				c-0.1,0.5-0.3,1-0.7,1.3c-0.7,0.4-1.8,0.1-2.6,0.2C74.3,45.7,74,45.9,73.5,45.3C73.5,45.4,73.5,45.3,73.5,45.3z"/>
		</g>
		<linearGradient id="SVGID_27_" gradientUnits="userSpaceOnUse" x1="66.329" y1="44.932" x2="74.7254" y2="43.8857">
			<stop  offset="0" style="stop-color:#000000"/>
			<stop  offset="1" style="stop-color:#474747"/>
		</linearGradient>
		<path class="st39" d="M74,41.9c0.1,0.6,0.5,3.1,0.7,4.2c-0.9,0.1-8.5,0.9-9.6,1c-2.1,0.1-2.5-2.9-0.1-3.5
			C66.5,43.1,72.3,42,74,41.9z"/>
		<linearGradient id="SVGID_28_" gradientUnits="userSpaceOnUse" x1="65.0589" y1="45.1685" x2="65.1236" y2="38.8315">
			<stop  offset="0" style="stop-color:#000000"/>
			<stop  offset="1" style="stop-color:#474747"/>
		</linearGradient>
		<path class="st40" d="M64.3,40.6c-0.7,2.2-1.2,4.1-1.1,4.6c0.5,2.6,3.6,2.2,3.8-0.6c0.2-2.2-0.3-2.8-0.4-3.7
			C66.4,38.5,64.8,39,64.3,40.6z"/>
		<g>
			
				<linearGradient id="SVGID_29_" gradientUnits="userSpaceOnUse" x1="-339.4148" y1="56.3057" x2="-338.7468" y2="59.3786" gradientTransform="matrix(0.9925 0.1226 -0.1226 0.9925 413.3655 27.9174)">
				<stop  offset="0" style="stop-color:#FFE0B3"/>
				<stop  offset="1" style="stop-color:#FFAB63"/>
			</linearGradient>
			<path class="st41" d="M72.2,44.6c0.3-1.5-1.1-1.6-1.4-2c-1.6-2.4-4.4,0.2-3.3,0.4c1,0.2,1,2,2.9,2.3
				C71.5,45.5,71.9,45.6,72.2,44.6z"/>
			
				<linearGradient id="SVGID_30_" gradientUnits="userSpaceOnUse" x1="-562.9612" y1="327.2066" x2="-553.1866" y2="325.6754" gradientTransform="matrix(0.9476 0.3195 -0.3195 0.9476 756.6687 -77.1046)">
				<stop  offset="0" style="stop-color:#000000"/>
				<stop  offset="1" style="stop-color:#474747"/>
			</linearGradient>
			<path class="st42" d="M70.9,42.4c-0.2,0.5-1,2.3-1.3,3.8c0.9,0.3,7.6,2.1,8.7,2.4c1.8,0.5,3-2.6,0.7-3.5
				C77.5,44.7,72.5,43,70.9,42.4z"/>
		</g>
		<linearGradient id="SVGID_31_" gradientUnits="userSpaceOnUse" x1="76.8588" y1="42.5251" x2="77.0943" y2="45.0485">
			<stop  offset="0" style="stop-color:#FFE0B3"/>
			<stop  offset="1" style="stop-color:#FFAB63"/>
		</linearGradient>
		<path class="st43" d="M75.6,44.8c0.2,0.3,0.7,0.2,0.9,0c0,0,0.2,0.3,0.2,0.3c0.3,0.2,0.8,0.3,0.9-0.1c0,0,0.2,0.3,0.5,0.3
			c0.4,0,0.7-0.3,0.7-0.6c0.1-0.9-0.9-2.3-1.8-2.5c-0.3,0-0.7,0.1-0.9,0.2c-0.4,0.2-0.8,0.7-1,1c-0.2,0.3,0,0.3,0.1,0.6
			C75.5,44.3,75.5,44.6,75.6,44.8z"/>
		<g>
			<g>
				<g>
					<path class="st44" d="M68.2,27.5l-0.7,6.1c-1.5,0.1-4-0.5-3.7-3.5C64.2,27.2,66.7,26.9,68.2,27.5z"/>
				</g>
			</g>
			
				<linearGradient id="SVGID_32_" gradientUnits="userSpaceOnUse" x1="27006.7871" y1="-1878.9255" x2="27006.7871" y2="-1873.6329" gradientTransform="matrix(0.9943 0.106 -0.106 0.9943 -26977.5508 -959.3259)">
				<stop  offset="0" style="stop-color:#FFE0B3"/>
				<stop  offset="1" style="stop-color:#FFCF95"/>
			</linearGradient>
			<path class="st45" d="M82.5,35.4c0.6-2.5,3.4-11.7,2.3-12.7c-2.4-2-16.1-3.9-17-2.7c-1,1.4-1.7,5.7-2.1,9
				c-0.4,3.6-0.4,8.3,0.1,9.6c0.6,1.4,11.4,3,12.8,2.4C79.8,40.5,81.8,37.8,82.5,35.4z"/>
			<linearGradient id="SVGID_33_" gradientUnits="userSpaceOnUse" x1="73.663" y1="39.4724" x2="73.5043" y2="35.1886">
				<stop  offset="0" style="stop-color:#FFA78C"/>
				<stop  offset="1" style="stop-color:#ED7A57"/>
			</linearGradient>
			<path class="st46" d="M71.1,35.2c0-0.2,4.7-0.4,4.8-0.1s-1.1,3.4-2.9,3.5C72.4,38.6,71.1,35.5,71.1,35.2z"/>
			<path class="st47" d="M77.3,25.2c0.1,0,0.3-0.1,0.3-0.2c0.1-0.2,0.1-0.5-0.1-0.6c-0.5-0.3-2.3-0.6-2.9-0.6
				c-0.3,0-0.5,0.2-0.5,0.5c0,0.3,0.2,0.5,0.5,0.5c0.6,0,2.1,0.3,2.4,0.5C77.1,25.2,77.2,25.2,77.3,25.2z"/>
			<path class="st47" d="M70.9,24.1c0.2,0,0.4-0.1,0.4-0.3c0.1-0.2-0.1-0.5-0.3-0.6c-0.5-0.2-2.1-0.4-2.7-0.3
				C68.1,23,68,23.3,68,23.5c0.1,0.2,0.3,0.4,0.6,0.3c0.3-0.1,1.6,0.1,2.2,0.3C70.8,24.1,70.9,24.1,70.9,24.1z"/>
			<g>
				<path class="st48" d="M71.9,32.1c-1.1-0.4-2.1,0-2.4,0.7c-0.3,0.8,0.7,1.2,1.6,1.4C69.3,33.5,70.6,31.9,71.9,32.1z"/>
			</g>
			<ellipse transform="matrix(0.106 -0.9944 0.9944 0.106 37.2262 108.135)" class="st49" cx="78.8" cy="33.4" rx="1.1" ry="1.9"/>
			
				<linearGradient id="SVGID_34_" gradientUnits="userSpaceOnUse" x1="96.2426" y1="119.8069" x2="98.9532" y2="131.6477" gradientTransform="matrix(0.9979 -6.420000e-002 6.420000e-002 0.9979 -31.5663 -100.22)">
				<stop  offset="0" style="stop-color:#FFB81F"/>
				<stop  offset="1" style="stop-color:#9F6C00"/>
			</linearGradient>
			<path class="st50" d="M84.7,21.5c0.4-9.6-15.4-1.3-12.8-8.3c-4.5,1.6-5,5.2-5.4,7.4c-0.6,2.8-0.9,6.9-0.7,8.4
				c0.2-1.9,1.3-6.7,1.8-8.3c1.2,0.1,9.3,0.8,14.5,2.4c-2.5,4.6-0.1,7-0.9,11.1c0.8,0,1.2-0.1,1.2-0.1s0.3-3.8,0.7-4.7
				c0.7-0.1,1-0.3,1.9-0.1C86.9,24.8,87.2,23,84.7,21.5z"/>
			<g>
				<g>
					<path class="st51" d="M83.1,29.3l-0.6,6c1.5,0.4,5.1,0.4,5.4-2.5C88.2,29.9,86.1,28.7,83.1,29.3z"/>
				</g>
				<path class="st44" d="M83.4,30.8c0.7-0.3,3,0.2,2.9,1.9c-0.2,1.7-2.8,1.5-3.4,1.2C83,32.7,83.4,30.8,83.4,30.8z"/>
			</g>
			<g>
				
					<linearGradient id="SVGID_35_" gradientUnits="userSpaceOnUse" x1="24862.3867" y1="-4542.5986" x2="24862.3867" y2="-4546.0068" gradientTransform="matrix(0.9934 0.1137 -0.1137 0.9934 -25146.5645 1717.3724)">
					<stop  offset="0" style="stop-color:#FFE0B3"/>
					<stop  offset="1" style="stop-color:#FFBD6D"/>
				</linearGradient>
				<path class="st52" d="M68.2,31.8c-1.1-0.1-1.8-1.1-1.7-2.1c0.1-1.1,1.1-1.8,2.1-1.7c1.1,0.1,1.8,1.1,1.7,2.1
					C70.2,31.2,69.3,31.9,68.2,31.8L68.2,31.8z"/>
				
					<linearGradient id="SVGID_36_" gradientUnits="userSpaceOnUse" x1="24868.6113" y1="-4542.6582" x2="24868.6113" y2="-4546.0659" gradientTransform="matrix(0.9934 0.1137 -0.1137 0.9934 -25146.5645 1717.3724)">
					<stop  offset="0" style="stop-color:#FFE0B3"/>
					<stop  offset="1" style="stop-color:#FFBD6D"/>
				</linearGradient>
				<path class="st53" d="M74.4,32.5c-1.1-0.1-1.8-1.1-1.7-2.1c0.1-1.1,1.1-1.8,2.1-1.7c1.1,0.1,1.8,1.1,1.7,2.1
					C76.4,31.8,75.4,32.6,74.4,32.5L74.4,32.5z"/>
				
					<ellipse transform="matrix(0.1136 -0.9935 0.9935 0.1136 30.9611 94.4616)" class="st15" cx="68.4" cy="29.9" rx="1.7" ry="1.7"/>
				
					<linearGradient id="SVGID_37_" gradientUnits="userSpaceOnUse" x1="24862.1387" y1="-4545.2183" x2="24862.1387" y2="-4543.3721" gradientTransform="matrix(0.9934 0.1137 -0.1137 0.9934 -25146.5645 1717.3724)">
					<stop  offset="0" style="stop-color:#664000"/>
					<stop  offset="1" style="stop-color:#6B4000"/>
				</linearGradient>
				<path class="st54" d="M68.1,30.8c-0.6-0.1-1-0.6-0.9-1.1c0.1-0.6,0.6-1,1.1-0.9c0.6,0.1,1,0.6,0.9,1.1
					C69.1,30.5,68.6,30.9,68.1,30.8L68.1,30.8z"/>
				
					<ellipse transform="matrix(0.1131 -0.9936 0.9936 0.1131 31.7444 93.9951)" class="st15" cx="68.5" cy="29.2" rx="0.2" ry="0.2"/>
				
					<ellipse transform="matrix(0.1137 -0.9935 0.9935 0.1137 35.744 101.2219)" class="st15" cx="74.6" cy="30.6" rx="1.7" ry="1.7"/>
				
					<linearGradient id="SVGID_38_" gradientUnits="userSpaceOnUse" x1="24868.3965" y1="-4545.2046" x2="24868.3965" y2="-4543.543" gradientTransform="matrix(0.9934 0.1137 -0.1137 0.9934 -25146.5645 1717.3724)">
					<stop  offset="0" style="stop-color:#664000"/>
					<stop  offset="1" style="stop-color:#6B4000"/>
				</linearGradient>
				<path class="st55" d="M74.3,31.5c-0.6-0.1-1-0.6-0.9-1.1c0.1-0.6,0.6-1,1.1-0.9c0.6,0.1,1,0.6,0.9,1.1
					C75.4,31.2,74.9,31.6,74.3,31.5L74.3,31.5z"/>
				
					<ellipse transform="matrix(0.1135 -0.9935 0.9935 0.1135 36.5755 100.7245)" class="st15" cx="74.7" cy="29.9" rx="0.2" ry="0.2"/>
			</g>
		</g>
	</g>
</g>
<g>
	<linearGradient id="SVGID_39_" gradientUnits="userSpaceOnUse" x1="34.858" y1="40.2797" x2="35.1922" y2="42.675">
		<stop  offset="0" style="stop-color:#FFE0B3"/>
		<stop  offset="1" style="stop-color:#FFAB63"/>
	</linearGradient>
	<path class="st56" d="M33,41.7c-0.8-0.5-1.2-1.6-0.1-1.6c0.2-0.2,1-0.4,1.9,0.6c0.3-0.1,0.8,0.3,1.1,0.7c0.3,0.4,0.9,0.9,1.6,1.4
		c0.8,0.5,0,2.7-1.3,2C35.1,44.1,34,42.3,33,41.7z"/>
	<linearGradient id="SVGID_40_" gradientUnits="userSpaceOnUse" x1="34.6979" y1="39.5839" x2="34.3454" y2="40.5006">
		<stop  offset="0" style="stop-color:#FFE0B3"/>
		<stop  offset="1" style="stop-color:#FFAB63"/>
	</linearGradient>
	<path class="st57" d="M33,40.1c0.4,0.3,1.8,1.8,2.2,2.2C34.9,41.8,33.5,40.4,33,40.1z"/>
	<linearGradient id="SVGID_41_" gradientUnits="userSpaceOnUse" x1="36.3345" y1="40.1795" x2="35.9772" y2="41.1086">
		<stop  offset="0" style="stop-color:#FFE0B3"/>
		<stop  offset="1" style="stop-color:#FFAB63"/>
	</linearGradient>
	<path class="st58" d="M34.9,40.7c0.4,0.5,1.5,1.8,1.7,2.1C36.5,42.3,35.4,41.2,34.9,40.7z"/>
	<linearGradient id="SVGID_42_" gradientUnits="userSpaceOnUse" x1="34.4599" y1="41.4477" x2="35.0805" y2="45.8956">
		<stop  offset="0" style="stop-color:#FFE0B3"/>
		<stop  offset="1" style="stop-color:#FFAB63"/>
	</linearGradient>
	<path class="st59" d="M34.7,44.7c-0.6-0.4-0.7-0.9-1.2-1.4c-0.4-0.3-1.1-0.5-1.7-0.7c-0.4-0.1-0.8-0.1-0.8-0.6
		c0-0.4,0.4-0.7,0.7-0.8c0.6-0.1,2.5,0.5,3.1,0.8c0.5,0.2,1.1,0.2,2,0.4c0.8,0.2,1.6,1.3,1.7,1.5c0.2,0.3-0.5,2.3-1.3,2
		C36.6,45.9,35.9,45.4,34.7,44.7z"/>
	<g>
		
			<linearGradient id="SVGID_43_" gradientUnits="userSpaceOnUse" x1="1347.1957" y1="215.962" x2="1347.3544" y2="218.0255" gradientTransform="matrix(1 -4.000000e-003 4.000000e-003 1 -1302.9525 -181.9836)">
			<stop  offset="0" style="stop-color:#FFE0B3"/>
			<stop  offset="1" style="stop-color:#FFCF95"/>
		</linearGradient>
		<path class="st60" d="M46.6,30.9c0,0-2.7,4.3-2.6,4.9c0.2,0.6,2.7,0.6,2.7,0.6S47.3,29.7,46.6,30.9z"/>
		
			<linearGradient id="SVGID_44_" gradientUnits="userSpaceOnUse" x1="1350.6029" y1="209.1558" x2="1350.6029" y2="214.8621" gradientTransform="matrix(1 -4.000000e-003 4.000000e-003 1 -1302.9525 -181.9836)">
			<stop  offset="0" style="stop-color:#5C3600"/>
			<stop  offset="1" style="stop-color:#6B4000"/>
		</linearGradient>
		<path class="st61" d="M46.2,23.1c-0.6-0.4-0.9-2.6-0.2-3.4c0.2,0.7,1.5,2.3,2.7,2.5c-0.5-0.5-0.5-1.6,0.2-2.2
			c0.2,0.5,1.3,1.5,2.4,1.7C52.4,21.9,47.3,23.9,46.2,23.1z"/>
		
			<linearGradient id="SVGID_45_" gradientUnits="userSpaceOnUse" x1="166.6289" y1="205.2676" x2="166.6289" y2="211.237" gradientTransform="matrix(0.9991 4.240000e-002 -4.240000e-002 0.9991 -104.1944 -183.6774)">
			<stop  offset="0" style="stop-color:#FFE0B3"/>
			<stop  offset="1" style="stop-color:#FFCF95"/>
		</linearGradient>
		<path class="st62" d="M61.2,29.1c-1.3-5.1-4.8-6.3-8.8-6.2c-2.3,0.1-6.4,0.1-6.7,3.5c-0.6,6.3-2.1,13.8,1.2,15
			c6.6,2.3,10.3,5.2,10.3,5.2l3-3.1c0,0,0.5-2.5,0.5-4C61,37,62.5,34.2,61.2,29.1z"/>
		
			<linearGradient id="SVGID_46_" gradientUnits="userSpaceOnUse" x1="1355.9908" y1="226.915" x2="1355.9908" y2="211.7215" gradientTransform="matrix(1 -4.000000e-003 4.000000e-003 1 -1302.9525 -181.9836)">
			<stop  offset="0" style="stop-color:#664000"/>
			<stop  offset="1" style="stop-color:#6B4000"/>
		</linearGradient>
		<path class="st63" d="M45.8,26.4c2,1.2,2.1,5.8,1.9,7.2c0.4,0.1,1,0.2,1.3,0.2c0.1-0.6,0.3-3.5,2.1-3.2c1.8,0.3,1.8,4.4,0.3,5.8
			c1,1.1,3.2,3.4,9.2,3.1c1-0.1,3.4-2.9,3.6-7.4c0.3-5.1-0.8-8.1-3-9.7c-2.4-1.7-6.1-2.3-8.8-1.3c-2.2,0.8-3.5,2-5.9,1.5
			c-0.7-0.1-2.4-1-2.5-2.1C42.9,22.6,43.3,24.9,45.8,26.4z"/>
	</g>
	
		<linearGradient id="SVGID_47_" gradientUnits="userSpaceOnUse" x1="1508.0264" y1="-336.9944" x2="1508.0264" y2="-335.7383" gradientTransform="matrix(0.994 -0.1096 0.1096 0.994 -1406.2626 545.0458)">
		<stop  offset="0" style="stop-color:#000000"/>
		<stop  offset="1" style="stop-color:#474747"/>
	</linearGradient>
	<path class="st64" d="M50.1,45.7c-0.4-3.4,7.8-5.7,11-4.4c0.4,0.2-0.1,3.4-0.1,3.9C60.9,45.8,50.2,46.9,50.1,45.7z"/>
	<g>
		<g>
			<path class="st20" d="M39.5,64.1c-0.2,0.4-1.1,1.1-1.7,1.2c-0.5,0-0.6,0.4-0.2,0.7c0.3,0.3,1.8,0.2,2.3-0.1c0,0.2,0,0.4,0,0.4
				s2-0.1,2.5-0.1c0-0.4-0.1-2.2-0.1-2.2L39.5,64.1z"/>
			
				<linearGradient id="SVGID_48_" gradientUnits="userSpaceOnUse" x1="1172.5834" y1="57.8723" x2="1172.5834" y2="61.3177" gradientTransform="matrix(1 0 0 1 -1128.0859 0)">
				<stop  offset="0" style="stop-color:#000000"/>
				<stop  offset="1" style="stop-color:#474747"/>
			</linearGradient>
			<path class="st65" d="M47.8,55.7c-6.7,0-7.6,1.5-8.7,7.9c1,0.1,2.9,0,2.9,0c1-4.8,0.9-5.3,6.9-5.3C50.9,58.3,49.1,55.7,47.8,55.7
				z"/>
			<polygon class="st23" points="38.3,62.9 38.2,64.3 42.8,64.2 43,62.9 			"/>
		</g>
		<g>
			<path class="st20" d="M45.3,64.1c-0.2,0.4-1.1,1.1-1.7,1.2c-0.5,0-0.6,0.4-0.2,0.7c0.3,0.3,1.8,0.2,2.3-0.1c0,0.2,0,0.4,0,0.4
				s2-0.1,2.5-0.1c0-0.4-0.1-2.2-0.1-2.2L45.3,64.1z"/>
			
				<linearGradient id="SVGID_49_" gradientUnits="userSpaceOnUse" x1="1178.3986" y1="57.8723" x2="1178.3986" y2="61.3177" gradientTransform="matrix(1 0 0 1 -1128.0859 0)">
				<stop  offset="0" style="stop-color:#000000"/>
				<stop  offset="1" style="stop-color:#474747"/>
			</linearGradient>
			<path class="st66" d="M53.6,55.7c-6.7,0-7.6,1.5-8.7,7.9c1,0.1,2.9,0,2.9,0c1-4.8,0.9-5.3,6.9-5.3C56.7,58.3,55,55.7,53.6,55.7z"
				/>
			<polygon class="st23" points="44.1,62.9 44,64.3 48.6,64.2 48.8,62.9 			"/>
		</g>
		
			<linearGradient id="SVGID_50_" gradientUnits="userSpaceOnUse" x1="1181.0375" y1="57.3648" x2="1181.0375" y2="63.4939" gradientTransform="matrix(1 0 0 1 -1128.0859 0)">
			<stop  offset="0" style="stop-color:#000000"/>
			<stop  offset="1" style="stop-color:#474747"/>
		</linearGradient>
		<path class="st67" d="M46.4,55.5c0,0.9,0.1,2.6,2,2.8c1.8,0.2,7.6,0.2,9,0c1.4-0.2,2.2-1.3,2.2-2.8C57.5,55.5,47.9,55.5,46.4,55.5
			z"/>
		
			<linearGradient id="SVGID_51_" gradientUnits="userSpaceOnUse" x1="-1087.7805" y1="57.8501" x2="-1087.7805" y2="45.8488" gradientTransform="matrix(1 0 -0.3958 1 1161.9095 0)">
			<stop  offset="0" style="stop-color:#000000"/>
			<stop  offset="1" style="stop-color:#474747"/>
		</linearGradient>
		<path class="st68" d="M62,42.9c-2.1-1.1-11,0.3-13.3,1.5c-1.6,0.8-1.9,8.9-3.1,12c1.4,0,14.4,0,14.4,0C62,50.5,62.6,43.2,62,42.9z
			"/>
		
			<linearGradient id="SVGID_52_" gradientUnits="userSpaceOnUse" x1="1183.6362" y1="54.2641" x2="1183.6362" y2="56.8379" gradientTransform="matrix(1 0 0 1 -1128.0859 0)">
			<stop  offset="0" style="stop-color:#5FCEFF"/>
			<stop  offset="1" style="stop-color:#0082DF"/>
		</linearGradient>
		<path class="st69" d="M63.3,59.9c0,0.4-0.3,0.7-0.7,0.7H48.5c-0.4,0-0.7-0.3-0.7-0.7V59c0-0.4,0.3-0.7,0.7-0.7h14.1
			c0.4,0,0.7,0.3,0.7,0.7V59.9z"/>
		<g>
			
				<linearGradient id="SVGID_53_" gradientUnits="userSpaceOnUse" x1="813.4459" y1="40.0446" x2="813.4459" y2="64.5615" gradientTransform="matrix(1 0 -0.1209 1 -748.1873 0)">
				<stop  offset="0" style="stop-color:#5FCEFF"/>
				<stop  offset="1" style="stop-color:#0082DF"/>
			</linearGradient>
			<path class="st70" d="M65,57c0.9-7.8-0.4-9.9-5.1-9.8c-4.7-0.1-7.3,2.4-8.2,9.8c-0.3,2.2,2.2,2.6,6.7,2.6l0,0c0,0,0,0,0,0
				c0,0,0,0,0,0l0,0C62.9,59.7,64.7,59.2,65,57z"/>
			
				<linearGradient id="SVGID_54_" gradientUnits="userSpaceOnUse" x1="814.3825" y1="74.4489" x2="814.3825" y2="32.7116" gradientTransform="matrix(1 0 -0.1209 1 -748.1873 0)">
				<stop  offset="0" style="stop-color:#000000"/>
				<stop  offset="1" style="stop-color:#474747"/>
			</linearGradient>
			<path class="st71" d="M64.6,56.9c0.9-7.1-0.1-9-3.9-8.9c-3.8-0.1-5.8,2.2-6.7,8.9c-0.2,2,1.7,2.4,5.3,2.4l0,0c0,0,0,0,0,0
				c0,0,0,0,0,0l0,0C62.9,59.3,64.4,58.9,64.6,56.9z"/>
		</g>
		<g>
			<g>
				
					<linearGradient id="SVGID_55_" gradientUnits="userSpaceOnUse" x1="1186.6307" y1="67.2607" x2="1186.6307" y2="64.6172" gradientTransform="matrix(1 0 0 1 -1128.0859 0)">
					<stop  offset="0" style="stop-color:#505050"/>
					<stop  offset="1" style="stop-color:#9B9B9B"/>
				</linearGradient>
				<path class="st72" d="M58.1,65.5c0,0.3,0,0.8,0.2,0.8c0.1,0,0.2,0,0.3,0c0.2,0,0.3-0.4,0.3-0.8c0-0.5-0.2-0.8-0.3-0.8
					c-0.1,0-0.2,0-0.3,0S58.1,65.3,58.1,65.5z"/>
				
					<linearGradient id="SVGID_56_" gradientUnits="userSpaceOnUse" x1="1186.3267" y1="66.2884" x2="1186.3267" y2="63.6449" gradientTransform="matrix(1 0 0 1 -1128.0859 0)">
					<stop  offset="0" style="stop-color:#505050"/>
					<stop  offset="1" style="stop-color:#9B9B9B"/>
				</linearGradient>
				<path class="st73" d="M57.8,65.5c0,0.3,0,0.8,0.2,0.8c0.1,0,0.2,0,0.3,0c0.2,0,0.3-0.4,0.3-0.8c0-0.5-0.2-0.8-0.3-0.8
					c-0.1,0-0.2,0-0.3,0C57.9,64.7,57.8,65.3,57.8,65.5z"/>
				
					<linearGradient id="SVGID_57_" gradientUnits="userSpaceOnUse" x1="1186.0226" y1="67.2607" x2="1186.0226" y2="64.6172" gradientTransform="matrix(1 0 0 1 -1128.0859 0)">
					<stop  offset="0" style="stop-color:#505050"/>
					<stop  offset="1" style="stop-color:#9B9B9B"/>
				</linearGradient>
				<path class="st74" d="M57.5,65.5c0,0.3,0,0.8,0.2,0.8c0.1,0,0.2,0,0.3,0c0.2,0,0.3-0.4,0.3-0.8c0-0.5-0.2-0.8-0.3-0.8
					c-0.1,0-0.2,0-0.3,0C57.6,64.7,57.5,65.3,57.5,65.5z"/>
				
					<linearGradient id="SVGID_58_" gradientUnits="userSpaceOnUse" x1="613.058" y1="63.8868" x2="613.058" y2="66.4257" gradientTransform="matrix(-1 0 0 1 670.7695 0)">
					<stop  offset="0" style="stop-color:#505050"/>
					<stop  offset="1" style="stop-color:#9B9B9B"/>
				</linearGradient>
				<ellipse class="st75" cx="57.7" cy="65.5" rx="0.3" ry="0.8"/>
			</g>
			<g>
				
					<linearGradient id="SVGID_59_" gradientUnits="userSpaceOnUse" x1="1181.04" y1="67.2607" x2="1181.04" y2="64.6172" gradientTransform="matrix(1 0 0 1 -1128.0859 0)">
					<stop  offset="0" style="stop-color:#505050"/>
					<stop  offset="1" style="stop-color:#9B9B9B"/>
				</linearGradient>
				<path class="st76" d="M52.5,65.5c0,0.3,0,0.8,0.2,0.8c0.1,0,0.2,0,0.3,0c0.2,0,0.3-0.4,0.3-0.8c0-0.5-0.2-0.8-0.3-0.8
					c-0.1,0-0.2,0-0.3,0S52.5,65.3,52.5,65.5z"/>
				
					<linearGradient id="SVGID_60_" gradientUnits="userSpaceOnUse" x1="1180.736" y1="66.2884" x2="1180.736" y2="63.6449" gradientTransform="matrix(1 0 0 1 -1128.0859 0)">
					<stop  offset="0" style="stop-color:#505050"/>
					<stop  offset="1" style="stop-color:#9B9B9B"/>
				</linearGradient>
				<path class="st77" d="M52.2,65.5c0,0.3,0,0.8,0.2,0.8c0.1,0,0.2,0,0.3,0c0.2,0,0.3-0.4,0.3-0.8c0-0.5-0.2-0.8-0.3-0.8
					c-0.1,0-0.2,0-0.3,0C52.3,64.7,52.2,65.3,52.2,65.5z"/>
				
					<linearGradient id="SVGID_61_" gradientUnits="userSpaceOnUse" x1="1180.4318" y1="67.2607" x2="1180.4318" y2="64.6172" gradientTransform="matrix(1 0 0 1 -1128.0859 0)">
					<stop  offset="0" style="stop-color:#505050"/>
					<stop  offset="1" style="stop-color:#9B9B9B"/>
				</linearGradient>
				<path class="st78" d="M51.9,65.5c0,0.3,0,0.8,0.2,0.8c0.1,0,0.2,0,0.3,0c0.2,0,0.3-0.4,0.3-0.8c0-0.5-0.2-0.8-0.3-0.8
					c-0.1,0-0.2,0-0.3,0C52,64.7,51.9,65.3,51.9,65.5z"/>
				
					<linearGradient id="SVGID_62_" gradientUnits="userSpaceOnUse" x1="618.6488" y1="63.8868" x2="618.6488" y2="66.4257" gradientTransform="matrix(-1 0 0 1 670.7695 0)">
					<stop  offset="0" style="stop-color:#505050"/>
					<stop  offset="1" style="stop-color:#9B9B9B"/>
				</linearGradient>
				<ellipse class="st79" cx="52.1" cy="65.5" rx="0.3" ry="0.8"/>
			</g>
			
				<linearGradient id="SVGID_63_" gradientUnits="userSpaceOnUse" x1="613.98" y1="63.3955" x2="613.98" y2="66.3683" gradientTransform="matrix(-1 0 0 1 670.7695 0)">
				<stop  offset="0" style="stop-color:#505050"/>
				<stop  offset="1" style="stop-color:#9B9B9B"/>
			</linearGradient>
			<polygon class="st80" points="58.1,64.7 55.5,65.3 55.5,63.7 58.1,64.2 			"/>
		</g>
		<g>
			<g>
				
					<linearGradient id="SVGID_64_" gradientUnits="userSpaceOnUse" x1="1183.3428" y1="62.1845" x2="1183.3428" y2="68.8248" gradientTransform="matrix(1 0 0 1 -1128.0859 0)">
					<stop  offset="0" style="stop-color:#000000"/>
					<stop  offset="1" style="stop-color:#474747"/>
				</linearGradient>
				<rect x="54.1" y="60.6" class="st81" width="2.3" height="3.6"/>
				
					<linearGradient id="SVGID_65_" gradientUnits="userSpaceOnUse" x1="1183.3428" y1="59.5947" x2="1183.3428" y2="63.0397" gradientTransform="matrix(1 0 0 1 -1128.0859 0)">
					<stop  offset="0" style="stop-color:#000000"/>
					<stop  offset="1" style="stop-color:#474747"/>
				</linearGradient>
				<rect x="53.7" y="60.6" class="st82" width="3.1" height="1.9"/>
				<g>
					
						<linearGradient id="SVGID_66_" gradientUnits="userSpaceOnUse" x1="1180.5745" y1="67.0559" x2="1180.5745" y2="69.5949" gradientTransform="matrix(1 0 0 1 -1128.0859 0)">
						<stop  offset="0" style="stop-color:#000000"/>
						<stop  offset="1" style="stop-color:#474747"/>
					</linearGradient>
					<polygon class="st83" points="49.5,65.1 55.5,65.1 55.5,63.6 49.5,64.6 					"/>
					
						<linearGradient id="SVGID_67_" gradientUnits="userSpaceOnUse" x1="1177.6097" y1="67.0559" x2="1177.6097" y2="69.5947" gradientTransform="matrix(1 0 0 1 -1128.0859 0)">
						<stop  offset="0" style="stop-color:#000000"/>
						<stop  offset="1" style="stop-color:#474747"/>
					</linearGradient>
					<circle class="st84" cx="49.5" cy="65.9" r="0.8"/>
					
						<linearGradient id="SVGID_68_" gradientUnits="userSpaceOnUse" x1="425.555" y1="67.0559" x2="425.555" y2="69.5949" gradientTransform="matrix(-1 0 0 1 483.9727 0)">
						<stop  offset="0" style="stop-color:#000000"/>
						<stop  offset="1" style="stop-color:#474747"/>
					</linearGradient>
					<polygon class="st85" points="61.4,65.1 55.5,65.1 55.5,63.6 61.4,64.6 					"/>
					
						<linearGradient id="SVGID_69_" gradientUnits="userSpaceOnUse" x1="422.5905" y1="67.0559" x2="422.5905" y2="69.5947" gradientTransform="matrix(-1 0 0 1 483.9727 0)">
						<stop  offset="0" style="stop-color:#000000"/>
						<stop  offset="1" style="stop-color:#474747"/>
					</linearGradient>
					<circle class="st86" cx="61.4" cy="65.9" r="0.8"/>
				</g>
				<g>
					
						<linearGradient id="SVGID_70_" gradientUnits="userSpaceOnUse" x1="1182.8613" y1="66.0816" x2="1182.8613" y2="66.9824" gradientTransform="matrix(1 0 0 1 -1128.0859 0)">
						<stop  offset="0" style="stop-color:#000000"/>
						<stop  offset="1" style="stop-color:#474747"/>
					</linearGradient>
					<rect x="54.5" y="64.9" class="st87" width="0.5" height="0.5"/>
					
						<linearGradient id="SVGID_71_" gradientUnits="userSpaceOnUse" x1="1183.3473" y1="63.4316" x2="1183.3473" y2="66.4044" gradientTransform="matrix(1 0 0 1 -1128.0859 0)">
						<stop  offset="0" style="stop-color:#000000"/>
						<stop  offset="1" style="stop-color:#474747"/>
					</linearGradient>
					<polygon class="st88" points="55,65.4 55.5,65.4 55.5,63.7 55,64.9 					"/>
					
						<linearGradient id="SVGID_72_" gradientUnits="userSpaceOnUse" x1="1183.1064" y1="63.2312" x2="1183.1064" y2="65.3033" gradientTransform="matrix(1 0 0 1 -1128.0859 0)">
						<stop  offset="0" style="stop-color:#000000"/>
						<stop  offset="1" style="stop-color:#474747"/>
					</linearGradient>
					<polygon class="st89" points="54.5,64.9 55,64.9 55.5,63.7 55,63.7 					"/>
					<g>
						
							<linearGradient id="SVGID_73_" gradientUnits="userSpaceOnUse" x1="1182.348" y1="68.4656" x2="1182.348" y2="66.1645" gradientTransform="matrix(1 0 0 1 -1128.0859 0)">
							<stop  offset="0" style="stop-color:#000000"/>
							<stop  offset="1" style="stop-color:#474747"/>
						</linearGradient>
						<path class="st90" d="M54.7,66.2c0,0.3,0,0.8-0.2,0.8c-0.2,0-0.4,0-0.5,0c-0.1,0-0.3-0.4-0.3-0.8c0-0.5,0.1-0.8,0.3-0.8
							c0.1,0,0.3,0,0.5,0C54.7,65.4,54.7,66,54.7,66.2z"/>
						
							<linearGradient id="SVGID_74_" gradientUnits="userSpaceOnUse" x1="1182.8153" y1="68.1379" x2="1182.8153" y2="64.8154" gradientTransform="matrix(1 0 0 1 -1128.0859 0)">
							<stop  offset="0" style="stop-color:#000000"/>
							<stop  offset="1" style="stop-color:#474747"/>
						</linearGradient>
						<path class="st91" d="M55.2,66.2c0,0.3,0,0.8-0.2,0.8c-0.2,0-0.4,0-0.5,0c-0.1,0-0.3-0.4-0.3-0.8c0-0.5,0.1-0.8,0.3-0.8
							c0.1,0,0.3,0,0.5,0C55.2,65.4,55.2,66,55.2,66.2z"/>
						
							<linearGradient id="SVGID_75_" gradientUnits="userSpaceOnUse" x1="1183.2827" y1="68.4656" x2="1183.2827" y2="66.1645" gradientTransform="matrix(1 0 0 1 -1128.0859 0)">
							<stop  offset="0" style="stop-color:#000000"/>
							<stop  offset="1" style="stop-color:#474747"/>
						</linearGradient>
						<path class="st92" d="M55.6,66.2c0,0.3,0,0.8-0.2,0.8c-0.2,0-0.4,0-0.5,0c-0.1,0-0.3-0.4-0.3-0.8c0-0.5,0.1-0.8,0.3-0.8
							c0.1,0,0.3,0,0.5,0C55.6,65.4,55.6,66,55.6,66.2z"/>
						
							<linearGradient id="SVGID_76_" gradientUnits="userSpaceOnUse" x1="1183.5624" y1="67.348" x2="1183.5624" y2="69.8869" gradientTransform="matrix(1 0 0 1 -1128.0859 0)">
							<stop  offset="0" style="stop-color:#000000"/>
							<stop  offset="1" style="stop-color:#474747"/>
						</linearGradient>
						<ellipse class="st93" cx="55.5" cy="66.2" rx="0.3" ry="0.8"/>
					</g>
				</g>
			</g>
			<g>
				
					<linearGradient id="SVGID_77_" gradientUnits="userSpaceOnUse" x1="813.5538" y1="75.7256" x2="813.5538" y2="62.3686" gradientTransform="matrix(1 0 -0.1209 1 -748.1873 0)">
					<stop  offset="0" style="stop-color:#000000"/>
					<stop  offset="1" style="stop-color:#474747"/>
				</linearGradient>
				<path class="st94" d="M59.1,60.8c0,0,0.5-4.1,0.5-4.4c0-0.3,1.3-1.1,1.3-1.1s-0.2,0-0.7,0c-0.7,0-1.2,0.4-1.3,1.1
					c0,0.3-0.5,4.4-0.5,4.4c-0.1,0.4-0.4,0.8-0.9,0.8h-2l-0.1,0.7h2C58.3,62.3,59,61.6,59.1,60.8z"/>
				<path class="st95" d="M60.9,55.3c-0.6,0-1.2,0.5-1.2,1.1l-0.5,4.4c-0.1,0.8-0.8,1.4-1.6,1.4h2.2c0.8,0,1.5-0.6,1.6-1.4l0.5-4.4
					C62,55.8,61.5,55.3,60.9,55.3z"/>
			</g>
		</g>
	</g>
	<g>
		
			<linearGradient id="SVGID_78_" gradientUnits="userSpaceOnUse" x1="526.3278" y1="264.4454" x2="531.0446" y2="256.0047" gradientTransform="matrix(0.9763 0.2162 -0.2162 0.9763 -415.368 -323.4753)">
			<stop  offset="0" style="stop-color:#000000"/>
			<stop  offset="1" style="stop-color:#474747"/>
		</linearGradient>
		<path class="st96" d="M50.7,48c2.6-0.6,0.6-4.6-0.8-4.1c-3.5,1.1-9,0.5-12.1-1.4c-0.9-0.5-2.6,2.8-1.9,3.2
			C39,47.6,45,49.3,50.7,48z"/>
	</g>
</g>
<g>
	<linearGradient id="SVGID_79_" gradientUnits="userSpaceOnUse" x1="29.0659" y1="49.1784" x2="35.2341" y2="49.1784">
		<stop  offset="0" style="stop-color:#000000"/>
		<stop  offset="1" style="stop-color:#474747"/>
	</linearGradient>
	<rect x="22.1" y="48.7" class="st97" width="13.1" height="1"/>
	<linearGradient id="SVGID_80_" gradientUnits="userSpaceOnUse" x1="27.689" y1="49.414" x2="27.689" y2="48.45">
		<stop  offset="0" style="stop-color:#000000"/>
		<stop  offset="1" style="stop-color:#474747"/>
	</linearGradient>
	<path class="st98" d="M35.2,48.7c0,0-11.5,0-13.1,0c-1.6,0-1.9-0.8-1.9-0.8h13.1L35.2,48.7z"/>
	<linearGradient id="SVGID_81_" gradientUnits="userSpaceOnUse" x1="20.1199" y1="48.7814" x2="22.4759" y2="48.7814">
		<stop  offset="0" style="stop-color:#000000"/>
		<stop  offset="1" style="stop-color:#474747"/>
	</linearGradient>
	<path class="st99" d="M22.1,49.7h-1.9c0,0,0-1.2,0-1.8c0.5,0.5,1.9,0.8,1.9,0.8V49.7z"/>
</g>
</svg>
