<?xml version="1.0" encoding="utf-8"?>
<!-- Generator: Adobe Illustrator 19.2.0, SVG Export Plug-In . SVG Version: 6.00 Build 0)  -->
<svg version="1.1" id="圖層_1" xmlns="http://www.w3.org/2000/svg" xmlns:xlink="http://www.w3.org/1999/xlink" x="0px" y="0px"
	 viewBox="0 0 89 78" style="enable-background:new 0 0 89 78;" xml:space="preserve">
<style type="text/css">
	.st0{fill:url(#SVGID_1_);}
	.st1{fill:url(#SVGID_2_);}
	.st2{fill:#BBC5CD;}
	.st3{fill:#595757;}
	.st4{fill:#FFFFFF;}
	.st5{fill:#FF5C00;}
	.st6{fill:url(#SVGID_3_);}
	.st7{fill:#F2F7FA;}
	.st8{fill:url(#SVGID_4_);}
	.st9{fill:url(#SVGID_5_);}
	.st10{fill:url(#SVGID_6_);}
	.st11{fill:url(#SVGID_7_);}
	.st12{fill:url(#SVGID_8_);}
	.st13{fill:url(#SVGID_9_);}
	.st14{fill:url(#SVGID_10_);}
	.st15{fill:url(#SVGID_11_);}
	.st16{fill:url(#SVGID_12_);}
	.st17{fill:#E3A652;}
	.st18{fill:url(#SVGID_13_);}
	.st19{fill:url(#SVGID_14_);}
	.st20{fill:#3B3B3B;}
	.st21{fill:#616161;}
	.st22{fill:#7D7D7D;}
	.st23{fill:url(#SVGID_15_);}
	.st24{fill:#D68C40;}
	.st25{fill:url(#SVGID_16_);}
	.st26{fill:#FFE0B3;}
	.st27{fill:#FFBD65;}
	.st28{fill:url(#SVGID_17_);}
	.st29{fill:#FFC680;}
	.st30{fill:#FFD4AB;}
	.st31{fill:url(#SVGID_18_);}
	.st32{fill:url(#SVGID_19_);}
	.st33{fill:url(#SVGID_20_);}
	.st34{fill:url(#SVGID_21_);}
	.st35{fill:url(#SVGID_22_);}
	.st36{fill:#9E6600;}
	.st37{fill:url(#SVGID_23_);}
	.st38{fill:url(#SVGID_24_);}
	.st39{fill:url(#SVGID_25_);}
	.st40{fill:url(#SVGID_26_);}
	.st41{fill:url(#SVGID_27_);}
	.st42{fill:url(#SVGID_28_);}
	.st43{fill:url(#SVGID_29_);}
	.st44{fill:url(#SVGID_30_);}
	.st45{fill:url(#SVGID_31_);}
	.st46{fill:url(#SVGID_32_);}
	.st47{fill:url(#SVGID_33_);}
	.st48{fill:url(#SVGID_34_);}
	.st49{fill:url(#SVGID_35_);}
	.st50{fill:url(#SVGID_36_);}
	.st51{fill:url(#SVGID_37_);}
	.st52{fill:url(#SVGID_38_);}
	.st53{fill:url(#SVGID_39_);}
	.st54{fill:url(#SVGID_40_);}
	.st55{fill:#4A4A4A;}
	.st56{fill:url(#SVGID_41_);}
	.st57{fill:#1F1F1F;}
	.st58{fill:url(#SVGID_42_);}
	.st59{fill:url(#SVGID_43_);}
</style>
<g>
	<g>
		<linearGradient id="SVGID_1_" gradientUnits="userSpaceOnUse" x1="28.8295" y1="41.3207" x2="34.3176" y2="38.1276">
			<stop  offset="0" style="stop-color:#000000"/>
			<stop  offset="1" style="stop-color:#474747"/>
		</linearGradient>
		<path class="st0" d="M34.3,33.7c-1.1,2.6-3.5,6.2-6,8.5c-2.3,2.1,1.4,3.9,3.6,1.9c2.8-2.6,4.9-6.9,5.5-9
			C37.8,32.9,34.6,32.8,34.3,33.7z"/>
		
			<linearGradient id="SVGID_2_" gradientUnits="userSpaceOnUse" x1="-188.8058" y1="40.1034" x2="-182.9932" y2="49.3142" gradientTransform="matrix(0.9157 -2.420000e-004 -2.420000e-004 1 216.1475 0.6188)">
			<stop  offset="0" style="stop-color:#E7EAEB"/>
			<stop  offset="1" style="stop-color:#CCD3D9"/>
		</linearGradient>
		<path class="st1" d="M50.3,32.6c-1.5,0-5.7,0-5.7,0l-9.6,0c-0.5,8,0.2,15,0.6,15.6c2.1,0.4,15.6,0.4,17.7,0
			C53.8,45.7,51.8,32.6,50.3,32.6z"/>
		<path class="st2" d="M41.1,37c-0.5,0.2-1,0.2-1.6,0c0.4,4.7-0.7,7-1.3,9.9c0.8,0.7,2.4,2.1,2.4,2.1s1.5-1.4,2.3-2.1
			C43.4,43.4,42.8,40.8,41.1,37z"/>
		<path class="st3" d="M45.7,48.2h-4.5c-3.4,0-6.5,0-7.3,0c0,0.2,0,0.4,0,0.6c1.6,0.3,5.2,0.4,7.3,0.4h4.5c2.2,0,5.9-0.2,7.5-0.5
			c0-0.2,0.1-0.4,0.1-0.6C52.1,48.2,49.1,48.2,45.7,48.2z"/>
		<g>
			<path class="st4" d="M41.2,48.2c-1,0-2,0-2.9,0l0,1c1.1,0,2.1,0.1,2.9,0.1l1.5,0l0-1L41.2,48.2z"/>
		</g>
		<path class="st2" d="M43.7,36.6c-2.7,0-4.8-0.9-4.8-0.9l0.7-2.4l7.4,0.2l0.5,2.4C47.5,35.9,46.4,36.6,43.7,36.6z"/>
		<g>
			<g>
				<path class="st2" d="M37.3,35.1l7.4,0l0.4,0.7c0,0-3.3,2.2-3.6,2.3c-0.3,0.1-1,0.1-1.2,0c-0.2-0.2-3.4-2.3-3.4-2.3L37.3,35.1z"
					/>
			</g>
			<g>
				<path class="st2" d="M39.8,32.6l-1.5,0l-3.5,0c-0.1,1.1-0.1,2.1-0.1,3.1c0.8,1,1.7,1.7,3.3,2.8C38.5,36.2,39.8,32.6,39.8,32.6z"
					/>
			</g>
			<g>
				<path class="st5" d="M35.7,34.2l7.4,0l0.4,0.7c0,0-3.3,2.2-3.6,2.3c-0.3,0.1-1,0.1-1.2,0c-0.2-0.2-3.4-2.3-3.4-2.3L35.7,34.2z"
					/>
				<path class="st5" d="M40.2,37c-0.5,0.2-1,0.2-1.6,0c0.4,4.5-0.2,7-1.3,9.6c0.8,0.7,2.4,2,2.4,2s1.5-1.3,2.3-2.1
					C42.1,43.4,41.7,40.7,40.2,37z"/>
			</g>
			
				<linearGradient id="SVGID_3_" gradientUnits="userSpaceOnUse" x1="982.6709" y1="-687.3745" x2="990.9525" y2="-687.3745" gradientTransform="matrix(1.2266 -0.2284 0.1818 0.9833 -1035.4187 934.736)">
				<stop  offset="0" style="stop-color:#E7EAEB"/>
				<stop  offset="1" style="stop-color:#CCD3D9"/>
			</linearGradient>
			<path class="st6" d="M47.8,31.9c0.8-0.2,2.7,1.5,2.7,1.5c-1.1,0.9-4.4,3.1-7.9,3.9c-0.8-1.7-2.7-4.4-2.7-4.4S46.1,32.3,47.8,31.9
				z"/>
			<path class="st7" d="M34.9,32.6c-0.2,0.5-0.4,1.6-0.4,1.6c0.6,0.9,1.6,2,3.2,2.9c0.5-1.7,2.2-4.5,2.2-4.5S35.4,31.4,34.9,32.6z"
				/>
		</g>
		<g>
			
				<linearGradient id="SVGID_4_" gradientUnits="userSpaceOnUse" x1="10.7069" y1="-35.589" x2="10.7069" y2="-47.9009" gradientTransform="matrix(0.9998 1.860000e-002 -1.860000e-002 0.9998 23.8364 78.2611)">
				<stop  offset="0" style="stop-color:#000000"/>
				<stop  offset="1" style="stop-color:#474747"/>
			</linearGradient>
			<path class="st8" d="M35.8,32.7c0,0,2.4,8.7,2.5,10.4c0.1,2.6-0.6,4.6-1,6.3C34.3,48.7,32,50,32,50c1.8-5.6,2.5-9,2.4-16.8
				C34.4,31.8,35.4,31.7,35.8,32.7z"/>
			
				<linearGradient id="SVGID_5_" gradientUnits="userSpaceOnUse" x1="-72.9818" y1="377.5911" x2="-72.9818" y2="370.6276" gradientTransform="matrix(0.9877 0.1562 -0.1562 0.9877 167.2808 -322.7786)">
				<stop  offset="0" style="stop-color:#000000"/>
				<stop  offset="1" style="stop-color:#474747"/>
			</linearGradient>
			<path class="st9" d="M36.5,33c0.2,1.2,2.1,8.4,1.8,10.2c-0.5-0.9-3.7-5.6-3.7-5.6l1.6-0.9l-2.1-0.8c0,0,0.1-3.2,0.4-3.5
				C34.9,32.2,36.3,32,36.5,33z"/>
			
				<linearGradient id="SVGID_6_" gradientUnits="userSpaceOnUse" x1="4095.4683" y1="-119.6246" x2="4094.6011" y2="-124.0628" gradientTransform="matrix(-0.9995 3.070000e-002 3.070000e-002 0.9995 4130.0547 41.6956)">
				<stop  offset="0" style="stop-color:#000000"/>
				<stop  offset="1" style="stop-color:#474747"/>
			</linearGradient>
			<path class="st10" d="M35.5,45.3c0,0.3-0.1,0.7-0.1,0.9c-0.7,0-3.8-0.3-4.2-0.5c0.1-0.3,0.1-0.9,0.1-0.9
				C31.9,44.9,34.8,45.2,35.5,45.3z"/>
		</g>
		<g>
			<g>
				<linearGradient id="SVGID_7_" gradientUnits="userSpaceOnUse" x1="48.3499" y1="48.1159" x2="48.3499" y2="29.08">
					<stop  offset="0" style="stop-color:#000000"/>
					<stop  offset="1" style="stop-color:#474747"/>
				</linearGradient>
				<path class="st11" d="M46.7,32.1c-0.9,1.2-4.4,7.8-4.3,9.3c0.2,2.1,1,7.2,1.3,9.1c6.1,0.1,8.9-0.3,10.6-0.6c-0.9-2-2-5-2.4-9.8
					c-0.2-2.6,0.5-4.7-0.7-5.8C49.9,33,47.6,31,46.7,32.1z"/>
				<linearGradient id="SVGID_8_" gradientUnits="userSpaceOnUse" x1="52.822" y1="45.3687" x2="52.2276" y2="36.3984">
					<stop  offset="0" style="stop-color:#000000"/>
					<stop  offset="1" style="stop-color:#474747"/>
				</linearGradient>
				<path class="st12" d="M51.2,34.3c1.3,1.7,5.3,6.7,5.4,8.9c0.1,2.2-3.8,4.1-4.7,1.5c-0.9-2.6-3.3-7.9-3.6-8.8
					C47.7,34,49.7,32.2,51.2,34.3z"/>
				
					<linearGradient id="SVGID_9_" gradientUnits="userSpaceOnUse" x1="-14.0955" y1="1188.8099" x2="-14.0955" y2="1182.2687" gradientTransform="matrix(0.9306 0.366 -0.366 0.9306 493.8175 -1063.2595)">
					<stop  offset="0" style="stop-color:#000000"/>
					<stop  offset="1" style="stop-color:#474747"/>
				</linearGradient>
				<path class="st13" d="M46.9,32.1c-1.1,1.1-4,5.1-4.5,9.3c1.5-1.9,4.2-3.6,4.2-3.6l-1.2-1.3L48,37c0,0,1.9-3.6,1.5-3.9
					C49.1,32.8,47.8,31.3,46.9,32.1z"/>
			</g>
			
				<linearGradient id="SVGID_10_" gradientUnits="userSpaceOnUse" x1="-23.6248" y1="502.3479" x2="-24.6452" y2="497.1259" gradientTransform="matrix(0.9892 0.1467 -0.1467 0.9892 144.0691 -446.2117)">
				<stop  offset="0" style="stop-color:#000000"/>
				<stop  offset="1" style="stop-color:#474747"/>
			</linearGradient>
			<path class="st14" d="M44.2,43.9c0,0.3,0,0.7,0.1,0.9c0.8,0.1,4.8,0.3,5.3,0.2c0-0.3,0-0.9,0-0.9C48.7,44.1,45.2,43.9,44.2,43.9z
				"/>
		</g>
		<linearGradient id="SVGID_11_" gradientUnits="userSpaceOnUse" x1="55.1091" y1="46.052" x2="45.8066" y2="38.3099">
			<stop  offset="0" style="stop-color:#000000"/>
			<stop  offset="1" style="stop-color:#474747"/>
		</linearGradient>
		<path class="st15" d="M47.4,37.8c1.8,0.9,8.9,3.9,9.3,5.3c0.4,1.3-0.5,4.3-3.1,3.3c-2-0.8-7.4-3.8-8.8-4.6
			C43.3,40.9,45.3,36.8,47.4,37.8z"/>
		<g>
			<linearGradient id="SVGID_12_" gradientUnits="userSpaceOnUse" x1="42.3592" y1="36.9493" x2="43.5803" y2="41.1155">
				<stop  offset="0" style="stop-color:#FFE0B3"/>
				<stop  offset="1" style="stop-color:#FFBD6D"/>
			</linearGradient>
			<path class="st16" d="M45.6,36.8c-1.5-0.8-3.6-0.9-4.9,0.2c-0.8,0.7-2.9,3.2-1.9,3.9c1.1,0.8,2-0.4,2.8-0.8
				c0.2,0.8,1.3,0.8,1.8,0.5c0,0.6,1.6,1.2,1.9,0.4c0.2,0.7,1.7,0.9,2.2-0.1C48.5,39.1,46.9,37.4,45.6,36.8z"/>
			<g>
				<path class="st17" d="M38.9,40.9c1.1,0.8,2-0.4,2.8-0.8c0.2,0.8,1.3,0.8,1.8,0.5c0,0.6,1.6,1.2,1.9,0.4c0.2,0.7,1.7,0.9,2.2-0.1
					c0.2-0.3,0.3-0.6,0.3-0.9c-0.1-0.1-0.2-0.2-0.4-0.2c0.2,0.3,0,0.7-0.1,0.9c-0.2,0.3-0.8,0.5-1.2,0.4c-0.5-0.1-0.8-0.3-0.6-0.6
					c0.1-0.4,0.4-0.7,0.6-1.2c-0.8,0.9-1.1,1.5-1.9,1.4c-0.5-0.1-0.7-0.4-0.7-0.6c0-0.4,0.4-1.1,0.7-1.6c-0.4,0.2-0.8,1.4-1.4,1.5
					c-0.4,0.1-1,0-1.1-0.3c-0.1-0.4,0.3-1.2,0.8-1.9c-1.4,0.9-2,2.5-2.5,2.8c-0.5,0.3-1.4,0.1-1.5-0.2l0,0
					C38.6,40.6,38.7,40.8,38.9,40.9z"/>
			</g>
		</g>
		<g>
			<g>
				<linearGradient id="SVGID_13_" gradientUnits="userSpaceOnUse" x1="35.1003" y1="48.2825" x2="33.8906" y2="38.0265">
					<stop  offset="0" style="stop-color:#757575"/>
					<stop  offset="1" style="stop-color:#FFFFFF"/>
				</linearGradient>
				<path class="st18" d="M23.4,38.9c0.6,0,11.9-0.1,12.7,0c0.8,0.1,8.6,5.8,9.2,6.1c0.6,0.3,0.5,0.9,0.1,1
					c-0.4,0.1-12.2-0.1-12.9-0.2c-0.7-0.1-8.3-5.4-8.9-5.9C23,39.5,23,38.9,23.4,38.9z"/>
				<linearGradient id="SVGID_14_" gradientUnits="userSpaceOnUse" x1="35.1991" y1="49.7423" x2="33.8991" y2="37.6962">
					<stop  offset="0" style="stop-color:#000000"/>
					<stop  offset="1" style="stop-color:#6F6F6F"/>
				</linearGradient>
				<path class="st19" d="M45.3,45c-0.6-0.3-8.3-6-9.2-6.1c-0.8-0.1-12.1,0-12.7,0c-0.2,0-0.3,0.2-0.3,0.4c1.5,0,12.3-0.1,12.8,0
					c0.5,0.1,8.4,5.5,9.7,6.4C45.8,45.6,45.7,45.2,45.3,45z"/>
				<path class="st20" d="M34.8,43.1c0.4,0.2,0.3,0.4-0.3,0.4c-0.5,0-1.3-0.2-1.7-0.4c-0.4-0.2-0.3-0.4,0.3-0.4
					C33.7,42.7,34.5,42.9,34.8,43.1z"/>
				<path class="st21" d="M33.1,40.1c0.2,0.1,0.1,0.2-0.1,0.2s-0.6-0.1-0.8-0.2C32,40,32,39.9,32.3,39.9
					C32.5,39.9,32.9,40,33.1,40.1z"/>
				<path class="st22" d="M29.2,40c0.1,0.1,0.1,0.1-0.1,0.1c-0.1,0-0.4,0-0.5-0.1c-0.1-0.1-0.1-0.1,0.1-0.1S29.1,40,29.2,40z"/>
			</g>
			<g>
				<linearGradient id="SVGID_15_" gradientUnits="userSpaceOnUse" x1="26.886" y1="41.4909" x2="29.5308" y2="44.8682">
					<stop  offset="0" style="stop-color:#FFE0B3"/>
					<stop  offset="1" style="stop-color:#FFBD6D"/>
				</linearGradient>
				<path class="st23" d="M26.6,45.4c-0.8-0.7-1.1-2-1-3.9c0.8,0.5,1.7,1.3,2.6,1.3c0.9,0,1.7,0,2.4,0c0.7,0,1.6,0.8,0.8,1.2
					c0.7-0.3,1.2,0.4,0.9,1.1c0.4,0.1,0.5,0.6,0,1c-0.3,0.2-0.7,0.4-2.2,0.4S27.5,46.2,26.6,45.4z"/>
				<g>
					<path class="st24" d="M31.5,45c-0.4,0.1-1.6,0.2-2.5,0.2c1,0.1,2.7,0.2,3.3-0.1c0.2-0.3,0.2-0.7,0-0.9c0,0,0,0.1,0,0.1
						C32.4,44.5,32.1,44.9,31.5,45z"/>
					<path class="st24" d="M32.3,46.1c0.3-0.3,0.4-0.6,0.2-0.8l0,0c0.1,0.3-0.3,0.7-0.9,0.9c-0.5,0.2-1.9,0.3-3.2,0.2
						c0.5,0.1,1.1,0.1,1.7,0.1C31.5,46.4,32,46.3,32.3,46.1z"/>
					<path class="st24" d="M31.3,43.5c-0.2,0.4-1.4,0.5-2.9,0.5c1.2,0.2,2.6,0,3.1-0.1c0.8-0.5-0.1-1.2-0.8-1.2c-0.1,0-0.2,0-0.3,0
						l0,0C30.6,42.7,31.5,43.1,31.3,43.5z"/>
				</g>
			</g>
		</g>
		
			<linearGradient id="SVGID_16_" gradientUnits="userSpaceOnUse" x1="-12.153" y1="185.1376" x2="-12.153" y2="192.0453" gradientTransform="matrix(0.9996 2.899800e-002 -3.474100e-002 1.1974 61.8429 -171.3476)">
			<stop  offset="0" style="stop-color:#000000"/>
			<stop  offset="1" style="stop-color:#474747"/>
		</linearGradient>
		<path class="st25" d="M34,48.7c0,1.2,0.1,3.5,2.4,3.9c2.3,0.4,11.4,0.6,13.2,0.4c1.8-0.2,2.8-1.7,3-3.7C50,49.2,36,48.8,34,48.7z"
			/>
	</g>
	<g>
		<g>
			<g>
				<g>
					<g>
						<g>
							<path class="st26" d="M33.4,17.7l-1.3,7c-1.8-0.1-4.6-1-3.9-4.4C28.8,17,31.7,17,33.4,17.7z"/>
						</g>
						<path class="st27" d="M33,19.7c-0.6-0.6-2.6-0.9-2.9,1c-0.4,2,1.6,2.2,2.3,2.1C32.6,22.1,33,19.7,33,19.7z"/>
					</g>
					
						<linearGradient id="SVGID_17_" gradientUnits="userSpaceOnUse" x1="1683.6467" y1="2947.7446" x2="1683.6467" y2="2953.8101" gradientTransform="matrix(0.8877 0.1663 -0.1841 0.9828 -911.6031 -3149.0432)">
						<stop  offset="0" style="stop-color:#FFE0B3"/>
						<stop  offset="1" style="stop-color:#FFCF95"/>
					</linearGradient>
					<path class="st28" d="M52.1,23.1c0.7-3.8,1-9.2-0.5-9.8c-1.5-0.6-4.8-1.7-8.1-2.4c-3.3-0.6-5.6-0.8-7.2-0.8
						c-2.9-0.1-4.5,5.3-5.2,9c-1.4,6.9-0.8,13.1,4.8,14.6c4.2,1.1,9.3,1,11.9-0.9C50,31.1,51.3,27.2,52.1,23.1z"/>
					<g>
						<path class="st29" d="M37.5,23.8c-1.3-0.5-2.4-0.2-2.9,0.6c-0.4,0.8,0.6,1.4,1.7,1.7C34.4,25.2,36,23.4,37.5,23.8z"/>
					</g>
					
						<ellipse transform="matrix(0.1841 -0.9829 0.9829 0.1841 11.5722 65.6508)" class="st30" cx="45.3" cy="25.9" rx="1.2" ry="2.2"/>
					<g>
						<g>
							<path class="st26" d="M51.1,21.1l-1.8,7.1c2.8,1.1,6.4,0.8,7-2.6C57,22.3,54.6,20.8,51.1,21.1z"/>
						</g>
						<path class="st27" d="M51.3,22.8c0.8-0.3,3.5,0.5,3.1,2.4c-0.4,2-3.4,1.5-4,1.1C51.1,25.2,51.3,22.8,51.3,22.8z"/>
					</g>
				</g>
				
					<linearGradient id="SVGID_18_" gradientUnits="userSpaceOnUse" x1="995.5694" y1="2738.7791" x2="1021.9392" y2="2738.7791" gradientTransform="matrix(0.9826 -0.1857 0.1857 0.9826 -1456.6882 -2490.9819)">
					<stop  offset="0" style="stop-color:#664000"/>
					<stop  offset="1" style="stop-color:#6B4000"/>
				</linearGradient>
				<path class="st31" d="M53.7,8.9c-3.6-2.5-7.4-3.1-8.7-4.2c-1.2-1.1-4.7-3-4.7-3s0.7,1.7,0.5,3.4c-0.7-1.7-3.4-3.7-3.4-3.7
					l0.1,3.7c0,0-1.4-2.8-3.5-3.5c0.5,2.6,0,6.2-1.1,8.3c-2,3.8-2.6,7.9-1.7,9.2c0.4-2.2,1.4-5.5,3.2-7.9c0.8,0,2.9,0.5,5.5,0.8
					c4.3,0.5,9.9,1.4,10.7,3.2c0.9,1.8-0.7,5.8-1.7,8.5c-0.3,0.9,1.5,0.9,1.8,0.5c0.3-0.4,0.3-4.9,4.8-2.3
					C57.9,15.6,57,11.3,53.7,8.9z"/>
			</g>
			<g>
				
					<linearGradient id="SVGID_19_" gradientUnits="userSpaceOnUse" x1="-196.1851" y1="475.596" x2="-196.1851" y2="471.6418" gradientTransform="matrix(0.9814 0.1918 -0.1918 0.9814 317.4345 -406.683)">
					<stop  offset="0" style="stop-color:#FFE0B3"/>
					<stop  offset="1" style="stop-color:#FFBD6D"/>
				</linearGradient>
				<path class="st32" d="M33.6,22.6c-1.2-0.2-2-1.4-1.8-2.6c0.2-1.2,1.4-2,2.6-1.8c1.2,0.2,2,1.4,1.8,2.6
					C36,22.1,34.8,22.9,33.6,22.6L33.6,22.6z"/>
				
					<linearGradient id="SVGID_20_" gradientUnits="userSpaceOnUse" x1="-188.9633" y1="475.7909" x2="-188.9633" y2="471.3051" gradientTransform="matrix(0.9814 0.1918 -0.1918 0.9814 317.4345 -406.683)">
					<stop  offset="0" style="stop-color:#FFE0B3"/>
					<stop  offset="1" style="stop-color:#FFBD6D"/>
				</linearGradient>
				<path class="st33" d="M40.7,24.3c-1.4-0.3-2.3-1.6-2-3c0.3-1.4,1.6-2.3,3-2c1.4,0.3,2.3,1.6,2,3C43.4,23.7,42,24.6,40.7,24.3
					L40.7,24.3z"/>
				<ellipse transform="matrix(0.1918 -0.9814 0.9814 0.1918 7.4573 49.9681)" class="st4" cx="34.1" cy="20.5" rx="2" ry="2"/>
				
					<linearGradient id="SVGID_21_" gradientUnits="userSpaceOnUse" x1="-195.9317" y1="472.4468" x2="-195.9317" y2="474.588" gradientTransform="matrix(0.9814 0.1918 -0.1918 0.9814 317.4345 -406.683)">
					<stop  offset="0" style="stop-color:#664000"/>
					<stop  offset="1" style="stop-color:#6B4000"/>
				</linearGradient>
				<path class="st34" d="M34.1,21.5c-0.7-0.1-1.1-0.8-0.9-1.4c0.1-0.7,0.8-1.1,1.4-0.9c0.7,0.1,1.1,0.8,0.9,1.4
					C35.4,21.2,34.8,21.6,34.1,21.5L34.1,21.5z"/>
				<ellipse transform="matrix(0.1916 -0.9815 0.9815 0.1916 8.8023 50.0748)" class="st4" cx="34.8" cy="19.7" rx="0.3" ry="0.3"/>
				
					<ellipse transform="matrix(0.1917 -0.9814 0.9814 0.1917 11.8401 58.0375)" class="st4" cx="41.2" cy="21.8" rx="2.3" ry="2.3"/>
				
					<linearGradient id="SVGID_22_" gradientUnits="userSpaceOnUse" x1="-188.631" y1="472.3138" x2="-188.631" y2="474.5005" gradientTransform="matrix(0.9814 0.1918 -0.1918 0.9814 317.4345 -406.683)">
					<stop  offset="0" style="stop-color:#664000"/>
					<stop  offset="1" style="stop-color:#6B4000"/>
				</linearGradient>
				<path class="st35" d="M41.3,23c-0.7-0.1-1.2-0.9-1.1-1.6c0.1-0.7,0.9-1.2,1.6-1.1c0.7,0.1,1.2,0.9,1.1,1.6
					C42.7,22.7,42,23.2,41.3,23L41.3,23z"/>
				<ellipse transform="matrix(0.1916 -0.9815 0.9815 0.1916 13.4504 58.1415)" class="st4" cx="42" cy="20.9" rx="0.3" ry="0.3"/>
			</g>
			<path class="st36" d="M35.8,15.3c-0.1,0-0.2-0.1-0.3-0.2c-0.2-0.3-0.6-0.5-1-0.5c-0.3,0-0.6,0.1-0.7,0.3
				c-0.1,0.1-0.3,0.2-0.4,0.1c-0.1-0.1-0.2-0.3-0.1-0.4c0.2-0.4,0.7-0.6,1.2-0.6c0.6,0,1.2,0.3,1.5,0.8c0.1,0.1,0,0.3-0.1,0.4
				C35.8,15.3,35.8,15.3,35.8,15.3z"/>
			<path class="st36" d="M43.5,16.7c-0.1,0-0.2-0.1-0.3-0.2c-0.1-0.3-0.6-0.5-1.2-0.7c-0.7-0.2-1.4-0.2-1.8,0.1
				c-0.1,0.1-0.3,0-0.4-0.1c-0.1-0.1,0-0.3,0.1-0.4c0.6-0.4,1.6-0.3,2.3-0.1c0.8,0.2,1.3,0.6,1.5,1c0.1,0.1,0,0.3-0.1,0.4
				C43.6,16.7,43.6,16.7,43.5,16.7z"/>
		</g>
		<g>
			
				<linearGradient id="SVGID_23_" gradientUnits="userSpaceOnUse" x1="238.9143" y1="634.8088" x2="238.9143" y2="631.723" gradientTransform="matrix(1.1375 0.3187 -0.1075 0.9967 -164.6666 -677.5631)">
				<stop  offset="0" style="stop-color:#FFA78C"/>
				<stop  offset="1" style="stop-color:#ED7A57"/>
			</linearGradient>
			<path class="st37" d="M35.1,26.6c0,0,6.6,1.6,8.3,1.5c-1.4,2.4-4.3,3.3-6.4,2.8C35,30.3,35.2,27.8,35.1,26.6z"/>
			<g>
				
					<linearGradient id="SVGID_24_" gradientUnits="userSpaceOnUse" x1="238.8738" y1="629.3514" x2="238.9938" y2="632.5319" gradientTransform="matrix(1.1375 0.3187 -0.1075 0.9967 -164.6666 -677.5631)">
					<stop  offset="0" style="stop-color:#FFA78C"/>
					<stop  offset="1" style="stop-color:#ED7A57"/>
				</linearGradient>
				<path class="st38" d="M41.4,30.1c-2.9-1.1-4.3-0.4-4.6,0.7c0.1,0,0.2,0.1,0.3,0.1C38.4,31.2,40,30.9,41.4,30.1z"/>
				<path class="st4" d="M37.9,28.4c1.6,0.5,3.4,0.8,4.5,1c0.4-0.4,0.7-0.8,1-1.3c-1.4,0.1-5.9-0.9-7.6-1.3
					C35.8,27.3,36.1,27.8,37.9,28.4z"/>
			</g>
		</g>
	</g>
	<g>
		<linearGradient id="SVGID_25_" gradientUnits="userSpaceOnUse" x1="23.7037" y1="63.1454" x2="23.7037" y2="70.5159">
			<stop  offset="0" style="stop-color:#EDF8FB"/>
			<stop  offset="1" style="stop-color:#ABDEF6"/>
		</linearGradient>
		<circle class="st39" cx="23.7" cy="63.4" r="7.2"/>
		<linearGradient id="SVGID_26_" gradientUnits="userSpaceOnUse" x1="25.8587" y1="62.0795" x2="25.8587" y2="67.2414">
			<stop  offset="0" style="stop-color:#EDF8FB"/>
			<stop  offset="1" style="stop-color:#ABDEF6"/>
		</linearGradient>
		<circle class="st40" cx="25.9" cy="62.3" r="5"/>
		<linearGradient id="SVGID_27_" gradientUnits="userSpaceOnUse" x1="40.1693" y1="68.4507" x2="40.1693" y2="76.8565">
			<stop  offset="0" style="stop-color:#EDF8FB"/>
			<stop  offset="1" style="stop-color:#ABDEF6"/>
		</linearGradient>
		<circle class="st41" cx="40.2" cy="68.7" r="8.2"/>
		<linearGradient id="SVGID_28_" gradientUnits="userSpaceOnUse" x1="51.9505" y1="68.4411" x2="52.0473" y2="74.8287">
			<stop  offset="0" style="stop-color:#EDF8FB"/>
			<stop  offset="1" style="stop-color:#ABDEF6"/>
		</linearGradient>
		<circle class="st42" cx="52" cy="70.1" r="7.5"/>
		<linearGradient id="SVGID_29_" gradientUnits="userSpaceOnUse" x1="41.3407" y1="67.5499" x2="41.3407" y2="74.4379">
			<stop  offset="0" style="stop-color:#EDF8FB"/>
			<stop  offset="1" style="stop-color:#A8E1F3"/>
		</linearGradient>
		<circle class="st43" cx="41.3" cy="67.8" r="6.7"/>
		<linearGradient id="SVGID_30_" gradientUnits="userSpaceOnUse" x1="30.2025" y1="67.5781" x2="30.2025" y2="73.6609">
			<stop  offset="0" style="stop-color:#EDF8FB"/>
			<stop  offset="1" style="stop-color:#ABDEF6"/>
		</linearGradient>
		<circle class="st44" cx="30.2" cy="67.8" r="5.9"/>
		
			<linearGradient id="SVGID_31_" gradientUnits="userSpaceOnUse" x1="33.2773" y1="63.4839" x2="33.2773" y2="69.5665" gradientTransform="matrix(1 -3.000000e-004 3.000000e-004 1 -0.1241 1.5703)">
			<stop  offset="0" style="stop-color:#EDF8FB"/>
			<stop  offset="1" style="stop-color:#ABDEF6"/>
		</linearGradient>
		<circle class="st45" cx="33.2" cy="65.3" r="5.9"/>
		<linearGradient id="SVGID_32_" gradientUnits="userSpaceOnUse" x1="31.3184" y1="58.2123" x2="31.3184" y2="64.2951">
			<stop  offset="0" style="stop-color:#EDF8FB"/>
			<stop  offset="1" style="stop-color:#ABDEF6"/>
		</linearGradient>
		<circle class="st46" cx="31.3" cy="58.4" r="5.9"/>
		<linearGradient id="SVGID_33_" gradientUnits="userSpaceOnUse" x1="41.0287" y1="59.2299" x2="41.0287" y2="67.9801">
			<stop  offset="0" style="stop-color:#EDF8FB"/>
			<stop  offset="1" style="stop-color:#ABDEF6"/>
		</linearGradient>
		<ellipse class="st47" cx="41" cy="59.5" rx="10.9" ry="8.5"/>
		<linearGradient id="SVGID_34_" gradientUnits="userSpaceOnUse" x1="55.9229" y1="58.4332" x2="55.9229" y2="66.3332">
			<stop  offset="0" style="stop-color:#EDF8FB"/>
			<stop  offset="1" style="stop-color:#ABDEF6"/>
		</linearGradient>
		<circle class="st48" cx="55.9" cy="58.7" r="7.7"/>
		<linearGradient id="SVGID_35_" gradientUnits="userSpaceOnUse" x1="49.059" y1="64.0932" x2="49.059" y2="71.0363">
			<stop  offset="0" style="stop-color:#EDF8FB"/>
			<stop  offset="1" style="stop-color:#ABDEF6"/>
		</linearGradient>
		<circle class="st49" cx="49.1" cy="64.3" r="6.7"/>
		<linearGradient id="SVGID_36_" gradientUnits="userSpaceOnUse" x1="60.343" y1="66.1281" x2="60.343" y2="73.4985">
			<stop  offset="0" style="stop-color:#EDF8FB"/>
			<stop  offset="1" style="stop-color:#ABDEF6"/>
		</linearGradient>
		<circle class="st50" cx="60.3" cy="66.4" r="7.2"/>
		<linearGradient id="SVGID_37_" gradientUnits="userSpaceOnUse" x1="68.598" y1="63.1454" x2="68.598" y2="70.5159">
			<stop  offset="0" style="stop-color:#EDF8FB"/>
			<stop  offset="1" style="stop-color:#ABDEF6"/>
		</linearGradient>
		<circle class="st51" cx="68.6" cy="63.4" r="7.2"/>
		<linearGradient id="SVGID_38_" gradientUnits="userSpaceOnUse" x1="64.2483" y1="57.4062" x2="64.2483" y2="62.6202">
			<stop  offset="0" style="stop-color:#EDF8FB"/>
			<stop  offset="1" style="stop-color:#ABDEF6"/>
		</linearGradient>
		<circle class="st52" cx="64.2" cy="57.6" r="5.1"/>
		<linearGradient id="SVGID_39_" gradientUnits="userSpaceOnUse" x1="56.8862" y1="61.62" x2="56.8862" y2="69.0732">
			<stop  offset="0" style="stop-color:#EDF8FB"/>
			<stop  offset="1" style="stop-color:#ABDEF6"/>
		</linearGradient>
		<ellipse class="st53" cx="56.9" cy="61.9" rx="7.1" ry="7.2"/>
	</g>
	<linearGradient id="SVGID_40_" gradientUnits="userSpaceOnUse" x1="39.89" y1="64.9875" x2="40.0218" y2="57.0777">
		<stop  offset="0" style="stop-color:#EDF8FB"/>
		<stop  offset="1" style="stop-color:#ABDEF6"/>
	</linearGradient>
	<path class="st54" d="M32.7,52.3c-3.3,1.7-3.6,4.4-3.4,6.8c0.1,2.4,1.3,3.6,2.4,3.5c1.4-0.1,0.9-2.2,1-4c0.1-1.8,1.5-3.7,3.1-4.1
		c1.6-0.4,4,0.2,4,0.2s-1.7,2.7-1.7,4.9c-0.1,2.4,1,3.6,1.9,3.9c1.1,0.3,1.6-1.5,1.8-3.6c0.3-2.1,1.6-4.2,4.1-5.2
		c2.4-1.1,4-1.4,4.9-1.8C47,52.1,37.1,50.1,32.7,52.3z"/>
	<g>
		<path class="st55" d="M29.2,54.8c-0.5,0.3-1.7,0.1-2.2-0.1c-0.5-0.1-1.9-0.8-2.6-1.2c-0.7-0.4-1.3,0.2-1,0.7
			c0.3,0.5,1.4,1.1,2.4,1.6c0.8,0.3,2.3,0.8,2.6,0.9c-0.1,0.2-0.2,0.4-0.2,0.4s2.3,1.2,2.6,0.7c0.2-0.4,0.6-2.4,0.6-2.4L29.2,54.8z"
			/>
		
			<linearGradient id="SVGID_41_" gradientUnits="userSpaceOnUse" x1="-6906.2661" y1="494.2315" x2="-6906.2661" y2="499.7907" gradientTransform="matrix(0.8806 0.4739 -0.4739 0.8806 6353.3857 2886.0198)">
			<stop  offset="0" style="stop-color:#000000"/>
			<stop  offset="1" style="stop-color:#474747"/>
		</linearGradient>
		<path class="st56" d="M40.4,50.7C34,47,29.5,50.9,28.4,53.5c1,0.7,3.9,2.1,3.9,2.1c1.1-2.7,3-4.1,6.4-3.1
			C42,53.6,42.7,51.7,40.4,50.7z"/>
		<polygon class="st57" points="28.4,52.6 27.9,54.3 32.4,56.5 33,55.3 		"/>
	</g>
	<g>
		<path class="st55" d="M37.6,56.3c-0.5,0.3-1.7,0.1-2.2-0.1c-0.5-0.1-1.9-0.8-2.6-1.2c-0.7-0.4-1.3,0.2-1,0.7
			c0.3,0.5,1.4,1.1,2.4,1.6c0.8,0.3,2.3,0.8,2.6,0.9c-0.1,0.2-0.2,0.4-0.2,0.4s2.3,1.2,2.6,0.7c0.2-0.4,0.6-2.4,0.6-2.4L37.6,56.3z"
			/>
		
			<linearGradient id="SVGID_42_" gradientUnits="userSpaceOnUse" x1="-6898.9023" y1="491.0466" x2="-6898.9023" y2="496.9776" gradientTransform="matrix(0.8806 0.4739 -0.4739 0.8806 6353.3857 2886.0198)">
			<stop  offset="0" style="stop-color:#000000"/>
			<stop  offset="1" style="stop-color:#474747"/>
		</linearGradient>
		<path class="st58" d="M48,51.2c-6.4-3.7-10.2,1.2-11.3,3.8c1,0.7,3.9,2.1,3.9,2.1c1.1-2.7,2.6-3.6,4.1-3.1
			C48,54.9,50.5,52.9,48,51.2z"/>
		<polygon class="st57" points="36.7,54.1 36.2,55.8 40.7,58.1 41.3,56.8 		"/>
	</g>
	<linearGradient id="SVGID_43_" gradientUnits="userSpaceOnUse" x1="49.239" y1="60.8311" x2="49.239" y2="68.2016">
		<stop  offset="0" style="stop-color:#EDF8FB"/>
		<stop  offset="1" style="stop-color:#ABDEF6"/>
	</linearGradient>
	<circle class="st59" cx="49.2" cy="58.7" r="7.2"/>
</g>
</svg>
